  0
SECTION
  2
HEADER
  9
$ACADVER
  1
AC1014
  9
$HANDSEED
  5
FFFF
  9
$MEASUREMENT
 70
     1
  0
ENDSEC
  0
SECTION
  2
TABLES
  0
TABLE
  2
VPORT
  5
8
330
0
100
AcDbSymbolTable
 70
     4
  0
VPORT
  5
2E
330
8
100
AcDbSymbolTableRecord
100
AcDbViewportTableRecord
  2
*ACTIVE
 70
     0
 10
0.0
 20
0.0
 11
1.0
 21
1.0
 12
210.0
 22
148.5
 13
0.0
 23
0.0
 14
10.0
 24
10.0
 15
10.0
 25
10.0
 16
0.0
 26
0.0
 36
1.0
 17
0.0
 27
0.0
 37
0.0
 40
341.0
 41
1.24
 42
50.0
 43
0.0
 44
0.0
 50
0.0
 51
0.0
 71
     0
 72
   100
 73
     1
 74
     3
 75
     0
 76
     0
 77
     0
 78
     0
  0
ENDTAB
  0
TABLE
  2
LTYPE
  5
5
330
0
100
AcDbSymbolTable
 70
     1
  0
LTYPE
  5
14
330
5
100
AcDbSymbolTableRecord
100
AcDbLinetypeTableRecord
  2
BYBLOCK
 70
     0
  3

 72
    65
 73
     0
 40
0.0
  0
LTYPE
  5
15
330
5
100
AcDbSymbolTableRecord
100
AcDbLinetypeTableRecord
  2
BYLAYER
 70
     0
  3

 72
    65
 73
     0
 40
0.0
  0
LTYPE
  5
16
330
5
100
AcDbSymbolTableRecord
100
AcDbLinetypeTableRecord
  2
CONTINUOUS
 70
     0
  3
Solid line
 72
    65
 73
     0
 40
0.0
  0
ENDTAB
  0
TABLE
  2
LAYER
  5
2
100
AcDbSymbolTable
 70
1
  0
LAYER
  5
50
100
AcDbSymbolTableRecord
100
AcDbLayerTableRecord
  2
0
 70
0
  6
CONTINUOUS
  0
ENDTAB
  0
TABLE
  2
STYLE
  5
3
330
0
100
AcDbSymbolTable
 70
     1
  0
STYLE
  5
11
330
3
100
AcDbSymbolTableRecord
100
AcDbTextStyleTableRecord
  2
STANDARD
 70
     0
 40
0.0
 41
1.0
 50
0.0
 71
     0
 42
2.5
  3
txt
  4

  0
ENDTAB
  0
TABLE
  2
VIEW
  5
6
330
0
100
AcDbSymbolTable
 70
     0
  0
ENDTAB
  0
TABLE
  2
UCS
  5
7
330
0
100
AcDbSymbolTable
 70
     0
  0
ENDTAB
  0
TABLE
  2
APPID
  5
9
330
0
100
AcDbSymbolTable
 70
     2
  0
APPID
  5
12
330
9
100
AcDbSymbolTableRecord
100
AcDbRegAppTableRecord
  2
ACAD
 70
     0
  0
ENDTAB
  0
TABLE
  2
DIMSTYLE
  5
A
330
0
100
AcDbSymbolTable
 70
     1
  0
DIMSTYLE
105
27
330
A
100
AcDbSymbolTableRecord
100
AcDbDimStyleTableRecord
  2
ISO-25
 70
     0
  3

  4

  5

  6

  7

 40
1.0
 41
2.5
 42
0.625
 43
3.75
 44
1.25
 45
0.0
 46
0.0
 47
0.0
 48
0.0
140
2.5
141
2.5
142
0.0
143
0.03937007874016
144
1.0
145
0.0
146
1.0
147
0.625
 71
     0
 72
     0
 73
     0
 74
     0
 75
     0
 76
     0
 77
     1
 78
     8
170
     0
171
     3
172
     1
173
     0
174
     0
175
     0
176
     0
177
     0
178
     0
270
     2
271
     2
272
     2
273
     2
274
     3
340
11
275
     0
280
     0
281
     0
282
     0
283
     0
284
     8
285
     0
286
     0
287
     3
288
     0
  0
ENDTAB
  0
TABLE
  2
BLOCK_RECORD
  5
1
330
0
100
AcDbSymbolTable
 70
     1
  0
BLOCK_RECORD
  5
1F
330
1
100
AcDbSymbolTableRecord
100
AcDbBlockTableRecord
  2
*MODEL_SPACE
  0
BLOCK_RECORD
  5
1B
330
1
100
AcDbSymbolTableRecord
100
AcDbBlockTableRecord
  2
*PAPER_SPACE
  0
ENDTAB
  0
ENDSEC
  0
SECTION
  2
BLOCKS
  0
BLOCK
  5
20
330
1F
100
AcDbEntity
  8
0
100
AcDbBlockBegin
  2
*MODEL_SPACE
 70
     0
 10
0.0
 20
0.0
 30
0.0
  3
*MODEL_SPACE
  1

  0
ENDBLK
  5
21
330
1F
100
AcDbEntity
  8
0
100
AcDbBlockEnd
  0
BLOCK
  5
1C
330
1B
100
AcDbEntity
 67
     1
  8
0
100
AcDbBlockBegin
  2
*PAPER_SPACE
  1

  0
ENDBLK
  5
1D
330
1B
100
AcDbEntity
 67
     1
  8
0
100
AcDbBlockEnd
  0
ENDSEC
  0
SECTION
  2
ENTITIES
  0
LWPOLYLINE
  5
100
100
AcDbEntity
  8
0
 62
7
100
AcDbPolyline
 90
2
 70
0
 10
26.492000
 20
164.207750
 30
0.0
 10
26.528000
 20
164.506850
 30
0.0
  0
LWPOLYLINE
  5
101
100
AcDbEntity
  8
0
 62
7
100
AcDbPolyline
 90
2
 70
0
 10
26.385000
 20
163.925950
 30
0.0
 10
26.492000
 20
164.207750
 30
0.0
  0
LWPOLYLINE
  5
102
100
AcDbEntity
  8
0
 62
7
100
AcDbPolyline
 90
2
 70
0
 10
26.214000
 20
163.677950
 30
0.0
 10
26.385000
 20
163.925950
 30
0.0
  0
LWPOLYLINE
  5
103
100
AcDbEntity
  8
0
 62
7
100
AcDbPolyline
 90
2
 70
0
 10
25.988000
 20
163.478150
 30
0.0
 10
26.214000
 20
163.677950
 30
0.0
  0
LWPOLYLINE
  5
104
100
AcDbEntity
  8
0
 62
7
100
AcDbPolyline
 90
2
 70
0
 10
25.721000
 20
163.338050
 30
0.0
 10
25.988000
 20
163.478150
 30
0.0
  0
LWPOLYLINE
  5
105
100
AcDbEntity
  8
0
 62
7
100
AcDbPolyline
 90
2
 70
0
 10
25.429000
 20
163.265950
 30
0.0
 10
25.721000
 20
163.338050
 30
0.0
  0
LWPOLYLINE
  5
106
100
AcDbEntity
  8
0
 62
7
100
AcDbPolyline
 90
2
 70
0
 10
25.127000
 20
163.265950
 30
0.0
 10
25.429000
 20
163.265950
 30
0.0
  0
LWPOLYLINE
  5
107
100
AcDbEntity
  8
0
 62
7
100
AcDbPolyline
 90
2
 70
0
 10
24.835000
 20
163.338050
 30
0.0
 10
25.127000
 20
163.265950
 30
0.0
  0
LWPOLYLINE
  5
108
100
AcDbEntity
  8
0
 62
7
100
AcDbPolyline
 90
2
 70
0
 10
24.568000
 20
163.478150
 30
0.0
 10
24.835000
 20
163.338050
 30
0.0
  0
LWPOLYLINE
  5
109
100
AcDbEntity
  8
0
 62
7
100
AcDbPolyline
 90
2
 70
0
 10
24.342000
 20
163.677950
 30
0.0
 10
24.568000
 20
163.478150
 30
0.0
  0
LWPOLYLINE
  5
10a
100
AcDbEntity
  8
0
 62
7
100
AcDbPolyline
 90
2
 70
0
 10
24.171000
 20
163.925950
 30
0.0
 10
24.342000
 20
163.677950
 30
0.0
  0
LWPOLYLINE
  5
10b
100
AcDbEntity
  8
0
 62
7
100
AcDbPolyline
 90
2
 70
0
 10
24.064000
 20
164.207750
 30
0.0
 10
24.171000
 20
163.925950
 30
0.0
  0
LWPOLYLINE
  5
10c
100
AcDbEntity
  8
0
 62
7
100
AcDbPolyline
 90
2
 70
0
 10
24.028000
 20
164.506850
 30
0.0
 10
24.064000
 20
164.207750
 30
0.0
  0
LWPOLYLINE
  5
10d
100
AcDbEntity
  8
0
 62
7
100
AcDbPolyline
 90
2
 70
0
 10
24.064000
 20
164.805850
 30
0.0
 10
24.028000
 20
164.506850
 30
0.0
  0
LWPOLYLINE
  5
10e
100
AcDbEntity
  8
0
 62
7
100
AcDbPolyline
 90
2
 70
0
 10
24.171000
 20
165.087850
 30
0.0
 10
24.064000
 20
164.805850
 30
0.0
  0
LWPOLYLINE
  5
10f
100
AcDbEntity
  8
0
 62
7
100
AcDbPolyline
 90
2
 70
0
 10
24.342000
 20
165.335850
 30
0.0
 10
24.171000
 20
165.087850
 30
0.0
  0
LWPOLYLINE
  5
110
100
AcDbEntity
  8
0
 62
7
100
AcDbPolyline
 90
2
 70
0
 10
24.568000
 20
165.535850
 30
0.0
 10
24.342000
 20
165.335850
 30
0.0
  0
LWPOLYLINE
  5
111
100
AcDbEntity
  8
0
 62
7
100
AcDbPolyline
 90
2
 70
0
 10
24.835000
 20
165.675850
 30
0.0
 10
24.568000
 20
165.535850
 30
0.0
  0
LWPOLYLINE
  5
112
100
AcDbEntity
  8
0
 62
7
100
AcDbPolyline
 90
2
 70
0
 10
25.127000
 20
165.747850
 30
0.0
 10
24.835000
 20
165.675850
 30
0.0
  0
LWPOLYLINE
  5
113
100
AcDbEntity
  8
0
 62
7
100
AcDbPolyline
 90
2
 70
0
 10
25.429000
 20
165.747850
 30
0.0
 10
25.127000
 20
165.747850
 30
0.0
  0
LWPOLYLINE
  5
114
100
AcDbEntity
  8
0
 62
7
100
AcDbPolyline
 90
2
 70
0
 10
25.721000
 20
165.675850
 30
0.0
 10
25.429000
 20
165.747850
 30
0.0
  0
LWPOLYLINE
  5
115
100
AcDbEntity
  8
0
 62
7
100
AcDbPolyline
 90
2
 70
0
 10
25.988000
 20
165.535850
 30
0.0
 10
25.721000
 20
165.675850
 30
0.0
  0
LWPOLYLINE
  5
116
100
AcDbEntity
  8
0
 62
7
100
AcDbPolyline
 90
2
 70
0
 10
26.214000
 20
165.335850
 30
0.0
 10
25.988000
 20
165.535850
 30
0.0
  0
LWPOLYLINE
  5
117
100
AcDbEntity
  8
0
 62
7
100
AcDbPolyline
 90
2
 70
0
 10
26.385000
 20
165.087850
 30
0.0
 10
26.214000
 20
165.335850
 30
0.0
  0
LWPOLYLINE
  5
118
100
AcDbEntity
  8
0
 62
7
100
AcDbPolyline
 90
2
 70
0
 10
26.492000
 20
164.805850
 30
0.0
 10
26.385000
 20
165.087850
 30
0.0
  0
LWPOLYLINE
  5
119
100
AcDbEntity
  8
0
 62
7
100
AcDbPolyline
 90
2
 70
0
 10
26.528000
 20
164.506850
 30
0.0
 10
26.492000
 20
164.805850
 30
0.0
  0
LWPOLYLINE
  5
11a
100
AcDbEntity
  8
0
 62
7
100
AcDbPolyline
 90
2
 70
0
 10
316.492000
 20
164.207750
 30
0.0
 10
316.528000
 20
164.506850
 30
0.0
  0
LWPOLYLINE
  5
11b
100
AcDbEntity
  8
0
 62
7
100
AcDbPolyline
 90
2
 70
0
 10
316.385000
 20
163.925950
 30
0.0
 10
316.492000
 20
164.207750
 30
0.0
  0
LWPOLYLINE
  5
11c
100
AcDbEntity
  8
0
 62
7
100
AcDbPolyline
 90
2
 70
0
 10
316.214000
 20
163.677950
 30
0.0
 10
316.385000
 20
163.925950
 30
0.0
  0
LWPOLYLINE
  5
11d
100
AcDbEntity
  8
0
 62
7
100
AcDbPolyline
 90
2
 70
0
 10
315.988000
 20
163.478150
 30
0.0
 10
316.214000
 20
163.677950
 30
0.0
  0
LWPOLYLINE
  5
11e
100
AcDbEntity
  8
0
 62
7
100
AcDbPolyline
 90
2
 70
0
 10
315.721000
 20
163.338050
 30
0.0
 10
315.988000
 20
163.478150
 30
0.0
  0
LWPOLYLINE
  5
11f
100
AcDbEntity
  8
0
 62
7
100
AcDbPolyline
 90
2
 70
0
 10
315.429000
 20
163.265950
 30
0.0
 10
315.721000
 20
163.338050
 30
0.0
  0
LWPOLYLINE
  5
120
100
AcDbEntity
  8
0
 62
7
100
AcDbPolyline
 90
2
 70
0
 10
315.127000
 20
163.265950
 30
0.0
 10
315.429000
 20
163.265950
 30
0.0
  0
LWPOLYLINE
  5
121
100
AcDbEntity
  8
0
 62
7
100
AcDbPolyline
 90
2
 70
0
 10
314.835000
 20
163.338050
 30
0.0
 10
315.127000
 20
163.265950
 30
0.0
  0
LWPOLYLINE
  5
122
100
AcDbEntity
  8
0
 62
7
100
AcDbPolyline
 90
2
 70
0
 10
314.568000
 20
163.478150
 30
0.0
 10
314.835000
 20
163.338050
 30
0.0
  0
LWPOLYLINE
  5
123
100
AcDbEntity
  8
0
 62
7
100
AcDbPolyline
 90
2
 70
0
 10
314.342000
 20
163.677950
 30
0.0
 10
314.568000
 20
163.478150
 30
0.0
  0
LWPOLYLINE
  5
124
100
AcDbEntity
  8
0
 62
7
100
AcDbPolyline
 90
2
 70
0
 10
314.171000
 20
163.925950
 30
0.0
 10
314.342000
 20
163.677950
 30
0.0
  0
LWPOLYLINE
  5
125
100
AcDbEntity
  8
0
 62
7
100
AcDbPolyline
 90
2
 70
0
 10
314.064000
 20
164.207750
 30
0.0
 10
314.171000
 20
163.925950
 30
0.0
  0
LWPOLYLINE
  5
126
100
AcDbEntity
  8
0
 62
7
100
AcDbPolyline
 90
2
 70
0
 10
314.028000
 20
164.506850
 30
0.0
 10
314.064000
 20
164.207750
 30
0.0
  0
LWPOLYLINE
  5
127
100
AcDbEntity
  8
0
 62
7
100
AcDbPolyline
 90
2
 70
0
 10
314.064000
 20
164.805850
 30
0.0
 10
314.028000
 20
164.506850
 30
0.0
  0
LWPOLYLINE
  5
128
100
AcDbEntity
  8
0
 62
7
100
AcDbPolyline
 90
2
 70
0
 10
314.171000
 20
165.087850
 30
0.0
 10
314.064000
 20
164.805850
 30
0.0
  0
LWPOLYLINE
  5
129
100
AcDbEntity
  8
0
 62
7
100
AcDbPolyline
 90
2
 70
0
 10
314.342000
 20
165.335850
 30
0.0
 10
314.171000
 20
165.087850
 30
0.0
  0
LWPOLYLINE
  5
12a
100
AcDbEntity
  8
0
 62
7
100
AcDbPolyline
 90
2
 70
0
 10
314.568000
 20
165.535850
 30
0.0
 10
314.342000
 20
165.335850
 30
0.0
  0
LWPOLYLINE
  5
12b
100
AcDbEntity
  8
0
 62
7
100
AcDbPolyline
 90
2
 70
0
 10
314.835000
 20
165.675850
 30
0.0
 10
314.568000
 20
165.535850
 30
0.0
  0
LWPOLYLINE
  5
12c
100
AcDbEntity
  8
0
 62
7
100
AcDbPolyline
 90
2
 70
0
 10
315.127000
 20
165.747850
 30
0.0
 10
314.835000
 20
165.675850
 30
0.0
  0
LWPOLYLINE
  5
12d
100
AcDbEntity
  8
0
 62
7
100
AcDbPolyline
 90
2
 70
0
 10
315.429000
 20
165.747850
 30
0.0
 10
315.127000
 20
165.747850
 30
0.0
  0
LWPOLYLINE
  5
12e
100
AcDbEntity
  8
0
 62
7
100
AcDbPolyline
 90
2
 70
0
 10
315.721000
 20
165.675850
 30
0.0
 10
315.429000
 20
165.747850
 30
0.0
  0
LWPOLYLINE
  5
12f
100
AcDbEntity
  8
0
 62
7
100
AcDbPolyline
 90
2
 70
0
 10
315.988000
 20
165.535850
 30
0.0
 10
315.721000
 20
165.675850
 30
0.0
  0
LWPOLYLINE
  5
130
100
AcDbEntity
  8
0
 62
7
100
AcDbPolyline
 90
2
 70
0
 10
316.214000
 20
165.335850
 30
0.0
 10
315.988000
 20
165.535850
 30
0.0
  0
LWPOLYLINE
  5
131
100
AcDbEntity
  8
0
 62
7
100
AcDbPolyline
 90
2
 70
0
 10
316.385000
 20
165.087850
 30
0.0
 10
316.214000
 20
165.335850
 30
0.0
  0
LWPOLYLINE
  5
132
100
AcDbEntity
  8
0
 62
7
100
AcDbPolyline
 90
2
 70
0
 10
316.492000
 20
164.805850
 30
0.0
 10
316.385000
 20
165.087850
 30
0.0
  0
LWPOLYLINE
  5
133
100
AcDbEntity
  8
0
 62
7
100
AcDbPolyline
 90
2
 70
0
 10
316.528000
 20
164.506850
 30
0.0
 10
316.492000
 20
164.805850
 30
0.0
  0
LWPOLYLINE
  5
134
100
AcDbEntity
  8
0
 62
7
100
AcDbPolyline
 90
2
 70
0
 10
26.492000
 20
-35.792150
 30
0.0
 10
26.528000
 20
-35.493150
 30
0.0
  0
LWPOLYLINE
  5
135
100
AcDbEntity
  8
0
 62
7
100
AcDbPolyline
 90
2
 70
0
 10
26.385000
 20
-36.074150
 30
0.0
 10
26.492000
 20
-35.792150
 30
0.0
  0
LWPOLYLINE
  5
136
100
AcDbEntity
  8
0
 62
7
100
AcDbPolyline
 90
2
 70
0
 10
26.214000
 20
-36.322150
 30
0.0
 10
26.385000
 20
-36.074150
 30
0.0
  0
LWPOLYLINE
  5
137
100
AcDbEntity
  8
0
 62
7
100
AcDbPolyline
 90
2
 70
0
 10
25.988000
 20
-36.522150
 30
0.0
 10
26.214000
 20
-36.322150
 30
0.0
  0
LWPOLYLINE
  5
138
100
AcDbEntity
  8
0
 62
7
100
AcDbPolyline
 90
2
 70
0
 10
25.721000
 20
-36.662150
 30
0.0
 10
25.988000
 20
-36.522150
 30
0.0
  0
LWPOLYLINE
  5
139
100
AcDbEntity
  8
0
 62
7
100
AcDbPolyline
 90
2
 70
0
 10
25.429000
 20
-36.734150
 30
0.0
 10
25.721000
 20
-36.662150
 30
0.0
  0
LWPOLYLINE
  5
13a
100
AcDbEntity
  8
0
 62
7
100
AcDbPolyline
 90
2
 70
0
 10
25.127000
 20
-36.734150
 30
0.0
 10
25.429000
 20
-36.734150
 30
0.0
  0
LWPOLYLINE
  5
13b
100
AcDbEntity
  8
0
 62
7
100
AcDbPolyline
 90
2
 70
0
 10
24.835000
 20
-36.662150
 30
0.0
 10
25.127000
 20
-36.734150
 30
0.0
  0
LWPOLYLINE
  5
13c
100
AcDbEntity
  8
0
 62
7
100
AcDbPolyline
 90
2
 70
0
 10
24.568000
 20
-36.522150
 30
0.0
 10
24.835000
 20
-36.662150
 30
0.0
  0
LWPOLYLINE
  5
13d
100
AcDbEntity
  8
0
 62
7
100
AcDbPolyline
 90
2
 70
0
 10
24.342000
 20
-36.322150
 30
0.0
 10
24.568000
 20
-36.522150
 30
0.0
  0
LWPOLYLINE
  5
13e
100
AcDbEntity
  8
0
 62
7
100
AcDbPolyline
 90
2
 70
0
 10
24.171000
 20
-36.074150
 30
0.0
 10
24.342000
 20
-36.322150
 30
0.0
  0
LWPOLYLINE
  5
13f
100
AcDbEntity
  8
0
 62
7
100
AcDbPolyline
 90
2
 70
0
 10
24.064000
 20
-35.792150
 30
0.0
 10
24.171000
 20
-36.074150
 30
0.0
  0
LWPOLYLINE
  5
140
100
AcDbEntity
  8
0
 62
7
100
AcDbPolyline
 90
2
 70
0
 10
24.028000
 20
-35.493150
 30
0.0
 10
24.064000
 20
-35.792150
 30
0.0
  0
LWPOLYLINE
  5
141
100
AcDbEntity
  8
0
 62
7
100
AcDbPolyline
 90
2
 70
0
 10
24.064000
 20
-35.194050
 30
0.0
 10
24.028000
 20
-35.493150
 30
0.0
  0
LWPOLYLINE
  5
142
100
AcDbEntity
  8
0
 62
7
100
AcDbPolyline
 90
2
 70
0
 10
24.171000
 20
-34.912250
 30
0.0
 10
24.064000
 20
-35.194050
 30
0.0
  0
LWPOLYLINE
  5
143
100
AcDbEntity
  8
0
 62
7
100
AcDbPolyline
 90
2
 70
0
 10
24.342000
 20
-34.664250
 30
0.0
 10
24.171000
 20
-34.912250
 30
0.0
  0
LWPOLYLINE
  5
144
100
AcDbEntity
  8
0
 62
7
100
AcDbPolyline
 90
2
 70
0
 10
24.568000
 20
-34.464450
 30
0.0
 10
24.342000
 20
-34.664250
 30
0.0
  0
LWPOLYLINE
  5
145
100
AcDbEntity
  8
0
 62
7
100
AcDbPolyline
 90
2
 70
0
 10
24.835000
 20
-34.324350
 30
0.0
 10
24.568000
 20
-34.464450
 30
0.0
  0
LWPOLYLINE
  5
146
100
AcDbEntity
  8
0
 62
7
100
AcDbPolyline
 90
2
 70
0
 10
25.127000
 20
-34.252250
 30
0.0
 10
24.835000
 20
-34.324350
 30
0.0
  0
LWPOLYLINE
  5
147
100
AcDbEntity
  8
0
 62
7
100
AcDbPolyline
 90
2
 70
0
 10
25.429000
 20
-34.252250
 30
0.0
 10
25.127000
 20
-34.252250
 30
0.0
  0
LWPOLYLINE
  5
148
100
AcDbEntity
  8
0
 62
7
100
AcDbPolyline
 90
2
 70
0
 10
25.721000
 20
-34.324350
 30
0.0
 10
25.429000
 20
-34.252250
 30
0.0
  0
LWPOLYLINE
  5
149
100
AcDbEntity
  8
0
 62
7
100
AcDbPolyline
 90
2
 70
0
 10
25.988000
 20
-34.464450
 30
0.0
 10
25.721000
 20
-34.324350
 30
0.0
  0
LWPOLYLINE
  5
14a
100
AcDbEntity
  8
0
 62
7
100
AcDbPolyline
 90
2
 70
0
 10
26.214000
 20
-34.664250
 30
0.0
 10
25.988000
 20
-34.464450
 30
0.0
  0
LWPOLYLINE
  5
14b
100
AcDbEntity
  8
0
 62
7
100
AcDbPolyline
 90
2
 70
0
 10
26.385000
 20
-34.912250
 30
0.0
 10
26.214000
 20
-34.664250
 30
0.0
  0
LWPOLYLINE
  5
14c
100
AcDbEntity
  8
0
 62
7
100
AcDbPolyline
 90
2
 70
0
 10
26.492000
 20
-35.194050
 30
0.0
 10
26.385000
 20
-34.912250
 30
0.0
  0
LWPOLYLINE
  5
14d
100
AcDbEntity
  8
0
 62
7
100
AcDbPolyline
 90
2
 70
0
 10
26.528000
 20
-35.493150
 30
0.0
 10
26.492000
 20
-35.194050
 30
0.0
  0
LWPOLYLINE
  5
14e
100
AcDbEntity
  8
0
 62
7
100
AcDbPolyline
 90
2
 70
0
 10
316.492000
 20
-35.792150
 30
0.0
 10
316.528000
 20
-35.493150
 30
0.0
  0
LWPOLYLINE
  5
14f
100
AcDbEntity
  8
0
 62
7
100
AcDbPolyline
 90
2
 70
0
 10
316.385000
 20
-36.074150
 30
0.0
 10
316.492000
 20
-35.792150
 30
0.0
  0
LWPOLYLINE
  5
150
100
AcDbEntity
  8
0
 62
7
100
AcDbPolyline
 90
2
 70
0
 10
316.214000
 20
-36.322150
 30
0.0
 10
316.385000
 20
-36.074150
 30
0.0
  0
LWPOLYLINE
  5
151
100
AcDbEntity
  8
0
 62
7
100
AcDbPolyline
 90
2
 70
0
 10
315.988000
 20
-36.522150
 30
0.0
 10
316.214000
 20
-36.322150
 30
0.0
  0
LWPOLYLINE
  5
152
100
AcDbEntity
  8
0
 62
7
100
AcDbPolyline
 90
2
 70
0
 10
315.721000
 20
-36.662150
 30
0.0
 10
315.988000
 20
-36.522150
 30
0.0
  0
LWPOLYLINE
  5
153
100
AcDbEntity
  8
0
 62
7
100
AcDbPolyline
 90
2
 70
0
 10
315.429000
 20
-36.734150
 30
0.0
 10
315.721000
 20
-36.662150
 30
0.0
  0
LWPOLYLINE
  5
154
100
AcDbEntity
  8
0
 62
7
100
AcDbPolyline
 90
2
 70
0
 10
315.127000
 20
-36.734150
 30
0.0
 10
315.429000
 20
-36.734150
 30
0.0
  0
LWPOLYLINE
  5
155
100
AcDbEntity
  8
0
 62
7
100
AcDbPolyline
 90
2
 70
0
 10
314.835000
 20
-36.662150
 30
0.0
 10
315.127000
 20
-36.734150
 30
0.0
  0
LWPOLYLINE
  5
156
100
AcDbEntity
  8
0
 62
7
100
AcDbPolyline
 90
2
 70
0
 10
314.568000
 20
-36.522150
 30
0.0
 10
314.835000
 20
-36.662150
 30
0.0
  0
LWPOLYLINE
  5
157
100
AcDbEntity
  8
0
 62
7
100
AcDbPolyline
 90
2
 70
0
 10
314.342000
 20
-36.322150
 30
0.0
 10
314.568000
 20
-36.522150
 30
0.0
  0
LWPOLYLINE
  5
158
100
AcDbEntity
  8
0
 62
7
100
AcDbPolyline
 90
2
 70
0
 10
314.171000
 20
-36.074150
 30
0.0
 10
314.342000
 20
-36.322150
 30
0.0
  0
LWPOLYLINE
  5
159
100
AcDbEntity
  8
0
 62
7
100
AcDbPolyline
 90
2
 70
0
 10
314.064000
 20
-35.792150
 30
0.0
 10
314.171000
 20
-36.074150
 30
0.0
  0
LWPOLYLINE
  5
15a
100
AcDbEntity
  8
0
 62
7
100
AcDbPolyline
 90
2
 70
0
 10
314.028000
 20
-35.493150
 30
0.0
 10
314.064000
 20
-35.792150
 30
0.0
  0
LWPOLYLINE
  5
15b
100
AcDbEntity
  8
0
 62
7
100
AcDbPolyline
 90
2
 70
0
 10
314.064000
 20
-35.194050
 30
0.0
 10
314.028000
 20
-35.493150
 30
0.0
  0
LWPOLYLINE
  5
15c
100
AcDbEntity
  8
0
 62
7
100
AcDbPolyline
 90
2
 70
0
 10
314.171000
 20
-34.912250
 30
0.0
 10
314.064000
 20
-35.194050
 30
0.0
  0
LWPOLYLINE
  5
15d
100
AcDbEntity
  8
0
 62
7
100
AcDbPolyline
 90
2
 70
0
 10
314.342000
 20
-34.664250
 30
0.0
 10
314.171000
 20
-34.912250
 30
0.0
  0
LWPOLYLINE
  5
15e
100
AcDbEntity
  8
0
 62
7
100
AcDbPolyline
 90
2
 70
0
 10
314.568000
 20
-34.464450
 30
0.0
 10
314.342000
 20
-34.664250
 30
0.0
  0
LWPOLYLINE
  5
15f
100
AcDbEntity
  8
0
 62
7
100
AcDbPolyline
 90
2
 70
0
 10
314.835000
 20
-34.324350
 30
0.0
 10
314.568000
 20
-34.464450
 30
0.0
  0
LWPOLYLINE
  5
160
100
AcDbEntity
  8
0
 62
7
100
AcDbPolyline
 90
2
 70
0
 10
315.127000
 20
-34.252250
 30
0.0
 10
314.835000
 20
-34.324350
 30
0.0
  0
LWPOLYLINE
  5
161
100
AcDbEntity
  8
0
 62
7
100
AcDbPolyline
 90
2
 70
0
 10
315.429000
 20
-34.252250
 30
0.0
 10
315.127000
 20
-34.252250
 30
0.0
  0
LWPOLYLINE
  5
162
100
AcDbEntity
  8
0
 62
7
100
AcDbPolyline
 90
2
 70
0
 10
315.721000
 20
-34.324350
 30
0.0
 10
315.429000
 20
-34.252250
 30
0.0
  0
LWPOLYLINE
  5
163
100
AcDbEntity
  8
0
 62
7
100
AcDbPolyline
 90
2
 70
0
 10
315.988000
 20
-34.464450
 30
0.0
 10
315.721000
 20
-34.324350
 30
0.0
  0
LWPOLYLINE
  5
164
100
AcDbEntity
  8
0
 62
7
100
AcDbPolyline
 90
2
 70
0
 10
316.214000
 20
-34.664250
 30
0.0
 10
315.988000
 20
-34.464450
 30
0.0
  0
LWPOLYLINE
  5
165
100
AcDbEntity
  8
0
 62
7
100
AcDbPolyline
 90
2
 70
0
 10
316.385000
 20
-34.912250
 30
0.0
 10
316.214000
 20
-34.664250
 30
0.0
  0
LWPOLYLINE
  5
166
100
AcDbEntity
  8
0
 62
7
100
AcDbPolyline
 90
2
 70
0
 10
316.492000
 20
-35.194050
 30
0.0
 10
316.385000
 20
-34.912250
 30
0.0
  0
LWPOLYLINE
  5
167
100
AcDbEntity
  8
0
 62
7
100
AcDbPolyline
 90
2
 70
0
 10
316.528000
 20
-35.493150
 30
0.0
 10
316.492000
 20
-35.194050
 30
0.0
  0
LWPOLYLINE
  5
168
100
AcDbEntity
  8
0
 62
7
100
AcDbPolyline
 90
2
 70
0
 10
118.278000
 20
101.506850
 30
0.0
 10
118.278000
 20
158.506850
 30
0.0
  0
LWPOLYLINE
  5
169
100
AcDbEntity
  8
0
 62
7
100
AcDbPolyline
 90
2
 70
0
 10
176.278000
 20
101.506850
 30
0.0
 10
118.278000
 20
101.506850
 30
0.0
  0
LWPOLYLINE
  5
16a
100
AcDbEntity
  8
0
 62
7
100
AcDbPolyline
 90
2
 70
0
 10
176.278000
 20
158.506850
 30
0.0
 10
176.278000
 20
101.506850
 30
0.0
  0
LWPOLYLINE
  5
16b
100
AcDbEntity
  8
0
 62
7
100
AcDbPolyline
 90
2
 70
0
 10
118.278000
 20
158.506850
 30
0.0
 10
176.278000
 20
158.506850
 30
0.0
  0
LWPOLYLINE
  5
16c
100
AcDbEntity
  8
0
 62
7
100
AcDbPolyline
 90
4
 70
1
 10
38.278000
 20
3.506850
 30
0.0
 10
101.278000
 20
3.506850
 30
0.0
 10
101.278000
 20
100.506850
 30
0.0
 10
38.278000
 20
100.506850
 30
0.0
  0
LWPOLYLINE
  5
16d
100
AcDbEntity
  8
0
 62
7
100
AcDbPolyline
 90
2
 70
0
 10
184.225200
 20
-0.493150
 30
0.0
 10
184.225200
 20
106.506850
 30
0.0
  0
LWPOLYLINE
  5
16e
100
AcDbEntity
  8
0
 62
7
100
AcDbPolyline
 90
2
 70
0
 10
309.278000
 20
-0.493150
 30
0.0
 10
184.225200
 20
-0.493150
 30
0.0
  0
LWPOLYLINE
  5
16f
100
AcDbEntity
  8
0
 62
7
100
AcDbPolyline
 90
2
 70
0
 10
309.278000
 20
106.506850
 30
0.0
 10
309.278000
 20
-0.493150
 30
0.0
  0
LWPOLYLINE
  5
170
100
AcDbEntity
  8
0
 62
7
100
AcDbPolyline
 90
2
 70
0
 10
184.225200
 20
106.506850
 30
0.0
 10
309.278000
 20
106.506850
 30
0.0
  0
LWPOLYLINE
  5
171
100
AcDbEntity
  8
0
 62
7
100
AcDbPolyline
 90
22
 70
0
 10
165.078000
 20
169.506850
 30
0.0
 10
165.078000
 20
172.506850
 30
0.0
 10
175.478000
 20
172.506850
 30
0.0
 10
175.478000
 20
169.506850
 30
0.0
 10
320.278000
 20
169.506850
 30
0.0
 10
320.278000
 20
154.706850
 30
0.0
 10
323.278000
 20
154.706850
 30
0.0
 10
323.278000
 20
144.306850
 30
0.0
 10
320.278000
 20
144.306850
 30
0.0
 10
320.278000
 20
93.706850
 30
0.0
 10
323.278000
 20
93.706850
 30
0.0
 10
323.278000
 20
83.306850
 30
0.0
 10
320.278000
 20
83.306850
 30
0.0
 10
320.278000
 20
37.706850
 30
0.0
 10
323.278000
 20
37.706850
 30
0.0
 10
323.278000
 20
27.306850
 30
0.0
 10
320.278000
 20
27.306850
 30
0.0
 10
320.278000
 20
-15.293150
 30
0.0
 10
323.278000
 20
-15.293150
 30
0.0
 10
323.278000
 20
-25.693150
 30
0.0
 10
320.278000
 20
-25.693150
 30
0.0
 10
320.278000
 20
-40.493150
 30
0.0
  0
LWPOLYLINE
  5
172
100
AcDbEntity
  8
0
 62
7
100
AcDbPolyline
 90
2
 70
0
 10
175.478000
 20
-40.493150
 30
0.0
 10
320.278000
 20
-40.493150
 30
0.0
  0
LWPOLYLINE
  5
173
100
AcDbEntity
  8
0
 62
7
100
AcDbPolyline
 90
2
 70
0
 10
175.478000
 20
-43.493150
 30
0.0
 10
175.478000
 20
-40.493150
 30
0.0
  0
LWPOLYLINE
  5
174
100
AcDbEntity
  8
0
 62
7
100
AcDbPolyline
 90
2
 70
0
 10
165.078000
 20
-43.493150
 30
0.0
 10
175.478000
 20
-43.493150
 30
0.0
  0
LWPOLYLINE
  5
175
100
AcDbEntity
  8
0
 62
7
100
AcDbPolyline
 90
2
 70
0
 10
165.078000
 20
-40.493150
 30
0.0
 10
165.078000
 20
-43.493150
 30
0.0
  0
LWPOLYLINE
  5
176
100
AcDbEntity
  8
0
 62
7
100
AcDbPolyline
 90
2
 70
0
 10
20.278000
 20
-40.493150
 30
0.0
 10
165.078000
 20
-40.493150
 30
0.0
  0
LWPOLYLINE
  5
177
100
AcDbEntity
  8
0
 62
7
100
AcDbPolyline
 90
2
 70
0
 10
20.278000
 20
-25.693150
 30
0.0
 10
20.278000
 20
-40.493150
 30
0.0
  0
LWPOLYLINE
  5
178
100
AcDbEntity
  8
0
 62
7
100
AcDbPolyline
 90
2
 70
0
 10
17.278000
 20
-25.693150
 30
0.0
 10
20.278000
 20
-25.693150
 30
0.0
  0
LWPOLYLINE
  5
179
100
AcDbEntity
  8
0
 62
7
100
AcDbPolyline
 90
2
 70
0
 10
17.278000
 20
-15.293150
 30
0.0
 10
17.278000
 20
-25.693150
 30
0.0
  0
LWPOLYLINE
  5
17a
100
AcDbEntity
  8
0
 62
7
100
AcDbPolyline
 90
2
 70
0
 10
20.278000
 20
-15.293150
 30
0.0
 10
17.278000
 20
-15.293150
 30
0.0
  0
LWPOLYLINE
  5
17b
100
AcDbEntity
  8
0
 62
7
100
AcDbPolyline
 90
2
 70
0
 10
20.278000
 20
27.306850
 30
0.0
 10
20.278000
 20
-15.293150
 30
0.0
  0
LWPOLYLINE
  5
17c
100
AcDbEntity
  8
0
 62
7
100
AcDbPolyline
 90
2
 70
0
 10
17.278000
 20
27.306850
 30
0.0
 10
20.278000
 20
27.306850
 30
0.0
  0
LWPOLYLINE
  5
17d
100
AcDbEntity
  8
0
 62
7
100
AcDbPolyline
 90
2
 70
0
 10
17.278000
 20
37.706850
 30
0.0
 10
17.278000
 20
27.306850
 30
0.0
  0
LWPOLYLINE
  5
17e
100
AcDbEntity
  8
0
 62
7
100
AcDbPolyline
 90
2
 70
0
 10
20.278000
 20
37.706850
 30
0.0
 10
17.278000
 20
37.706850
 30
0.0
  0
LWPOLYLINE
  5
17f
100
AcDbEntity
  8
0
 62
7
100
AcDbPolyline
 90
2
 70
0
 10
20.278000
 20
83.306850
 30
0.0
 10
20.278000
 20
37.706850
 30
0.0
  0
LWPOLYLINE
  5
180
100
AcDbEntity
  8
0
 62
7
100
AcDbPolyline
 90
2
 70
0
 10
17.278000
 20
83.306850
 30
0.0
 10
20.278000
 20
83.306850
 30
0.0
  0
LWPOLYLINE
  5
181
100
AcDbEntity
  8
0
 62
7
100
AcDbPolyline
 90
2
 70
0
 10
17.278000
 20
93.706850
 30
0.0
 10
17.278000
 20
83.306850
 30
0.0
  0
LWPOLYLINE
  5
182
100
AcDbEntity
  8
0
 62
7
100
AcDbPolyline
 90
2
 70
0
 10
20.278000
 20
93.706850
 30
0.0
 10
17.278000
 20
93.706850
 30
0.0
  0
LWPOLYLINE
  5
183
100
AcDbEntity
  8
0
 62
7
100
AcDbPolyline
 90
2
 70
0
 10
20.278000
 20
144.306850
 30
0.0
 10
20.278000
 20
93.706850
 30
0.0
  0
LWPOLYLINE
  5
184
100
AcDbEntity
  8
0
 62
7
100
AcDbPolyline
 90
2
 70
0
 10
17.278000
 20
144.306850
 30
0.0
 10
20.278000
 20
144.306850
 30
0.0
  0
LWPOLYLINE
  5
185
100
AcDbEntity
  8
0
 62
7
100
AcDbPolyline
 90
2
 70
0
 10
17.278000
 20
154.706850
 30
0.0
 10
17.278000
 20
144.306850
 30
0.0
  0
LWPOLYLINE
  5
186
100
AcDbEntity
  8
0
 62
7
100
AcDbPolyline
 90
2
 70
0
 10
20.278000
 20
154.706850
 30
0.0
 10
17.278000
 20
154.706850
 30
0.0
  0
LWPOLYLINE
  5
187
100
AcDbEntity
  8
0
 62
7
100
AcDbPolyline
 90
2
 70
0
 10
20.278000
 20
169.506850
 30
0.0
 10
20.278000
 20
154.706850
 30
0.0
  0
LWPOLYLINE
  5
188
100
AcDbEntity
  8
0
 62
7
100
AcDbPolyline
 90
2
 70
0
 10
20.278000
 20
169.506850
 30
0.0
 10
165.078000
 20
169.506850
 30
0.0
  0
LWPOLYLINE
  5
189
100
AcDbEntity
  8
0
 62
7
100
AcDbPolyline
 90
2
 70
0
 10
351.443200
 20
59.462850
 30
0.0
 10
351.465000
 20
59.642350
 30
0.0
  0
LWPOLYLINE
  5
18a
100
AcDbEntity
  8
0
 62
7
100
AcDbPolyline
 90
2
 70
0
 10
351.379100
 20
59.293750
 30
0.0
 10
351.443200
 20
59.462850
 30
0.0
  0
LWPOLYLINE
  5
18b
100
AcDbEntity
  8
0
 62
7
100
AcDbPolyline
 90
2
 70
0
 10
351.276400
 20
59.144950
 30
0.0
 10
351.379100
 20
59.293750
 30
0.0
  0
LWPOLYLINE
  5
18c
100
AcDbEntity
  8
0
 62
7
100
AcDbPolyline
 90
2
 70
0
 10
351.141100
 20
59.025050
 30
0.0
 10
351.276400
 20
59.144950
 30
0.0
  0
LWPOLYLINE
  5
18d
100
AcDbEntity
  8
0
 62
7
100
AcDbPolyline
 90
2
 70
0
 10
350.981000
 20
58.941050
 30
0.0
 10
351.141100
 20
59.025050
 30
0.0
  0
LWPOLYLINE
  5
18e
100
AcDbEntity
  8
0
 62
7
100
AcDbPolyline
 90
2
 70
0
 10
350.805400
 20
58.897750
 30
0.0
 10
350.981000
 20
58.941050
 30
0.0
  0
LWPOLYLINE
  5
18f
100
AcDbEntity
  8
0
 62
7
100
AcDbPolyline
 90
2
 70
0
 10
350.624600
 20
58.897750
 30
0.0
 10
350.805400
 20
58.897750
 30
0.0
  0
LWPOLYLINE
  5
190
100
AcDbEntity
  8
0
 62
7
100
AcDbPolyline
 90
2
 70
0
 10
350.449100
 20
58.941050
 30
0.0
 10
350.624600
 20
58.897750
 30
0.0
  0
LWPOLYLINE
  5
191
100
AcDbEntity
  8
0
 62
7
100
AcDbPolyline
 90
2
 70
0
 10
350.289000
 20
59.025050
 30
0.0
 10
350.449100
 20
58.941050
 30
0.0
  0
LWPOLYLINE
  5
192
100
AcDbEntity
  8
0
 62
7
100
AcDbPolyline
 90
2
 70
0
 10
350.153600
 20
59.144950
 30
0.0
 10
350.289000
 20
59.025050
 30
0.0
  0
LWPOLYLINE
  5
193
100
AcDbEntity
  8
0
 62
7
100
AcDbPolyline
 90
2
 70
0
 10
350.050900
 20
59.293750
 30
0.0
 10
350.153600
 20
59.144950
 30
0.0
  0
LWPOLYLINE
  5
194
100
AcDbEntity
  8
0
 62
7
100
AcDbPolyline
 90
2
 70
0
 10
349.986800
 20
59.462850
 30
0.0
 10
350.050900
 20
59.293750
 30
0.0
  0
LWPOLYLINE
  5
195
100
AcDbEntity
  8
0
 62
7
100
AcDbPolyline
 90
2
 70
0
 10
349.965000
 20
59.642350
 30
0.0
 10
349.986800
 20
59.462850
 30
0.0
  0
LWPOLYLINE
  5
196
100
AcDbEntity
  8
0
 62
7
100
AcDbPolyline
 90
2
 70
0
 10
349.986800
 20
59.821850
 30
0.0
 10
349.965000
 20
59.642350
 30
0.0
  0
LWPOLYLINE
  5
197
100
AcDbEntity
  8
0
 62
7
100
AcDbPolyline
 90
2
 70
0
 10
350.050900
 20
59.990850
 30
0.0
 10
349.986800
 20
59.821850
 30
0.0
  0
LWPOLYLINE
  5
198
100
AcDbEntity
  8
0
 62
7
100
AcDbPolyline
 90
2
 70
0
 10
350.153600
 20
60.139650
 30
0.0
 10
350.050900
 20
59.990850
 30
0.0
  0
LWPOLYLINE
  5
199
100
AcDbEntity
  8
0
 62
7
100
AcDbPolyline
 90
2
 70
0
 10
350.289000
 20
60.259550
 30
0.0
 10
350.153600
 20
60.139650
 30
0.0
  0
LWPOLYLINE
  5
19a
100
AcDbEntity
  8
0
 62
7
100
AcDbPolyline
 90
2
 70
0
 10
350.449100
 20
60.343550
 30
0.0
 10
350.289000
 20
60.259550
 30
0.0
  0
LWPOLYLINE
  5
19b
100
AcDbEntity
  8
0
 62
7
100
AcDbPolyline
 90
2
 70
0
 10
350.624600
 20
60.386850
 30
0.0
 10
350.449100
 20
60.343550
 30
0.0
  0
LWPOLYLINE
  5
19c
100
AcDbEntity
  8
0
 62
7
100
AcDbPolyline
 90
2
 70
0
 10
350.805400
 20
60.386850
 30
0.0
 10
350.624600
 20
60.386850
 30
0.0
  0
LWPOLYLINE
  5
19d
100
AcDbEntity
  8
0
 62
7
100
AcDbPolyline
 90
2
 70
0
 10
350.981000
 20
60.343550
 30
0.0
 10
350.805400
 20
60.386850
 30
0.0
  0
LWPOLYLINE
  5
19e
100
AcDbEntity
  8
0
 62
7
100
AcDbPolyline
 90
2
 70
0
 10
351.141100
 20
60.259550
 30
0.0
 10
350.981000
 20
60.343550
 30
0.0
  0
LWPOLYLINE
  5
19f
100
AcDbEntity
  8
0
 62
7
100
AcDbPolyline
 90
2
 70
0
 10
351.276400
 20
60.139650
 30
0.0
 10
351.141100
 20
60.259550
 30
0.0
  0
LWPOLYLINE
  5
1a0
100
AcDbEntity
  8
0
 62
7
100
AcDbPolyline
 90
2
 70
0
 10
351.379100
 20
59.990850
 30
0.0
 10
351.276400
 20
60.139650
 30
0.0
  0
LWPOLYLINE
  5
1a1
100
AcDbEntity
  8
0
 62
7
100
AcDbPolyline
 90
2
 70
0
 10
351.443200
 20
59.821850
 30
0.0
 10
351.379100
 20
59.990850
 30
0.0
  0
LWPOLYLINE
  5
1a2
100
AcDbEntity
  8
0
 62
7
100
AcDbPolyline
 90
2
 70
0
 10
351.465000
 20
59.642350
 30
0.0
 10
351.443200
 20
59.821850
 30
0.0
  0
LWPOLYLINE
  5
1a3
100
AcDbEntity
  8
0
 62
7
100
AcDbPolyline
 90
2
 70
0
 10
351.443200
 20
164.462850
 30
0.0
 10
351.465000
 20
164.642350
 30
0.0
  0
LWPOLYLINE
  5
1a4
100
AcDbEntity
  8
0
 62
7
100
AcDbPolyline
 90
2
 70
0
 10
351.379100
 20
164.293750
 30
0.0
 10
351.443200
 20
164.462850
 30
0.0
  0
LWPOLYLINE
  5
1a5
100
AcDbEntity
  8
0
 62
7
100
AcDbPolyline
 90
2
 70
0
 10
351.276400
 20
164.144950
 30
0.0
 10
351.379100
 20
164.293750
 30
0.0
  0
LWPOLYLINE
  5
1a6
100
AcDbEntity
  8
0
 62
7
100
AcDbPolyline
 90
2
 70
0
 10
351.141100
 20
164.025050
 30
0.0
 10
351.276400
 20
164.144950
 30
0.0
  0
LWPOLYLINE
  5
1a7
100
AcDbEntity
  8
0
 62
7
100
AcDbPolyline
 90
2
 70
0
 10
350.981000
 20
163.941050
 30
0.0
 10
351.141100
 20
164.025050
 30
0.0
  0
LWPOLYLINE
  5
1a8
100
AcDbEntity
  8
0
 62
7
100
AcDbPolyline
 90
2
 70
0
 10
350.805400
 20
163.897750
 30
0.0
 10
350.981000
 20
163.941050
 30
0.0
  0
LWPOLYLINE
  5
1a9
100
AcDbEntity
  8
0
 62
7
100
AcDbPolyline
 90
2
 70
0
 10
350.624600
 20
163.897750
 30
0.0
 10
350.805400
 20
163.897750
 30
0.0
  0
LWPOLYLINE
  5
1aa
100
AcDbEntity
  8
0
 62
7
100
AcDbPolyline
 90
2
 70
0
 10
350.449100
 20
163.941050
 30
0.0
 10
350.624600
 20
163.897750
 30
0.0
  0
LWPOLYLINE
  5
1ab
100
AcDbEntity
  8
0
 62
7
100
AcDbPolyline
 90
2
 70
0
 10
350.289000
 20
164.025050
 30
0.0
 10
350.449100
 20
163.941050
 30
0.0
  0
LWPOLYLINE
  5
1ac
100
AcDbEntity
  8
0
 62
7
100
AcDbPolyline
 90
2
 70
0
 10
350.153600
 20
164.144950
 30
0.0
 10
350.289000
 20
164.025050
 30
0.0
  0
LWPOLYLINE
  5
1ad
100
AcDbEntity
  8
0
 62
7
100
AcDbPolyline
 90
2
 70
0
 10
350.050900
 20
164.293750
 30
0.0
 10
350.153600
 20
164.144950
 30
0.0
  0
LWPOLYLINE
  5
1ae
100
AcDbEntity
  8
0
 62
7
100
AcDbPolyline
 90
2
 70
0
 10
349.986800
 20
164.462850
 30
0.0
 10
350.050900
 20
164.293750
 30
0.0
  0
LWPOLYLINE
  5
1af
100
AcDbEntity
  8
0
 62
7
100
AcDbPolyline
 90
2
 70
0
 10
349.965000
 20
164.642350
 30
0.0
 10
349.986800
 20
164.462850
 30
0.0
  0
LWPOLYLINE
  5
1b0
100
AcDbEntity
  8
0
 62
7
100
AcDbPolyline
 90
2
 70
0
 10
349.986800
 20
164.821850
 30
0.0
 10
349.965000
 20
164.642350
 30
0.0
  0
LWPOLYLINE
  5
1b1
100
AcDbEntity
  8
0
 62
7
100
AcDbPolyline
 90
2
 70
0
 10
350.050900
 20
164.990850
 30
0.0
 10
349.986800
 20
164.821850
 30
0.0
  0
LWPOLYLINE
  5
1b2
100
AcDbEntity
  8
0
 62
7
100
AcDbPolyline
 90
2
 70
0
 10
350.153600
 20
165.139650
 30
0.0
 10
350.050900
 20
164.990850
 30
0.0
  0
LWPOLYLINE
  5
1b3
100
AcDbEntity
  8
0
 62
7
100
AcDbPolyline
 90
2
 70
0
 10
350.289000
 20
165.259550
 30
0.0
 10
350.153600
 20
165.139650
 30
0.0
  0
LWPOLYLINE
  5
1b4
100
AcDbEntity
  8
0
 62
7
100
AcDbPolyline
 90
2
 70
0
 10
350.449100
 20
165.343550
 30
0.0
 10
350.289000
 20
165.259550
 30
0.0
  0
LWPOLYLINE
  5
1b5
100
AcDbEntity
  8
0
 62
7
100
AcDbPolyline
 90
2
 70
0
 10
350.624600
 20
165.386850
 30
0.0
 10
350.449100
 20
165.343550
 30
0.0
  0
LWPOLYLINE
  5
1b6
100
AcDbEntity
  8
0
 62
7
100
AcDbPolyline
 90
2
 70
0
 10
350.805400
 20
165.386850
 30
0.0
 10
350.624600
 20
165.386850
 30
0.0
  0
LWPOLYLINE
  5
1b7
100
AcDbEntity
  8
0
 62
7
100
AcDbPolyline
 90
2
 70
0
 10
350.981000
 20
165.343550
 30
0.0
 10
350.805400
 20
165.386850
 30
0.0
  0
LWPOLYLINE
  5
1b8
100
AcDbEntity
  8
0
 62
7
100
AcDbPolyline
 90
2
 70
0
 10
351.141100
 20
165.259550
 30
0.0
 10
350.981000
 20
165.343550
 30
0.0
  0
LWPOLYLINE
  5
1b9
100
AcDbEntity
  8
0
 62
7
100
AcDbPolyline
 90
2
 70
0
 10
351.276400
 20
165.139650
 30
0.0
 10
351.141100
 20
165.259550
 30
0.0
  0
LWPOLYLINE
  5
1ba
100
AcDbEntity
  8
0
 62
7
100
AcDbPolyline
 90
2
 70
0
 10
351.379100
 20
164.990850
 30
0.0
 10
351.276400
 20
165.139650
 30
0.0
  0
LWPOLYLINE
  5
1bb
100
AcDbEntity
  8
0
 62
7
100
AcDbPolyline
 90
2
 70
0
 10
351.443200
 20
164.821850
 30
0.0
 10
351.379100
 20
164.990850
 30
0.0
  0
LWPOLYLINE
  5
1bc
100
AcDbEntity
  8
0
 62
7
100
AcDbPolyline
 90
2
 70
0
 10
351.465000
 20
164.642350
 30
0.0
 10
351.443200
 20
164.821850
 30
0.0
  0
LWPOLYLINE
  5
1bd
100
AcDbEntity
  8
0
 62
7
100
AcDbPolyline
 90
2
 70
0
 10
424.443200
 20
59.462850
 30
0.0
 10
424.465000
 20
59.642350
 30
0.0
  0
LWPOLYLINE
  5
1be
100
AcDbEntity
  8
0
 62
7
100
AcDbPolyline
 90
2
 70
0
 10
424.379100
 20
59.293750
 30
0.0
 10
424.443200
 20
59.462850
 30
0.0
  0
LWPOLYLINE
  5
1bf
100
AcDbEntity
  8
0
 62
7
100
AcDbPolyline
 90
2
 70
0
 10
424.276400
 20
59.144950
 30
0.0
 10
424.379100
 20
59.293750
 30
0.0
  0
LWPOLYLINE
  5
1c0
100
AcDbEntity
  8
0
 62
7
100
AcDbPolyline
 90
2
 70
0
 10
424.141100
 20
59.025050
 30
0.0
 10
424.276400
 20
59.144950
 30
0.0
  0
LWPOLYLINE
  5
1c1
100
AcDbEntity
  8
0
 62
7
100
AcDbPolyline
 90
2
 70
0
 10
423.981000
 20
58.941050
 30
0.0
 10
424.141100
 20
59.025050
 30
0.0
  0
LWPOLYLINE
  5
1c2
100
AcDbEntity
  8
0
 62
7
100
AcDbPolyline
 90
2
 70
0
 10
423.805400
 20
58.897750
 30
0.0
 10
423.981000
 20
58.941050
 30
0.0
  0
LWPOLYLINE
  5
1c3
100
AcDbEntity
  8
0
 62
7
100
AcDbPolyline
 90
2
 70
0
 10
423.624600
 20
58.897750
 30
0.0
 10
423.805400
 20
58.897750
 30
0.0
  0
LWPOLYLINE
  5
1c4
100
AcDbEntity
  8
0
 62
7
100
AcDbPolyline
 90
2
 70
0
 10
423.449100
 20
58.941050
 30
0.0
 10
423.624600
 20
58.897750
 30
0.0
  0
LWPOLYLINE
  5
1c5
100
AcDbEntity
  8
0
 62
7
100
AcDbPolyline
 90
2
 70
0
 10
423.289000
 20
59.025050
 30
0.0
 10
423.449100
 20
58.941050
 30
0.0
  0
LWPOLYLINE
  5
1c6
100
AcDbEntity
  8
0
 62
7
100
AcDbPolyline
 90
2
 70
0
 10
423.153600
 20
59.144950
 30
0.0
 10
423.289000
 20
59.025050
 30
0.0
  0
LWPOLYLINE
  5
1c7
100
AcDbEntity
  8
0
 62
7
100
AcDbPolyline
 90
2
 70
0
 10
423.050900
 20
59.293750
 30
0.0
 10
423.153600
 20
59.144950
 30
0.0
  0
LWPOLYLINE
  5
1c8
100
AcDbEntity
  8
0
 62
7
100
AcDbPolyline
 90
2
 70
0
 10
422.986800
 20
59.462850
 30
0.0
 10
423.050900
 20
59.293750
 30
0.0
  0
LWPOLYLINE
  5
1c9
100
AcDbEntity
  8
0
 62
7
100
AcDbPolyline
 90
2
 70
0
 10
422.965000
 20
59.642350
 30
0.0
 10
422.986800
 20
59.462850
 30
0.0
  0
LWPOLYLINE
  5
1ca
100
AcDbEntity
  8
0
 62
7
100
AcDbPolyline
 90
2
 70
0
 10
422.986800
 20
59.821850
 30
0.0
 10
422.965000
 20
59.642350
 30
0.0
  0
LWPOLYLINE
  5
1cb
100
AcDbEntity
  8
0
 62
7
100
AcDbPolyline
 90
2
 70
0
 10
423.050900
 20
59.990850
 30
0.0
 10
422.986800
 20
59.821850
 30
0.0
  0
LWPOLYLINE
  5
1cc
100
AcDbEntity
  8
0
 62
7
100
AcDbPolyline
 90
2
 70
0
 10
423.153600
 20
60.139650
 30
0.0
 10
423.050900
 20
59.990850
 30
0.0
  0
LWPOLYLINE
  5
1cd
100
AcDbEntity
  8
0
 62
7
100
AcDbPolyline
 90
2
 70
0
 10
423.289000
 20
60.259550
 30
0.0
 10
423.153600
 20
60.139650
 30
0.0
  0
LWPOLYLINE
  5
1ce
100
AcDbEntity
  8
0
 62
7
100
AcDbPolyline
 90
2
 70
0
 10
423.449100
 20
60.343550
 30
0.0
 10
423.289000
 20
60.259550
 30
0.0
  0
LWPOLYLINE
  5
1cf
100
AcDbEntity
  8
0
 62
7
100
AcDbPolyline
 90
2
 70
0
 10
423.624600
 20
60.386850
 30
0.0
 10
423.449100
 20
60.343550
 30
0.0
  0
LWPOLYLINE
  5
1d0
100
AcDbEntity
  8
0
 62
7
100
AcDbPolyline
 90
2
 70
0
 10
423.805400
 20
60.386850
 30
0.0
 10
423.624600
 20
60.386850
 30
0.0
  0
LWPOLYLINE
  5
1d1
100
AcDbEntity
  8
0
 62
7
100
AcDbPolyline
 90
2
 70
0
 10
423.981000
 20
60.343550
 30
0.0
 10
423.805400
 20
60.386850
 30
0.0
  0
LWPOLYLINE
  5
1d2
100
AcDbEntity
  8
0
 62
7
100
AcDbPolyline
 90
2
 70
0
 10
424.141100
 20
60.259550
 30
0.0
 10
423.981000
 20
60.343550
 30
0.0
  0
LWPOLYLINE
  5
1d3
100
AcDbEntity
  8
0
 62
7
100
AcDbPolyline
 90
2
 70
0
 10
424.276400
 20
60.139650
 30
0.0
 10
424.141100
 20
60.259550
 30
0.0
  0
LWPOLYLINE
  5
1d4
100
AcDbEntity
  8
0
 62
7
100
AcDbPolyline
 90
2
 70
0
 10
424.379100
 20
59.990850
 30
0.0
 10
424.276400
 20
60.139650
 30
0.0
  0
LWPOLYLINE
  5
1d5
100
AcDbEntity
  8
0
 62
7
100
AcDbPolyline
 90
2
 70
0
 10
424.443200
 20
59.821850
 30
0.0
 10
424.379100
 20
59.990850
 30
0.0
  0
LWPOLYLINE
  5
1d6
100
AcDbEntity
  8
0
 62
7
100
AcDbPolyline
 90
2
 70
0
 10
424.465000
 20
59.642350
 30
0.0
 10
424.443200
 20
59.821850
 30
0.0
  0
LWPOLYLINE
  5
1d7
100
AcDbEntity
  8
0
 62
7
100
AcDbPolyline
 90
2
 70
0
 10
424.443200
 20
164.462850
 30
0.0
 10
424.465000
 20
164.642350
 30
0.0
  0
LWPOLYLINE
  5
1d8
100
AcDbEntity
  8
0
 62
7
100
AcDbPolyline
 90
2
 70
0
 10
424.379100
 20
164.293750
 30
0.0
 10
424.443200
 20
164.462850
 30
0.0
  0
LWPOLYLINE
  5
1d9
100
AcDbEntity
  8
0
 62
7
100
AcDbPolyline
 90
2
 70
0
 10
424.276400
 20
164.144950
 30
0.0
 10
424.379100
 20
164.293750
 30
0.0
  0
LWPOLYLINE
  5
1da
100
AcDbEntity
  8
0
 62
7
100
AcDbPolyline
 90
2
 70
0
 10
424.141100
 20
164.025050
 30
0.0
 10
424.276400
 20
164.144950
 30
0.0
  0
LWPOLYLINE
  5
1db
100
AcDbEntity
  8
0
 62
7
100
AcDbPolyline
 90
2
 70
0
 10
423.981000
 20
163.941050
 30
0.0
 10
424.141100
 20
164.025050
 30
0.0
  0
LWPOLYLINE
  5
1dc
100
AcDbEntity
  8
0
 62
7
100
AcDbPolyline
 90
2
 70
0
 10
423.805400
 20
163.897750
 30
0.0
 10
423.981000
 20
163.941050
 30
0.0
  0
LWPOLYLINE
  5
1dd
100
AcDbEntity
  8
0
 62
7
100
AcDbPolyline
 90
2
 70
0
 10
423.624600
 20
163.897750
 30
0.0
 10
423.805400
 20
163.897750
 30
0.0
  0
LWPOLYLINE
  5
1de
100
AcDbEntity
  8
0
 62
7
100
AcDbPolyline
 90
2
 70
0
 10
423.449100
 20
163.941050
 30
0.0
 10
423.624600
 20
163.897750
 30
0.0
  0
LWPOLYLINE
  5
1df
100
AcDbEntity
  8
0
 62
7
100
AcDbPolyline
 90
2
 70
0
 10
423.289000
 20
164.025050
 30
0.0
 10
423.449100
 20
163.941050
 30
0.0
  0
LWPOLYLINE
  5
1e0
100
AcDbEntity
  8
0
 62
7
100
AcDbPolyline
 90
2
 70
0
 10
423.153600
 20
164.144950
 30
0.0
 10
423.289000
 20
164.025050
 30
0.0
  0
LWPOLYLINE
  5
1e1
100
AcDbEntity
  8
0
 62
7
100
AcDbPolyline
 90
2
 70
0
 10
423.050900
 20
164.293750
 30
0.0
 10
423.153600
 20
164.144950
 30
0.0
  0
LWPOLYLINE
  5
1e2
100
AcDbEntity
  8
0
 62
7
100
AcDbPolyline
 90
2
 70
0
 10
422.986800
 20
164.462850
 30
0.0
 10
423.050900
 20
164.293750
 30
0.0
  0
LWPOLYLINE
  5
1e3
100
AcDbEntity
  8
0
 62
7
100
AcDbPolyline
 90
2
 70
0
 10
422.965000
 20
164.642350
 30
0.0
 10
422.986800
 20
164.462850
 30
0.0
  0
LWPOLYLINE
  5
1e4
100
AcDbEntity
  8
0
 62
7
100
AcDbPolyline
 90
2
 70
0
 10
422.986800
 20
164.821850
 30
0.0
 10
422.965000
 20
164.642350
 30
0.0
  0
LWPOLYLINE
  5
1e5
100
AcDbEntity
  8
0
 62
7
100
AcDbPolyline
 90
2
 70
0
 10
423.050900
 20
164.990850
 30
0.0
 10
422.986800
 20
164.821850
 30
0.0
  0
LWPOLYLINE
  5
1e6
100
AcDbEntity
  8
0
 62
7
100
AcDbPolyline
 90
2
 70
0
 10
423.153600
 20
165.139650
 30
0.0
 10
423.050900
 20
164.990850
 30
0.0
  0
LWPOLYLINE
  5
1e7
100
AcDbEntity
  8
0
 62
7
100
AcDbPolyline
 90
2
 70
0
 10
423.289000
 20
165.259550
 30
0.0
 10
423.153600
 20
165.139650
 30
0.0
  0
LWPOLYLINE
  5
1e8
100
AcDbEntity
  8
0
 62
7
100
AcDbPolyline
 90
2
 70
0
 10
423.449100
 20
165.343550
 30
0.0
 10
423.289000
 20
165.259550
 30
0.0
  0
LWPOLYLINE
  5
1e9
100
AcDbEntity
  8
0
 62
7
100
AcDbPolyline
 90
2
 70
0
 10
423.624600
 20
165.386850
 30
0.0
 10
423.449100
 20
165.343550
 30
0.0
  0
LWPOLYLINE
  5
1ea
100
AcDbEntity
  8
0
 62
7
100
AcDbPolyline
 90
2
 70
0
 10
423.805400
 20
165.386850
 30
0.0
 10
423.624600
 20
165.386850
 30
0.0
  0
LWPOLYLINE
  5
1eb
100
AcDbEntity
  8
0
 62
7
100
AcDbPolyline
 90
2
 70
0
 10
423.981000
 20
165.343550
 30
0.0
 10
423.805400
 20
165.386850
 30
0.0
  0
LWPOLYLINE
  5
1ec
100
AcDbEntity
  8
0
 62
7
100
AcDbPolyline
 90
2
 70
0
 10
424.141100
 20
165.259550
 30
0.0
 10
423.981000
 20
165.343550
 30
0.0
  0
LWPOLYLINE
  5
1ed
100
AcDbEntity
  8
0
 62
7
100
AcDbPolyline
 90
2
 70
0
 10
424.276400
 20
165.139650
 30
0.0
 10
424.141100
 20
165.259550
 30
0.0
  0
LWPOLYLINE
  5
1ee
100
AcDbEntity
  8
0
 62
7
100
AcDbPolyline
 90
2
 70
0
 10
424.379100
 20
164.990850
 30
0.0
 10
424.276400
 20
165.139650
 30
0.0
  0
LWPOLYLINE
  5
1ef
100
AcDbEntity
  8
0
 62
7
100
AcDbPolyline
 90
2
 70
0
 10
424.443200
 20
164.821850
 30
0.0
 10
424.379100
 20
164.990850
 30
0.0
  0
LWPOLYLINE
  5
1f0
100
AcDbEntity
  8
0
 62
7
100
AcDbPolyline
 90
2
 70
0
 10
424.465000
 20
164.642350
 30
0.0
 10
424.443200
 20
164.821850
 30
0.0
  0
LWPOLYLINE
  5
1f1
100
AcDbEntity
  8
0
 62
7
100
AcDbPolyline
 90
2
 70
0
 10
371.706100
 20
121.344350
 30
0.0
 10
371.706100
 20
153.344350
 30
0.0
  0
LWPOLYLINE
  5
1f2
100
AcDbEntity
  8
0
 62
7
100
AcDbPolyline
 90
2
 70
0
 10
403.706100
 20
121.344350
 30
0.0
 10
371.706100
 20
121.344350
 30
0.0
  0
LWPOLYLINE
  5
1f3
100
AcDbEntity
  8
0
 62
7
100
AcDbPolyline
 90
2
 70
0
 10
403.706100
 20
153.344350
 30
0.0
 10
403.706100
 20
121.344350
 30
0.0
  0
LWPOLYLINE
  5
1f4
100
AcDbEntity
  8
0
 62
7
100
AcDbPolyline
 90
2
 70
0
 10
371.706100
 20
153.344350
 30
0.0
 10
403.706100
 20
153.344350
 30
0.0
  0
LWPOLYLINE
  5
1f5
100
AcDbEntity
  8
0
 62
7
100
AcDbPolyline
 90
2
 70
0
 10
364.892000
 20
76.054350
 30
0.0
 10
364.892000
 20
115.054350
 30
0.0
  0
LWPOLYLINE
  5
1f6
100
AcDbEntity
  8
0
 62
7
100
AcDbPolyline
 90
2
 70
0
 10
407.892000
 20
76.054350
 30
0.0
 10
364.892000
 20
76.054350
 30
0.0
  0
LWPOLYLINE
  5
1f7
100
AcDbEntity
  8
0
 62
7
100
AcDbPolyline
 90
2
 70
0
 10
407.892000
 20
115.054350
 30
0.0
 10
407.892000
 20
76.054350
 30
0.0
  0
LWPOLYLINE
  5
1f8
100
AcDbEntity
  8
0
 62
7
100
AcDbPolyline
 90
2
 70
0
 10
364.892000
 20
115.054350
 30
0.0
 10
407.892000
 20
115.054350
 30
0.0
  0
LWPOLYLINE
  5
1f9
100
AcDbEntity
  8
0
 62
7
100
AcDbPolyline
 90
2
 70
0
 10
346.892000
 20
168.054350
 30
0.0
 10
346.892000
 20
56.054350
 30
0.0
  0
LWPOLYLINE
  5
1fa
100
AcDbEntity
  8
0
 62
7
100
AcDbPolyline
 90
2
 70
0
 10
427.892000
 20
168.054350
 30
0.0
 10
346.892000
 20
168.054350
 30
0.0
  0
LWPOLYLINE
  5
1fb
100
AcDbEntity
  8
0
 62
7
100
AcDbPolyline
 90
2
 70
0
 10
427.892000
 20
56.054350
 30
0.0
 10
427.892000
 20
168.054350
 30
0.0
  0
LWPOLYLINE
  5
1fc
100
AcDbEntity
  8
0
 62
7
100
AcDbPolyline
 90
2
 70
0
 10
346.892000
 20
56.054350
 30
0.0
 10
427.892000
 20
56.054350
 30
0.0
  0
LWPOLYLINE
  5
1fd
100
AcDbEntity
  8
0
 62
7
100
AcDbPolyline
 90
2
 70
0
 10
579.459200
 20
51.562250
 30
0.0
 10
579.481000
 20
51.741750
 30
0.0
  0
LWPOLYLINE
  5
1fe
100
AcDbEntity
  8
0
 62
7
100
AcDbPolyline
 90
2
 70
0
 10
579.395100
 20
51.393250
 30
0.0
 10
579.459200
 20
51.562250
 30
0.0
  0
LWPOLYLINE
  5
1ff
100
AcDbEntity
  8
0
 62
7
100
AcDbPolyline
 90
2
 70
0
 10
579.292400
 20
51.244450
 30
0.0
 10
579.395100
 20
51.393250
 30
0.0
  0
LWPOLYLINE
  5
200
100
AcDbEntity
  8
0
 62
7
100
AcDbPolyline
 90
2
 70
0
 10
579.157000
 20
51.124550
 30
0.0
 10
579.292400
 20
51.244450
 30
0.0
  0
LWPOLYLINE
  5
201
100
AcDbEntity
  8
0
 62
7
100
AcDbPolyline
 90
2
 70
0
 10
578.996900
 20
51.040550
 30
0.0
 10
579.157000
 20
51.124550
 30
0.0
  0
LWPOLYLINE
  5
202
100
AcDbEntity
  8
0
 62
7
100
AcDbPolyline
 90
2
 70
0
 10
578.821400
 20
50.997250
 30
0.0
 10
578.996900
 20
51.040550
 30
0.0
  0
LWPOLYLINE
  5
203
100
AcDbEntity
  8
0
 62
7
100
AcDbPolyline
 90
2
 70
0
 10
578.640600
 20
50.997250
 30
0.0
 10
578.821400
 20
50.997250
 30
0.0
  0
LWPOLYLINE
  5
204
100
AcDbEntity
  8
0
 62
7
100
AcDbPolyline
 90
2
 70
0
 10
578.465000
 20
51.040550
 30
0.0
 10
578.640600
 20
50.997250
 30
0.0
  0
LWPOLYLINE
  5
205
100
AcDbEntity
  8
0
 62
7
100
AcDbPolyline
 90
2
 70
0
 10
578.304900
 20
51.124550
 30
0.0
 10
578.465000
 20
51.040550
 30
0.0
  0
LWPOLYLINE
  5
206
100
AcDbEntity
  8
0
 62
7
100
AcDbPolyline
 90
2
 70
0
 10
578.169600
 20
51.244450
 30
0.0
 10
578.304900
 20
51.124550
 30
0.0
  0
LWPOLYLINE
  5
207
100
AcDbEntity
  8
0
 62
7
100
AcDbPolyline
 90
2
 70
0
 10
578.066900
 20
51.393250
 30
0.0
 10
578.169600
 20
51.244450
 30
0.0
  0
LWPOLYLINE
  5
208
100
AcDbEntity
  8
0
 62
7
100
AcDbPolyline
 90
2
 70
0
 10
578.002800
 20
51.562250
 30
0.0
 10
578.066900
 20
51.393250
 30
0.0
  0
LWPOLYLINE
  5
209
100
AcDbEntity
  8
0
 62
7
100
AcDbPolyline
 90
2
 70
0
 10
577.981000
 20
51.741750
 30
0.0
 10
578.002800
 20
51.562250
 30
0.0
  0
LWPOLYLINE
  5
20a
100
AcDbEntity
  8
0
 62
7
100
AcDbPolyline
 90
2
 70
0
 10
578.002800
 20
51.921250
 30
0.0
 10
577.981000
 20
51.741750
 30
0.0
  0
LWPOLYLINE
  5
20b
100
AcDbEntity
  8
0
 62
7
100
AcDbPolyline
 90
2
 70
0
 10
578.066900
 20
52.090350
 30
0.0
 10
578.002800
 20
51.921250
 30
0.0
  0
LWPOLYLINE
  5
20c
100
AcDbEntity
  8
0
 62
7
100
AcDbPolyline
 90
2
 70
0
 10
578.169600
 20
52.239150
 30
0.0
 10
578.066900
 20
52.090350
 30
0.0
  0
LWPOLYLINE
  5
20d
100
AcDbEntity
  8
0
 62
7
100
AcDbPolyline
 90
2
 70
0
 10
578.304900
 20
52.359050
 30
0.0
 10
578.169600
 20
52.239150
 30
0.0
  0
LWPOLYLINE
  5
20e
100
AcDbEntity
  8
0
 62
7
100
AcDbPolyline
 90
2
 70
0
 10
578.465000
 20
52.443050
 30
0.0
 10
578.304900
 20
52.359050
 30
0.0
  0
LWPOLYLINE
  5
20f
100
AcDbEntity
  8
0
 62
7
100
AcDbPolyline
 90
2
 70
0
 10
578.640600
 20
52.486350
 30
0.0
 10
578.465000
 20
52.443050
 30
0.0
  0
LWPOLYLINE
  5
210
100
AcDbEntity
  8
0
 62
7
100
AcDbPolyline
 90
2
 70
0
 10
578.821400
 20
52.486350
 30
0.0
 10
578.640600
 20
52.486350
 30
0.0
  0
LWPOLYLINE
  5
211
100
AcDbEntity
  8
0
 62
7
100
AcDbPolyline
 90
2
 70
0
 10
578.996900
 20
52.443050
 30
0.0
 10
578.821400
 20
52.486350
 30
0.0
  0
LWPOLYLINE
  5
212
100
AcDbEntity
  8
0
 62
7
100
AcDbPolyline
 90
2
 70
0
 10
579.157000
 20
52.359050
 30
0.0
 10
578.996900
 20
52.443050
 30
0.0
  0
LWPOLYLINE
  5
213
100
AcDbEntity
  8
0
 62
7
100
AcDbPolyline
 90
2
 70
0
 10
579.292400
 20
52.239150
 30
0.0
 10
579.157000
 20
52.359050
 30
0.0
  0
LWPOLYLINE
  5
214
100
AcDbEntity
  8
0
 62
7
100
AcDbPolyline
 90
2
 70
0
 10
579.395100
 20
52.090350
 30
0.0
 10
579.292400
 20
52.239150
 30
0.0
  0
LWPOLYLINE
  5
215
100
AcDbEntity
  8
0
 62
7
100
AcDbPolyline
 90
2
 70
0
 10
579.459200
 20
51.921250
 30
0.0
 10
579.395100
 20
52.090350
 30
0.0
  0
LWPOLYLINE
  5
216
100
AcDbEntity
  8
0
 62
7
100
AcDbPolyline
 90
2
 70
0
 10
579.481000
 20
51.741750
 30
0.0
 10
579.459200
 20
51.921250
 30
0.0
  0
LWPOLYLINE
  5
217
100
AcDbEntity
  8
0
 62
7
100
AcDbPolyline
 90
2
 70
0
 10
454.459200
 20
51.562250
 30
0.0
 10
454.481000
 20
51.741750
 30
0.0
  0
LWPOLYLINE
  5
218
100
AcDbEntity
  8
0
 62
7
100
AcDbPolyline
 90
2
 70
0
 10
454.395100
 20
51.393250
 30
0.0
 10
454.459200
 20
51.562250
 30
0.0
  0
LWPOLYLINE
  5
219
100
AcDbEntity
  8
0
 62
7
100
AcDbPolyline
 90
2
 70
0
 10
454.292400
 20
51.244450
 30
0.0
 10
454.395100
 20
51.393250
 30
0.0
  0
LWPOLYLINE
  5
21a
100
AcDbEntity
  8
0
 62
7
100
AcDbPolyline
 90
2
 70
0
 10
454.157000
 20
51.124550
 30
0.0
 10
454.292400
 20
51.244450
 30
0.0
  0
LWPOLYLINE
  5
21b
100
AcDbEntity
  8
0
 62
7
100
AcDbPolyline
 90
2
 70
0
 10
453.996900
 20
51.040550
 30
0.0
 10
454.157000
 20
51.124550
 30
0.0
  0
LWPOLYLINE
  5
21c
100
AcDbEntity
  8
0
 62
7
100
AcDbPolyline
 90
2
 70
0
 10
453.821400
 20
50.997250
 30
0.0
 10
453.996900
 20
51.040550
 30
0.0
  0
LWPOLYLINE
  5
21d
100
AcDbEntity
  8
0
 62
7
100
AcDbPolyline
 90
2
 70
0
 10
453.640600
 20
50.997250
 30
0.0
 10
453.821400
 20
50.997250
 30
0.0
  0
LWPOLYLINE
  5
21e
100
AcDbEntity
  8
0
 62
7
100
AcDbPolyline
 90
2
 70
0
 10
453.465000
 20
51.040550
 30
0.0
 10
453.640600
 20
50.997250
 30
0.0
  0
LWPOLYLINE
  5
21f
100
AcDbEntity
  8
0
 62
7
100
AcDbPolyline
 90
2
 70
0
 10
453.304900
 20
51.124550
 30
0.0
 10
453.465000
 20
51.040550
 30
0.0
  0
LWPOLYLINE
  5
220
100
AcDbEntity
  8
0
 62
7
100
AcDbPolyline
 90
2
 70
0
 10
453.169600
 20
51.244450
 30
0.0
 10
453.304900
 20
51.124550
 30
0.0
  0
LWPOLYLINE
  5
221
100
AcDbEntity
  8
0
 62
7
100
AcDbPolyline
 90
2
 70
0
 10
453.066900
 20
51.393250
 30
0.0
 10
453.169600
 20
51.244450
 30
0.0
  0
LWPOLYLINE
  5
222
100
AcDbEntity
  8
0
 62
7
100
AcDbPolyline
 90
2
 70
0
 10
453.002800
 20
51.562250
 30
0.0
 10
453.066900
 20
51.393250
 30
0.0
  0
LWPOLYLINE
  5
223
100
AcDbEntity
  8
0
 62
7
100
AcDbPolyline
 90
2
 70
0
 10
452.981000
 20
51.741750
 30
0.0
 10
453.002800
 20
51.562250
 30
0.0
  0
LWPOLYLINE
  5
224
100
AcDbEntity
  8
0
 62
7
100
AcDbPolyline
 90
2
 70
0
 10
453.002800
 20
51.921250
 30
0.0
 10
452.981000
 20
51.741750
 30
0.0
  0
LWPOLYLINE
  5
225
100
AcDbEntity
  8
0
 62
7
100
AcDbPolyline
 90
2
 70
0
 10
453.066900
 20
52.090350
 30
0.0
 10
453.002800
 20
51.921250
 30
0.0
  0
LWPOLYLINE
  5
226
100
AcDbEntity
  8
0
 62
7
100
AcDbPolyline
 90
2
 70
0
 10
453.169600
 20
52.239150
 30
0.0
 10
453.066900
 20
52.090350
 30
0.0
  0
LWPOLYLINE
  5
227
100
AcDbEntity
  8
0
 62
7
100
AcDbPolyline
 90
2
 70
0
 10
453.304900
 20
52.359050
 30
0.0
 10
453.169600
 20
52.239150
 30
0.0
  0
LWPOLYLINE
  5
228
100
AcDbEntity
  8
0
 62
7
100
AcDbPolyline
 90
2
 70
0
 10
453.465000
 20
52.443050
 30
0.0
 10
453.304900
 20
52.359050
 30
0.0
  0
LWPOLYLINE
  5
229
100
AcDbEntity
  8
0
 62
7
100
AcDbPolyline
 90
2
 70
0
 10
453.640600
 20
52.486350
 30
0.0
 10
453.465000
 20
52.443050
 30
0.0
  0
LWPOLYLINE
  5
22a
100
AcDbEntity
  8
0
 62
7
100
AcDbPolyline
 90
2
 70
0
 10
453.821400
 20
52.486350
 30
0.0
 10
453.640600
 20
52.486350
 30
0.0
  0
LWPOLYLINE
  5
22b
100
AcDbEntity
  8
0
 62
7
100
AcDbPolyline
 90
2
 70
0
 10
453.996900
 20
52.443050
 30
0.0
 10
453.821400
 20
52.486350
 30
0.0
  0
LWPOLYLINE
  5
22c
100
AcDbEntity
  8
0
 62
7
100
AcDbPolyline
 90
2
 70
0
 10
454.157000
 20
52.359050
 30
0.0
 10
453.996900
 20
52.443050
 30
0.0
  0
LWPOLYLINE
  5
22d
100
AcDbEntity
  8
0
 62
7
100
AcDbPolyline
 90
2
 70
0
 10
454.292400
 20
52.239150
 30
0.0
 10
454.157000
 20
52.359050
 30
0.0
  0
LWPOLYLINE
  5
22e
100
AcDbEntity
  8
0
 62
7
100
AcDbPolyline
 90
2
 70
0
 10
454.395100
 20
52.090350
 30
0.0
 10
454.292400
 20
52.239150
 30
0.0
  0
LWPOLYLINE
  5
22f
100
AcDbEntity
  8
0
 62
7
100
AcDbPolyline
 90
2
 70
0
 10
454.459200
 20
51.921250
 30
0.0
 10
454.395100
 20
52.090350
 30
0.0
  0
LWPOLYLINE
  5
230
100
AcDbEntity
  8
0
 62
7
100
AcDbPolyline
 90
2
 70
0
 10
454.481000
 20
51.741750
 30
0.0
 10
454.459200
 20
51.921250
 30
0.0
  0
LWPOLYLINE
  5
231
100
AcDbEntity
  8
0
 62
7
100
AcDbPolyline
 90
2
 70
0
 10
579.459200
 20
165.562250
 30
0.0
 10
579.481000
 20
165.741750
 30
0.0
  0
LWPOLYLINE
  5
232
100
AcDbEntity
  8
0
 62
7
100
AcDbPolyline
 90
2
 70
0
 10
579.395100
 20
165.393250
 30
0.0
 10
579.459200
 20
165.562250
 30
0.0
  0
LWPOLYLINE
  5
233
100
AcDbEntity
  8
0
 62
7
100
AcDbPolyline
 90
2
 70
0
 10
579.292400
 20
165.244450
 30
0.0
 10
579.395100
 20
165.393250
 30
0.0
  0
LWPOLYLINE
  5
234
100
AcDbEntity
  8
0
 62
7
100
AcDbPolyline
 90
2
 70
0
 10
579.157000
 20
165.124550
 30
0.0
 10
579.292400
 20
165.244450
 30
0.0
  0
LWPOLYLINE
  5
235
100
AcDbEntity
  8
0
 62
7
100
AcDbPolyline
 90
2
 70
0
 10
578.996900
 20
165.040550
 30
0.0
 10
579.157000
 20
165.124550
 30
0.0
  0
LWPOLYLINE
  5
236
100
AcDbEntity
  8
0
 62
7
100
AcDbPolyline
 90
2
 70
0
 10
578.821400
 20
164.997250
 30
0.0
 10
578.996900
 20
165.040550
 30
0.0
  0
LWPOLYLINE
  5
237
100
AcDbEntity
  8
0
 62
7
100
AcDbPolyline
 90
2
 70
0
 10
578.640600
 20
164.997250
 30
0.0
 10
578.821400
 20
164.997250
 30
0.0
  0
LWPOLYLINE
  5
238
100
AcDbEntity
  8
0
 62
7
100
AcDbPolyline
 90
2
 70
0
 10
578.465000
 20
165.040550
 30
0.0
 10
578.640600
 20
164.997250
 30
0.0
  0
LWPOLYLINE
  5
239
100
AcDbEntity
  8
0
 62
7
100
AcDbPolyline
 90
2
 70
0
 10
578.304900
 20
165.124550
 30
0.0
 10
578.465000
 20
165.040550
 30
0.0
  0
LWPOLYLINE
  5
23a
100
AcDbEntity
  8
0
 62
7
100
AcDbPolyline
 90
2
 70
0
 10
578.169600
 20
165.244450
 30
0.0
 10
578.304900
 20
165.124550
 30
0.0
  0
LWPOLYLINE
  5
23b
100
AcDbEntity
  8
0
 62
7
100
AcDbPolyline
 90
2
 70
0
 10
578.066900
 20
165.393250
 30
0.0
 10
578.169600
 20
165.244450
 30
0.0
  0
LWPOLYLINE
  5
23c
100
AcDbEntity
  8
0
 62
7
100
AcDbPolyline
 90
2
 70
0
 10
578.002800
 20
165.562250
 30
0.0
 10
578.066900
 20
165.393250
 30
0.0
  0
LWPOLYLINE
  5
23d
100
AcDbEntity
  8
0
 62
7
100
AcDbPolyline
 90
2
 70
0
 10
577.981000
 20
165.741750
 30
0.0
 10
578.002800
 20
165.562250
 30
0.0
  0
LWPOLYLINE
  5
23e
100
AcDbEntity
  8
0
 62
7
100
AcDbPolyline
 90
2
 70
0
 10
578.002800
 20
165.921250
 30
0.0
 10
577.981000
 20
165.741750
 30
0.0
  0
LWPOLYLINE
  5
23f
100
AcDbEntity
  8
0
 62
7
100
AcDbPolyline
 90
2
 70
0
 10
578.066900
 20
166.090350
 30
0.0
 10
578.002800
 20
165.921250
 30
0.0
  0
LWPOLYLINE
  5
240
100
AcDbEntity
  8
0
 62
7
100
AcDbPolyline
 90
2
 70
0
 10
578.169600
 20
166.239150
 30
0.0
 10
578.066900
 20
166.090350
 30
0.0
  0
LWPOLYLINE
  5
241
100
AcDbEntity
  8
0
 62
7
100
AcDbPolyline
 90
2
 70
0
 10
578.304900
 20
166.359050
 30
0.0
 10
578.169600
 20
166.239150
 30
0.0
  0
LWPOLYLINE
  5
242
100
AcDbEntity
  8
0
 62
7
100
AcDbPolyline
 90
2
 70
0
 10
578.465000
 20
166.443050
 30
0.0
 10
578.304900
 20
166.359050
 30
0.0
  0
LWPOLYLINE
  5
243
100
AcDbEntity
  8
0
 62
7
100
AcDbPolyline
 90
2
 70
0
 10
578.640600
 20
166.486350
 30
0.0
 10
578.465000
 20
166.443050
 30
0.0
  0
LWPOLYLINE
  5
244
100
AcDbEntity
  8
0
 62
7
100
AcDbPolyline
 90
2
 70
0
 10
578.821400
 20
166.486350
 30
0.0
 10
578.640600
 20
166.486350
 30
0.0
  0
LWPOLYLINE
  5
245
100
AcDbEntity
  8
0
 62
7
100
AcDbPolyline
 90
2
 70
0
 10
578.996900
 20
166.443050
 30
0.0
 10
578.821400
 20
166.486350
 30
0.0
  0
LWPOLYLINE
  5
246
100
AcDbEntity
  8
0
 62
7
100
AcDbPolyline
 90
2
 70
0
 10
579.157000
 20
166.359050
 30
0.0
 10
578.996900
 20
166.443050
 30
0.0
  0
LWPOLYLINE
  5
247
100
AcDbEntity
  8
0
 62
7
100
AcDbPolyline
 90
2
 70
0
 10
579.292400
 20
166.239150
 30
0.0
 10
579.157000
 20
166.359050
 30
0.0
  0
LWPOLYLINE
  5
248
100
AcDbEntity
  8
0
 62
7
100
AcDbPolyline
 90
2
 70
0
 10
579.395100
 20
166.090350
 30
0.0
 10
579.292400
 20
166.239150
 30
0.0
  0
LWPOLYLINE
  5
249
100
AcDbEntity
  8
0
 62
7
100
AcDbPolyline
 90
2
 70
0
 10
579.459200
 20
165.921250
 30
0.0
 10
579.395100
 20
166.090350
 30
0.0
  0
LWPOLYLINE
  5
24a
100
AcDbEntity
  8
0
 62
7
100
AcDbPolyline
 90
2
 70
0
 10
579.481000
 20
165.741750
 30
0.0
 10
579.459200
 20
165.921250
 30
0.0
  0
LWPOLYLINE
  5
24b
100
AcDbEntity
  8
0
 62
7
100
AcDbPolyline
 90
2
 70
0
 10
454.459200
 20
165.562250
 30
0.0
 10
454.481000
 20
165.741750
 30
0.0
  0
LWPOLYLINE
  5
24c
100
AcDbEntity
  8
0
 62
7
100
AcDbPolyline
 90
2
 70
0
 10
454.395100
 20
165.393250
 30
0.0
 10
454.459200
 20
165.562250
 30
0.0
  0
LWPOLYLINE
  5
24d
100
AcDbEntity
  8
0
 62
7
100
AcDbPolyline
 90
2
 70
0
 10
454.292400
 20
165.244450
 30
0.0
 10
454.395100
 20
165.393250
 30
0.0
  0
LWPOLYLINE
  5
24e
100
AcDbEntity
  8
0
 62
7
100
AcDbPolyline
 90
2
 70
0
 10
454.157000
 20
165.124550
 30
0.0
 10
454.292400
 20
165.244450
 30
0.0
  0
LWPOLYLINE
  5
24f
100
AcDbEntity
  8
0
 62
7
100
AcDbPolyline
 90
2
 70
0
 10
453.996900
 20
165.040550
 30
0.0
 10
454.157000
 20
165.124550
 30
0.0
  0
LWPOLYLINE
  5
250
100
AcDbEntity
  8
0
 62
7
100
AcDbPolyline
 90
2
 70
0
 10
453.821400
 20
164.997250
 30
0.0
 10
453.996900
 20
165.040550
 30
0.0
  0
LWPOLYLINE
  5
251
100
AcDbEntity
  8
0
 62
7
100
AcDbPolyline
 90
2
 70
0
 10
453.640600
 20
164.997250
 30
0.0
 10
453.821400
 20
164.997250
 30
0.0
  0
LWPOLYLINE
  5
252
100
AcDbEntity
  8
0
 62
7
100
AcDbPolyline
 90
2
 70
0
 10
453.465000
 20
165.040550
 30
0.0
 10
453.640600
 20
164.997250
 30
0.0
  0
LWPOLYLINE
  5
253
100
AcDbEntity
  8
0
 62
7
100
AcDbPolyline
 90
2
 70
0
 10
453.304900
 20
165.124550
 30
0.0
 10
453.465000
 20
165.040550
 30
0.0
  0
LWPOLYLINE
  5
254
100
AcDbEntity
  8
0
 62
7
100
AcDbPolyline
 90
2
 70
0
 10
453.169600
 20
165.244450
 30
0.0
 10
453.304900
 20
165.124550
 30
0.0
  0
LWPOLYLINE
  5
255
100
AcDbEntity
  8
0
 62
7
100
AcDbPolyline
 90
2
 70
0
 10
453.066900
 20
165.393250
 30
0.0
 10
453.169600
 20
165.244450
 30
0.0
  0
LWPOLYLINE
  5
256
100
AcDbEntity
  8
0
 62
7
100
AcDbPolyline
 90
2
 70
0
 10
453.002800
 20
165.562250
 30
0.0
 10
453.066900
 20
165.393250
 30
0.0
  0
LWPOLYLINE
  5
257
100
AcDbEntity
  8
0
 62
7
100
AcDbPolyline
 90
2
 70
0
 10
452.981000
 20
165.741750
 30
0.0
 10
453.002800
 20
165.562250
 30
0.0
  0
LWPOLYLINE
  5
258
100
AcDbEntity
  8
0
 62
7
100
AcDbPolyline
 90
2
 70
0
 10
453.002800
 20
165.921250
 30
0.0
 10
452.981000
 20
165.741750
 30
0.0
  0
LWPOLYLINE
  5
259
100
AcDbEntity
  8
0
 62
7
100
AcDbPolyline
 90
2
 70
0
 10
453.066900
 20
166.090350
 30
0.0
 10
453.002800
 20
165.921250
 30
0.0
  0
LWPOLYLINE
  5
25a
100
AcDbEntity
  8
0
 62
7
100
AcDbPolyline
 90
2
 70
0
 10
453.169600
 20
166.239150
 30
0.0
 10
453.066900
 20
166.090350
 30
0.0
  0
LWPOLYLINE
  5
25b
100
AcDbEntity
  8
0
 62
7
100
AcDbPolyline
 90
2
 70
0
 10
453.304900
 20
166.359050
 30
0.0
 10
453.169600
 20
166.239150
 30
0.0
  0
LWPOLYLINE
  5
25c
100
AcDbEntity
  8
0
 62
7
100
AcDbPolyline
 90
2
 70
0
 10
453.465000
 20
166.443050
 30
0.0
 10
453.304900
 20
166.359050
 30
0.0
  0
LWPOLYLINE
  5
25d
100
AcDbEntity
  8
0
 62
7
100
AcDbPolyline
 90
2
 70
0
 10
453.640600
 20
166.486350
 30
0.0
 10
453.465000
 20
166.443050
 30
0.0
  0
LWPOLYLINE
  5
25e
100
AcDbEntity
  8
0
 62
7
100
AcDbPolyline
 90
2
 70
0
 10
453.821400
 20
166.486350
 30
0.0
 10
453.640600
 20
166.486350
 30
0.0
  0
LWPOLYLINE
  5
25f
100
AcDbEntity
  8
0
 62
7
100
AcDbPolyline
 90
2
 70
0
 10
453.996900
 20
166.443050
 30
0.0
 10
453.821400
 20
166.486350
 30
0.0
  0
LWPOLYLINE
  5
260
100
AcDbEntity
  8
0
 62
7
100
AcDbPolyline
 90
2
 70
0
 10
454.157000
 20
166.359050
 30
0.0
 10
453.996900
 20
166.443050
 30
0.0
  0
LWPOLYLINE
  5
261
100
AcDbEntity
  8
0
 62
7
100
AcDbPolyline
 90
2
 70
0
 10
454.292400
 20
166.239150
 30
0.0
 10
454.157000
 20
166.359050
 30
0.0
  0
LWPOLYLINE
  5
262
100
AcDbEntity
  8
0
 62
7
100
AcDbPolyline
 90
2
 70
0
 10
454.395100
 20
166.090350
 30
0.0
 10
454.292400
 20
166.239150
 30
0.0
  0
LWPOLYLINE
  5
263
100
AcDbEntity
  8
0
 62
7
100
AcDbPolyline
 90
2
 70
0
 10
454.459200
 20
165.921250
 30
0.0
 10
454.395100
 20
166.090350
 30
0.0
  0
LWPOLYLINE
  5
264
100
AcDbEntity
  8
0
 62
7
100
AcDbPolyline
 90
2
 70
0
 10
454.481000
 20
165.741750
 30
0.0
 10
454.459200
 20
165.921250
 30
0.0
  0
LWPOLYLINE
  5
265
100
AcDbEntity
  8
0
 62
7
100
AcDbPolyline
 90
4
 70
1
 10
460.749400
 20
113.682450
 30
0.0
 10
470.749400
 20
113.682450
 30
0.0
 10
470.749400
 20
103.682450
 30
0.0
 10
460.749400
 20
103.682450
 30
0.0
  0
LWPOLYLINE
  5
266
100
AcDbEntity
  8
0
 62
7
100
AcDbPolyline
 90
4
 70
1
 10
485.707500
 20
71.659850
 30
0.0
 10
495.707500
 20
71.659850
 30
0.0
 10
495.707500
 20
61.659850
 30
0.0
 10
485.707500
 20
61.659850
 30
0.0
  0
LWPOLYLINE
  5
267
100
AcDbEntity
  8
0
 62
7
100
AcDbPolyline
 90
4
 70
1
 10
500.707500
 20
71.659850
 30
0.0
 10
510.707530
 20
71.659850
 30
0.0
 10
510.707530
 20
61.659850
 30
0.0
 10
500.707500
 20
61.659850
 30
0.0
  0
LWPOLYLINE
  5
268
100
AcDbEntity
  8
0
 62
7
100
AcDbPolyline
 90
4
 70
1
 10
515.707530
 20
71.659850
 30
0.0
 10
525.707530
 20
71.659850
 30
0.0
 10
525.707530
 20
61.659850
 30
0.0
 10
515.707530
 20
61.659850
 30
0.0
  0
LWPOLYLINE
  5
269
100
AcDbEntity
  8
0
 62
7
100
AcDbPolyline
 90
4
 70
1
 10
530.707500
 20
71.659850
 30
0.0
 10
540.707500
 20
71.659850
 30
0.0
 10
540.707500
 20
61.659850
 30
0.0
 10
530.707500
 20
61.659850
 30
0.0
  0
LWPOLYLINE
  5
26a
100
AcDbEntity
  8
0
 62
7
100
AcDbPolyline
 90
4
 70
1
 10
547.493800
 20
121.486750
 30
0.0
 10
572.493800
 20
121.486750
 30
0.0
 10
572.493800
 20
96.486750
 30
0.0
 10
547.493800
 20
96.486750
 30
0.0
  0
LWPOLYLINE
  5
26b
100
AcDbEntity
  8
0
 62
7
100
AcDbPolyline
 90
4
 70
1
 10
487.735200
 20
146.619150
 30
0.0
 10
538.735200
 20
146.619150
 30
0.0
 10
538.735200
 20
75.619150
 30
0.0
 10
487.735200
 20
75.619150
 30
0.0
  0
LWPOLYLINE
  5
26c
100
AcDbEntity
  8
0
 62
7
100
AcDbPolyline
 90
2
 70
0
 10
450.712000
 20
47.617150
 30
0.0
 10
450.712000
 20
169.617150
 30
0.0
  0
LWPOLYLINE
  5
26d
100
AcDbEntity
  8
0
 62
7
100
AcDbPolyline
 90
2
 70
0
 10
580.712000
 20
47.617150
 30
0.0
 10
450.712000
 20
47.617150
 30
0.0
  0
LWPOLYLINE
  5
26e
100
AcDbEntity
  8
0
 62
7
100
AcDbPolyline
 90
2
 70
0
 10
580.712000
 20
169.617150
 30
0.0
 10
580.712000
 20
47.617150
 30
0.0
  0
LWPOLYLINE
  5
26f
100
AcDbEntity
  8
0
 62
7
100
AcDbPolyline
 90
2
 70
0
 10
450.712000
 20
169.617150
 30
0.0
 10
580.712000
 20
169.617150
 30
0.0
  0
LWPOLYLINE
  5
270
100
AcDbEntity
  8
0
 62
7
100
AcDbPolyline
 90
2
 70
0
 10
668.771100
 20
104.764550
 30
0.0
 10
668.792900
 20
104.943950
 30
0.0
  0
LWPOLYLINE
  5
271
100
AcDbEntity
  8
0
 62
7
100
AcDbPolyline
 90
2
 70
0
 10
668.707000
 20
104.595450
 30
0.0
 10
668.771100
 20
104.764550
 30
0.0
  0
LWPOLYLINE
  5
272
100
AcDbEntity
  8
0
 62
7
100
AcDbPolyline
 90
2
 70
0
 10
668.604300
 20
104.446650
 30
0.0
 10
668.707000
 20
104.595450
 30
0.0
  0
LWPOLYLINE
  5
273
100
AcDbEntity
  8
0
 62
7
100
AcDbPolyline
 90
2
 70
0
 10
668.469000
 20
104.326750
 30
0.0
 10
668.604300
 20
104.446650
 30
0.0
  0
LWPOLYLINE
  5
274
100
AcDbEntity
  8
0
 62
7
100
AcDbPolyline
 90
2
 70
0
 10
668.308900
 20
104.242750
 30
0.0
 10
668.469000
 20
104.326750
 30
0.0
  0
LWPOLYLINE
  5
275
100
AcDbEntity
  8
0
 62
7
100
AcDbPolyline
 90
2
 70
0
 10
668.133300
 20
104.199450
 30
0.0
 10
668.308900
 20
104.242750
 30
0.0
  0
LWPOLYLINE
  5
276
100
AcDbEntity
  8
0
 62
7
100
AcDbPolyline
 90
2
 70
0
 10
667.952500
 20
104.199450
 30
0.0
 10
668.133300
 20
104.199450
 30
0.0
  0
LWPOLYLINE
  5
277
100
AcDbEntity
  8
0
 62
7
100
AcDbPolyline
 90
2
 70
0
 10
667.777000
 20
104.242750
 30
0.0
 10
667.952500
 20
104.199450
 30
0.0
  0
LWPOLYLINE
  5
278
100
AcDbEntity
  8
0
 62
7
100
AcDbPolyline
 90
2
 70
0
 10
667.616900
 20
104.326750
 30
0.0
 10
667.777000
 20
104.242750
 30
0.0
  0
LWPOLYLINE
  5
279
100
AcDbEntity
  8
0
 62
7
100
AcDbPolyline
 90
2
 70
0
 10
667.481500
 20
104.446650
 30
0.0
 10
667.616900
 20
104.326750
 30
0.0
  0
LWPOLYLINE
  5
27a
100
AcDbEntity
  8
0
 62
7
100
AcDbPolyline
 90
2
 70
0
 10
667.378800
 20
104.595450
 30
0.0
 10
667.481500
 20
104.446650
 30
0.0
  0
LWPOLYLINE
  5
27b
100
AcDbEntity
  8
0
 62
7
100
AcDbPolyline
 90
2
 70
0
 10
667.314700
 20
104.764550
 30
0.0
 10
667.378800
 20
104.595450
 30
0.0
  0
LWPOLYLINE
  5
27c
100
AcDbEntity
  8
0
 62
7
100
AcDbPolyline
 90
2
 70
0
 10
667.292900
 20
104.943950
 30
0.0
 10
667.314700
 20
104.764550
 30
0.0
  0
LWPOLYLINE
  5
27d
100
AcDbEntity
  8
0
 62
7
100
AcDbPolyline
 90
2
 70
0
 10
667.314700
 20
105.123450
 30
0.0
 10
667.292900
 20
104.943950
 30
0.0
  0
LWPOLYLINE
  5
27e
100
AcDbEntity
  8
0
 62
7
100
AcDbPolyline
 90
2
 70
0
 10
667.378800
 20
105.292550
 30
0.0
 10
667.314700
 20
105.123450
 30
0.0
  0
LWPOLYLINE
  5
27f
100
AcDbEntity
  8
0
 62
7
100
AcDbPolyline
 90
2
 70
0
 10
667.481500
 20
105.441350
 30
0.0
 10
667.378800
 20
105.292550
 30
0.0
  0
LWPOLYLINE
  5
280
100
AcDbEntity
  8
0
 62
7
100
AcDbPolyline
 90
2
 70
0
 10
667.616900
 20
105.561250
 30
0.0
 10
667.481500
 20
105.441350
 30
0.0
  0
LWPOLYLINE
  5
281
100
AcDbEntity
  8
0
 62
7
100
AcDbPolyline
 90
2
 70
0
 10
667.777000
 20
105.645250
 30
0.0
 10
667.616900
 20
105.561250
 30
0.0
  0
LWPOLYLINE
  5
282
100
AcDbEntity
  8
0
 62
7
100
AcDbPolyline
 90
2
 70
0
 10
667.952500
 20
105.688550
 30
0.0
 10
667.777000
 20
105.645250
 30
0.0
  0
LWPOLYLINE
  5
283
100
AcDbEntity
  8
0
 62
7
100
AcDbPolyline
 90
2
 70
0
 10
668.133300
 20
105.688550
 30
0.0
 10
667.952500
 20
105.688550
 30
0.0
  0
LWPOLYLINE
  5
284
100
AcDbEntity
  8
0
 62
7
100
AcDbPolyline
 90
2
 70
0
 10
668.308900
 20
105.645250
 30
0.0
 10
668.133300
 20
105.688550
 30
0.0
  0
LWPOLYLINE
  5
285
100
AcDbEntity
  8
0
 62
7
100
AcDbPolyline
 90
2
 70
0
 10
668.469000
 20
105.561250
 30
0.0
 10
668.308900
 20
105.645250
 30
0.0
  0
LWPOLYLINE
  5
286
100
AcDbEntity
  8
0
 62
7
100
AcDbPolyline
 90
2
 70
0
 10
668.604300
 20
105.441350
 30
0.0
 10
668.469000
 20
105.561250
 30
0.0
  0
LWPOLYLINE
  5
287
100
AcDbEntity
  8
0
 62
7
100
AcDbPolyline
 90
2
 70
0
 10
668.707000
 20
105.292550
 30
0.0
 10
668.604300
 20
105.441350
 30
0.0
  0
LWPOLYLINE
  5
288
100
AcDbEntity
  8
0
 62
7
100
AcDbPolyline
 90
2
 70
0
 10
668.771100
 20
105.123450
 30
0.0
 10
668.707000
 20
105.292550
 30
0.0
  0
LWPOLYLINE
  5
289
100
AcDbEntity
  8
0
 62
7
100
AcDbPolyline
 90
2
 70
0
 10
668.792900
 20
104.943950
 30
0.0
 10
668.771100
 20
105.123450
 30
0.0
  0
LWPOLYLINE
  5
28a
100
AcDbEntity
  8
0
 62
7
100
AcDbPolyline
 90
2
 70
0
 10
605.771200
 20
104.710150
 30
0.0
 10
605.793000
 20
104.889650
 30
0.0
  0
LWPOLYLINE
  5
28b
100
AcDbEntity
  8
0
 62
7
100
AcDbPolyline
 90
2
 70
0
 10
605.707000
 20
104.541150
 30
0.0
 10
605.771200
 20
104.710150
 30
0.0
  0
LWPOLYLINE
  5
28c
100
AcDbEntity
  8
0
 62
7
100
AcDbPolyline
 90
2
 70
0
 10
605.604300
 20
104.392350
 30
0.0
 10
605.707000
 20
104.541150
 30
0.0
  0
LWPOLYLINE
  5
28d
100
AcDbEntity
  8
0
 62
7
100
AcDbPolyline
 90
2
 70
0
 10
605.469000
 20
104.272450
 30
0.0
 10
605.604300
 20
104.392350
 30
0.0
  0
LWPOLYLINE
  5
28e
100
AcDbEntity
  8
0
 62
7
100
AcDbPolyline
 90
2
 70
0
 10
605.308900
 20
104.188450
 30
0.0
 10
605.469000
 20
104.272450
 30
0.0
  0
LWPOLYLINE
  5
28f
100
AcDbEntity
  8
0
 62
7
100
AcDbPolyline
 90
2
 70
0
 10
605.133400
 20
104.145150
 30
0.0
 10
605.308900
 20
104.188450
 30
0.0
  0
LWPOLYLINE
  5
290
100
AcDbEntity
  8
0
 62
7
100
AcDbPolyline
 90
2
 70
0
 10
604.952600
 20
104.145150
 30
0.0
 10
605.133400
 20
104.145150
 30
0.0
  0
LWPOLYLINE
  5
291
100
AcDbEntity
  8
0
 62
7
100
AcDbPolyline
 90
2
 70
0
 10
604.777000
 20
104.188450
 30
0.0
 10
604.952600
 20
104.145150
 30
0.0
  0
LWPOLYLINE
  5
292
100
AcDbEntity
  8
0
 62
7
100
AcDbPolyline
 90
2
 70
0
 10
604.616900
 20
104.272450
 30
0.0
 10
604.777000
 20
104.188450
 30
0.0
  0
LWPOLYLINE
  5
293
100
AcDbEntity
  8
0
 62
7
100
AcDbPolyline
 90
2
 70
0
 10
604.481600
 20
104.392350
 30
0.0
 10
604.616900
 20
104.272450
 30
0.0
  0
LWPOLYLINE
  5
294
100
AcDbEntity
  8
0
 62
7
100
AcDbPolyline
 90
2
 70
0
 10
604.378900
 20
104.541150
 30
0.0
 10
604.481600
 20
104.392350
 30
0.0
  0
LWPOLYLINE
  5
295
100
AcDbEntity
  8
0
 62
7
100
AcDbPolyline
 90
2
 70
0
 10
604.314700
 20
104.710150
 30
0.0
 10
604.378900
 20
104.541150
 30
0.0
  0
LWPOLYLINE
  5
296
100
AcDbEntity
  8
0
 62
7
100
AcDbPolyline
 90
2
 70
0
 10
604.293000
 20
104.889650
 30
0.0
 10
604.314700
 20
104.710150
 30
0.0
  0
LWPOLYLINE
  5
297
100
AcDbEntity
  8
0
 62
7
100
AcDbPolyline
 90
2
 70
0
 10
604.314700
 20
105.069150
 30
0.0
 10
604.293000
 20
104.889650
 30
0.0
  0
LWPOLYLINE
  5
298
100
AcDbEntity
  8
0
 62
7
100
AcDbPolyline
 90
2
 70
0
 10
604.378900
 20
105.238250
 30
0.0
 10
604.314700
 20
105.069150
 30
0.0
  0
LWPOLYLINE
  5
299
100
AcDbEntity
  8
0
 62
7
100
AcDbPolyline
 90
2
 70
0
 10
604.481600
 20
105.387050
 30
0.0
 10
604.378900
 20
105.238250
 30
0.0
  0
LWPOLYLINE
  5
29a
100
AcDbEntity
  8
0
 62
7
100
AcDbPolyline
 90
2
 70
0
 10
604.616900
 20
105.506950
 30
0.0
 10
604.481600
 20
105.387050
 30
0.0
  0
LWPOLYLINE
  5
29b
100
AcDbEntity
  8
0
 62
7
100
AcDbPolyline
 90
2
 70
0
 10
604.777000
 20
105.590950
 30
0.0
 10
604.616900
 20
105.506950
 30
0.0
  0
LWPOLYLINE
  5
29c
100
AcDbEntity
  8
0
 62
7
100
AcDbPolyline
 90
2
 70
0
 10
604.952600
 20
105.634150
 30
0.0
 10
604.777000
 20
105.590950
 30
0.0
  0
LWPOLYLINE
  5
29d
100
AcDbEntity
  8
0
 62
7
100
AcDbPolyline
 90
2
 70
0
 10
605.133400
 20
105.634150
 30
0.0
 10
604.952600
 20
105.634150
 30
0.0
  0
LWPOLYLINE
  5
29e
100
AcDbEntity
  8
0
 62
7
100
AcDbPolyline
 90
2
 70
0
 10
605.308900
 20
105.590950
 30
0.0
 10
605.133400
 20
105.634150
 30
0.0
  0
LWPOLYLINE
  5
29f
100
AcDbEntity
  8
0
 62
7
100
AcDbPolyline
 90
2
 70
0
 10
605.469000
 20
105.506950
 30
0.0
 10
605.308900
 20
105.590950
 30
0.0
  0
LWPOLYLINE
  5
2a0
100
AcDbEntity
  8
0
 62
7
100
AcDbPolyline
 90
2
 70
0
 10
605.604300
 20
105.387050
 30
0.0
 10
605.469000
 20
105.506950
 30
0.0
  0
LWPOLYLINE
  5
2a1
100
AcDbEntity
  8
0
 62
7
100
AcDbPolyline
 90
2
 70
0
 10
605.707000
 20
105.238250
 30
0.0
 10
605.604300
 20
105.387050
 30
0.0
  0
LWPOLYLINE
  5
2a2
100
AcDbEntity
  8
0
 62
7
100
AcDbPolyline
 90
2
 70
0
 10
605.771200
 20
105.069150
 30
0.0
 10
605.707000
 20
105.238250
 30
0.0
  0
LWPOLYLINE
  5
2a3
100
AcDbEntity
  8
0
 62
7
100
AcDbPolyline
 90
2
 70
0
 10
605.793000
 20
104.889650
 30
0.0
 10
605.771200
 20
105.069150
 30
0.0
  0
LWPOLYLINE
  5
2a4
100
AcDbEntity
  8
0
 62
7
100
AcDbPolyline
 90
2
 70
0
 10
668.719400
 20
164.764450
 30
0.0
 10
668.741200
 20
164.943950
 30
0.0
  0
LWPOLYLINE
  5
2a5
100
AcDbEntity
  8
0
 62
7
100
AcDbPolyline
 90
2
 70
0
 10
668.655300
 20
164.595450
 30
0.0
 10
668.719400
 20
164.764450
 30
0.0
  0
LWPOLYLINE
  5
2a6
100
AcDbEntity
  8
0
 62
7
100
AcDbPolyline
 90
2
 70
0
 10
668.552600
 20
164.446650
 30
0.0
 10
668.655300
 20
164.595450
 30
0.0
  0
LWPOLYLINE
  5
2a7
100
AcDbEntity
  8
0
 62
7
100
AcDbPolyline
 90
2
 70
0
 10
668.417200
 20
164.326750
 30
0.0
 10
668.552600
 20
164.446650
 30
0.0
  0
LWPOLYLINE
  5
2a8
100
AcDbEntity
  8
0
 62
7
100
AcDbPolyline
 90
2
 70
0
 10
668.257100
 20
164.242750
 30
0.0
 10
668.417200
 20
164.326750
 30
0.0
  0
LWPOLYLINE
  5
2a9
100
AcDbEntity
  8
0
 62
7
100
AcDbPolyline
 90
2
 70
0
 10
668.081600
 20
164.199450
 30
0.0
 10
668.257100
 20
164.242750
 30
0.0
  0
LWPOLYLINE
  5
2aa
100
AcDbEntity
  8
0
 62
7
100
AcDbPolyline
 90
2
 70
0
 10
667.900800
 20
164.199450
 30
0.0
 10
668.081600
 20
164.199450
 30
0.0
  0
LWPOLYLINE
  5
2ab
100
AcDbEntity
  8
0
 62
7
100
AcDbPolyline
 90
2
 70
0
 10
667.725200
 20
164.242750
 30
0.0
 10
667.900800
 20
164.199450
 30
0.0
  0
LWPOLYLINE
  5
2ac
100
AcDbEntity
  8
0
 62
7
100
AcDbPolyline
 90
2
 70
0
 10
667.565100
 20
164.326750
 30
0.0
 10
667.725200
 20
164.242750
 30
0.0
  0
LWPOLYLINE
  5
2ad
100
AcDbEntity
  8
0
 62
7
100
AcDbPolyline
 90
2
 70
0
 10
667.429800
 20
164.446650
 30
0.0
 10
667.565100
 20
164.326750
 30
0.0
  0
LWPOLYLINE
  5
2ae
100
AcDbEntity
  8
0
 62
7
100
AcDbPolyline
 90
2
 70
0
 10
667.327100
 20
164.595450
 30
0.0
 10
667.429800
 20
164.446650
 30
0.0
  0
LWPOLYLINE
  5
2af
100
AcDbEntity
  8
0
 62
7
100
AcDbPolyline
 90
2
 70
0
 10
667.263000
 20
164.764450
 30
0.0
 10
667.327100
 20
164.595450
 30
0.0
  0
LWPOLYLINE
  5
2b0
100
AcDbEntity
  8
0
 62
7
100
AcDbPolyline
 90
2
 70
0
 10
667.241200
 20
164.943950
 30
0.0
 10
667.263000
 20
164.764450
 30
0.0
  0
LWPOLYLINE
  5
2b1
100
AcDbEntity
  8
0
 62
7
100
AcDbPolyline
 90
2
 70
0
 10
667.263000
 20
165.123450
 30
0.0
 10
667.241200
 20
164.943950
 30
0.0
  0
LWPOLYLINE
  5
2b2
100
AcDbEntity
  8
0
 62
7
100
AcDbPolyline
 90
2
 70
0
 10
667.327100
 20
165.292550
 30
0.0
 10
667.263000
 20
165.123450
 30
0.0
  0
LWPOLYLINE
  5
2b3
100
AcDbEntity
  8
0
 62
7
100
AcDbPolyline
 90
2
 70
0
 10
667.429800
 20
165.441350
 30
0.0
 10
667.327100
 20
165.292550
 30
0.0
  0
LWPOLYLINE
  5
2b4
100
AcDbEntity
  8
0
 62
7
100
AcDbPolyline
 90
2
 70
0
 10
667.565100
 20
165.561250
 30
0.0
 10
667.429800
 20
165.441350
 30
0.0
  0
LWPOLYLINE
  5
2b5
100
AcDbEntity
  8
0
 62
7
100
AcDbPolyline
 90
2
 70
0
 10
667.725200
 20
165.645250
 30
0.0
 10
667.565100
 20
165.561250
 30
0.0
  0
LWPOLYLINE
  5
2b6
100
AcDbEntity
  8
0
 62
7
100
AcDbPolyline
 90
2
 70
0
 10
667.900800
 20
165.688550
 30
0.0
 10
667.725200
 20
165.645250
 30
0.0
  0
LWPOLYLINE
  5
2b7
100
AcDbEntity
  8
0
 62
7
100
AcDbPolyline
 90
2
 70
0
 10
668.081600
 20
165.688550
 30
0.0
 10
667.900800
 20
165.688550
 30
0.0
  0
LWPOLYLINE
  5
2b8
100
AcDbEntity
  8
0
 62
7
100
AcDbPolyline
 90
2
 70
0
 10
668.257100
 20
165.645250
 30
0.0
 10
668.081600
 20
165.688550
 30
0.0
  0
LWPOLYLINE
  5
2b9
100
AcDbEntity
  8
0
 62
7
100
AcDbPolyline
 90
2
 70
0
 10
668.417200
 20
165.561250
 30
0.0
 10
668.257100
 20
165.645250
 30
0.0
  0
LWPOLYLINE
  5
2ba
100
AcDbEntity
  8
0
 62
7
100
AcDbPolyline
 90
2
 70
0
 10
668.552600
 20
165.441350
 30
0.0
 10
668.417200
 20
165.561250
 30
0.0
  0
LWPOLYLINE
  5
2bb
100
AcDbEntity
  8
0
 62
7
100
AcDbPolyline
 90
2
 70
0
 10
668.655300
 20
165.292550
 30
0.0
 10
668.552600
 20
165.441350
 30
0.0
  0
LWPOLYLINE
  5
2bc
100
AcDbEntity
  8
0
 62
7
100
AcDbPolyline
 90
2
 70
0
 10
668.719400
 20
165.123450
 30
0.0
 10
668.655300
 20
165.292550
 30
0.0
  0
LWPOLYLINE
  5
2bd
100
AcDbEntity
  8
0
 62
7
100
AcDbPolyline
 90
2
 70
0
 10
668.741200
 20
164.943950
 30
0.0
 10
668.719400
 20
165.123450
 30
0.0
  0
LWPOLYLINE
  5
2be
100
AcDbEntity
  8
0
 62
7
100
AcDbPolyline
 90
2
 70
0
 10
605.719400
 20
164.710150
 30
0.0
 10
605.741200
 20
164.889650
 30
0.0
  0
LWPOLYLINE
  5
2bf
100
AcDbEntity
  8
0
 62
7
100
AcDbPolyline
 90
2
 70
0
 10
605.655300
 20
164.541050
 30
0.0
 10
605.719400
 20
164.710150
 30
0.0
  0
LWPOLYLINE
  5
2c0
100
AcDbEntity
  8
0
 62
7
100
AcDbPolyline
 90
2
 70
0
 10
605.552600
 20
164.392250
 30
0.0
 10
605.655300
 20
164.541050
 30
0.0
  0
LWPOLYLINE
  5
2c1
100
AcDbEntity
  8
0
 62
7
100
AcDbPolyline
 90
2
 70
0
 10
605.417300
 20
164.272450
 30
0.0
 10
605.552600
 20
164.392250
 30
0.0
  0
LWPOLYLINE
  5
2c2
100
AcDbEntity
  8
0
 62
7
100
AcDbPolyline
 90
2
 70
0
 10
605.257200
 20
164.188350
 30
0.0
 10
605.417300
 20
164.272450
 30
0.0
  0
LWPOLYLINE
  5
2c3
100
AcDbEntity
  8
0
 62
7
100
AcDbPolyline
 90
2
 70
0
 10
605.081600
 20
164.145150
 30
0.0
 10
605.257200
 20
164.188350
 30
0.0
  0
LWPOLYLINE
  5
2c4
100
AcDbEntity
  8
0
 62
7
100
AcDbPolyline
 90
2
 70
0
 10
604.900800
 20
164.145150
 30
0.0
 10
605.081600
 20
164.145150
 30
0.0
  0
LWPOLYLINE
  5
2c5
100
AcDbEntity
  8
0
 62
7
100
AcDbPolyline
 90
2
 70
0
 10
604.725300
 20
164.188350
 30
0.0
 10
604.900800
 20
164.145150
 30
0.0
  0
LWPOLYLINE
  5
2c6
100
AcDbEntity
  8
0
 62
7
100
AcDbPolyline
 90
2
 70
0
 10
604.565200
 20
164.272450
 30
0.0
 10
604.725300
 20
164.188350
 30
0.0
  0
LWPOLYLINE
  5
2c7
100
AcDbEntity
  8
0
 62
7
100
AcDbPolyline
 90
2
 70
0
 10
604.429800
 20
164.392250
 30
0.0
 10
604.565200
 20
164.272450
 30
0.0
  0
LWPOLYLINE
  5
2c8
100
AcDbEntity
  8
0
 62
7
100
AcDbPolyline
 90
2
 70
0
 10
604.327100
 20
164.541050
 30
0.0
 10
604.429800
 20
164.392250
 30
0.0
  0
LWPOLYLINE
  5
2c9
100
AcDbEntity
  8
0
 62
7
100
AcDbPolyline
 90
2
 70
0
 10
604.263000
 20
164.710150
 30
0.0
 10
604.327100
 20
164.541050
 30
0.0
  0
LWPOLYLINE
  5
2ca
100
AcDbEntity
  8
0
 62
7
100
AcDbPolyline
 90
2
 70
0
 10
604.241200
 20
164.889650
 30
0.0
 10
604.263000
 20
164.710150
 30
0.0
  0
LWPOLYLINE
  5
2cb
100
AcDbEntity
  8
0
 62
7
100
AcDbPolyline
 90
2
 70
0
 10
604.263000
 20
165.069150
 30
0.0
 10
604.241200
 20
164.889650
 30
0.0
  0
LWPOLYLINE
  5
2cc
100
AcDbEntity
  8
0
 62
7
100
AcDbPolyline
 90
2
 70
0
 10
604.327100
 20
165.238150
 30
0.0
 10
604.263000
 20
165.069150
 30
0.0
  0
LWPOLYLINE
  5
2cd
100
AcDbEntity
  8
0
 62
7
100
AcDbPolyline
 90
2
 70
0
 10
604.429800
 20
165.386950
 30
0.0
 10
604.327100
 20
165.238150
 30
0.0
  0
LWPOLYLINE
  5
2ce
100
AcDbEntity
  8
0
 62
7
100
AcDbPolyline
 90
2
 70
0
 10
604.565200
 20
165.506850
 30
0.0
 10
604.429800
 20
165.386950
 30
0.0
  0
LWPOLYLINE
  5
2cf
100
AcDbEntity
  8
0
 62
7
100
AcDbPolyline
 90
2
 70
0
 10
604.725300
 20
165.590950
 30
0.0
 10
604.565200
 20
165.506850
 30
0.0
  0
LWPOLYLINE
  5
2d0
100
AcDbEntity
  8
0
 62
7
100
AcDbPolyline
 90
2
 70
0
 10
604.900800
 20
165.634150
 30
0.0
 10
604.725300
 20
165.590950
 30
0.0
  0
LWPOLYLINE
  5
2d1
100
AcDbEntity
  8
0
 62
7
100
AcDbPolyline
 90
2
 70
0
 10
605.081600
 20
165.634150
 30
0.0
 10
604.900800
 20
165.634150
 30
0.0
  0
LWPOLYLINE
  5
2d2
100
AcDbEntity
  8
0
 62
7
100
AcDbPolyline
 90
2
 70
0
 10
605.257200
 20
165.590950
 30
0.0
 10
605.081600
 20
165.634150
 30
0.0
  0
LWPOLYLINE
  5
2d3
100
AcDbEntity
  8
0
 62
7
100
AcDbPolyline
 90
2
 70
0
 10
605.417300
 20
165.506850
 30
0.0
 10
605.257200
 20
165.590950
 30
0.0
  0
LWPOLYLINE
  5
2d4
100
AcDbEntity
  8
0
 62
7
100
AcDbPolyline
 90
2
 70
0
 10
605.552600
 20
165.386950
 30
0.0
 10
605.417300
 20
165.506850
 30
0.0
  0
LWPOLYLINE
  5
2d5
100
AcDbEntity
  8
0
 62
7
100
AcDbPolyline
 90
2
 70
0
 10
605.655300
 20
165.238150
 30
0.0
 10
605.552600
 20
165.386950
 30
0.0
  0
LWPOLYLINE
  5
2d6
100
AcDbEntity
  8
0
 62
7
100
AcDbPolyline
 90
2
 70
0
 10
605.719400
 20
165.069150
 30
0.0
 10
605.655300
 20
165.238150
 30
0.0
  0
LWPOLYLINE
  5
2d7
100
AcDbEntity
  8
0
 62
7
100
AcDbPolyline
 90
2
 70
0
 10
605.741200
 20
164.889650
 30
0.0
 10
605.719400
 20
165.069150
 30
0.0
  0
LWPOLYLINE
  5
2d8
100
AcDbEntity
  8
0
 62
7
100
AcDbPolyline
 90
4
 70
1
 10
638.340120
 20
158.048050
 30
0.0
 10
646.040120
 20
158.048050
 30
0.0
 10
646.040120
 20
155.048050
 30
0.0
 10
638.340120
 20
155.048050
 30
0.0
  0
LWPOLYLINE
  5
2d9
100
AcDbEntity
  8
0
 62
7
100
AcDbPolyline
 90
4
 70
1
 10
650.910100
 20
158.049650
 30
0.0
 10
658.610100
 20
158.049650
 30
0.0
 10
658.610100
 20
155.049650
 30
0.0
 10
650.910100
 20
155.049650
 30
0.0
  0
LWPOLYLINE
  5
2da
100
AcDbEntity
  8
0
 62
7
100
AcDbPolyline
 90
4
 70
1
 10
613.200100
 20
158.044950
 30
0.0
 10
620.900100
 20
158.044950
 30
0.0
 10
620.900100
 20
155.044950
 30
0.0
 10
613.200100
 20
155.044950
 30
0.0
  0
LWPOLYLINE
  5
2db
100
AcDbEntity
  8
0
 62
7
100
AcDbPolyline
 90
4
 70
1
 10
625.770100
 20
158.046550
 30
0.0
 10
633.470100
 20
158.046550
 30
0.0
 10
633.470100
 20
155.046550
 30
0.0
 10
625.770100
 20
155.046550
 30
0.0
  0
LWPOLYLINE
  5
2dc
100
AcDbEntity
  8
0
 62
7
100
AcDbPolyline
 90
4
 70
1
 10
611.283200
 20
129.757720
 30
0.0
 10
661.283200
 20
129.757720
 30
0.0
 10
661.283200
 20
110.757750
 30
0.0
 10
611.283200
 20
110.757750
 30
0.0
  0
LWPOLYLINE
  5
2dd
100
AcDbEntity
  8
0
 62
7
100
AcDbPolyline
 90
4
 70
1
 10
608.381500
 20
140.467120
 30
0.0
 10
663.381500
 20
140.467120
 30
0.0
 10
663.381500
 20
137.467120
 30
0.0
 10
608.381500
 20
137.467120
 30
0.0
  0
LWPOLYLINE
  5
2de
100
AcDbEntity
  8
0
 62
7
100
AcDbPolyline
 90
2
 70
0
 10
602.585000
 20
102.468650
 30
0.0
 10
602.585000
 20
167.468650
 30
0.0
  0
LWPOLYLINE
  5
2df
100
AcDbEntity
  8
0
 62
7
100
AcDbPolyline
 90
2
 70
0
 10
670.585000
 20
102.468650
 30
0.0
 10
602.585000
 20
102.468650
 30
0.0
  0
LWPOLYLINE
  5
2e0
100
AcDbEntity
  8
0
 62
7
100
AcDbPolyline
 90
2
 70
0
 10
670.585000
 20
167.468650
 30
0.0
 10
670.585000
 20
102.468650
 30
0.0
  0
LWPOLYLINE
  5
2e1
100
AcDbEntity
  8
0
 62
7
100
AcDbPolyline
 90
2
 70
0
 10
602.585000
 20
167.468650
 30
0.0
 10
670.585000
 20
167.468650
 30
0.0
  0
LWPOLYLINE
  5
2e2
100
AcDbEntity
  8
0
 62
7
100
AcDbPolyline
 90
2
 70
0
 10
144.013200
 20
-127.342750
 30
0.0
 10
144.049600
 20
-127.043550
 30
0.0
  0
LWPOLYLINE
  5
2e3
100
AcDbEntity
  8
0
 62
7
100
AcDbPolyline
 90
2
 70
0
 10
143.906400
 20
-127.624550
 30
0.0
 10
144.013200
 20
-127.342750
 30
0.0
  0
LWPOLYLINE
  5
2e4
100
AcDbEntity
  8
0
 62
7
100
AcDbPolyline
 90
2
 70
0
 10
143.735200
 20
-127.872550
 30
0.0
 10
143.906400
 20
-127.624550
 30
0.0
  0
LWPOLYLINE
  5
2e5
100
AcDbEntity
  8
0
 62
7
100
AcDbPolyline
 90
2
 70
0
 10
143.509600
 20
-128.072350
 30
0.0
 10
143.735200
 20
-127.872550
 30
0.0
  0
LWPOLYLINE
  5
2e6
100
AcDbEntity
  8
0
 62
7
100
AcDbPolyline
 90
2
 70
0
 10
143.242800
 20
-128.212350
 30
0.0
 10
143.509600
 20
-128.072350
 30
0.0
  0
LWPOLYLINE
  5
2e7
100
AcDbEntity
  8
0
 62
7
100
AcDbPolyline
 90
2
 70
0
 10
142.950200
 20
-128.284450
 30
0.0
 10
143.242800
 20
-128.212350
 30
0.0
  0
LWPOLYLINE
  5
2e8
100
AcDbEntity
  8
0
 62
7
100
AcDbPolyline
 90
2
 70
0
 10
142.648900
 20
-128.284450
 30
0.0
 10
142.950200
 20
-128.284450
 30
0.0
  0
LWPOLYLINE
  5
2e9
100
AcDbEntity
  8
0
 62
7
100
AcDbPolyline
 90
2
 70
0
 10
142.356300
 20
-128.212350
 30
0.0
 10
142.648900
 20
-128.284450
 30
0.0
  0
LWPOLYLINE
  5
2ea
100
AcDbEntity
  8
0
 62
7
100
AcDbPolyline
 90
2
 70
0
 10
142.089500
 20
-128.072350
 30
0.0
 10
142.356300
 20
-128.212350
 30
0.0
  0
LWPOLYLINE
  5
2eb
100
AcDbEntity
  8
0
 62
7
100
AcDbPolyline
 90
2
 70
0
 10
141.863900
 20
-127.872550
 30
0.0
 10
142.089500
 20
-128.072350
 30
0.0
  0
LWPOLYLINE
  5
2ec
100
AcDbEntity
  8
0
 62
7
100
AcDbPolyline
 90
2
 70
0
 10
141.692700
 20
-127.624550
 30
0.0
 10
141.863900
 20
-127.872550
 30
0.0
  0
LWPOLYLINE
  5
2ed
100
AcDbEntity
  8
0
 62
7
100
AcDbPolyline
 90
2
 70
0
 10
141.585900
 20
-127.342750
 30
0.0
 10
141.692700
 20
-127.624550
 30
0.0
  0
LWPOLYLINE
  5
2ee
100
AcDbEntity
  8
0
 62
7
100
AcDbPolyline
 90
2
 70
0
 10
141.549600
 20
-127.043550
 30
0.0
 10
141.585900
 20
-127.342750
 30
0.0
  0
LWPOLYLINE
  5
2ef
100
AcDbEntity
  8
0
 62
7
100
AcDbPolyline
 90
2
 70
0
 10
141.585900
 20
-126.744450
 30
0.0
 10
141.549600
 20
-127.043550
 30
0.0
  0
LWPOLYLINE
  5
2f0
100
AcDbEntity
  8
0
 62
7
100
AcDbPolyline
 90
2
 70
0
 10
141.692700
 20
-126.462650
 30
0.0
 10
141.585900
 20
-126.744450
 30
0.0
  0
LWPOLYLINE
  5
2f1
100
AcDbEntity
  8
0
 62
7
100
AcDbPolyline
 90
2
 70
0
 10
141.863900
 20
-126.214650
 30
0.0
 10
141.692700
 20
-126.462650
 30
0.0
  0
LWPOLYLINE
  5
2f2
100
AcDbEntity
  8
0
 62
7
100
AcDbPolyline
 90
2
 70
0
 10
142.089500
 20
-126.014850
 30
0.0
 10
141.863900
 20
-126.214650
 30
0.0
  0
LWPOLYLINE
  5
2f3
100
AcDbEntity
  8
0
 62
7
100
AcDbPolyline
 90
2
 70
0
 10
142.356300
 20
-125.874850
 30
0.0
 10
142.089500
 20
-126.014850
 30
0.0
  0
LWPOLYLINE
  5
2f4
100
AcDbEntity
  8
0
 62
7
100
AcDbPolyline
 90
2
 70
0
 10
142.648900
 20
-125.802750
 30
0.0
 10
142.356300
 20
-125.874850
 30
0.0
  0
LWPOLYLINE
  5
2f5
100
AcDbEntity
  8
0
 62
7
100
AcDbPolyline
 90
2
 70
0
 10
142.950200
 20
-125.802750
 30
0.0
 10
142.648900
 20
-125.802750
 30
0.0
  0
LWPOLYLINE
  5
2f6
100
AcDbEntity
  8
0
 62
7
100
AcDbPolyline
 90
2
 70
0
 10
143.242800
 20
-125.874850
 30
0.0
 10
142.950200
 20
-125.802750
 30
0.0
  0
LWPOLYLINE
  5
2f7
100
AcDbEntity
  8
0
 62
7
100
AcDbPolyline
 90
2
 70
0
 10
143.509600
 20
-126.014850
 30
0.0
 10
143.242800
 20
-125.874850
 30
0.0
  0
LWPOLYLINE
  5
2f8
100
AcDbEntity
  8
0
 62
7
100
AcDbPolyline
 90
2
 70
0
 10
143.735200
 20
-126.214650
 30
0.0
 10
143.509600
 20
-126.014850
 30
0.0
  0
LWPOLYLINE
  5
2f9
100
AcDbEntity
  8
0
 62
7
100
AcDbPolyline
 90
2
 70
0
 10
143.906400
 20
-126.462650
 30
0.0
 10
143.735200
 20
-126.214650
 30
0.0
  0
LWPOLYLINE
  5
2fa
100
AcDbEntity
  8
0
 62
7
100
AcDbPolyline
 90
2
 70
0
 10
144.013200
 20
-126.744450
 30
0.0
 10
143.906400
 20
-126.462650
 30
0.0
  0
LWPOLYLINE
  5
2fb
100
AcDbEntity
  8
0
 62
7
100
AcDbPolyline
 90
2
 70
0
 10
144.049600
 20
-127.043550
 30
0.0
 10
144.013200
 20
-126.744450
 30
0.0
  0
LWPOLYLINE
  5
2fc
100
AcDbEntity
  8
0
 62
7
100
AcDbPolyline
 90
2
 70
0
 10
194.634300
 20
-170.442740
 30
0.0
 10
194.670600
 20
-170.143600
 30
0.0
  0
LWPOLYLINE
  5
2fd
100
AcDbEntity
  8
0
 62
7
100
AcDbPolyline
 90
2
 70
0
 10
194.527400
 20
-170.724500
 30
0.0
 10
194.634300
 20
-170.442740
 30
0.0
  0
LWPOLYLINE
  5
2fe
100
AcDbEntity
  8
0
 62
7
100
AcDbPolyline
 90
2
 70
0
 10
194.356300
 20
-170.972500
 30
0.0
 10
194.527400
 20
-170.724500
 30
0.0
  0
LWPOLYLINE
  5
2ff
100
AcDbEntity
  8
0
 62
7
100
AcDbPolyline
 90
2
 70
0
 10
194.130700
 20
-171.172330
 30
0.0
 10
194.356300
 20
-170.972500
 30
0.0
  0
LWPOLYLINE
  5
300
100
AcDbEntity
  8
0
 62
7
100
AcDbPolyline
 90
2
 70
0
 10
193.863900
 20
-171.312370
 30
0.0
 10
194.130700
 20
-171.172330
 30
0.0
  0
LWPOLYLINE
  5
301
100
AcDbEntity
  8
0
 62
7
100
AcDbPolyline
 90
2
 70
0
 10
193.571300
 20
-171.384480
 30
0.0
 10
193.863900
 20
-171.312370
 30
0.0
  0
LWPOLYLINE
  5
302
100
AcDbEntity
  8
0
 62
7
100
AcDbPolyline
 90
2
 70
0
 10
193.270000
 20
-171.384480
 30
0.0
 10
193.571300
 20
-171.384480
 30
0.0
  0
LWPOLYLINE
  5
303
100
AcDbEntity
  8
0
 62
7
100
AcDbPolyline
 90
2
 70
0
 10
192.977400
 20
-171.312370
 30
0.0
 10
193.270000
 20
-171.384480
 30
0.0
  0
LWPOLYLINE
  5
304
100
AcDbEntity
  8
0
 62
7
100
AcDbPolyline
 90
2
 70
0
 10
192.710500
 20
-171.172330
 30
0.0
 10
192.977400
 20
-171.312370
 30
0.0
  0
LWPOLYLINE
  5
305
100
AcDbEntity
  8
0
 62
7
100
AcDbPolyline
 90
2
 70
0
 10
192.485000
 20
-170.972500
 30
0.0
 10
192.710500
 20
-171.172330
 30
0.0
  0
LWPOLYLINE
  5
306
100
AcDbEntity
  8
0
 62
7
100
AcDbPolyline
 90
2
 70
0
 10
192.313800
 20
-170.724500
 30
0.0
 10
192.485000
 20
-170.972500
 30
0.0
  0
LWPOLYLINE
  5
307
100
AcDbEntity
  8
0
 62
7
100
AcDbPolyline
 90
2
 70
0
 10
192.206900
 20
-170.442740
 30
0.0
 10
192.313800
 20
-170.724500
 30
0.0
  0
LWPOLYLINE
  5
308
100
AcDbEntity
  8
0
 62
7
100
AcDbPolyline
 90
2
 70
0
 10
192.170600
 20
-170.143600
 30
0.0
 10
192.206900
 20
-170.442740
 30
0.0
  0
LWPOLYLINE
  5
309
100
AcDbEntity
  8
0
 62
7
100
AcDbPolyline
 90
2
 70
0
 10
192.206900
 20
-169.844450
 30
0.0
 10
192.170600
 20
-170.143600
 30
0.0
  0
LWPOLYLINE
  5
30a
100
AcDbEntity
  8
0
 62
7
100
AcDbPolyline
 90
2
 70
0
 10
192.313800
 20
-169.562690
 30
0.0
 10
192.206900
 20
-169.844450
 30
0.0
  0
LWPOLYLINE
  5
30b
100
AcDbEntity
  8
0
 62
7
100
AcDbPolyline
 90
2
 70
0
 10
192.485000
 20
-169.314690
 30
0.0
 10
192.313800
 20
-169.562690
 30
0.0
  0
LWPOLYLINE
  5
30c
100
AcDbEntity
  8
0
 62
7
100
AcDbPolyline
 90
2
 70
0
 10
192.710500
 20
-169.114870
 30
0.0
 10
192.485000
 20
-169.314690
 30
0.0
  0
LWPOLYLINE
  5
30d
100
AcDbEntity
  8
0
 62
7
100
AcDbPolyline
 90
2
 70
0
 10
192.977400
 20
-168.974830
 30
0.0
 10
192.710500
 20
-169.114870
 30
0.0
  0
LWPOLYLINE
  5
30e
100
AcDbEntity
  8
0
 62
7
100
AcDbPolyline
 90
2
 70
0
 10
193.270000
 20
-168.902710
 30
0.0
 10
192.977400
 20
-168.974830
 30
0.0
  0
LWPOLYLINE
  5
30f
100
AcDbEntity
  8
0
 62
7
100
AcDbPolyline
 90
2
 70
0
 10
193.571300
 20
-168.902710
 30
0.0
 10
193.270000
 20
-168.902710
 30
0.0
  0
LWPOLYLINE
  5
310
100
AcDbEntity
  8
0
 62
7
100
AcDbPolyline
 90
2
 70
0
 10
193.863900
 20
-168.974830
 30
0.0
 10
193.571300
 20
-168.902710
 30
0.0
  0
LWPOLYLINE
  5
311
100
AcDbEntity
  8
0
 62
7
100
AcDbPolyline
 90
2
 70
0
 10
194.130700
 20
-169.114870
 30
0.0
 10
193.863900
 20
-168.974830
 30
0.0
  0
LWPOLYLINE
  5
312
100
AcDbEntity
  8
0
 62
7
100
AcDbPolyline
 90
2
 70
0
 10
194.356300
 20
-169.314690
 30
0.0
 10
194.130700
 20
-169.114870
 30
0.0
  0
LWPOLYLINE
  5
313
100
AcDbEntity
  8
0
 62
7
100
AcDbPolyline
 90
2
 70
0
 10
194.527400
 20
-169.562690
 30
0.0
 10
194.356300
 20
-169.314690
 30
0.0
  0
LWPOLYLINE
  5
314
100
AcDbEntity
  8
0
 62
7
100
AcDbPolyline
 90
2
 70
0
 10
194.634300
 20
-169.844450
 30
0.0
 10
194.527400
 20
-169.562690
 30
0.0
  0
LWPOLYLINE
  5
315
100
AcDbEntity
  8
0
 62
7
100
AcDbPolyline
 90
2
 70
0
 10
194.670600
 20
-170.143600
 30
0.0
 10
194.634300
 20
-169.844450
 30
0.0
  0
LWPOLYLINE
  5
316
100
AcDbEntity
  8
0
 62
7
100
AcDbPolyline
 90
2
 70
0
 10
194.813200
 20
-142.542750
 30
0.0
 10
194.849600
 20
-142.243550
 30
0.0
  0
LWPOLYLINE
  5
317
100
AcDbEntity
  8
0
 62
7
100
AcDbPolyline
 90
2
 70
0
 10
194.706400
 20
-142.824550
 30
0.0
 10
194.813200
 20
-142.542750
 30
0.0
  0
LWPOLYLINE
  5
318
100
AcDbEntity
  8
0
 62
7
100
AcDbPolyline
 90
2
 70
0
 10
194.535200
 20
-143.072550
 30
0.0
 10
194.706400
 20
-142.824550
 30
0.0
  0
LWPOLYLINE
  5
319
100
AcDbEntity
  8
0
 62
7
100
AcDbPolyline
 90
2
 70
0
 10
194.309600
 20
-143.272350
 30
0.0
 10
194.535200
 20
-143.072550
 30
0.0
  0
LWPOLYLINE
  5
31a
100
AcDbEntity
  8
0
 62
7
100
AcDbPolyline
 90
2
 70
0
 10
194.042800
 20
-143.412350
 30
0.0
 10
194.309600
 20
-143.272350
 30
0.0
  0
LWPOLYLINE
  5
31b
100
AcDbEntity
  8
0
 62
7
100
AcDbPolyline
 90
2
 70
0
 10
193.750200
 20
-143.484450
 30
0.0
 10
194.042800
 20
-143.412350
 30
0.0
  0
LWPOLYLINE
  5
31c
100
AcDbEntity
  8
0
 62
7
100
AcDbPolyline
 90
2
 70
0
 10
193.448900
 20
-143.484450
 30
0.0
 10
193.750200
 20
-143.484450
 30
0.0
  0
LWPOLYLINE
  5
31d
100
AcDbEntity
  8
0
 62
7
100
AcDbPolyline
 90
2
 70
0
 10
193.156300
 20
-143.412350
 30
0.0
 10
193.448900
 20
-143.484450
 30
0.0
  0
LWPOLYLINE
  5
31e
100
AcDbEntity
  8
0
 62
7
100
AcDbPolyline
 90
2
 70
0
 10
192.889500
 20
-143.272350
 30
0.0
 10
193.156300
 20
-143.412350
 30
0.0
  0
LWPOLYLINE
  5
31f
100
AcDbEntity
  8
0
 62
7
100
AcDbPolyline
 90
2
 70
0
 10
192.663900
 20
-143.072550
 30
0.0
 10
192.889500
 20
-143.272350
 30
0.0
  0
LWPOLYLINE
  5
320
100
AcDbEntity
  8
0
 62
7
100
AcDbPolyline
 90
2
 70
0
 10
192.492700
 20
-142.824550
 30
0.0
 10
192.663900
 20
-143.072550
 30
0.0
  0
LWPOLYLINE
  5
321
100
AcDbEntity
  8
0
 62
7
100
AcDbPolyline
 90
2
 70
0
 10
192.385900
 20
-142.542750
 30
0.0
 10
192.492700
 20
-142.824550
 30
0.0
  0
LWPOLYLINE
  5
322
100
AcDbEntity
  8
0
 62
7
100
AcDbPolyline
 90
2
 70
0
 10
192.349600
 20
-142.243550
 30
0.0
 10
192.385900
 20
-142.542750
 30
0.0
  0
LWPOLYLINE
  5
323
100
AcDbEntity
  8
0
 62
7
100
AcDbPolyline
 90
2
 70
0
 10
192.385900
 20
-141.944450
 30
0.0
 10
192.349600
 20
-142.243550
 30
0.0
  0
LWPOLYLINE
  5
324
100
AcDbEntity
  8
0
 62
7
100
AcDbPolyline
 90
2
 70
0
 10
192.492700
 20
-141.662650
 30
0.0
 10
192.385900
 20
-141.944450
 30
0.0
  0
LWPOLYLINE
  5
325
100
AcDbEntity
  8
0
 62
7
100
AcDbPolyline
 90
2
 70
0
 10
192.663900
 20
-141.414650
 30
0.0
 10
192.492700
 20
-141.662650
 30
0.0
  0
LWPOLYLINE
  5
326
100
AcDbEntity
  8
0
 62
7
100
AcDbPolyline
 90
2
 70
0
 10
192.889500
 20
-141.214850
 30
0.0
 10
192.663900
 20
-141.414650
 30
0.0
  0
LWPOLYLINE
  5
327
100
AcDbEntity
  8
0
 62
7
100
AcDbPolyline
 90
2
 70
0
 10
193.156300
 20
-141.074850
 30
0.0
 10
192.889500
 20
-141.214850
 30
0.0
  0
LWPOLYLINE
  5
328
100
AcDbEntity
  8
0
 62
7
100
AcDbPolyline
 90
2
 70
0
 10
193.448900
 20
-141.002750
 30
0.0
 10
193.156300
 20
-141.074850
 30
0.0
  0
LWPOLYLINE
  5
329
100
AcDbEntity
  8
0
 62
7
100
AcDbPolyline
 90
2
 70
0
 10
193.750200
 20
-141.002750
 30
0.0
 10
193.448900
 20
-141.002750
 30
0.0
  0
LWPOLYLINE
  5
32a
100
AcDbEntity
  8
0
 62
7
100
AcDbPolyline
 90
2
 70
0
 10
194.042800
 20
-141.074850
 30
0.0
 10
193.750200
 20
-141.002750
 30
0.0
  0
LWPOLYLINE
  5
32b
100
AcDbEntity
  8
0
 62
7
100
AcDbPolyline
 90
2
 70
0
 10
194.309600
 20
-141.214850
 30
0.0
 10
194.042800
 20
-141.074850
 30
0.0
  0
LWPOLYLINE
  5
32c
100
AcDbEntity
  8
0
 62
7
100
AcDbPolyline
 90
2
 70
0
 10
194.535200
 20
-141.414650
 30
0.0
 10
194.309600
 20
-141.214850
 30
0.0
  0
LWPOLYLINE
  5
32d
100
AcDbEntity
  8
0
 62
7
100
AcDbPolyline
 90
2
 70
0
 10
194.706400
 20
-141.662650
 30
0.0
 10
194.535200
 20
-141.414650
 30
0.0
  0
LWPOLYLINE
  5
32e
100
AcDbEntity
  8
0
 62
7
100
AcDbPolyline
 90
2
 70
0
 10
194.813200
 20
-141.944450
 30
0.0
 10
194.706400
 20
-141.662650
 30
0.0
  0
LWPOLYLINE
  5
32f
100
AcDbEntity
  8
0
 62
7
100
AcDbPolyline
 90
2
 70
0
 10
194.849600
 20
-142.243550
 30
0.0
 10
194.813200
 20
-141.944450
 30
0.0
  0
LWPOLYLINE
  5
330
100
AcDbEntity
  8
0
 62
7
100
AcDbPolyline
 90
2
 70
0
 10
142.693200
 20
-175.632742
 30
0.0
 10
142.729600
 20
-175.333600
 30
0.0
  0
LWPOLYLINE
  5
331
100
AcDbEntity
  8
0
 62
7
100
AcDbPolyline
 90
2
 70
0
 10
142.586400
 20
-175.914501
 30
0.0
 10
142.693200
 20
-175.632742
 30
0.0
  0
LWPOLYLINE
  5
332
100
AcDbEntity
  8
0
 62
7
100
AcDbPolyline
 90
2
 70
0
 10
142.415200
 20
-176.162500
 30
0.0
 10
142.586400
 20
-175.914501
 30
0.0
  0
LWPOLYLINE
  5
333
100
AcDbEntity
  8
0
 62
7
100
AcDbPolyline
 90
2
 70
0
 10
142.189600
 20
-176.362326
 30
0.0
 10
142.415200
 20
-176.162500
 30
0.0
  0
LWPOLYLINE
  5
334
100
AcDbEntity
  8
0
 62
7
100
AcDbPolyline
 90
2
 70
0
 10
141.922800
 20
-176.502367
 30
0.0
 10
142.189600
 20
-176.362326
 30
0.0
  0
LWPOLYLINE
  5
335
100
AcDbEntity
  8
0
 62
7
100
AcDbPolyline
 90
2
 70
0
 10
141.630200
 20
-176.574483
 30
0.0
 10
141.922800
 20
-176.502367
 30
0.0
  0
LWPOLYLINE
  5
336
100
AcDbEntity
  8
0
 62
7
100
AcDbPolyline
 90
2
 70
0
 10
141.328900
 20
-176.574483
 30
0.0
 10
141.630200
 20
-176.574483
 30
0.0
  0
LWPOLYLINE
  5
337
100
AcDbEntity
  8
0
 62
7
100
AcDbPolyline
 90
2
 70
0
 10
141.036300
 20
-176.502367
 30
0.0
 10
141.328900
 20
-176.574483
 30
0.0
  0
LWPOLYLINE
  5
338
100
AcDbEntity
  8
0
 62
7
100
AcDbPolyline
 90
2
 70
0
 10
140.769500
 20
-176.362326
 30
0.0
 10
141.036300
 20
-176.502367
 30
0.0
  0
LWPOLYLINE
  5
339
100
AcDbEntity
  8
0
 62
7
100
AcDbPolyline
 90
2
 70
0
 10
140.543900
 20
-176.162500
 30
0.0
 10
140.769500
 20
-176.362326
 30
0.0
  0
LWPOLYLINE
  5
33a
100
AcDbEntity
  8
0
 62
7
100
AcDbPolyline
 90
2
 70
0
 10
140.372700
 20
-175.914501
 30
0.0
 10
140.543900
 20
-176.162500
 30
0.0
  0
LWPOLYLINE
  5
33b
100
AcDbEntity
  8
0
 62
7
100
AcDbPolyline
 90
2
 70
0
 10
140.265900
 20
-175.632742
 30
0.0
 10
140.372700
 20
-175.914501
 30
0.0
  0
LWPOLYLINE
  5
33c
100
AcDbEntity
  8
0
 62
7
100
AcDbPolyline
 90
2
 70
0
 10
140.229600
 20
-175.333600
 30
0.0
 10
140.265900
 20
-175.632742
 30
0.0
  0
LWPOLYLINE
  5
33d
100
AcDbEntity
  8
0
 62
7
100
AcDbPolyline
 90
2
 70
0
 10
140.265900
 20
-175.034450
 30
0.0
 10
140.229600
 20
-175.333600
 30
0.0
  0
LWPOLYLINE
  5
33e
100
AcDbEntity
  8
0
 62
7
100
AcDbPolyline
 90
2
 70
0
 10
140.372700
 20
-174.752690
 30
0.0
 10
140.265900
 20
-175.034450
 30
0.0
  0
LWPOLYLINE
  5
33f
100
AcDbEntity
  8
0
 62
7
100
AcDbPolyline
 90
2
 70
0
 10
140.543900
 20
-174.504690
 30
0.0
 10
140.372700
 20
-174.752690
 30
0.0
  0
LWPOLYLINE
  5
340
100
AcDbEntity
  8
0
 62
7
100
AcDbPolyline
 90
2
 70
0
 10
140.769500
 20
-174.304870
 30
0.0
 10
140.543900
 20
-174.504690
 30
0.0
  0
LWPOLYLINE
  5
341
100
AcDbEntity
  8
0
 62
7
100
AcDbPolyline
 90
2
 70
0
 10
141.036300
 20
-174.164830
 30
0.0
 10
140.769500
 20
-174.304870
 30
0.0
  0
LWPOLYLINE
  5
342
100
AcDbEntity
  8
0
 62
7
100
AcDbPolyline
 90
2
 70
0
 10
141.328900
 20
-174.092710
 30
0.0
 10
141.036300
 20
-174.164830
 30
0.0
  0
LWPOLYLINE
  5
343
100
AcDbEntity
  8
0
 62
7
100
AcDbPolyline
 90
2
 70
0
 10
141.630200
 20
-174.092710
 30
0.0
 10
141.328900
 20
-174.092710
 30
0.0
  0
LWPOLYLINE
  5
344
100
AcDbEntity
  8
0
 62
7
100
AcDbPolyline
 90
2
 70
0
 10
141.922800
 20
-174.164830
 30
0.0
 10
141.630200
 20
-174.092710
 30
0.0
  0
LWPOLYLINE
  5
345
100
AcDbEntity
  8
0
 62
7
100
AcDbPolyline
 90
2
 70
0
 10
142.189600
 20
-174.304870
 30
0.0
 10
141.922800
 20
-174.164830
 30
0.0
  0
LWPOLYLINE
  5
346
100
AcDbEntity
  8
0
 62
7
100
AcDbPolyline
 90
2
 70
0
 10
142.415200
 20
-174.504690
 30
0.0
 10
142.189600
 20
-174.304870
 30
0.0
  0
LWPOLYLINE
  5
347
100
AcDbEntity
  8
0
 62
7
100
AcDbPolyline
 90
2
 70
0
 10
142.586400
 20
-174.752690
 30
0.0
 10
142.415200
 20
-174.504690
 30
0.0
  0
LWPOLYLINE
  5
348
100
AcDbEntity
  8
0
 62
7
100
AcDbPolyline
 90
2
 70
0
 10
142.693200
 20
-175.034450
 30
0.0
 10
142.586400
 20
-174.752690
 30
0.0
  0
LWPOLYLINE
  5
349
100
AcDbEntity
  8
0
 62
7
100
AcDbPolyline
 90
2
 70
0
 10
142.729600
 20
-175.333600
 30
0.0
 10
142.693200
 20
-175.034450
 30
0.0
  0
LWPOLYLINE
  5
34a
100
AcDbEntity
  8
0
 62
7
100
AcDbPolyline
 90
2
 70
0
 10
28.014000
 20
-76.634250
 30
0.0
 10
28.050000
 20
-76.335150
 30
0.0
  0
LWPOLYLINE
  5
34b
100
AcDbEntity
  8
0
 62
7
100
AcDbPolyline
 90
2
 70
0
 10
27.907000
 20
-76.916050
 30
0.0
 10
28.014000
 20
-76.634250
 30
0.0
  0
LWPOLYLINE
  5
34c
100
AcDbEntity
  8
0
 62
7
100
AcDbPolyline
 90
2
 70
0
 10
27.736000
 20
-77.164050
 30
0.0
 10
27.907000
 20
-76.916050
 30
0.0
  0
LWPOLYLINE
  5
34d
100
AcDbEntity
  8
0
 62
7
100
AcDbPolyline
 90
2
 70
0
 10
27.510000
 20
-77.363850
 30
0.0
 10
27.736000
 20
-77.164050
 30
0.0
  0
LWPOLYLINE
  5
34e
100
AcDbEntity
  8
0
 62
7
100
AcDbPolyline
 90
2
 70
0
 10
27.243000
 20
-77.503950
 30
0.0
 10
27.510000
 20
-77.363850
 30
0.0
  0
LWPOLYLINE
  5
34f
100
AcDbEntity
  8
0
 62
7
100
AcDbPolyline
 90
2
 70
0
 10
26.951000
 20
-77.576050
 30
0.0
 10
27.243000
 20
-77.503950
 30
0.0
  0
LWPOLYLINE
  5
350
100
AcDbEntity
  8
0
 62
7
100
AcDbPolyline
 90
2
 70
0
 10
26.649000
 20
-77.576050
 30
0.0
 10
26.951000
 20
-77.576050
 30
0.0
  0
LWPOLYLINE
  5
351
100
AcDbEntity
  8
0
 62
7
100
AcDbPolyline
 90
2
 70
0
 10
26.357000
 20
-77.503950
 30
0.0
 10
26.649000
 20
-77.576050
 30
0.0
  0
LWPOLYLINE
  5
352
100
AcDbEntity
  8
0
 62
7
100
AcDbPolyline
 90
2
 70
0
 10
26.090000
 20
-77.363850
 30
0.0
 10
26.357000
 20
-77.503950
 30
0.0
  0
LWPOLYLINE
  5
353
100
AcDbEntity
  8
0
 62
7
100
AcDbPolyline
 90
2
 70
0
 10
25.864000
 20
-77.164050
 30
0.0
 10
26.090000
 20
-77.363850
 30
0.0
  0
LWPOLYLINE
  5
354
100
AcDbEntity
  8
0
 62
7
100
AcDbPolyline
 90
2
 70
0
 10
25.693000
 20
-76.916050
 30
0.0
 10
25.864000
 20
-77.164050
 30
0.0
  0
LWPOLYLINE
  5
355
100
AcDbEntity
  8
0
 62
7
100
AcDbPolyline
 90
2
 70
0
 10
25.586000
 20
-76.634250
 30
0.0
 10
25.693000
 20
-76.916050
 30
0.0
  0
LWPOLYLINE
  5
356
100
AcDbEntity
  8
0
 62
7
100
AcDbPolyline
 90
2
 70
0
 10
25.550000
 20
-76.335150
 30
0.0
 10
25.586000
 20
-76.634250
 30
0.0
  0
LWPOLYLINE
  5
357
100
AcDbEntity
  8
0
 62
7
100
AcDbPolyline
 90
2
 70
0
 10
25.586000
 20
-76.036150
 30
0.0
 10
25.550000
 20
-76.335150
 30
0.0
  0
LWPOLYLINE
  5
358
100
AcDbEntity
  8
0
 62
7
100
AcDbPolyline
 90
2
 70
0
 10
25.693000
 20
-75.754150
 30
0.0
 10
25.586000
 20
-76.036150
 30
0.0
  0
LWPOLYLINE
  5
359
100
AcDbEntity
  8
0
 62
7
100
AcDbPolyline
 90
2
 70
0
 10
25.864000
 20
-75.506150
 30
0.0
 10
25.693000
 20
-75.754150
 30
0.0
  0
LWPOLYLINE
  5
35a
100
AcDbEntity
  8
0
 62
7
100
AcDbPolyline
 90
2
 70
0
 10
26.090000
 20
-75.306150
 30
0.0
 10
25.864000
 20
-75.506150
 30
0.0
  0
LWPOLYLINE
  5
35b
100
AcDbEntity
  8
0
 62
7
100
AcDbPolyline
 90
2
 70
0
 10
26.357000
 20
-75.166150
 30
0.0
 10
26.090000
 20
-75.306150
 30
0.0
  0
LWPOLYLINE
  5
35c
100
AcDbEntity
  8
0
 62
7
100
AcDbPolyline
 90
2
 70
0
 10
26.649000
 20
-75.094150
 30
0.0
 10
26.357000
 20
-75.166150
 30
0.0
  0
LWPOLYLINE
  5
35d
100
AcDbEntity
  8
0
 62
7
100
AcDbPolyline
 90
2
 70
0
 10
26.951000
 20
-75.094150
 30
0.0
 10
26.649000
 20
-75.094150
 30
0.0
  0
LWPOLYLINE
  5
35e
100
AcDbEntity
  8
0
 62
7
100
AcDbPolyline
 90
2
 70
0
 10
27.243000
 20
-75.166150
 30
0.0
 10
26.951000
 20
-75.094150
 30
0.0
  0
LWPOLYLINE
  5
35f
100
AcDbEntity
  8
0
 62
7
100
AcDbPolyline
 90
2
 70
0
 10
27.510000
 20
-75.306150
 30
0.0
 10
27.243000
 20
-75.166150
 30
0.0
  0
LWPOLYLINE
  5
360
100
AcDbEntity
  8
0
 62
7
100
AcDbPolyline
 90
2
 70
0
 10
27.736000
 20
-75.506150
 30
0.0
 10
27.510000
 20
-75.306150
 30
0.0
  0
LWPOLYLINE
  5
361
100
AcDbEntity
  8
0
 62
7
100
AcDbPolyline
 90
2
 70
0
 10
27.907000
 20
-75.754150
 30
0.0
 10
27.736000
 20
-75.506150
 30
0.0
  0
LWPOLYLINE
  5
362
100
AcDbEntity
  8
0
 62
7
100
AcDbPolyline
 90
2
 70
0
 10
28.014000
 20
-76.036150
 30
0.0
 10
27.907000
 20
-75.754150
 30
0.0
  0
LWPOLYLINE
  5
363
100
AcDbEntity
  8
0
 62
7
100
AcDbPolyline
 90
2
 70
0
 10
28.050000
 20
-76.335150
 30
0.0
 10
28.014000
 20
-76.036150
 30
0.0
  0
LWPOLYLINE
  5
364
100
AcDbEntity
  8
0
 62
7
100
AcDbPolyline
 90
2
 70
0
 10
318.014000
 20
-76.634250
 30
0.0
 10
318.050000
 20
-76.335150
 30
0.0
  0
LWPOLYLINE
  5
365
100
AcDbEntity
  8
0
 62
7
100
AcDbPolyline
 90
2
 70
0
 10
317.907000
 20
-76.916050
 30
0.0
 10
318.014000
 20
-76.634250
 30
0.0
  0
LWPOLYLINE
  5
366
100
AcDbEntity
  8
0
 62
7
100
AcDbPolyline
 90
2
 70
0
 10
317.736000
 20
-77.164050
 30
0.0
 10
317.907000
 20
-76.916050
 30
0.0
  0
LWPOLYLINE
  5
367
100
AcDbEntity
  8
0
 62
7
100
AcDbPolyline
 90
2
 70
0
 10
317.510000
 20
-77.363850
 30
0.0
 10
317.736000
 20
-77.164050
 30
0.0
  0
LWPOLYLINE
  5
368
100
AcDbEntity
  8
0
 62
7
100
AcDbPolyline
 90
2
 70
0
 10
317.243000
 20
-77.503950
 30
0.0
 10
317.510000
 20
-77.363850
 30
0.0
  0
LWPOLYLINE
  5
369
100
AcDbEntity
  8
0
 62
7
100
AcDbPolyline
 90
2
 70
0
 10
316.951000
 20
-77.576050
 30
0.0
 10
317.243000
 20
-77.503950
 30
0.0
  0
LWPOLYLINE
  5
36a
100
AcDbEntity
  8
0
 62
7
100
AcDbPolyline
 90
2
 70
0
 10
316.649000
 20
-77.576050
 30
0.0
 10
316.951000
 20
-77.576050
 30
0.0
  0
LWPOLYLINE
  5
36b
100
AcDbEntity
  8
0
 62
7
100
AcDbPolyline
 90
2
 70
0
 10
316.357000
 20
-77.503950
 30
0.0
 10
316.649000
 20
-77.576050
 30
0.0
  0
LWPOLYLINE
  5
36c
100
AcDbEntity
  8
0
 62
7
100
AcDbPolyline
 90
2
 70
0
 10
316.090000
 20
-77.363850
 30
0.0
 10
316.357000
 20
-77.503950
 30
0.0
  0
LWPOLYLINE
  5
36d
100
AcDbEntity
  8
0
 62
7
100
AcDbPolyline
 90
2
 70
0
 10
315.864000
 20
-77.164050
 30
0.0
 10
316.090000
 20
-77.363850
 30
0.0
  0
LWPOLYLINE
  5
36e
100
AcDbEntity
  8
0
 62
7
100
AcDbPolyline
 90
2
 70
0
 10
315.693000
 20
-76.916050
 30
0.0
 10
315.864000
 20
-77.164050
 30
0.0
  0
LWPOLYLINE
  5
36f
100
AcDbEntity
  8
0
 62
7
100
AcDbPolyline
 90
2
 70
0
 10
315.586000
 20
-76.634250
 30
0.0
 10
315.693000
 20
-76.916050
 30
0.0
  0
LWPOLYLINE
  5
370
100
AcDbEntity
  8
0
 62
7
100
AcDbPolyline
 90
2
 70
0
 10
315.550000
 20
-76.335150
 30
0.0
 10
315.586000
 20
-76.634250
 30
0.0
  0
LWPOLYLINE
  5
371
100
AcDbEntity
  8
0
 62
7
100
AcDbPolyline
 90
2
 70
0
 10
315.586000
 20
-76.036150
 30
0.0
 10
315.550000
 20
-76.335150
 30
0.0
  0
LWPOLYLINE
  5
372
100
AcDbEntity
  8
0
 62
7
100
AcDbPolyline
 90
2
 70
0
 10
315.693000
 20
-75.754150
 30
0.0
 10
315.586000
 20
-76.036150
 30
0.0
  0
LWPOLYLINE
  5
373
100
AcDbEntity
  8
0
 62
7
100
AcDbPolyline
 90
2
 70
0
 10
315.864000
 20
-75.506150
 30
0.0
 10
315.693000
 20
-75.754150
 30
0.0
  0
LWPOLYLINE
  5
374
100
AcDbEntity
  8
0
 62
7
100
AcDbPolyline
 90
2
 70
0
 10
316.090000
 20
-75.306150
 30
0.0
 10
315.864000
 20
-75.506150
 30
0.0
  0
LWPOLYLINE
  5
375
100
AcDbEntity
  8
0
 62
7
100
AcDbPolyline
 90
2
 70
0
 10
316.357000
 20
-75.166150
 30
0.0
 10
316.090000
 20
-75.306150
 30
0.0
  0
LWPOLYLINE
  5
376
100
AcDbEntity
  8
0
 62
7
100
AcDbPolyline
 90
2
 70
0
 10
316.649000
 20
-75.094150
 30
0.0
 10
316.357000
 20
-75.166150
 30
0.0
  0
LWPOLYLINE
  5
377
100
AcDbEntity
  8
0
 62
7
100
AcDbPolyline
 90
2
 70
0
 10
316.951000
 20
-75.094150
 30
0.0
 10
316.649000
 20
-75.094150
 30
0.0
  0
LWPOLYLINE
  5
378
100
AcDbEntity
  8
0
 62
7
100
AcDbPolyline
 90
2
 70
0
 10
317.243000
 20
-75.166150
 30
0.0
 10
316.951000
 20
-75.094150
 30
0.0
  0
LWPOLYLINE
  5
379
100
AcDbEntity
  8
0
 62
7
100
AcDbPolyline
 90
2
 70
0
 10
317.510000
 20
-75.306150
 30
0.0
 10
317.243000
 20
-75.166150
 30
0.0
  0
LWPOLYLINE
  5
37a
100
AcDbEntity
  8
0
 62
7
100
AcDbPolyline
 90
2
 70
0
 10
317.736000
 20
-75.506150
 30
0.0
 10
317.510000
 20
-75.306150
 30
0.0
  0
LWPOLYLINE
  5
37b
100
AcDbEntity
  8
0
 62
7
100
AcDbPolyline
 90
2
 70
0
 10
317.907000
 20
-75.754150
 30
0.0
 10
317.736000
 20
-75.506150
 30
0.0
  0
LWPOLYLINE
  5
37c
100
AcDbEntity
  8
0
 62
7
100
AcDbPolyline
 90
2
 70
0
 10
318.014000
 20
-76.036150
 30
0.0
 10
317.907000
 20
-75.754150
 30
0.0
  0
LWPOLYLINE
  5
37d
100
AcDbEntity
  8
0
 62
7
100
AcDbPolyline
 90
2
 70
0
 10
318.050000
 20
-76.335150
 30
0.0
 10
318.014000
 20
-76.036150
 30
0.0
  0
LWPOLYLINE
  5
37e
100
AcDbEntity
  8
0
 62
7
100
AcDbPolyline
 90
2
 70
0
 10
28.014000
 20
-276.634150
 30
0.0
 10
28.050000
 20
-276.335150
 30
0.0
  0
LWPOLYLINE
  5
37f
100
AcDbEntity
  8
0
 62
7
100
AcDbPolyline
 90
2
 70
0
 10
27.907000
 20
-276.916150
 30
0.0
 10
28.014000
 20
-276.634150
 30
0.0
  0
LWPOLYLINE
  5
380
100
AcDbEntity
  8
0
 62
7
100
AcDbPolyline
 90
2
 70
0
 10
27.736000
 20
-277.164150
 30
0.0
 10
27.907000
 20
-276.916150
 30
0.0
  0
LWPOLYLINE
  5
381
100
AcDbEntity
  8
0
 62
7
100
AcDbPolyline
 90
2
 70
0
 10
27.510000
 20
-277.364150
 30
0.0
 10
27.736000
 20
-277.164150
 30
0.0
  0
LWPOLYLINE
  5
382
100
AcDbEntity
  8
0
 62
7
100
AcDbPolyline
 90
2
 70
0
 10
27.243000
 20
-277.504150
 30
0.0
 10
27.510000
 20
-277.364150
 30
0.0
  0
LWPOLYLINE
  5
383
100
AcDbEntity
  8
0
 62
7
100
AcDbPolyline
 90
2
 70
0
 10
26.951000
 20
-277.576150
 30
0.0
 10
27.243000
 20
-277.504150
 30
0.0
  0
LWPOLYLINE
  5
384
100
AcDbEntity
  8
0
 62
7
100
AcDbPolyline
 90
2
 70
0
 10
26.649000
 20
-277.576150
 30
0.0
 10
26.951000
 20
-277.576150
 30
0.0
  0
LWPOLYLINE
  5
385
100
AcDbEntity
  8
0
 62
7
100
AcDbPolyline
 90
2
 70
0
 10
26.357000
 20
-277.504150
 30
0.0
 10
26.649000
 20
-277.576150
 30
0.0
  0
LWPOLYLINE
  5
386
100
AcDbEntity
  8
0
 62
7
100
AcDbPolyline
 90
2
 70
0
 10
26.090000
 20
-277.364150
 30
0.0
 10
26.357000
 20
-277.504150
 30
0.0
  0
LWPOLYLINE
  5
387
100
AcDbEntity
  8
0
 62
7
100
AcDbPolyline
 90
2
 70
0
 10
25.864000
 20
-277.164150
 30
0.0
 10
26.090000
 20
-277.364150
 30
0.0
  0
LWPOLYLINE
  5
388
100
AcDbEntity
  8
0
 62
7
100
AcDbPolyline
 90
2
 70
0
 10
25.693000
 20
-276.916150
 30
0.0
 10
25.864000
 20
-277.164150
 30
0.0
  0
LWPOLYLINE
  5
389
100
AcDbEntity
  8
0
 62
7
100
AcDbPolyline
 90
2
 70
0
 10
25.586000
 20
-276.634150
 30
0.0
 10
25.693000
 20
-276.916150
 30
0.0
  0
LWPOLYLINE
  5
38a
100
AcDbEntity
  8
0
 62
7
100
AcDbPolyline
 90
2
 70
0
 10
25.550000
 20
-276.335150
 30
0.0
 10
25.586000
 20
-276.634150
 30
0.0
  0
LWPOLYLINE
  5
38b
100
AcDbEntity
  8
0
 62
7
100
AcDbPolyline
 90
2
 70
0
 10
25.586000
 20
-276.036050
 30
0.0
 10
25.550000
 20
-276.335150
 30
0.0
  0
LWPOLYLINE
  5
38c
100
AcDbEntity
  8
0
 62
7
100
AcDbPolyline
 90
2
 70
0
 10
25.693000
 20
-275.754250
 30
0.0
 10
25.586000
 20
-276.036050
 30
0.0
  0
LWPOLYLINE
  5
38d
100
AcDbEntity
  8
0
 62
7
100
AcDbPolyline
 90
2
 70
0
 10
25.864000
 20
-275.506250
 30
0.0
 10
25.693000
 20
-275.754250
 30
0.0
  0
LWPOLYLINE
  5
38e
100
AcDbEntity
  8
0
 62
7
100
AcDbPolyline
 90
2
 70
0
 10
26.090000
 20
-275.306450
 30
0.0
 10
25.864000
 20
-275.506250
 30
0.0
  0
LWPOLYLINE
  5
38f
100
AcDbEntity
  8
0
 62
7
100
AcDbPolyline
 90
2
 70
0
 10
26.357000
 20
-275.166350
 30
0.0
 10
26.090000
 20
-275.306450
 30
0.0
  0
LWPOLYLINE
  5
390
100
AcDbEntity
  8
0
 62
7
100
AcDbPolyline
 90
2
 70
0
 10
26.649000
 20
-275.094250
 30
0.0
 10
26.357000
 20
-275.166350
 30
0.0
  0
LWPOLYLINE
  5
391
100
AcDbEntity
  8
0
 62
7
100
AcDbPolyline
 90
2
 70
0
 10
26.951000
 20
-275.094250
 30
0.0
 10
26.649000
 20
-275.094250
 30
0.0
  0
LWPOLYLINE
  5
392
100
AcDbEntity
  8
0
 62
7
100
AcDbPolyline
 90
2
 70
0
 10
27.243000
 20
-275.166350
 30
0.0
 10
26.951000
 20
-275.094250
 30
0.0
  0
LWPOLYLINE
  5
393
100
AcDbEntity
  8
0
 62
7
100
AcDbPolyline
 90
2
 70
0
 10
27.510000
 20
-275.306450
 30
0.0
 10
27.243000
 20
-275.166350
 30
0.0
  0
LWPOLYLINE
  5
394
100
AcDbEntity
  8
0
 62
7
100
AcDbPolyline
 90
2
 70
0
 10
27.736000
 20
-275.506250
 30
0.0
 10
27.510000
 20
-275.306450
 30
0.0
  0
LWPOLYLINE
  5
395
100
AcDbEntity
  8
0
 62
7
100
AcDbPolyline
 90
2
 70
0
 10
27.907000
 20
-275.754250
 30
0.0
 10
27.736000
 20
-275.506250
 30
0.0
  0
LWPOLYLINE
  5
396
100
AcDbEntity
  8
0
 62
7
100
AcDbPolyline
 90
2
 70
0
 10
28.014000
 20
-276.036050
 30
0.0
 10
27.907000
 20
-275.754250
 30
0.0
  0
LWPOLYLINE
  5
397
100
AcDbEntity
  8
0
 62
7
100
AcDbPolyline
 90
2
 70
0
 10
28.050000
 20
-276.335150
 30
0.0
 10
28.014000
 20
-276.036050
 30
0.0
  0
LWPOLYLINE
  5
398
100
AcDbEntity
  8
0
 62
7
100
AcDbPolyline
 90
2
 70
0
 10
318.014000
 20
-276.634150
 30
0.0
 10
318.050000
 20
-276.335150
 30
0.0
  0
LWPOLYLINE
  5
399
100
AcDbEntity
  8
0
 62
7
100
AcDbPolyline
 90
2
 70
0
 10
317.907000
 20
-276.916150
 30
0.0
 10
318.014000
 20
-276.634150
 30
0.0
  0
LWPOLYLINE
  5
39a
100
AcDbEntity
  8
0
 62
7
100
AcDbPolyline
 90
2
 70
0
 10
317.736000
 20
-277.164150
 30
0.0
 10
317.907000
 20
-276.916150
 30
0.0
  0
LWPOLYLINE
  5
39b
100
AcDbEntity
  8
0
 62
7
100
AcDbPolyline
 90
2
 70
0
 10
317.510000
 20
-277.364150
 30
0.0
 10
317.736000
 20
-277.164150
 30
0.0
  0
LWPOLYLINE
  5
39c
100
AcDbEntity
  8
0
 62
7
100
AcDbPolyline
 90
2
 70
0
 10
317.243000
 20
-277.504150
 30
0.0
 10
317.510000
 20
-277.364150
 30
0.0
  0
LWPOLYLINE
  5
39d
100
AcDbEntity
  8
0
 62
7
100
AcDbPolyline
 90
2
 70
0
 10
316.951000
 20
-277.576150
 30
0.0
 10
317.243000
 20
-277.504150
 30
0.0
  0
LWPOLYLINE
  5
39e
100
AcDbEntity
  8
0
 62
7
100
AcDbPolyline
 90
2
 70
0
 10
316.649000
 20
-277.576150
 30
0.0
 10
316.951000
 20
-277.576150
 30
0.0
  0
LWPOLYLINE
  5
39f
100
AcDbEntity
  8
0
 62
7
100
AcDbPolyline
 90
2
 70
0
 10
316.357000
 20
-277.504150
 30
0.0
 10
316.649000
 20
-277.576150
 30
0.0
  0
LWPOLYLINE
  5
3a0
100
AcDbEntity
  8
0
 62
7
100
AcDbPolyline
 90
2
 70
0
 10
316.090000
 20
-277.364150
 30
0.0
 10
316.357000
 20
-277.504150
 30
0.0
  0
LWPOLYLINE
  5
3a1
100
AcDbEntity
  8
0
 62
7
100
AcDbPolyline
 90
2
 70
0
 10
315.864000
 20
-277.164150
 30
0.0
 10
316.090000
 20
-277.364150
 30
0.0
  0
LWPOLYLINE
  5
3a2
100
AcDbEntity
  8
0
 62
7
100
AcDbPolyline
 90
2
 70
0
 10
315.693000
 20
-276.916150
 30
0.0
 10
315.864000
 20
-277.164150
 30
0.0
  0
LWPOLYLINE
  5
3a3
100
AcDbEntity
  8
0
 62
7
100
AcDbPolyline
 90
2
 70
0
 10
315.586000
 20
-276.634150
 30
0.0
 10
315.693000
 20
-276.916150
 30
0.0
  0
LWPOLYLINE
  5
3a4
100
AcDbEntity
  8
0
 62
7
100
AcDbPolyline
 90
2
 70
0
 10
315.550000
 20
-276.335150
 30
0.0
 10
315.586000
 20
-276.634150
 30
0.0
  0
LWPOLYLINE
  5
3a5
100
AcDbEntity
  8
0
 62
7
100
AcDbPolyline
 90
2
 70
0
 10
315.586000
 20
-276.036050
 30
0.0
 10
315.550000
 20
-276.335150
 30
0.0
  0
LWPOLYLINE
  5
3a6
100
AcDbEntity
  8
0
 62
7
100
AcDbPolyline
 90
2
 70
0
 10
315.693000
 20
-275.754250
 30
0.0
 10
315.586000
 20
-276.036050
 30
0.0
  0
LWPOLYLINE
  5
3a7
100
AcDbEntity
  8
0
 62
7
100
AcDbPolyline
 90
2
 70
0
 10
315.864000
 20
-275.506250
 30
0.0
 10
315.693000
 20
-275.754250
 30
0.0
  0
LWPOLYLINE
  5
3a8
100
AcDbEntity
  8
0
 62
7
100
AcDbPolyline
 90
2
 70
0
 10
316.090000
 20
-275.306450
 30
0.0
 10
315.864000
 20
-275.506250
 30
0.0
  0
LWPOLYLINE
  5
3a9
100
AcDbEntity
  8
0
 62
7
100
AcDbPolyline
 90
2
 70
0
 10
316.357000
 20
-275.166350
 30
0.0
 10
316.090000
 20
-275.306450
 30
0.0
  0
LWPOLYLINE
  5
3aa
100
AcDbEntity
  8
0
 62
7
100
AcDbPolyline
 90
2
 70
0
 10
316.649000
 20
-275.094250
 30
0.0
 10
316.357000
 20
-275.166350
 30
0.0
  0
LWPOLYLINE
  5
3ab
100
AcDbEntity
  8
0
 62
7
100
AcDbPolyline
 90
2
 70
0
 10
316.951000
 20
-275.094250
 30
0.0
 10
316.649000
 20
-275.094250
 30
0.0
  0
LWPOLYLINE
  5
3ac
100
AcDbEntity
  8
0
 62
7
100
AcDbPolyline
 90
2
 70
0
 10
317.243000
 20
-275.166350
 30
0.0
 10
316.951000
 20
-275.094250
 30
0.0
  0
LWPOLYLINE
  5
3ad
100
AcDbEntity
  8
0
 62
7
100
AcDbPolyline
 90
2
 70
0
 10
317.510000
 20
-275.306450
 30
0.0
 10
317.243000
 20
-275.166350
 30
0.0
  0
LWPOLYLINE
  5
3ae
100
AcDbEntity
  8
0
 62
7
100
AcDbPolyline
 90
2
 70
0
 10
317.736000
 20
-275.506250
 30
0.0
 10
317.510000
 20
-275.306450
 30
0.0
  0
LWPOLYLINE
  5
3af
100
AcDbEntity
  8
0
 62
7
100
AcDbPolyline
 90
2
 70
0
 10
317.907000
 20
-275.754250
 30
0.0
 10
317.736000
 20
-275.506250
 30
0.0
  0
LWPOLYLINE
  5
3b0
100
AcDbEntity
  8
0
 62
7
100
AcDbPolyline
 90
2
 70
0
 10
318.014000
 20
-276.036050
 30
0.0
 10
317.907000
 20
-275.754250
 30
0.0
  0
LWPOLYLINE
  5
3b1
100
AcDbEntity
  8
0
 62
7
100
AcDbPolyline
 90
2
 70
0
 10
318.050000
 20
-276.335150
 30
0.0
 10
318.014000
 20
-276.036050
 30
0.0
  0
LWPOLYLINE
  5
3b2
100
AcDbEntity
  8
0
 62
7
100
AcDbPolyline
 90
2
 70
0
 10
18.800000
 20
-284.335150
 30
0.0
 10
18.800000
 20
-281.335150
 30
0.0
  0
LWPOLYLINE
  5
3b3
100
AcDbEntity
  8
0
 62
7
100
AcDbPolyline
 90
2
 70
0
 10
18.800000
 20
-268.335150
 30
0.0
 10
18.800000
 20
-281.335150
 30
0.0
  0
LWPOLYLINE
  5
3b4
100
AcDbEntity
  8
0
 62
7
100
AcDbPolyline
 90
2
 70
0
 10
21.800000
 20
-268.335150
 30
0.0
 10
18.800000
 20
-268.335150
 30
0.0
  0
LWPOLYLINE
  5
3b5
100
AcDbEntity
  8
0
 62
7
100
AcDbPolyline
 90
2
 70
0
 10
21.800000
 20
-258.335150
 30
0.0
 10
21.800000
 20
-268.335150
 30
0.0
  0
LWPOLYLINE
  5
3b6
100
AcDbEntity
  8
0
 62
7
100
AcDbPolyline
 90
2
 70
0
 10
18.800000
 20
-258.335150
 30
0.0
 10
21.800000
 20
-258.335150
 30
0.0
  0
LWPOLYLINE
  5
3b7
100
AcDbEntity
  8
0
 62
7
100
AcDbPolyline
 90
2
 70
0
 10
18.800000
 20
-181.335150
 30
0.0
 10
18.800000
 20
-258.335150
 30
0.0
  0
LWPOLYLINE
  5
3b8
100
AcDbEntity
  8
0
 62
7
100
AcDbPolyline
 90
2
 70
0
 10
21.800000
 20
-181.335150
 30
0.0
 10
18.800000
 20
-181.335150
 30
0.0
  0
LWPOLYLINE
  5
3b9
100
AcDbEntity
  8
0
 62
7
100
AcDbPolyline
 90
2
 70
0
 10
21.800000
 20
-171.335150
 30
0.0
 10
21.800000
 20
-181.335150
 30
0.0
  0
LWPOLYLINE
  5
3ba
100
AcDbEntity
  8
0
 62
7
100
AcDbPolyline
 90
2
 70
0
 10
18.800000
 20
-171.335150
 30
0.0
 10
21.800000
 20
-171.335150
 30
0.0
  0
LWPOLYLINE
  5
3bb
100
AcDbEntity
  8
0
 62
7
100
AcDbPolyline
 90
2
 70
0
 10
18.800000
 20
-94.335150
 30
0.0
 10
18.800000
 20
-171.335150
 30
0.0
  0
LWPOLYLINE
  5
3bc
100
AcDbEntity
  8
0
 62
7
100
AcDbPolyline
 90
2
 70
0
 10
21.800000
 20
-94.335150
 30
0.0
 10
18.800000
 20
-94.335150
 30
0.0
  0
LWPOLYLINE
  5
3bd
100
AcDbEntity
  8
0
 62
7
100
AcDbPolyline
 90
2
 70
0
 10
21.800000
 20
-84.335150
 30
0.0
 10
21.800000
 20
-94.335150
 30
0.0
  0
LWPOLYLINE
  5
3be
100
AcDbEntity
  8
0
 62
7
100
AcDbPolyline
 90
2
 70
0
 10
18.800000
 20
-84.335150
 30
0.0
 10
21.800000
 20
-84.335150
 30
0.0
  0
LWPOLYLINE
  5
3bf
100
AcDbEntity
  8
0
 62
7
100
AcDbPolyline
 90
2
 70
0
 10
18.800000
 20
-68.335150
 30
0.0
 10
18.800000
 20
-84.335150
 30
0.0
  0
LWPOLYLINE
  5
3c0
100
AcDbEntity
  8
0
 62
7
100
AcDbPolyline
 90
2
 70
0
 10
31.800000
 20
-68.335150
 30
0.0
 10
18.800000
 20
-68.335150
 30
0.0
  0
LWPOLYLINE
  5
3c1
100
AcDbEntity
  8
0
 62
7
100
AcDbPolyline
 90
14
 70
0
 10
31.800000
 20
-68.335150
 30
0.0
 10
31.800000
 20
-71.335150
 30
0.0
 10
41.800000
 20
-71.335150
 30
0.0
 10
41.800000
 20
-68.335150
 30
0.0
 10
166.800000
 20
-68.335150
 30
0.0
 10
166.800000
 20
-71.335150
 30
0.0
 10
176.800000
 20
-71.335150
 30
0.0
 10
176.800000
 20
-68.335150
 30
0.0
 10
301.800000
 20
-68.335150
 30
0.0
 10
301.800000
 20
-71.335150
 30
0.0
 10
311.800000
 20
-71.335150
 30
0.0
 10
311.800000
 20
-68.335150
 30
0.0
 10
324.800000
 20
-68.335150
 30
0.0
 10
324.800000
 20
-84.335150
 30
0.0
  0
LWPOLYLINE
  5
3c2
100
AcDbEntity
  8
0
 62
7
100
AcDbPolyline
 90
2
 70
0
 10
321.800000
 20
-84.335150
 30
0.0
 10
324.800000
 20
-84.335150
 30
0.0
  0
LWPOLYLINE
  5
3c3
100
AcDbEntity
  8
0
 62
7
100
AcDbPolyline
 90
2
 70
0
 10
321.800000
 20
-94.335150
 30
0.0
 10
321.800000
 20
-84.335150
 30
0.0
  0
LWPOLYLINE
  5
3c4
100
AcDbEntity
  8
0
 62
7
100
AcDbPolyline
 90
2
 70
0
 10
324.800000
 20
-94.335150
 30
0.0
 10
321.800000
 20
-94.335150
 30
0.0
  0
LWPOLYLINE
  5
3c5
100
AcDbEntity
  8
0
 62
7
100
AcDbPolyline
 90
2
 70
0
 10
324.800000
 20
-171.335150
 30
0.0
 10
324.800000
 20
-94.335150
 30
0.0
  0
LWPOLYLINE
  5
3c6
100
AcDbEntity
  8
0
 62
7
100
AcDbPolyline
 90
2
 70
0
 10
321.800000
 20
-171.335150
 30
0.0
 10
324.800000
 20
-171.335150
 30
0.0
  0
LWPOLYLINE
  5
3c7
100
AcDbEntity
  8
0
 62
7
100
AcDbPolyline
 90
2
 70
0
 10
321.800000
 20
-181.335150
 30
0.0
 10
321.800000
 20
-171.335150
 30
0.0
  0
LWPOLYLINE
  5
3c8
100
AcDbEntity
  8
0
 62
7
100
AcDbPolyline
 90
2
 70
0
 10
324.800000
 20
-181.335150
 30
0.0
 10
321.800000
 20
-181.335150
 30
0.0
  0
LWPOLYLINE
  5
3c9
100
AcDbEntity
  8
0
 62
7
100
AcDbPolyline
 90
2
 70
0
 10
324.800000
 20
-258.335150
 30
0.0
 10
324.800000
 20
-181.335150
 30
0.0
  0
LWPOLYLINE
  5
3ca
100
AcDbEntity
  8
0
 62
7
100
AcDbPolyline
 90
2
 70
0
 10
321.800000
 20
-258.335150
 30
0.0
 10
324.800000
 20
-258.335150
 30
0.0
  0
LWPOLYLINE
  5
3cb
100
AcDbEntity
  8
0
 62
7
100
AcDbPolyline
 90
2
 70
0
 10
321.800000
 20
-268.335150
 30
0.0
 10
321.800000
 20
-258.335150
 30
0.0
  0
LWPOLYLINE
  5
3cc
100
AcDbEntity
  8
0
 62
7
100
AcDbPolyline
 90
2
 70
0
 10
324.800000
 20
-268.335150
 30
0.0
 10
321.800000
 20
-268.335150
 30
0.0
  0
LWPOLYLINE
  5
3cd
100
AcDbEntity
  8
0
 62
7
100
AcDbPolyline
 90
2
 70
0
 10
324.800000
 20
-284.335150
 30
0.0
 10
324.800000
 20
-268.335150
 30
0.0
  0
LWPOLYLINE
  5
3ce
100
AcDbEntity
  8
0
 62
7
100
AcDbPolyline
 90
2
 70
0
 10
311.800000
 20
-284.335150
 30
0.0
 10
324.800000
 20
-284.335150
 30
0.0
  0
LWPOLYLINE
  5
3cf
100
AcDbEntity
  8
0
 62
7
100
AcDbPolyline
 90
2
 70
0
 10
311.800000
 20
-281.335150
 30
0.0
 10
311.800000
 20
-284.335150
 30
0.0
  0
LWPOLYLINE
  5
3d0
100
AcDbEntity
  8
0
 62
7
100
AcDbPolyline
 90
2
 70
0
 10
301.800000
 20
-281.335150
 30
0.0
 10
311.800000
 20
-281.335150
 30
0.0
  0
LWPOLYLINE
  5
3d1
100
AcDbEntity
  8
0
 62
7
100
AcDbPolyline
 90
2
 70
0
 10
301.800000
 20
-284.335150
 30
0.0
 10
301.800000
 20
-281.335150
 30
0.0
  0
LWPOLYLINE
  5
3d2
100
AcDbEntity
  8
0
 62
7
100
AcDbPolyline
 90
2
 70
0
 10
176.800000
 20
-284.335150
 30
0.0
 10
301.800000
 20
-284.335150
 30
0.0
  0
LWPOLYLINE
  5
3d3
100
AcDbEntity
  8
0
 62
7
100
AcDbPolyline
 90
2
 70
0
 10
176.800000
 20
-281.335150
 30
0.0
 10
176.800000
 20
-284.335150
 30
0.0
  0
LWPOLYLINE
  5
3d4
100
AcDbEntity
  8
0
 62
7
100
AcDbPolyline
 90
2
 70
0
 10
166.800000
 20
-281.335150
 30
0.0
 10
176.800000
 20
-281.335150
 30
0.0
  0
LWPOLYLINE
  5
3d5
100
AcDbEntity
  8
0
 62
7
100
AcDbPolyline
 90
2
 70
0
 10
166.800000
 20
-284.335150
 30
0.0
 10
166.800000
 20
-281.335150
 30
0.0
  0
LWPOLYLINE
  5
3d6
100
AcDbEntity
  8
0
 62
7
100
AcDbPolyline
 90
2
 70
0
 10
41.800000
 20
-284.335150
 30
0.0
 10
166.800000
 20
-284.335150
 30
0.0
  0
LWPOLYLINE
  5
3d7
100
AcDbEntity
  8
0
 62
7
100
AcDbPolyline
 90
2
 70
0
 10
41.800000
 20
-281.335150
 30
0.0
 10
41.800000
 20
-284.335150
 30
0.0
  0
LWPOLYLINE
  5
3d8
100
AcDbEntity
  8
0
 62
7
100
AcDbPolyline
 90
2
 70
0
 10
31.800000
 20
-281.335150
 30
0.0
 10
41.800000
 20
-281.335150
 30
0.0
  0
LWPOLYLINE
  5
3d9
100
AcDbEntity
  8
0
 62
7
100
AcDbPolyline
 90
2
 70
0
 10
31.800000
 20
-284.335150
 30
0.0
 10
31.800000
 20
-281.335150
 30
0.0
  0
LWPOLYLINE
  5
3da
100
AcDbEntity
  8
0
 62
7
100
AcDbPolyline
 90
2
 70
0
 10
31.800000
 20
-284.335150
 30
0.0
 10
18.800000
 20
-284.335150
 30
0.0
  0
LWPOLYLINE
  5
3db
100
AcDbEntity
  8
0
 62
7
100
AcDbPolyline
 90
7
 70
0
 10
353.453000
 20
-17.242150
 30
0.0
 10
353.453000
 20
2.557850
 30
0.0
 10
498.453000
 20
2.557850
 30
0.0
 10
498.453000
 20
-0.442150
 30
0.0
 10
508.453000
 20
-0.442150
 30
0.0
 10
508.453000
 20
2.557850
 30
0.0
 10
653.453000
 20
2.557850
 30
0.0
  0
LWPOLYLINE
  5
3dc
100
AcDbEntity
  8
0
 62
7
100
AcDbPolyline
 90
2
 70
0
 10
653.453000
 20
-17.242150
 30
0.0
 10
653.453000
 20
2.557850
 30
0.0
  0
LWPOLYLINE
  5
3dd
100
AcDbEntity
  8
0
 62
7
100
AcDbPolyline
 90
2
 70
0
 10
656.453000
 20
-17.242150
 30
0.0
 10
653.453000
 20
-17.242150
 30
0.0
  0
LWPOLYLINE
  5
3de
100
AcDbEntity
  8
0
 62
7
100
AcDbPolyline
 90
2
 70
0
 10
656.453000
 20
-27.642150
 30
0.0
 10
656.453000
 20
-17.242150
 30
0.0
  0
LWPOLYLINE
  5
3df
100
AcDbEntity
  8
0
 62
7
100
AcDbPolyline
 90
2
 70
0
 10
653.453000
 20
-27.642150
 30
0.0
 10
656.453000
 20
-27.642150
 30
0.0
  0
LWPOLYLINE
  5
3e0
100
AcDbEntity
  8
0
 62
7
100
AcDbPolyline
 90
2
 70
0
 10
653.453000
 20
-47.442150
 30
0.0
 10
653.453000
 20
-27.642150
 30
0.0
  0
LWPOLYLINE
  5
3e1
100
AcDbEntity
  8
0
 62
7
100
AcDbPolyline
 90
2
 70
0
 10
643.653000
 20
-47.442150
 30
0.0
 10
653.453000
 20
-47.442150
 30
0.0
  0
LWPOLYLINE
  5
3e2
100
AcDbEntity
  8
0
 62
7
100
AcDbPolyline
 90
2
 70
0
 10
643.653000
 20
-50.442150
 30
0.0
 10
643.653000
 20
-47.442150
 30
0.0
  0
LWPOLYLINE
  5
3e3
100
AcDbEntity
  8
0
 62
7
100
AcDbPolyline
 90
2
 70
0
 10
633.253000
 20
-50.442150
 30
0.0
 10
643.653000
 20
-50.442150
 30
0.0
  0
LWPOLYLINE
  5
3e4
100
AcDbEntity
  8
0
 62
7
100
AcDbPolyline
 90
2
 70
0
 10
633.253000
 20
-47.442150
 30
0.0
 10
633.253000
 20
-50.442150
 30
0.0
  0
LWPOLYLINE
  5
3e5
100
AcDbEntity
  8
0
 62
7
100
AcDbPolyline
 90
2
 70
0
 10
508.653000
 20
-47.442150
 30
0.0
 10
633.253000
 20
-47.442150
 30
0.0
  0
LWPOLYLINE
  5
3e6
100
AcDbEntity
  8
0
 62
7
100
AcDbPolyline
 90
2
 70
0
 10
508.653000
 20
-50.442150
 30
0.0
 10
508.653000
 20
-47.442150
 30
0.0
  0
LWPOLYLINE
  5
3e7
100
AcDbEntity
  8
0
 62
7
100
AcDbPolyline
 90
2
 70
0
 10
498.253000
 20
-50.442150
 30
0.0
 10
508.653000
 20
-50.442150
 30
0.0
  0
LWPOLYLINE
  5
3e8
100
AcDbEntity
  8
0
 62
7
100
AcDbPolyline
 90
2
 70
0
 10
498.253000
 20
-47.442150
 30
0.0
 10
498.253000
 20
-50.442150
 30
0.0
  0
LWPOLYLINE
  5
3e9
100
AcDbEntity
  8
0
 62
7
100
AcDbPolyline
 90
2
 70
0
 10
373.653000
 20
-47.442150
 30
0.0
 10
498.253000
 20
-47.442150
 30
0.0
  0
LWPOLYLINE
  5
3ea
100
AcDbEntity
  8
0
 62
7
100
AcDbPolyline
 90
2
 70
0
 10
373.653000
 20
-50.442150
 30
0.0
 10
373.653000
 20
-47.442150
 30
0.0
  0
LWPOLYLINE
  5
3eb
100
AcDbEntity
  8
0
 62
7
100
AcDbPolyline
 90
2
 70
0
 10
363.253000
 20
-50.442150
 30
0.0
 10
373.653000
 20
-50.442150
 30
0.0
  0
LWPOLYLINE
  5
3ec
100
AcDbEntity
  8
0
 62
7
100
AcDbPolyline
 90
2
 70
0
 10
363.253000
 20
-47.442150
 30
0.0
 10
363.253000
 20
-50.442150
 30
0.0
  0
LWPOLYLINE
  5
3ed
100
AcDbEntity
  8
0
 62
7
100
AcDbPolyline
 90
2
 70
0
 10
353.453000
 20
-47.442150
 30
0.0
 10
363.253000
 20
-47.442150
 30
0.0
  0
LWPOLYLINE
  5
3ee
100
AcDbEntity
  8
0
 62
7
100
AcDbPolyline
 90
2
 70
0
 10
353.453000
 20
-47.442150
 30
0.0
 10
353.453000
 20
-27.642150
 30
0.0
  0
LWPOLYLINE
  5
3ef
100
AcDbEntity
  8
0
 62
7
100
AcDbPolyline
 90
2
 70
0
 10
350.453000
 20
-27.642150
 30
0.0
 10
353.453000
 20
-27.642150
 30
0.0
  0
LWPOLYLINE
  5
3f0
100
AcDbEntity
  8
0
 62
7
100
AcDbPolyline
 90
2
 70
0
 10
350.453000
 20
-17.242150
 30
0.0
 10
350.453000
 20
-27.642150
 30
0.0
  0
LWPOLYLINE
  5
3f1
100
AcDbEntity
  8
0
 62
7
100
AcDbPolyline
 90
2
 70
0
 10
353.453000
 20
-17.242150
 30
0.0
 10
350.453000
 20
-17.242150
 30
0.0
  0
LWPOLYLINE
  5
3f2
100
AcDbEntity
  8
0
 62
7
100
AcDbPolyline
 90
2
 70
0
 10
353.109000
 20
-123.289150
 30
0.0
 10
353.109000
 20
-103.489150
 30
0.0
  0
LWPOLYLINE
  5
3f3
100
AcDbEntity
  8
0
 62
7
100
AcDbPolyline
 90
2
 70
0
 10
350.109000
 20
-103.489150
 30
0.0
 10
353.109000
 20
-103.489150
 30
0.0
  0
LWPOLYLINE
  5
3f4
100
AcDbEntity
  8
0
 62
7
100
AcDbPolyline
 90
2
 70
0
 10
350.109000
 20
-93.089150
 30
0.0
 10
350.109000
 20
-103.489150
 30
0.0
  0
LWPOLYLINE
  5
3f5
100
AcDbEntity
  8
0
 62
7
100
AcDbPolyline
 90
2
 70
0
 10
353.109000
 20
-93.089150
 30
0.0
 10
350.109000
 20
-93.089150
 30
0.0
  0
LWPOLYLINE
  5
3f6
100
AcDbEntity
  8
0
 62
7
100
AcDbPolyline
 90
12
 70
0
 10
353.109000
 20
-93.089150
 30
0.0
 10
353.109000
 20
-73.289150
 30
0.0
 10
498.109000
 20
-73.289150
 30
0.0
 10
498.109000
 20
-76.289150
 30
0.0
 10
508.109000
 20
-76.289150
 30
0.0
 10
508.109000
 20
-73.289150
 30
0.0
 10
653.109000
 20
-73.289150
 30
0.0
 10
653.109000
 20
-93.089150
 30
0.0
 10
656.109000
 20
-93.089150
 30
0.0
 10
656.109000
 20
-103.489150
 30
0.0
 10
653.109000
 20
-103.489150
 30
0.0
 10
653.109000
 20
-123.289150
 30
0.0
  0
LWPOLYLINE
  5
3f7
100
AcDbEntity
  8
0
 62
7
100
AcDbPolyline
 90
2
 70
0
 10
643.309000
 20
-123.289150
 30
0.0
 10
653.109000
 20
-123.289150
 30
0.0
  0
LWPOLYLINE
  5
3f8
100
AcDbEntity
  8
0
 62
7
100
AcDbPolyline
 90
2
 70
0
 10
643.309000
 20
-126.289150
 30
0.0
 10
643.309000
 20
-123.289150
 30
0.0
  0
LWPOLYLINE
  5
3f9
100
AcDbEntity
  8
0
 62
7
100
AcDbPolyline
 90
2
 70
0
 10
632.909000
 20
-126.289150
 30
0.0
 10
643.309000
 20
-126.289150
 30
0.0
  0
LWPOLYLINE
  5
3fa
100
AcDbEntity
  8
0
 62
7
100
AcDbPolyline
 90
2
 70
0
 10
632.909000
 20
-123.289150
 30
0.0
 10
632.909000
 20
-126.289150
 30
0.0
  0
LWPOLYLINE
  5
3fb
100
AcDbEntity
  8
0
 62
7
100
AcDbPolyline
 90
2
 70
0
 10
508.309000
 20
-123.289150
 30
0.0
 10
632.909000
 20
-123.289150
 30
0.0
  0
LWPOLYLINE
  5
3fc
100
AcDbEntity
  8
0
 62
7
100
AcDbPolyline
 90
2
 70
0
 10
508.309000
 20
-126.289150
 30
0.0
 10
508.309000
 20
-123.289150
 30
0.0
  0
LWPOLYLINE
  5
3fd
100
AcDbEntity
  8
0
 62
7
100
AcDbPolyline
 90
2
 70
0
 10
497.909000
 20
-126.289150
 30
0.0
 10
508.309000
 20
-126.289150
 30
0.0
  0
LWPOLYLINE
  5
3fe
100
AcDbEntity
  8
0
 62
7
100
AcDbPolyline
 90
2
 70
0
 10
497.909000
 20
-123.289150
 30
0.0
 10
497.909000
 20
-126.289150
 30
0.0
  0
LWPOLYLINE
  5
3ff
100
AcDbEntity
  8
0
 62
7
100
AcDbPolyline
 90
2
 70
0
 10
373.309000
 20
-123.289150
 30
0.0
 10
497.909000
 20
-123.289150
 30
0.0
  0
LWPOLYLINE
  5
400
100
AcDbEntity
  8
0
 62
7
100
AcDbPolyline
 90
2
 70
0
 10
373.309000
 20
-126.289150
 30
0.0
 10
373.309000
 20
-123.289150
 30
0.0
  0
LWPOLYLINE
  5
401
100
AcDbEntity
  8
0
 62
7
100
AcDbPolyline
 90
2
 70
0
 10
362.909000
 20
-126.289150
 30
0.0
 10
373.309000
 20
-126.289150
 30
0.0
  0
LWPOLYLINE
  5
402
100
AcDbEntity
  8
0
 62
7
100
AcDbPolyline
 90
2
 70
0
 10
362.909000
 20
-123.289150
 30
0.0
 10
362.909000
 20
-126.289150
 30
0.0
  0
LWPOLYLINE
  5
403
100
AcDbEntity
  8
0
 62
7
100
AcDbPolyline
 90
2
 70
0
 10
353.109000
 20
-123.289150
 30
0.0
 10
362.909000
 20
-123.289150
 30
0.0
  0
LWPOLYLINE
  5
404
100
AcDbEntity
  8
0
 62
7
100
AcDbPolyline
 90
4
 70
1
 10
526.941000
 20
-183.708150
 30
0.0
 10
516.941000
 20
-183.708150
 30
0.0
 10
516.941000
 20
-193.708150
 30
0.0
 10
526.941000
 20
-193.708150
 30
0.0
  0
LWPOLYLINE
  5
405
100
AcDbEntity
  8
0
 62
7
100
AcDbPolyline
 90
6
 70
0
 10
623.941000
 20
-149.708150
 30
0.0
 10
623.941000
 20
-169.708150
 30
0.0
 10
620.941000
 20
-169.708150
 30
0.0
 10
620.941000
 20
-179.708150
 30
0.0
 10
623.941000
 20
-179.708150
 30
0.0
 10
623.941000
 20
-199.708150
 30
0.0
  0
LWPOLYLINE
  5
406
100
AcDbEntity
  8
0
 62
7
100
AcDbPolyline
 90
2
 70
0
 10
608.141000
 20
-199.708150
 30
0.0
 10
623.941000
 20
-199.708150
 30
0.0
  0
LWPOLYLINE
  5
407
100
AcDbEntity
  8
0
 62
7
100
AcDbPolyline
 90
2
 70
0
 10
608.141000
 20
-202.708150
 30
0.0
 10
608.141000
 20
-199.708150
 30
0.0
  0
LWPOLYLINE
  5
408
100
AcDbEntity
  8
0
 62
7
100
AcDbPolyline
 90
2
 70
0
 10
597.741000
 20
-202.708150
 30
0.0
 10
608.141000
 20
-202.708150
 30
0.0
  0
LWPOLYLINE
  5
409
100
AcDbEntity
  8
0
 62
7
100
AcDbPolyline
 90
2
 70
0
 10
597.741000
 20
-199.708150
 30
0.0
 10
597.741000
 20
-202.708150
 30
0.0
  0
LWPOLYLINE
  5
40a
100
AcDbEntity
  8
0
 62
7
100
AcDbPolyline
 90
2
 70
0
 10
521.141000
 20
-199.708150
 30
0.0
 10
597.741000
 20
-199.708150
 30
0.0
  0
LWPOLYLINE
  5
40b
100
AcDbEntity
  8
0
 62
7
100
AcDbPolyline
 90
2
 70
0
 10
521.141000
 20
-202.708150
 30
0.0
 10
521.141000
 20
-199.708150
 30
0.0
  0
LWPOLYLINE
  5
40c
100
AcDbEntity
  8
0
 62
7
100
AcDbPolyline
 90
2
 70
0
 10
510.741000
 20
-202.708150
 30
0.0
 10
521.141000
 20
-202.708150
 30
0.0
  0
LWPOLYLINE
  5
40d
100
AcDbEntity
  8
0
 62
7
100
AcDbPolyline
 90
2
 70
0
 10
510.741000
 20
-199.708150
 30
0.0
 10
510.741000
 20
-202.708150
 30
0.0
  0
LWPOLYLINE
  5
40e
100
AcDbEntity
  8
0
 62
7
100
AcDbPolyline
 90
2
 70
0
 10
434.141000
 20
-199.708150
 30
0.0
 10
510.741000
 20
-199.708150
 30
0.0
  0
LWPOLYLINE
  5
40f
100
AcDbEntity
  8
0
 62
7
100
AcDbPolyline
 90
2
 70
0
 10
434.141000
 20
-202.708150
 30
0.0
 10
434.141000
 20
-199.708150
 30
0.0
  0
LWPOLYLINE
  5
410
100
AcDbEntity
  8
0
 62
7
100
AcDbPolyline
 90
2
 70
0
 10
423.741000
 20
-202.708150
 30
0.0
 10
434.141000
 20
-202.708150
 30
0.0
  0
LWPOLYLINE
  5
411
100
AcDbEntity
  8
0
 62
7
100
AcDbPolyline
 90
2
 70
0
 10
423.741000
 20
-199.708150
 30
0.0
 10
423.741000
 20
-202.708150
 30
0.0
  0
LWPOLYLINE
  5
412
100
AcDbEntity
  8
0
 62
7
100
AcDbPolyline
 90
2
 70
0
 10
407.941000
 20
-199.708150
 30
0.0
 10
423.741000
 20
-199.708150
 30
0.0
  0
LWPOLYLINE
  5
413
100
AcDbEntity
  8
0
 62
7
100
AcDbPolyline
 90
2
 70
0
 10
407.941000
 20
-179.708150
 30
0.0
 10
407.941000
 20
-199.708150
 30
0.0
  0
LWPOLYLINE
  5
414
100
AcDbEntity
  8
0
 62
7
100
AcDbPolyline
 90
2
 70
0
 10
410.941000
 20
-179.708150
 30
0.0
 10
407.941000
 20
-179.708150
 30
0.0
  0
LWPOLYLINE
  5
415
100
AcDbEntity
  8
0
 62
7
100
AcDbPolyline
 90
2
 70
0
 10
410.941000
 20
-169.708150
 30
0.0
 10
410.941000
 20
-179.708150
 30
0.0
  0
LWPOLYLINE
  5
416
100
AcDbEntity
  8
0
 62
7
100
AcDbPolyline
 90
2
 70
0
 10
407.941000
 20
-169.708150
 30
0.0
 10
410.941000
 20
-169.708150
 30
0.0
  0
LWPOLYLINE
  5
417
100
AcDbEntity
  8
0
 62
7
100
AcDbPolyline
 90
2
 70
0
 10
407.941000
 20
-149.708150
 30
0.0
 10
407.941000
 20
-169.708150
 30
0.0
  0
LWPOLYLINE
  5
418
100
AcDbEntity
  8
0
 62
7
100
AcDbPolyline
 90
2
 70
0
 10
425.941000
 20
-149.708150
 30
0.0
 10
407.941000
 20
-149.708150
 30
0.0
  0
LWPOLYLINE
  5
419
100
AcDbEntity
  8
0
 62
7
100
AcDbPolyline
 90
2
 70
0
 10
425.941000
 20
-152.708150
 30
0.0
 10
425.941000
 20
-149.708150
 30
0.0
  0
LWPOLYLINE
  5
41a
100
AcDbEntity
  8
0
 62
7
100
AcDbPolyline
 90
2
 70
0
 10
435.941000
 20
-152.708150
 30
0.0
 10
425.941000
 20
-152.708150
 30
0.0
  0
LWPOLYLINE
  5
41b
100
AcDbEntity
  8
0
 62
7
100
AcDbPolyline
 90
2
 70
0
 10
435.941000
 20
-149.708150
 30
0.0
 10
435.941000
 20
-152.708150
 30
0.0
  0
LWPOLYLINE
  5
41c
100
AcDbEntity
  8
0
 62
7
100
AcDbPolyline
 90
2
 70
0
 10
478.941000
 20
-149.708150
 30
0.0
 10
435.941000
 20
-149.708150
 30
0.0
  0
LWPOLYLINE
  5
41d
100
AcDbEntity
  8
0
 62
7
100
AcDbPolyline
 90
2
 70
0
 10
478.941000
 20
-152.708150
 30
0.0
 10
478.941000
 20
-149.708150
 30
0.0
  0
LWPOLYLINE
  5
41e
100
AcDbEntity
  8
0
 62
7
100
AcDbPolyline
 90
2
 70
0
 10
488.941000
 20
-152.708150
 30
0.0
 10
478.941000
 20
-152.708150
 30
0.0
  0
LWPOLYLINE
  5
41f
100
AcDbEntity
  8
0
 62
7
100
AcDbPolyline
 90
2
 70
0
 10
488.941000
 20
-149.708150
 30
0.0
 10
488.941000
 20
-152.708150
 30
0.0
  0
LWPOLYLINE
  5
420
100
AcDbEntity
  8
0
 62
7
100
AcDbPolyline
 90
2
 70
0
 10
534.941000
 20
-149.708150
 30
0.0
 10
488.941000
 20
-149.708150
 30
0.0
  0
LWPOLYLINE
  5
421
100
AcDbEntity
  8
0
 62
7
100
AcDbPolyline
 90
2
 70
0
 10
534.941000
 20
-152.708150
 30
0.0
 10
534.941000
 20
-149.708150
 30
0.0
  0
LWPOLYLINE
  5
422
100
AcDbEntity
  8
0
 62
7
100
AcDbPolyline
 90
2
 70
0
 10
544.941000
 20
-152.708150
 30
0.0
 10
534.941000
 20
-152.708150
 30
0.0
  0
LWPOLYLINE
  5
423
100
AcDbEntity
  8
0
 62
7
100
AcDbPolyline
 90
2
 70
0
 10
544.941000
 20
-149.708150
 30
0.0
 10
544.941000
 20
-152.708150
 30
0.0
  0
LWPOLYLINE
  5
424
100
AcDbEntity
  8
0
 62
7
100
AcDbPolyline
 90
2
 70
0
 10
595.941000
 20
-149.708150
 30
0.0
 10
544.941000
 20
-149.708150
 30
0.0
  0
LWPOLYLINE
  5
425
100
AcDbEntity
  8
0
 62
7
100
AcDbPolyline
 90
2
 70
0
 10
595.941000
 20
-152.708150
 30
0.0
 10
595.941000
 20
-149.708150
 30
0.0
  0
LWPOLYLINE
  5
426
100
AcDbEntity
  8
0
 62
7
100
AcDbPolyline
 90
2
 70
0
 10
605.941000
 20
-152.708150
 30
0.0
 10
595.941000
 20
-152.708150
 30
0.0
  0
LWPOLYLINE
  5
427
100
AcDbEntity
  8
0
 62
7
100
AcDbPolyline
 90
2
 70
0
 10
605.941000
 20
-149.708150
 30
0.0
 10
605.941000
 20
-152.708150
 30
0.0
  0
LWPOLYLINE
  5
428
100
AcDbEntity
  8
0
 62
7
100
AcDbPolyline
 90
2
 70
0
 10
623.941000
 20
-149.708150
 30
0.0
 10
605.941000
 20
-149.708150
 30
0.0
  0
LWPOLYLINE
  5
429
100
AcDbEntity
  8
0
 62
7
100
AcDbPolyline
 90
28
 70
0
 10
406.108000
 20
-277.158150
 30
0.0
 10
406.108000
 20
-257.158150
 30
0.0
 10
409.108000
 20
-257.158150
 30
0.0
 10
409.108000
 20
-247.158150
 30
0.0
 10
406.108000
 20
-247.158150
 30
0.0
 10
406.108000
 20
-227.158150
 30
0.0
 10
424.108000
 20
-227.158150
 30
0.0
 10
424.108000
 20
-230.158150
 30
0.0
 10
434.108000
 20
-230.158150
 30
0.0
 10
434.108000
 20
-227.158150
 30
0.0
 10
477.108000
 20
-227.158150
 30
0.0
 10
477.108000
 20
-230.158150
 30
0.0
 10
487.108000
 20
-230.158150
 30
0.0
 10
487.108000
 20
-227.158150
 30
0.0
 10
533.108000
 20
-227.158150
 30
0.0
 10
533.108000
 20
-230.158150
 30
0.0
 10
543.108000
 20
-230.158150
 30
0.0
 10
543.108000
 20
-227.158150
 30
0.0
 10
594.108000
 20
-227.158150
 30
0.0
 10
594.108000
 20
-230.158150
 30
0.0
 10
604.108000
 20
-230.158150
 30
0.0
 10
604.108000
 20
-227.158150
 30
0.0
 10
622.108000
 20
-227.158150
 30
0.0
 10
622.108000
 20
-247.158150
 30
0.0
 10
619.108000
 20
-247.158150
 30
0.0
 10
619.108000
 20
-257.158150
 30
0.0
 10
622.108000
 20
-257.158150
 30
0.0
 10
622.108000
 20
-277.158150
 30
0.0
  0
LWPOLYLINE
  5
42a
100
AcDbEntity
  8
0
 62
7
100
AcDbPolyline
 90
2
 70
0
 10
606.308000
 20
-277.158150
 30
0.0
 10
622.108000
 20
-277.158150
 30
0.0
  0
LWPOLYLINE
  5
42b
100
AcDbEntity
  8
0
 62
7
100
AcDbPolyline
 90
2
 70
0
 10
606.308000
 20
-280.158150
 30
0.0
 10
606.308000
 20
-277.158150
 30
0.0
  0
LWPOLYLINE
  5
42c
100
AcDbEntity
  8
0
 62
7
100
AcDbPolyline
 90
2
 70
0
 10
595.908000
 20
-280.158150
 30
0.0
 10
606.308000
 20
-280.158150
 30
0.0
  0
LWPOLYLINE
  5
42d
100
AcDbEntity
  8
0
 62
7
100
AcDbPolyline
 90
2
 70
0
 10
595.908000
 20
-277.158150
 30
0.0
 10
595.908000
 20
-280.158150
 30
0.0
  0
LWPOLYLINE
  5
42e
100
AcDbEntity
  8
0
 62
7
100
AcDbPolyline
 90
2
 70
0
 10
519.308000
 20
-277.158150
 30
0.0
 10
595.908000
 20
-277.158150
 30
0.0
  0
LWPOLYLINE
  5
42f
100
AcDbEntity
  8
0
 62
7
100
AcDbPolyline
 90
2
 70
0
 10
519.308000
 20
-280.158150
 30
0.0
 10
519.308000
 20
-277.158150
 30
0.0
  0
LWPOLYLINE
  5
430
100
AcDbEntity
  8
0
 62
7
100
AcDbPolyline
 90
2
 70
0
 10
508.908000
 20
-280.158150
 30
0.0
 10
519.308000
 20
-280.158150
 30
0.0
  0
LWPOLYLINE
  5
431
100
AcDbEntity
  8
0
 62
7
100
AcDbPolyline
 90
2
 70
0
 10
508.908000
 20
-277.158150
 30
0.0
 10
508.908000
 20
-280.158150
 30
0.0
  0
LWPOLYLINE
  5
432
100
AcDbEntity
  8
0
 62
7
100
AcDbPolyline
 90
2
 70
0
 10
432.308000
 20
-277.158150
 30
0.0
 10
508.908000
 20
-277.158150
 30
0.0
  0
LWPOLYLINE
  5
433
100
AcDbEntity
  8
0
 62
7
100
AcDbPolyline
 90
2
 70
0
 10
432.308000
 20
-280.158150
 30
0.0
 10
432.308000
 20
-277.158150
 30
0.0
  0
LWPOLYLINE
  5
434
100
AcDbEntity
  8
0
 62
7
100
AcDbPolyline
 90
2
 70
0
 10
421.908000
 20
-280.158150
 30
0.0
 10
432.308000
 20
-280.158150
 30
0.0
  0
LWPOLYLINE
  5
435
100
AcDbEntity
  8
0
 62
7
100
AcDbPolyline
 90
2
 70
0
 10
421.908000
 20
-277.158150
 30
0.0
 10
421.908000
 20
-280.158150
 30
0.0
  0
LWPOLYLINE
  5
436
100
AcDbEntity
  8
0
 62
7
100
AcDbPolyline
 90
2
 70
0
 10
406.108000
 20
-277.158150
 30
0.0
 10
421.908000
 20
-277.158150
 30
0.0
  0
ENDSEC
  0
SECTION
  2
OBJECTS
  0
DICTIONARY
  5
C
330
0
100
AcDbDictionary
  3
ACAD_GROUP
350
D
  3
ACAD_MLINESTYLE
350
17
  0
DICTIONARY
  5
D
330
C
100
AcDbDictionary
  0
DICTIONARY
  5
1A
330
C
100
AcDbDictionary
  0
DICTIONARY
  5
17
330
C
100
AcDbDictionary
  3
STANDARD
350
18
  0
DICTIONARY
  5
19
330
C
100
AcDbDictionary
  0
ENDSEC
  0
EOF
