999
"DXF R12 Output" (www.mydxf.blogspot.com)
 0 
SECTION
 2 
HEADER
 9 
$ACADVER
 1 
AC1009
 9 
$EXTMIN
 10 
 0 
 20 
 0 
 9 
$EXTMAX
 10 
 8.5 
 20 
 11 
 0 
ENDSEC
 0 
SECTION
 2 
ENTITIES
0
LINE
8
Layer 1
10
-405.796000
20
804.045000
11
-405.694000
21
804.889000
0
LINE
8
Layer 1
10
-406.098000
20
803.250000
11
-405.796000
21
804.045000
0
LINE
8
Layer 1
10
-406.580000
20
802.550000
11
-406.098000
21
803.250000
0
LINE
8
Layer 1
10
-407.218000
20
801.986000
11
-406.580000
21
802.550000
0
LINE
8
Layer 1
10
-407.972000
20
801.590000
11
-407.218000
21
801.986000
0
LINE
8
Layer 1
10
-408.796000
20
801.387000
11
-407.972000
21
801.590000
0
LINE
8
Layer 1
10
-409.648000
20
801.387000
11
-408.796000
21
801.387000
0
LINE
8
Layer 1
10
-410.472000
20
801.590000
11
-409.648000
21
801.387000
0
LINE
8
Layer 1
10
-411.226000
20
801.986000
11
-410.472000
21
801.590000
0
LINE
8
Layer 1
10
-411.863000
20
802.550000
11
-411.226000
21
801.986000
0
LINE
8
Layer 1
10
-412.346000
20
803.250000
11
-411.863000
21
802.550000
0
LINE
8
Layer 1
10
-412.648000
20
804.045000
11
-412.346000
21
803.250000
0
LINE
8
Layer 1
10
-412.750000
20
804.889000
11
-412.648000
21
804.045000
0
LINE
8
Layer 1
10
-412.648000
20
805.733000
11
-412.750000
21
804.889000
0
LINE
8
Layer 1
10
-412.346000
20
806.529000
11
-412.648000
21
805.733000
0
LINE
8
Layer 1
10
-411.863000
20
807.229000
11
-412.346000
21
806.529000
0
LINE
8
Layer 1
10
-411.226000
20
807.793000
11
-411.863000
21
807.229000
0
LINE
8
Layer 1
10
-410.472000
20
808.188000
11
-411.226000
21
807.793000
0
LINE
8
Layer 1
10
-409.648000
20
808.391000
11
-410.472000
21
808.188000
0
LINE
8
Layer 1
10
-408.796000
20
808.391000
11
-409.648000
21
808.391000
0
LINE
8
Layer 1
10
-407.972000
20
808.188000
11
-408.796000
21
808.391000
0
LINE
8
Layer 1
10
-407.218000
20
807.793000
11
-407.972000
21
808.188000
0
LINE
8
Layer 1
10
-406.580000
20
807.229000
11
-407.218000
21
807.793000
0
LINE
8
Layer 1
10
-406.098000
20
806.529000
11
-406.580000
21
807.229000
0
LINE
8
Layer 1
10
-405.796000
20
805.733000
11
-406.098000
21
806.529000
0
LINE
8
Layer 1
10
-405.694000
20
804.889000
11
-405.796000
21
805.733000
0
LINE
8
Layer 1
10
412.648000
20
804.045000
11
412.750000
21
804.889000
0
LINE
8
Layer 1
10
412.346000
20
803.250000
11
412.648000
21
804.045000
0
LINE
8
Layer 1
10
411.863000
20
802.550000
11
412.346000
21
803.250000
0
LINE
8
Layer 1
10
411.226000
20
801.986000
11
411.863000
21
802.550000
0
LINE
8
Layer 1
10
410.472000
20
801.590000
11
411.226000
21
801.986000
0
LINE
8
Layer 1
10
409.648000
20
801.387000
11
410.472000
21
801.590000
0
LINE
8
Layer 1
10
408.796000
20
801.387000
11
409.648000
21
801.387000
0
LINE
8
Layer 1
10
407.972000
20
801.590000
11
408.796000
21
801.387000
0
LINE
8
Layer 1
10
407.218000
20
801.986000
11
407.972000
21
801.590000
0
LINE
8
Layer 1
10
406.580000
20
802.550000
11
407.218000
21
801.986000
0
LINE
8
Layer 1
10
406.098000
20
803.250000
11
406.580000
21
802.550000
0
LINE
8
Layer 1
10
405.796000
20
804.045000
11
406.098000
21
803.250000
0
LINE
8
Layer 1
10
405.694000
20
804.889000
11
405.796000
21
804.045000
0
LINE
8
Layer 1
10
405.796000
20
805.733000
11
405.694000
21
804.889000
0
LINE
8
Layer 1
10
406.098000
20
806.529000
11
405.796000
21
805.733000
0
LINE
8
Layer 1
10
406.580000
20
807.229000
11
406.098000
21
806.529000
0
LINE
8
Layer 1
10
407.218000
20
807.793000
11
406.580000
21
807.229000
0
LINE
8
Layer 1
10
407.972000
20
808.188000
11
407.218000
21
807.793000
0
LINE
8
Layer 1
10
408.796000
20
808.391000
11
407.972000
21
808.188000
0
LINE
8
Layer 1
10
409.648000
20
808.391000
11
408.796000
21
808.391000
0
LINE
8
Layer 1
10
410.472000
20
808.188000
11
409.648000
21
808.391000
0
LINE
8
Layer 1
10
411.226000
20
807.793000
11
410.472000
21
808.188000
0
LINE
8
Layer 1
10
411.863000
20
807.229000
11
411.226000
21
807.793000
0
LINE
8
Layer 1
10
412.346000
20
806.529000
11
411.863000
21
807.229000
0
LINE
8
Layer 1
10
412.648000
20
805.733000
11
412.346000
21
806.529000
0
LINE
8
Layer 1
10
412.750000
20
804.889000
11
412.648000
21
805.733000
0
LINE
8
Layer 1
10
-405.796000
20
239.601000
11
-405.694000
21
240.445000
0
LINE
8
Layer 1
10
-406.098000
20
238.805000
11
-405.796000
21
239.601000
0
LINE
8
Layer 1
10
-406.580000
20
238.105000
11
-406.098000
21
238.805000
0
LINE
8
Layer 1
10
-407.218000
20
237.541000
11
-406.580000
21
238.105000
0
LINE
8
Layer 1
10
-407.972000
20
237.146000
11
-407.218000
21
237.541000
0
LINE
8
Layer 1
10
-408.796000
20
236.943000
11
-407.972000
21
237.146000
0
LINE
8
Layer 1
10
-409.648000
20
236.943000
11
-408.796000
21
236.943000
0
LINE
8
Layer 1
10
-410.472000
20
237.146000
11
-409.648000
21
236.943000
0
LINE
8
Layer 1
10
-411.226000
20
237.541000
11
-410.472000
21
237.146000
0
LINE
8
Layer 1
10
-411.863000
20
238.105000
11
-411.226000
21
237.541000
0
LINE
8
Layer 1
10
-412.346000
20
238.805000
11
-411.863000
21
238.105000
0
LINE
8
Layer 1
10
-412.648000
20
239.601000
11
-412.346000
21
238.805000
0
LINE
8
Layer 1
10
-412.750000
20
240.445000
11
-412.648000
21
239.601000
0
LINE
8
Layer 1
10
-412.648000
20
241.289000
11
-412.750000
21
240.445000
0
LINE
8
Layer 1
10
-412.346000
20
242.084000
11
-412.648000
21
241.289000
0
LINE
8
Layer 1
10
-411.863000
20
242.784000
11
-412.346000
21
242.084000
0
LINE
8
Layer 1
10
-411.226000
20
243.348000
11
-411.863000
21
242.784000
0
LINE
8
Layer 1
10
-410.472000
20
243.744000
11
-411.226000
21
243.348000
0
LINE
8
Layer 1
10
-409.648000
20
243.947000
11
-410.472000
21
243.744000
0
LINE
8
Layer 1
10
-408.796000
20
243.947000
11
-409.648000
21
243.947000
0
LINE
8
Layer 1
10
-407.972000
20
243.744000
11
-408.796000
21
243.947000
0
LINE
8
Layer 1
10
-407.218000
20
243.348000
11
-407.972000
21
243.744000
0
LINE
8
Layer 1
10
-406.580000
20
242.784000
11
-407.218000
21
243.348000
0
LINE
8
Layer 1
10
-406.098000
20
242.084000
11
-406.580000
21
242.784000
0
LINE
8
Layer 1
10
-405.796000
20
241.289000
11
-406.098000
21
242.084000
0
LINE
8
Layer 1
10
-405.694000
20
240.445000
11
-405.796000
21
241.289000
0
LINE
8
Layer 1
10
412.648000
20
239.601000
11
412.750000
21
240.445000
0
LINE
8
Layer 1
10
412.346000
20
238.805000
11
412.648000
21
239.601000
0
LINE
8
Layer 1
10
411.863000
20
238.105000
11
412.346000
21
238.805000
0
LINE
8
Layer 1
10
411.226000
20
237.541000
11
411.863000
21
238.105000
0
LINE
8
Layer 1
10
410.472000
20
237.146000
11
411.226000
21
237.541000
0
LINE
8
Layer 1
10
409.648000
20
236.943000
11
410.472000
21
237.146000
0
LINE
8
Layer 1
10
408.796000
20
236.943000
11
409.648000
21
236.943000
0
LINE
8
Layer 1
10
407.972000
20
237.146000
11
408.796000
21
236.943000
0
LINE
8
Layer 1
10
407.218000
20
237.541000
11
407.972000
21
237.146000
0
LINE
8
Layer 1
10
406.580000
20
238.105000
11
407.218000
21
237.541000
0
LINE
8
Layer 1
10
406.098000
20
238.805000
11
406.580000
21
238.105000
0
LINE
8
Layer 1
10
405.796000
20
239.601000
11
406.098000
21
238.805000
0
LINE
8
Layer 1
10
405.694000
20
240.445000
11
405.796000
21
239.601000
0
LINE
8
Layer 1
10
405.796000
20
241.289000
11
405.694000
21
240.445000
0
LINE
8
Layer 1
10
406.098000
20
242.084000
11
405.796000
21
241.289000
0
LINE
8
Layer 1
10
406.580000
20
242.784000
11
406.098000
21
242.084000
0
LINE
8
Layer 1
10
407.218000
20
243.348000
11
406.580000
21
242.784000
0
LINE
8
Layer 1
10
407.972000
20
243.744000
11
407.218000
21
243.348000
0
LINE
8
Layer 1
10
408.796000
20
243.947000
11
407.972000
21
243.744000
0
LINE
8
Layer 1
10
409.648000
20
243.947000
11
408.796000
21
243.947000
0
LINE
8
Layer 1
10
410.472000
20
243.744000
11
409.648000
21
243.947000
0
LINE
8
Layer 1
10
411.226000
20
243.348000
11
410.472000
21
243.744000
0
LINE
8
Layer 1
10
411.863000
20
242.784000
11
411.226000
21
243.348000
0
LINE
8
Layer 1
10
412.346000
20
242.084000
11
411.863000
21
242.784000
0
LINE
8
Layer 1
10
412.648000
20
241.289000
11
412.346000
21
242.084000
0
LINE
8
Layer 1
10
412.750000
20
240.445000
11
412.648000
21
241.289000
0
LINE
8
Layer 1
10
-146.755000
20
627.089000
11
-146.755000
21
787.956000
0
LINE
8
Layer 1
10
16.933300
20
627.089000
11
-146.755000
21
627.089000
0
LINE
8
Layer 1
10
16.933300
20
787.956000
11
16.933300
21
627.089000
0
LINE
8
Layer 1
10
-146.755000
20
787.956000
11
16.933300
21
787.956000
0
LINE
8
Layer 1
10
-372.533000
20
350.512000
11
-194.733000
21
350.512000
0
LINE
8
Layer 1
10
-194.733000
20
350.512000
11
-194.733000
21
624.267000
0
LINE
8
Layer 1
10
-194.733000
20
624.267000
11
-372.533000
21
624.267000
0
LINE
8
Layer 1
10
-372.533000
20
624.267000
11
-372.533000
21
350.512000
0
LINE
8
Layer 1
10
39.362100
20
339.223000
11
39.362100
21
641.200000
0
LINE
8
Layer 1
10
392.289000
20
339.223000
11
39.362100
21
339.223000
0
LINE
8
Layer 1
10
392.289000
20
641.200000
11
392.289000
21
339.223000
0
LINE
8
Layer 1
10
39.362100
20
641.200000
11
392.289000
21
641.200000
0
LINE
8
Layer 1
10
-14.675500
20
819.000000
11
-14.675500
21
827.467000
0
LINE
8
Layer 1
10
-14.675500
20
827.467000
11
14.675500
21
827.467000
0
LINE
8
Layer 1
10
14.675500
20
827.467000
11
14.675500
21
819.000000
0
LINE
8
Layer 1
10
14.675500
20
819.000000
11
423.333000
21
819.000000
0
LINE
8
Layer 1
10
423.333000
20
819.000000
11
423.333000
21
777.231000
0
LINE
8
Layer 1
10
423.333000
20
777.231000
11
431.800000
21
777.231000
0
LINE
8
Layer 1
10
431.800000
20
777.231000
11
431.800000
21
747.880000
0
LINE
8
Layer 1
10
431.800000
20
747.880000
11
423.333000
21
747.880000
0
LINE
8
Layer 1
10
423.333000
20
747.880000
11
423.333000
21
605.076000
0
LINE
8
Layer 1
10
423.333000
20
605.076000
11
431.800000
21
605.076000
0
LINE
8
Layer 1
10
431.800000
20
605.076000
11
431.800000
21
575.725000
0
LINE
8
Layer 1
10
431.800000
20
575.725000
11
423.333000
21
575.725000
0
LINE
8
Layer 1
10
423.333000
20
575.725000
11
423.333000
21
447.032000
0
LINE
8
Layer 1
10
423.333000
20
447.032000
11
431.800000
21
447.032000
0
LINE
8
Layer 1
10
431.800000
20
447.032000
11
431.800000
21
417.680000
0
LINE
8
Layer 1
10
431.800000
20
417.680000
11
423.333000
21
417.680000
0
LINE
8
Layer 1
10
423.333000
20
417.680000
11
423.333000
21
297.454000
0
LINE
8
Layer 1
10
423.333000
20
297.454000
11
431.800000
21
297.454000
0
LINE
8
Layer 1
10
431.800000
20
297.454000
11
431.800000
21
268.103000
0
LINE
8
Layer 1
10
431.800000
20
268.103000
11
423.333000
21
268.103000
0
LINE
8
Layer 1
10
423.333000
20
268.103000
11
423.333000
21
226.334000
0
LINE
8
Layer 1
10
14.675500
20
226.334000
11
423.333000
21
226.334000
0
LINE
8
Layer 1
10
14.675500
20
217.867000
11
14.675500
21
226.334000
0
LINE
8
Layer 1
10
-14.675500
20
217.867000
11
14.675500
21
217.867000
0
LINE
8
Layer 1
10
-14.675500
20
226.334000
11
-14.675500
21
217.867000
0
LINE
8
Layer 1
10
-423.333000
20
226.334000
11
-14.675500
21
226.334000
0
LINE
8
Layer 1
10
-423.333000
20
268.103000
11
-423.333000
21
226.334000
0
LINE
8
Layer 1
10
-431.800000
20
268.103000
11
-423.333000
21
268.103000
0
LINE
8
Layer 1
10
-431.800000
20
297.454000
11
-431.800000
21
268.103000
0
LINE
8
Layer 1
10
-423.333000
20
297.454000
11
-431.800000
21
297.454000
0
LINE
8
Layer 1
10
-423.333000
20
417.680000
11
-423.333000
21
297.454000
0
LINE
8
Layer 1
10
-431.800000
20
417.680000
11
-423.333000
21
417.680000
0
LINE
8
Layer 1
10
-431.800000
20
447.032000
11
-431.800000
21
417.680000
0
LINE
8
Layer 1
10
-423.333000
20
447.032000
11
-431.800000
21
447.032000
0
LINE
8
Layer 1
10
-423.333000
20
575.725000
11
-423.333000
21
447.032000
0
LINE
8
Layer 1
10
-431.800000
20
575.725000
11
-423.333000
21
575.725000
0
LINE
8
Layer 1
10
-431.800000
20
605.076000
11
-431.800000
21
575.725000
0
LINE
8
Layer 1
10
-423.333000
20
605.076000
11
-431.800000
21
605.076000
0
LINE
8
Layer 1
10
-423.333000
20
747.880000
11
-423.333000
21
605.076000
0
LINE
8
Layer 1
10
-431.800000
20
747.880000
11
-423.333000
21
747.880000
0
LINE
8
Layer 1
10
-431.800000
20
777.231000
11
-431.800000
21
747.880000
0
LINE
8
Layer 1
10
-423.333000
20
777.231000
11
-431.800000
21
777.231000
0
LINE
8
Layer 1
10
-423.333000
20
819.000000
11
-423.333000
21
777.231000
0
LINE
8
Layer 1
10
-423.333000
20
819.000000
11
-14.675500
21
819.000000
0
LINE
8
Layer 1
10
-101.455000
20
374.242000
11
-101.394000
21
374.749000
0
LINE
8
Layer 1
10
-101.636000
20
373.765000
11
-101.455000
21
374.242000
0
LINE
8
Layer 1
10
-101.926000
20
373.345000
11
-101.636000
21
373.765000
0
LINE
8
Layer 1
10
-102.308000
20
373.007000
11
-101.926000
21
373.345000
0
LINE
8
Layer 1
10
-102.760000
20
372.770000
11
-102.308000
21
373.007000
0
LINE
8
Layer 1
10
-103.255000
20
372.647000
11
-102.760000
21
372.770000
0
LINE
8
Layer 1
10
-103.766000
20
372.647000
11
-103.255000
21
372.647000
0
LINE
8
Layer 1
10
-104.261000
20
372.770000
11
-103.766000
21
372.647000
0
LINE
8
Layer 1
10
-104.713000
20
373.007000
11
-104.261000
21
372.770000
0
LINE
8
Layer 1
10
-105.095000
20
373.345000
11
-104.713000
21
373.007000
0
LINE
8
Layer 1
10
-105.385000
20
373.765000
11
-105.095000
21
373.345000
0
LINE
8
Layer 1
10
-105.566000
20
374.242000
11
-105.385000
21
373.765000
0
LINE
8
Layer 1
10
-105.627000
20
374.749000
11
-105.566000
21
374.242000
0
LINE
8
Layer 1
10
-105.566000
20
375.255000
11
-105.627000
21
374.749000
0
LINE
8
Layer 1
10
-105.385000
20
375.732000
11
-105.566000
21
375.255000
0
LINE
8
Layer 1
10
-105.095000
20
376.152000
11
-105.385000
21
375.732000
0
LINE
8
Layer 1
10
-104.713000
20
376.491000
11
-105.095000
21
376.152000
0
LINE
8
Layer 1
10
-104.261000
20
376.728000
11
-104.713000
21
376.491000
0
LINE
8
Layer 1
10
-103.766000
20
376.850000
11
-104.261000
21
376.728000
0
LINE
8
Layer 1
10
-103.255000
20
376.850000
11
-103.766000
21
376.850000
0
LINE
8
Layer 1
10
-102.760000
20
376.728000
11
-103.255000
21
376.850000
0
LINE
8
Layer 1
10
-102.308000
20
376.491000
11
-102.760000
21
376.728000
0
LINE
8
Layer 1
10
-101.926000
20
376.152000
11
-102.308000
21
376.491000
0
LINE
8
Layer 1
10
-101.636000
20
375.732000
11
-101.926000
21
376.152000
0
LINE
8
Layer 1
10
-101.455000
20
375.255000
11
-101.636000
21
375.732000
0
LINE
8
Layer 1
10
-101.394000
20
374.749000
11
-101.455000
21
375.255000
0
LINE
8
Layer 1
10
-101.455000
20
670.575000
11
-101.394000
21
671.082000
0
LINE
8
Layer 1
10
-101.636000
20
670.098000
11
-101.455000
21
670.575000
0
LINE
8
Layer 1
10
-101.926000
20
669.678000
11
-101.636000
21
670.098000
0
LINE
8
Layer 1
10
-102.308000
20
669.340000
11
-101.926000
21
669.678000
0
LINE
8
Layer 1
10
-102.760000
20
669.103000
11
-102.308000
21
669.340000
0
LINE
8
Layer 1
10
-103.255000
20
668.980000
11
-102.760000
21
669.103000
0
LINE
8
Layer 1
10
-103.766000
20
668.980000
11
-103.255000
21
668.980000
0
LINE
8
Layer 1
10
-104.261000
20
669.103000
11
-103.766000
21
668.980000
0
LINE
8
Layer 1
10
-104.713000
20
669.340000
11
-104.261000
21
669.103000
0
LINE
8
Layer 1
10
-105.095000
20
669.678000
11
-104.713000
21
669.340000
0
LINE
8
Layer 1
10
-105.385000
20
670.098000
11
-105.095000
21
669.678000
0
LINE
8
Layer 1
10
-105.566000
20
670.575000
11
-105.385000
21
670.098000
0
LINE
8
Layer 1
10
-105.627000
20
671.082000
11
-105.566000
21
670.575000
0
LINE
8
Layer 1
10
-105.566000
20
671.588000
11
-105.627000
21
671.082000
0
LINE
8
Layer 1
10
-105.385000
20
672.065000
11
-105.566000
21
671.588000
0
LINE
8
Layer 1
10
-105.095000
20
672.485000
11
-105.385000
21
672.065000
0
LINE
8
Layer 1
10
-104.713000
20
672.824000
11
-105.095000
21
672.485000
0
LINE
8
Layer 1
10
-104.261000
20
673.061000
11
-104.713000
21
672.824000
0
LINE
8
Layer 1
10
-103.766000
20
673.183000
11
-104.261000
21
673.061000
0
LINE
8
Layer 1
10
-103.255000
20
673.183000
11
-103.766000
21
673.183000
0
LINE
8
Layer 1
10
-102.760000
20
673.061000
11
-103.255000
21
673.183000
0
LINE
8
Layer 1
10
-102.308000
20
672.824000
11
-102.760000
21
673.061000
0
LINE
8
Layer 1
10
-101.926000
20
672.485000
11
-102.308000
21
672.824000
0
LINE
8
Layer 1
10
-101.636000
20
672.065000
11
-101.926000
21
672.485000
0
LINE
8
Layer 1
10
-101.455000
20
671.588000
11
-101.636000
21
672.065000
0
LINE
8
Layer 1
10
-101.394000
20
671.082000
11
-101.455000
21
671.588000
0
LINE
8
Layer 1
10
104.567000
20
374.242000
11
104.628000
21
374.749000
0
LINE
8
Layer 1
10
104.386000
20
373.765000
11
104.567000
21
374.242000
0
LINE
8
Layer 1
10
104.096000
20
373.345000
11
104.386000
21
373.765000
0
LINE
8
Layer 1
10
103.714000
20
373.007000
11
104.096000
21
373.345000
0
LINE
8
Layer 1
10
103.262000
20
372.770000
11
103.714000
21
373.007000
0
LINE
8
Layer 1
10
102.767000
20
372.647000
11
103.262000
21
372.770000
0
LINE
8
Layer 1
10
102.256000
20
372.647000
11
102.767000
21
372.647000
0
LINE
8
Layer 1
10
101.761000
20
372.770000
11
102.256000
21
372.647000
0
LINE
8
Layer 1
10
101.309000
20
373.007000
11
101.761000
21
372.770000
0
LINE
8
Layer 1
10
100.927000
20
373.345000
11
101.309000
21
373.007000
0
LINE
8
Layer 1
10
100.637000
20
373.765000
11
100.927000
21
373.345000
0
LINE
8
Layer 1
10
100.456000
20
374.242000
11
100.637000
21
373.765000
0
LINE
8
Layer 1
10
100.395000
20
374.749000
11
100.456000
21
374.242000
0
LINE
8
Layer 1
10
100.456000
20
375.255000
11
100.395000
21
374.749000
0
LINE
8
Layer 1
10
100.637000
20
375.732000
11
100.456000
21
375.255000
0
LINE
8
Layer 1
10
100.927000
20
376.152000
11
100.637000
21
375.732000
0
LINE
8
Layer 1
10
101.309000
20
376.491000
11
100.927000
21
376.152000
0
LINE
8
Layer 1
10
101.761000
20
376.728000
11
101.309000
21
376.491000
0
LINE
8
Layer 1
10
102.256000
20
376.850000
11
101.761000
21
376.728000
0
LINE
8
Layer 1
10
102.767000
20
376.850000
11
102.256000
21
376.850000
0
LINE
8
Layer 1
10
103.262000
20
376.728000
11
102.767000
21
376.850000
0
LINE
8
Layer 1
10
103.714000
20
376.491000
11
103.262000
21
376.728000
0
LINE
8
Layer 1
10
104.096000
20
376.152000
11
103.714000
21
376.491000
0
LINE
8
Layer 1
10
104.386000
20
375.732000
11
104.096000
21
376.152000
0
LINE
8
Layer 1
10
104.567000
20
375.255000
11
104.386000
21
375.732000
0
LINE
8
Layer 1
10
104.628000
20
374.749000
11
104.567000
21
375.255000
0
LINE
8
Layer 1
10
104.567000
20
670.575000
11
104.628000
21
671.082000
0
LINE
8
Layer 1
10
104.386000
20
670.098000
11
104.567000
21
670.575000
0
LINE
8
Layer 1
10
104.096000
20
669.678000
11
104.386000
21
670.098000
0
LINE
8
Layer 1
10
103.714000
20
669.340000
11
104.096000
21
669.678000
0
LINE
8
Layer 1
10
103.262000
20
669.103000
11
103.714000
21
669.340000
0
LINE
8
Layer 1
10
102.767000
20
668.980000
11
103.262000
21
669.103000
0
LINE
8
Layer 1
10
102.256000
20
668.980000
11
102.767000
21
668.980000
0
LINE
8
Layer 1
10
101.761000
20
669.103000
11
102.256000
21
668.980000
0
LINE
8
Layer 1
10
101.309000
20
669.340000
11
101.761000
21
669.103000
0
LINE
8
Layer 1
10
100.927000
20
669.678000
11
101.309000
21
669.340000
0
LINE
8
Layer 1
10
100.637000
20
670.098000
11
100.927000
21
669.678000
0
LINE
8
Layer 1
10
100.456000
20
670.575000
11
100.637000
21
670.098000
0
LINE
8
Layer 1
10
100.395000
20
671.082000
11
100.456000
21
670.575000
0
LINE
8
Layer 1
10
100.456000
20
671.588000
11
100.395000
21
671.082000
0
LINE
8
Layer 1
10
100.637000
20
672.065000
11
100.456000
21
671.588000
0
LINE
8
Layer 1
10
100.927000
20
672.485000
11
100.637000
21
672.065000
0
LINE
8
Layer 1
10
101.309000
20
672.824000
11
100.927000
21
672.485000
0
LINE
8
Layer 1
10
101.761000
20
673.061000
11
101.309000
21
672.824000
0
LINE
8
Layer 1
10
102.256000
20
673.183000
11
101.761000
21
673.061000
0
LINE
8
Layer 1
10
102.767000
20
673.183000
11
102.256000
21
673.183000
0
LINE
8
Layer 1
10
103.262000
20
673.061000
11
102.767000
21
673.183000
0
LINE
8
Layer 1
10
103.714000
20
672.824000
11
103.262000
21
673.061000
0
LINE
8
Layer 1
10
104.096000
20
672.485000
11
103.714000
21
672.824000
0
LINE
8
Layer 1
10
104.386000
20
672.065000
11
104.096000
21
672.485000
0
LINE
8
Layer 1
10
104.567000
20
671.588000
11
104.386000
21
672.065000
0
LINE
8
Layer 1
10
104.628000
20
671.082000
11
104.567000
21
671.588000
0
LINE
8
Layer 1
10
-44.269100
20
548.885000
11
-44.269100
21
639.196000
0
LINE
8
Layer 1
10
46.042000
20
548.885000
11
-44.269100
21
548.885000
0
LINE
8
Layer 1
10
46.042000
20
639.196000
11
46.042000
21
548.885000
0
LINE
8
Layer 1
10
-44.269100
20
639.196000
11
46.042000
21
639.196000
0
LINE
8
Layer 1
10
-63.499900
20
421.067000
11
-63.499900
21
531.134000
0
LINE
8
Layer 1
10
57.855500
20
421.067000
11
-63.499900
21
421.067000
0
LINE
8
Layer 1
10
57.855500
20
531.134000
11
57.855500
21
421.067000
0
LINE
8
Layer 1
10
-63.499900
20
531.134000
11
57.855500
21
531.134000
0
LINE
8
Layer 1
10
-114.300000
20
680.711000
11
-114.300000
21
364.623000
0
LINE
8
Layer 1
10
114.300000
20
680.711000
11
-114.300000
21
680.711000
0
LINE
8
Layer 1
10
114.300000
20
364.623000
11
114.300000
21
680.711000
0
LINE
8
Layer 1
10
-114.300000
20
364.623000
11
114.300000
21
364.623000
0
LINE
8
Layer 1
10
179.909000
20
361.646000
11
179.970000
21
362.152000
0
LINE
8
Layer 1
10
179.728000
20
361.169000
11
179.909000
21
361.646000
0
LINE
8
Layer 1
10
179.438000
20
360.749000
11
179.728000
21
361.169000
0
LINE
8
Layer 1
10
179.056000
20
360.410000
11
179.438000
21
360.749000
0
LINE
8
Layer 1
10
178.604000
20
360.173000
11
179.056000
21
360.410000
0
LINE
8
Layer 1
10
178.109000
20
360.051000
11
178.604000
21
360.173000
0
LINE
8
Layer 1
10
177.598000
20
360.051000
11
178.109000
21
360.051000
0
LINE
8
Layer 1
10
177.103000
20
360.173000
11
177.598000
21
360.051000
0
LINE
8
Layer 1
10
176.651000
20
360.410000
11
177.103000
21
360.173000
0
LINE
8
Layer 1
10
176.269000
20
360.749000
11
176.651000
21
360.410000
0
LINE
8
Layer 1
10
175.979000
20
361.169000
11
176.269000
21
360.749000
0
LINE
8
Layer 1
10
175.798000
20
361.646000
11
175.979000
21
361.169000
0
LINE
8
Layer 1
10
175.737000
20
362.152000
11
175.798000
21
361.646000
0
LINE
8
Layer 1
10
175.798000
20
362.659000
11
175.737000
21
362.152000
0
LINE
8
Layer 1
10
175.979000
20
363.136000
11
175.798000
21
362.659000
0
LINE
8
Layer 1
10
176.269000
20
363.556000
11
175.979000
21
363.136000
0
LINE
8
Layer 1
10
176.651000
20
363.894000
11
176.269000
21
363.556000
0
LINE
8
Layer 1
10
177.103000
20
364.131000
11
176.651000
21
363.894000
0
LINE
8
Layer 1
10
177.598000
20
364.254000
11
177.103000
21
364.131000
0
LINE
8
Layer 1
10
178.109000
20
364.254000
11
177.598000
21
364.254000
0
LINE
8
Layer 1
10
178.604000
20
364.131000
11
178.109000
21
364.254000
0
LINE
8
Layer 1
10
179.056000
20
363.894000
11
178.604000
21
364.131000
0
LINE
8
Layer 1
10
179.438000
20
363.556000
11
179.056000
21
363.894000
0
LINE
8
Layer 1
10
179.728000
20
363.136000
11
179.438000
21
363.556000
0
LINE
8
Layer 1
10
179.909000
20
362.659000
11
179.728000
21
363.136000
0
LINE
8
Layer 1
10
179.970000
20
362.152000
11
179.909000
21
362.659000
0
LINE
8
Layer 1
10
-172.869000
20
361.646000
11
-172.807000
21
362.152000
0
LINE
8
Layer 1
10
-173.050000
20
361.169000
11
-172.869000
21
361.646000
0
LINE
8
Layer 1
10
-173.340000
20
360.749000
11
-173.050000
21
361.169000
0
LINE
8
Layer 1
10
-173.722000
20
360.410000
11
-173.340000
21
360.749000
0
LINE
8
Layer 1
10
-174.174000
20
360.173000
11
-173.722000
21
360.410000
0
LINE
8
Layer 1
10
-174.669000
20
360.051000
11
-174.174000
21
360.173000
0
LINE
8
Layer 1
10
-175.179000
20
360.051000
11
-174.669000
21
360.051000
0
LINE
8
Layer 1
10
-175.675000
20
360.173000
11
-175.179000
21
360.051000
0
LINE
8
Layer 1
10
-176.127000
20
360.410000
11
-175.675000
21
360.173000
0
LINE
8
Layer 1
10
-176.508000
20
360.749000
11
-176.127000
21
360.410000
0
LINE
8
Layer 1
10
-176.798000
20
361.169000
11
-176.508000
21
360.749000
0
LINE
8
Layer 1
10
-176.979000
20
361.646000
11
-176.798000
21
361.169000
0
LINE
8
Layer 1
10
-177.041000
20
362.152000
11
-176.979000
21
361.646000
0
LINE
8
Layer 1
10
-176.979000
20
362.659000
11
-177.041000
21
362.152000
0
LINE
8
Layer 1
10
-176.798000
20
363.136000
11
-176.979000
21
362.659000
0
LINE
8
Layer 1
10
-176.508000
20
363.556000
11
-176.798000
21
363.136000
0
LINE
8
Layer 1
10
-176.127000
20
363.894000
11
-176.508000
21
363.556000
0
LINE
8
Layer 1
10
-175.675000
20
364.131000
11
-176.127000
21
363.894000
0
LINE
8
Layer 1
10
-175.179000
20
364.254000
11
-175.675000
21
364.131000
0
LINE
8
Layer 1
10
-174.669000
20
364.254000
11
-175.179000
21
364.254000
0
LINE
8
Layer 1
10
-174.174000
20
364.131000
11
-174.669000
21
364.254000
0
LINE
8
Layer 1
10
-173.722000
20
363.894000
11
-174.174000
21
364.131000
0
LINE
8
Layer 1
10
-173.340000
20
363.556000
11
-173.722000
21
363.894000
0
LINE
8
Layer 1
10
-173.050000
20
363.136000
11
-173.340000
21
363.556000
0
LINE
8
Layer 1
10
-172.869000
20
362.659000
11
-173.050000
21
363.136000
0
LINE
8
Layer 1
10
-172.807000
20
362.152000
11
-172.869000
21
362.659000
0
LINE
8
Layer 1
10
179.909000
20
683.379000
11
179.970000
21
683.885000
0
LINE
8
Layer 1
10
179.728000
20
682.902000
11
179.909000
21
683.379000
0
LINE
8
Layer 1
10
179.438000
20
682.482000
11
179.728000
21
682.902000
0
LINE
8
Layer 1
10
179.056000
20
682.143000
11
179.438000
21
682.482000
0
LINE
8
Layer 1
10
178.604000
20
681.906000
11
179.056000
21
682.143000
0
LINE
8
Layer 1
10
178.109000
20
681.784000
11
178.604000
21
681.906000
0
LINE
8
Layer 1
10
177.598000
20
681.784000
11
178.109000
21
681.784000
0
LINE
8
Layer 1
10
177.103000
20
681.906000
11
177.598000
21
681.784000
0
LINE
8
Layer 1
10
176.651000
20
682.143000
11
177.103000
21
681.906000
0
LINE
8
Layer 1
10
176.269000
20
682.482000
11
176.651000
21
682.143000
0
LINE
8
Layer 1
10
175.979000
20
682.902000
11
176.269000
21
682.482000
0
LINE
8
Layer 1
10
175.798000
20
683.379000
11
175.979000
21
682.902000
0
LINE
8
Layer 1
10
175.737000
20
683.885000
11
175.798000
21
683.379000
0
LINE
8
Layer 1
10
175.798000
20
684.392000
11
175.737000
21
683.885000
0
LINE
8
Layer 1
10
175.979000
20
684.869000
11
175.798000
21
684.392000
0
LINE
8
Layer 1
10
176.269000
20
685.289000
11
175.979000
21
684.869000
0
LINE
8
Layer 1
10
176.651000
20
685.627000
11
176.269000
21
685.289000
0
LINE
8
Layer 1
10
177.103000
20
685.864000
11
176.651000
21
685.627000
0
LINE
8
Layer 1
10
177.598000
20
685.987000
11
177.103000
21
685.864000
0
LINE
8
Layer 1
10
178.109000
20
685.987000
11
177.598000
21
685.987000
0
LINE
8
Layer 1
10
178.604000
20
685.864000
11
178.109000
21
685.987000
0
LINE
8
Layer 1
10
179.056000
20
685.627000
11
178.604000
21
685.864000
0
LINE
8
Layer 1
10
179.438000
20
685.289000
11
179.056000
21
685.627000
0
LINE
8
Layer 1
10
179.728000
20
684.869000
11
179.438000
21
685.289000
0
LINE
8
Layer 1
10
179.909000
20
684.392000
11
179.728000
21
684.869000
0
LINE
8
Layer 1
10
179.970000
20
683.885000
11
179.909000
21
684.392000
0
LINE
8
Layer 1
10
-172.869000
20
683.379000
11
-172.807000
21
683.885000
0
LINE
8
Layer 1
10
-173.050000
20
682.902000
11
-172.869000
21
683.379000
0
LINE
8
Layer 1
10
-173.340000
20
682.482000
11
-173.050000
21
682.902000
0
LINE
8
Layer 1
10
-173.722000
20
682.143000
11
-173.340000
21
682.482000
0
LINE
8
Layer 1
10
-174.174000
20
681.906000
11
-173.722000
21
682.143000
0
LINE
8
Layer 1
10
-174.669000
20
681.784000
11
-174.174000
21
681.906000
0
LINE
8
Layer 1
10
-175.179000
20
681.784000
11
-174.669000
21
681.784000
0
LINE
8
Layer 1
10
-175.675000
20
681.906000
11
-175.179000
21
681.784000
0
LINE
8
Layer 1
10
-176.127000
20
682.143000
11
-175.675000
21
681.906000
0
LINE
8
Layer 1
10
-176.508000
20
682.482000
11
-176.127000
21
682.143000
0
LINE
8
Layer 1
10
-176.798000
20
682.902000
11
-176.508000
21
682.482000
0
LINE
8
Layer 1
10
-176.979000
20
683.379000
11
-176.798000
21
682.902000
0
LINE
8
Layer 1
10
-177.041000
20
683.885000
11
-176.979000
21
683.379000
0
LINE
8
Layer 1
10
-176.979000
20
684.392000
11
-177.041000
21
683.885000
0
LINE
8
Layer 1
10
-176.798000
20
684.869000
11
-176.979000
21
684.392000
0
LINE
8
Layer 1
10
-176.508000
20
685.289000
11
-176.798000
21
684.869000
0
LINE
8
Layer 1
10
-176.127000
20
685.627000
11
-176.508000
21
685.289000
0
LINE
8
Layer 1
10
-175.675000
20
685.864000
11
-176.127000
21
685.627000
0
LINE
8
Layer 1
10
-175.179000
20
685.987000
11
-175.675000
21
685.864000
0
LINE
8
Layer 1
10
-174.669000
20
685.987000
11
-175.179000
21
685.987000
0
LINE
8
Layer 1
10
-174.174000
20
685.864000
11
-174.669000
21
685.987000
0
LINE
8
Layer 1
10
-173.722000
20
685.627000
11
-174.174000
21
685.864000
0
LINE
8
Layer 1
10
-173.340000
20
685.289000
11
-173.722000
21
685.627000
0
LINE
8
Layer 1
10
-173.050000
20
684.869000
11
-173.340000
21
685.289000
0
LINE
8
Layer 1
10
-172.869000
20
684.392000
11
-173.050000
21
684.869000
0
LINE
8
Layer 1
10
-172.807000
20
683.885000
11
-172.869000
21
684.392000
0
LINE
8
Layer 1
10
-155.117000
20
536.962000
11
-126.894000
21
536.962000
0
LINE
8
Layer 1
10
-126.894000
20
536.962000
11
-126.894000
21
508.740000
0
LINE
8
Layer 1
10
-126.894000
20
508.740000
11
-155.117000
21
508.740000
0
LINE
8
Layer 1
10
-155.117000
20
508.740000
11
-155.117000
21
536.962000
0
LINE
8
Layer 1
10
-84.679300
20
418.365000
11
-56.457100
21
418.365000
0
LINE
8
Layer 1
10
-56.457100
20
418.365000
11
-56.457100
21
390.143000
0
LINE
8
Layer 1
10
-56.457100
20
390.143000
11
-84.679300
21
390.143000
0
LINE
8
Layer 1
10
-84.679300
20
390.143000
11
-84.679300
21
418.365000
0
LINE
8
Layer 1
10
-42.346000
20
418.365000
11
-14.123700
21
418.365000
0
LINE
8
Layer 1
10
-14.123700
20
418.365000
11
-14.123700
21
390.143000
0
LINE
8
Layer 1
10
-14.123700
20
390.143000
11
-42.346000
21
390.143000
0
LINE
8
Layer 1
10
-42.346000
20
390.143000
11
-42.346000
21
418.365000
0
LINE
8
Layer 1
10
-0.012615
20
418.365000
11
28.209600
21
418.365000
0
LINE
8
Layer 1
10
28.209600
20
418.365000
11
28.209600
21
390.143000
0
LINE
8
Layer 1
10
28.209600
20
390.143000
11
-0.012615
21
390.143000
0
LINE
8
Layer 1
10
-0.012615
20
390.143000
11
-0.012615
21
418.365000
0
LINE
8
Layer 1
10
42.320600
20
418.365000
11
70.542800
21
418.365000
0
LINE
8
Layer 1
10
70.542800
20
418.365000
11
70.542800
21
390.143000
0
LINE
8
Layer 1
10
70.542800
20
390.143000
11
42.320600
21
390.143000
0
LINE
8
Layer 1
10
42.320600
20
390.143000
11
42.320600
21
418.365000
0
LINE
8
Layer 1
10
89.695200
20
558.988000
11
160.251000
21
558.988000
0
LINE
8
Layer 1
10
160.251000
20
558.988000
11
160.251000
21
488.432000
0
LINE
8
Layer 1
10
160.251000
20
488.432000
11
89.695200
21
488.432000
0
LINE
8
Layer 1
10
89.695200
20
488.432000
11
89.695200
21
558.988000
0
LINE
8
Layer 1
10
-78.956700
20
629.917000
11
64.976500
21
629.917000
0
LINE
8
Layer 1
10
64.976500
20
629.917000
11
64.976500
21
429.539000
0
LINE
8
Layer 1
10
64.976500
20
429.539000
11
-78.956700
21
429.539000
0
LINE
8
Layer 1
10
-78.956700
20
429.539000
11
-78.956700
21
629.917000
0
LINE
8
Layer 1
10
-183.444000
20
350.512000
11
-183.444000
21
694.822000
0
LINE
8
Layer 1
10
183.444000
20
350.512000
11
-183.444000
21
350.512000
0
LINE
8
Layer 1
10
183.444000
20
694.822000
11
183.444000
21
350.512000
0
LINE
8
Layer 1
10
-183.444000
20
694.822000
11
183.444000
21
694.822000
0
LINE
8
Layer 1
10
90.836300
20
437.424000
11
90.897800
21
437.931000
0
LINE
8
Layer 1
10
90.655400
20
436.947000
11
90.836300
21
437.424000
0
LINE
8
Layer 1
10
90.365500
20
436.527000
11
90.655400
21
436.947000
0
LINE
8
Layer 1
10
89.983700
20
436.189000
11
90.365500
21
436.527000
0
LINE
8
Layer 1
10
89.531800
20
435.952000
11
89.983700
21
436.189000
0
LINE
8
Layer 1
10
89.036200
20
435.830000
11
89.531800
21
435.952000
0
LINE
8
Layer 1
10
88.526000
20
435.830000
11
89.036200
21
435.830000
0
LINE
8
Layer 1
10
88.030700
20
435.952000
11
88.526000
21
435.830000
0
LINE
8
Layer 1
10
87.578800
20
436.189000
11
88.030700
21
435.952000
0
LINE
8
Layer 1
10
87.196700
20
436.527000
11
87.578800
21
436.189000
0
LINE
8
Layer 1
10
86.906900
20
436.947000
11
87.196700
21
436.527000
0
LINE
8
Layer 1
10
86.726000
20
437.424000
11
86.906900
21
436.947000
0
LINE
8
Layer 1
10
86.664400
20
437.931000
11
86.726000
21
437.424000
0
LINE
8
Layer 1
10
86.726000
20
438.437000
11
86.664400
21
437.931000
0
LINE
8
Layer 1
10
86.906900
20
438.915000
11
86.726000
21
438.437000
0
LINE
8
Layer 1
10
87.196700
20
439.334000
11
86.906900
21
438.915000
0
LINE
8
Layer 1
10
87.578800
20
439.673000
11
87.196700
21
439.334000
0
LINE
8
Layer 1
10
88.030700
20
439.910000
11
87.578800
21
439.673000
0
LINE
8
Layer 1
10
88.526000
20
440.032000
11
88.030700
21
439.910000
0
LINE
8
Layer 1
10
89.036200
20
440.032000
11
88.526000
21
440.032000
0
LINE
8
Layer 1
10
89.531800
20
439.910000
11
89.036200
21
440.032000
0
LINE
8
Layer 1
10
89.983700
20
439.673000
11
89.531800
21
439.910000
0
LINE
8
Layer 1
10
90.365500
20
439.334000
11
89.983700
21
439.673000
0
LINE
8
Layer 1
10
90.655400
20
438.915000
11
90.365500
21
439.334000
0
LINE
8
Layer 1
10
90.836300
20
438.437000
11
90.655400
21
438.915000
0
LINE
8
Layer 1
10
90.897800
20
437.931000
11
90.836300
21
438.437000
0
LINE
8
Layer 1
10
-86.963300
20
437.271000
11
-86.901800
21
437.777000
0
LINE
8
Layer 1
10
-87.144500
20
436.794000
11
-86.963300
21
437.271000
0
LINE
8
Layer 1
10
-87.434400
20
436.374000
11
-87.144500
21
436.794000
0
LINE
8
Layer 1
10
-87.816200
20
436.036000
11
-87.434400
21
436.374000
0
LINE
8
Layer 1
10
-88.268000
20
435.799000
11
-87.816200
21
436.036000
0
LINE
8
Layer 1
10
-88.763300
20
435.676000
11
-88.268000
21
435.799000
0
LINE
8
Layer 1
10
-89.273600
20
435.676000
11
-88.763300
21
435.676000
0
LINE
8
Layer 1
10
-89.769200
20
435.799000
11
-89.273600
21
435.676000
0
LINE
8
Layer 1
10
-90.221000
20
436.036000
11
-89.769200
21
435.799000
0
LINE
8
Layer 1
10
-90.602900
20
436.374000
11
-90.221000
21
436.036000
0
LINE
8
Layer 1
10
-90.892700
20
436.794000
11
-90.602900
21
436.374000
0
LINE
8
Layer 1
10
-91.073900
20
437.271000
11
-90.892700
21
436.794000
0
LINE
8
Layer 1
10
-91.135100
20
437.777000
11
-91.073900
21
437.271000
0
LINE
8
Layer 1
10
-91.073900
20
438.284000
11
-91.135100
21
437.777000
0
LINE
8
Layer 1
10
-90.892700
20
438.761000
11
-91.073900
21
438.284000
0
LINE
8
Layer 1
10
-90.602900
20
439.181000
11
-90.892700
21
438.761000
0
LINE
8
Layer 1
10
-90.221000
20
439.520000
11
-90.602900
21
439.181000
0
LINE
8
Layer 1
10
-89.769200
20
439.757000
11
-90.221000
21
439.520000
0
LINE
8
Layer 1
10
-89.273600
20
439.879000
11
-89.769200
21
439.757000
0
LINE
8
Layer 1
10
-88.763300
20
439.879000
11
-89.273600
21
439.879000
0
LINE
8
Layer 1
10
-88.268000
20
439.757000
11
-88.763300
21
439.879000
0
LINE
8
Layer 1
10
-87.816200
20
439.520000
11
-88.268000
21
439.757000
0
LINE
8
Layer 1
10
-87.434400
20
439.181000
11
-87.816200
21
439.520000
0
LINE
8
Layer 1
10
-87.144500
20
438.761000
11
-87.434400
21
439.181000
0
LINE
8
Layer 1
10
-86.963300
20
438.284000
11
-87.144500
21
438.761000
0
LINE
8
Layer 1
10
-86.901800
20
437.777000
11
-86.963300
21
438.284000
0
LINE
8
Layer 1
10
90.690300
20
606.757000
11
90.751900
21
607.264000
0
LINE
8
Layer 1
10
90.509400
20
606.280000
11
90.690300
21
606.757000
0
LINE
8
Layer 1
10
90.219600
20
605.860000
11
90.509400
21
606.280000
0
LINE
8
Layer 1
10
89.837500
20
605.522000
11
90.219600
21
605.860000
0
LINE
8
Layer 1
10
89.385600
20
605.285000
11
89.837500
21
605.522000
0
LINE
8
Layer 1
10
88.890300
20
605.163000
11
89.385600
21
605.285000
0
LINE
8
Layer 1
10
88.380100
20
605.163000
11
88.890300
21
605.163000
0
LINE
8
Layer 1
10
87.884500
20
605.285000
11
88.380100
21
605.163000
0
LINE
8
Layer 1
10
87.432700
20
605.522000
11
87.884500
21
605.285000
0
LINE
8
Layer 1
10
87.050800
20
605.860000
11
87.432700
21
605.522000
0
LINE
8
Layer 1
10
86.761000
20
606.280000
11
87.050800
21
605.860000
0
LINE
8
Layer 1
10
86.580100
20
606.757000
11
86.761000
21
606.280000
0
LINE
8
Layer 1
10
86.518500
20
607.264000
11
86.580100
21
606.757000
0
LINE
8
Layer 1
10
86.580100
20
607.770000
11
86.518500
21
607.264000
0
LINE
8
Layer 1
10
86.761000
20
608.248000
11
86.580100
21
607.770000
0
LINE
8
Layer 1
10
87.050800
20
608.668000
11
86.761000
21
608.248000
0
LINE
8
Layer 1
10
87.432700
20
609.006000
11
87.050800
21
608.668000
0
LINE
8
Layer 1
10
87.884500
20
609.243000
11
87.432700
21
609.006000
0
LINE
8
Layer 1
10
88.380100
20
609.365000
11
87.884500
21
609.243000
0
LINE
8
Layer 1
10
88.890300
20
609.365000
11
88.380100
21
609.365000
0
LINE
8
Layer 1
10
89.385600
20
609.243000
11
88.890300
21
609.365000
0
LINE
8
Layer 1
10
89.837500
20
609.006000
11
89.385600
21
609.243000
0
LINE
8
Layer 1
10
90.219600
20
608.668000
11
89.837500
21
609.006000
0
LINE
8
Layer 1
10
90.509400
20
608.248000
11
90.219600
21
608.668000
0
LINE
8
Layer 1
10
90.690300
20
607.770000
11
90.509400
21
608.248000
0
LINE
8
Layer 1
10
90.751900
20
607.264000
11
90.690300
21
607.770000
0
LINE
8
Layer 1
10
-87.109500
20
606.604000
11
-87.048000
21
607.111000
0
LINE
8
Layer 1
10
-87.290400
20
606.127000
11
-87.109500
21
606.604000
0
LINE
8
Layer 1
10
-87.580300
20
605.707000
11
-87.290400
21
606.127000
0
LINE
8
Layer 1
10
-87.962100
20
605.369000
11
-87.580300
21
605.707000
0
LINE
8
Layer 1
10
-88.413900
20
605.131000
11
-87.962100
21
605.369000
0
LINE
8
Layer 1
10
-88.909500
20
605.010000
11
-88.413900
21
605.131000
0
LINE
8
Layer 1
10
-89.419800
20
605.010000
11
-88.909500
21
605.010000
0
LINE
8
Layer 1
10
-89.915100
20
605.131000
11
-89.419800
21
605.010000
0
LINE
8
Layer 1
10
-90.366900
20
605.369000
11
-89.915100
21
605.131000
0
LINE
8
Layer 1
10
-90.749000
20
605.707000
11
-90.366900
21
605.369000
0
LINE
8
Layer 1
10
-91.038900
20
606.127000
11
-90.749000
21
605.707000
0
LINE
8
Layer 1
10
-91.219800
20
606.604000
11
-91.038900
21
606.127000
0
LINE
8
Layer 1
10
-91.281300
20
607.111000
11
-91.219800
21
606.604000
0
LINE
8
Layer 1
10
-91.219800
20
607.617000
11
-91.281300
21
607.111000
0
LINE
8
Layer 1
10
-91.038900
20
608.094000
11
-91.219800
21
607.617000
0
LINE
8
Layer 1
10
-90.749000
20
608.514000
11
-91.038900
21
608.094000
0
LINE
8
Layer 1
10
-90.366900
20
608.853000
11
-90.749000
21
608.514000
0
LINE
8
Layer 1
10
-89.915100
20
609.090000
11
-90.366900
21
608.853000
0
LINE
8
Layer 1
10
-89.419800
20
609.212000
11
-89.915100
21
609.090000
0
LINE
8
Layer 1
10
-88.909500
20
609.212000
11
-89.419800
21
609.212000
0
LINE
8
Layer 1
10
-88.413900
20
609.090000
11
-88.909500
21
609.212000
0
LINE
8
Layer 1
10
-87.962100
20
608.853000
11
-88.413900
21
609.090000
0
LINE
8
Layer 1
10
-87.580300
20
608.514000
11
-87.962100
21
608.853000
0
LINE
8
Layer 1
10
-87.290400
20
608.094000
11
-87.580300
21
608.514000
0
LINE
8
Layer 1
10
-87.109500
20
607.617000
11
-87.290400
21
608.094000
0
LINE
8
Layer 1
10
-87.048000
20
607.111000
11
-87.109500
21
607.617000
0
LINE
8
Layer 1
10
4.953330
20
587.802000
11
26.684400
21
587.802000
0
LINE
8
Layer 1
10
26.684400
20
587.802000
11
26.684400
21
579.335000
0
LINE
8
Layer 1
10
26.684400
20
579.335000
11
4.953330
21
579.335000
0
LINE
8
Layer 1
10
4.953330
20
579.335000
11
4.953330
21
587.802000
0
LINE
8
Layer 1
10
40.428600
20
587.807000
11
62.159700
21
587.807000
0
LINE
8
Layer 1
10
62.159700
20
587.807000
11
62.159700
21
579.340000
0
LINE
8
Layer 1
10
62.159700
20
579.340000
11
40.428600
21
579.340000
0
LINE
8
Layer 1
10
40.428600
20
579.340000
11
40.428600
21
587.807000
0
LINE
8
Layer 1
10
-65.997300
20
587.793000
11
-44.266200
21
587.793000
0
LINE
8
Layer 1
10
-44.266200
20
587.793000
11
-44.266200
21
579.327000
0
LINE
8
Layer 1
10
-44.266200
20
579.327000
11
-65.997300
21
579.327000
0
LINE
8
Layer 1
10
-65.997300
20
579.327000
11
-65.997300
21
587.793000
0
LINE
8
Layer 1
10
-30.522000
20
587.798000
11
-8.790930
21
587.798000
0
LINE
8
Layer 1
10
-8.790930
20
587.798000
11
-8.790930
21
579.331000
0
LINE
8
Layer 1
10
-8.790930
20
579.331000
11
-30.522000
21
579.331000
0
LINE
8
Layer 1
10
-30.522000
20
579.331000
11
-30.522000
21
587.798000
0
LINE
8
Layer 1
10
-71.407200
20
507.961000
11
69.703800
21
507.961000
0
LINE
8
Layer 1
10
69.703800
20
507.961000
11
69.703800
21
454.339000
0
LINE
8
Layer 1
10
69.703800
20
454.339000
11
-71.407200
21
454.339000
0
LINE
8
Layer 1
10
-71.407200
20
454.339000
11
-71.407200
21
507.961000
0
LINE
8
Layer 1
10
-79.596500
20
538.185000
11
75.625600
21
538.185000
0
LINE
8
Layer 1
10
75.625600
20
538.185000
11
75.625600
21
529.718000
0
LINE
8
Layer 1
10
75.625600
20
529.718000
11
-79.596500
21
529.718000
0
LINE
8
Layer 1
10
-79.596500
20
529.718000
11
-79.596500
21
538.185000
0
LINE
8
Layer 1
10
-95.955500
20
430.945000
11
-95.955500
21
614.389000
0
LINE
8
Layer 1
10
95.955500
20
430.945000
11
-95.955500
21
430.945000
0
LINE
8
Layer 1
10
95.955500
20
614.389000
11
95.955500
21
430.945000
0
LINE
8
Layer 1
10
-95.955500
20
614.389000
11
95.955500
21
614.389000
0
LINE
8
Layer 1
10
-78.420500
20
660.934000
11
-78.317700
21
661.779000
0
LINE
8
Layer 1
10
-78.721900
20
660.139000
11
-78.420500
21
660.934000
0
LINE
8
Layer 1
10
-79.205000
20
659.439000
11
-78.721900
21
660.139000
0
LINE
8
Layer 1
10
-79.841700
20
658.875000
11
-79.205000
21
659.439000
0
LINE
8
Layer 1
10
-80.594700
20
658.480000
11
-79.841700
21
658.875000
0
LINE
8
Layer 1
10
-81.420500
20
658.277000
11
-80.594700
21
658.480000
0
LINE
8
Layer 1
10
-82.270800
20
658.277000
11
-81.420500
21
658.277000
0
LINE
8
Layer 1
10
-83.096600
20
658.480000
11
-82.270800
21
658.277000
0
LINE
8
Layer 1
10
-83.849600
20
658.875000
11
-83.096600
21
658.480000
0
LINE
8
Layer 1
10
-84.486300
20
659.439000
11
-83.849600
21
658.875000
0
LINE
8
Layer 1
10
-84.969400
20
660.139000
11
-84.486300
21
659.439000
0
LINE
8
Layer 1
10
-85.270800
20
660.934000
11
-84.969400
21
660.139000
0
LINE
8
Layer 1
10
-85.373300
20
661.779000
11
-85.270800
21
660.934000
0
LINE
8
Layer 1
10
-85.270800
20
662.623000
11
-85.373300
21
661.779000
0
LINE
8
Layer 1
10
-84.969400
20
663.418000
11
-85.270800
21
662.623000
0
LINE
8
Layer 1
10
-84.486300
20
664.118000
11
-84.969400
21
663.418000
0
LINE
8
Layer 1
10
-83.849600
20
664.682000
11
-84.486300
21
664.118000
0
LINE
8
Layer 1
10
-83.096600
20
665.077000
11
-83.849600
21
664.682000
0
LINE
8
Layer 1
10
-82.270800
20
665.281000
11
-83.096600
21
665.077000
0
LINE
8
Layer 1
10
-81.420500
20
665.281000
11
-82.270800
21
665.281000
0
LINE
8
Layer 1
10
-80.594700
20
665.077000
11
-81.420500
21
665.281000
0
LINE
8
Layer 1
10
-79.841700
20
664.682000
11
-80.594700
21
665.077000
0
LINE
8
Layer 1
10
-79.205000
20
664.118000
11
-79.841700
21
664.682000
0
LINE
8
Layer 1
10
-78.721900
20
663.418000
11
-79.205000
21
664.118000
0
LINE
8
Layer 1
10
-78.420500
20
662.623000
11
-78.721900
21
663.418000
0
LINE
8
Layer 1
10
-78.317700
20
661.779000
11
-78.420500
21
662.623000
0
LINE
8
Layer 1
10
64.443400
20
539.297000
11
64.545900
21
540.141000
0
LINE
8
Layer 1
10
64.141700
20
538.501000
11
64.443400
21
539.297000
0
LINE
8
Layer 1
10
63.658800
20
537.802000
11
64.141700
21
538.501000
0
LINE
8
Layer 1
10
63.022100
20
537.238000
11
63.658800
21
537.802000
0
LINE
8
Layer 1
10
62.269200
20
536.842000
11
63.022100
21
537.238000
0
LINE
8
Layer 1
10
61.443400
20
536.639000
11
62.269200
21
536.842000
0
LINE
8
Layer 1
10
60.593100
20
536.639000
11
61.443400
21
536.639000
0
LINE
8
Layer 1
10
59.767300
20
536.842000
11
60.593100
21
536.639000
0
LINE
8
Layer 1
10
59.014000
20
537.238000
11
59.767300
21
536.842000
0
LINE
8
Layer 1
10
58.377600
20
537.802000
11
59.014000
21
537.238000
0
LINE
8
Layer 1
10
57.894500
20
538.501000
11
58.377600
21
537.802000
0
LINE
8
Layer 1
10
57.592800
20
539.297000
11
57.894500
21
538.501000
0
LINE
8
Layer 1
10
57.490300
20
540.141000
11
57.592800
21
539.297000
0
LINE
8
Layer 1
10
57.592800
20
540.985000
11
57.490300
21
540.141000
0
LINE
8
Layer 1
10
57.894500
20
541.780000
11
57.592800
21
540.985000
0
LINE
8
Layer 1
10
58.377600
20
542.480000
11
57.894500
21
541.780000
0
LINE
8
Layer 1
10
59.014000
20
543.044000
11
58.377600
21
542.480000
0
LINE
8
Layer 1
10
59.767300
20
543.439000
11
59.014000
21
543.044000
0
LINE
8
Layer 1
10
60.593100
20
543.643000
11
59.767300
21
543.439000
0
LINE
8
Layer 1
10
61.443400
20
543.643000
11
60.593100
21
543.643000
0
LINE
8
Layer 1
10
62.269200
20
543.439000
11
61.443400
21
543.643000
0
LINE
8
Layer 1
10
63.022100
20
543.044000
11
62.269200
21
543.439000
0
LINE
8
Layer 1
10
63.658800
20
542.480000
11
63.022100
21
543.044000
0
LINE
8
Layer 1
10
64.141700
20
541.780000
11
63.658800
21
542.480000
0
LINE
8
Layer 1
10
64.443400
20
540.985000
11
64.141700
21
541.780000
0
LINE
8
Layer 1
10
64.545900
20
540.141000
11
64.443400
21
540.985000
0
LINE
8
Layer 1
10
64.948300
20
618.037000
11
65.051000
21
618.881000
0
LINE
8
Layer 1
10
64.646900
20
617.241000
11
64.948300
21
618.037000
0
LINE
8
Layer 1
10
64.163700
20
616.541000
11
64.646900
21
617.241000
0
LINE
8
Layer 1
10
63.527000
20
615.977000
11
64.163700
21
616.541000
0
LINE
8
Layer 1
10
62.774100
20
615.582000
11
63.527000
21
615.977000
0
LINE
8
Layer 1
10
61.948300
20
615.379000
11
62.774100
21
615.582000
0
LINE
8
Layer 1
10
61.098000
20
615.379000
11
61.948300
21
615.379000
0
LINE
8
Layer 1
10
60.272200
20
615.582000
11
61.098000
21
615.379000
0
LINE
8
Layer 1
10
59.519200
20
615.977000
11
60.272200
21
615.582000
0
LINE
8
Layer 1
10
58.882500
20
616.541000
11
59.519200
21
615.977000
0
LINE
8
Layer 1
10
58.399400
20
617.241000
11
58.882500
21
616.541000
0
LINE
8
Layer 1
10
58.097900
20
618.037000
11
58.399400
21
617.241000
0
LINE
8
Layer 1
10
57.995500
20
618.881000
11
58.097900
21
618.037000
0
LINE
8
Layer 1
10
58.097900
20
619.725000
11
57.995500
21
618.881000
0
LINE
8
Layer 1
10
58.399400
20
620.520000
11
58.097900
21
619.725000
0
LINE
8
Layer 1
10
58.882500
20
621.220000
11
58.399400
21
620.520000
0
LINE
8
Layer 1
10
59.519200
20
621.784000
11
58.882500
21
621.220000
0
LINE
8
Layer 1
10
60.272200
20
622.179000
11
59.519200
21
621.784000
0
LINE
8
Layer 1
10
61.098000
20
622.383000
11
60.272200
21
622.179000
0
LINE
8
Layer 1
10
61.948300
20
622.383000
11
61.098000
21
622.383000
0
LINE
8
Layer 1
10
62.774100
20
622.179000
11
61.948300
21
622.383000
0
LINE
8
Layer 1
10
63.527000
20
621.784000
11
62.774100
21
622.179000
0
LINE
8
Layer 1
10
64.163700
20
621.220000
11
63.527000
21
621.784000
0
LINE
8
Layer 1
10
64.646900
20
620.520000
11
64.163700
21
621.220000
0
LINE
8
Layer 1
10
64.948300
20
619.725000
11
64.646900
21
620.520000
0
LINE
8
Layer 1
10
65.051000
20
618.881000
11
64.948300
21
619.725000
0
LINE
8
Layer 1
10
-82.145800
20
524.649000
11
-82.043100
21
525.494000
0
LINE
8
Layer 1
10
-82.447200
20
523.854000
11
-82.145800
21
524.649000
0
LINE
8
Layer 1
10
-82.930400
20
523.154000
11
-82.447200
21
523.854000
0
LINE
8
Layer 1
10
-83.567100
20
522.590000
11
-82.930400
21
523.154000
0
LINE
8
Layer 1
10
-84.320000
20
522.195000
11
-83.567100
21
522.590000
0
LINE
8
Layer 1
10
-85.145800
20
521.992000
11
-84.320000
21
522.195000
0
LINE
8
Layer 1
10
-85.996100
20
521.992000
11
-85.145800
21
521.992000
0
LINE
8
Layer 1
10
-86.821900
20
522.195000
11
-85.996100
21
521.992000
0
LINE
8
Layer 1
10
-87.574900
20
522.590000
11
-86.821900
21
522.195000
0
LINE
8
Layer 1
10
-88.211600
20
523.154000
11
-87.574900
21
522.590000
0
LINE
8
Layer 1
10
-88.694800
20
523.854000
11
-88.211600
21
523.154000
0
LINE
8
Layer 1
10
-88.996200
20
524.649000
11
-88.694800
21
523.854000
0
LINE
8
Layer 1
10
-89.098600
20
525.494000
11
-88.996200
21
524.649000
0
LINE
8
Layer 1
10
-88.996200
20
526.338000
11
-89.098600
21
525.494000
0
LINE
8
Layer 1
10
-88.694800
20
527.133000
11
-88.996200
21
526.338000
0
LINE
8
Layer 1
10
-88.211600
20
527.833000
11
-88.694800
21
527.133000
0
LINE
8
Layer 1
10
-87.574900
20
528.397000
11
-88.211600
21
527.833000
0
LINE
8
Layer 1
10
-86.821900
20
528.792000
11
-87.574900
21
528.397000
0
LINE
8
Layer 1
10
-85.996100
20
528.996000
11
-86.821900
21
528.792000
0
LINE
8
Layer 1
10
-85.145800
20
528.996000
11
-85.996100
21
528.996000
0
LINE
8
Layer 1
10
-84.320000
20
528.792000
11
-85.145800
21
528.996000
0
LINE
8
Layer 1
10
-83.567100
20
528.397000
11
-84.320000
21
528.792000
0
LINE
8
Layer 1
10
-82.930400
20
527.833000
11
-83.567100
21
528.397000
0
LINE
8
Layer 1
10
-82.447200
20
527.133000
11
-82.930400
21
527.833000
0
LINE
8
Layer 1
10
-82.145800
20
526.338000
11
-82.447200
21
527.133000
0
LINE
8
Layer 1
10
-82.043100
20
525.494000
11
-82.145800
21
526.338000
0
LINE
8
Layer 1
10
-405.796000
20
804.045000
11
-405.694000
21
804.889000
0
LINE
8
Layer 1
10
-406.098000
20
803.250000
11
-405.796000
21
804.045000
0
LINE
8
Layer 1
10
-406.580000
20
802.550000
11
-406.098000
21
803.250000
0
LINE
8
Layer 1
10
-407.218000
20
801.986000
11
-406.580000
21
802.550000
0
LINE
8
Layer 1
10
-407.972000
20
801.590000
11
-407.218000
21
801.986000
0
LINE
8
Layer 1
10
-408.796000
20
801.387000
11
-407.972000
21
801.590000
0
LINE
8
Layer 1
10
-409.648000
20
801.387000
11
-408.796000
21
801.387000
0
LINE
8
Layer 1
10
-410.472000
20
801.590000
11
-409.648000
21
801.387000
0
LINE
8
Layer 1
10
-411.226000
20
801.986000
11
-410.472000
21
801.590000
0
LINE
8
Layer 1
10
-411.863000
20
802.550000
11
-411.226000
21
801.986000
0
LINE
8
Layer 1
10
-412.346000
20
803.250000
11
-411.863000
21
802.550000
0
LINE
8
Layer 1
10
-412.648000
20
804.045000
11
-412.346000
21
803.250000
0
LINE
8
Layer 1
10
-412.750000
20
804.889000
11
-412.648000
21
804.045000
0
LINE
8
Layer 1
10
-412.648000
20
805.733000
11
-412.750000
21
804.889000
0
LINE
8
Layer 1
10
-412.346000
20
806.529000
11
-412.648000
21
805.733000
0
LINE
8
Layer 1
10
-411.863000
20
807.229000
11
-412.346000
21
806.529000
0
LINE
8
Layer 1
10
-411.226000
20
807.793000
11
-411.863000
21
807.229000
0
LINE
8
Layer 1
10
-410.472000
20
808.188000
11
-411.226000
21
807.793000
0
LINE
8
Layer 1
10
-409.648000
20
808.391000
11
-410.472000
21
808.188000
0
LINE
8
Layer 1
10
-408.796000
20
808.391000
11
-409.648000
21
808.391000
0
LINE
8
Layer 1
10
-407.972000
20
808.188000
11
-408.796000
21
808.391000
0
LINE
8
Layer 1
10
-407.218000
20
807.793000
11
-407.972000
21
808.188000
0
LINE
8
Layer 1
10
-406.580000
20
807.229000
11
-407.218000
21
807.793000
0
LINE
8
Layer 1
10
-406.098000
20
806.529000
11
-406.580000
21
807.229000
0
LINE
8
Layer 1
10
-405.796000
20
805.733000
11
-406.098000
21
806.529000
0
LINE
8
Layer 1
10
-405.694000
20
804.889000
11
-405.796000
21
805.733000
0
LINE
8
Layer 1
10
412.648000
20
804.045000
11
412.750000
21
804.889000
0
LINE
8
Layer 1
10
412.346000
20
803.250000
11
412.648000
21
804.045000
0
LINE
8
Layer 1
10
411.863000
20
802.550000
11
412.346000
21
803.250000
0
LINE
8
Layer 1
10
411.226000
20
801.986000
11
411.863000
21
802.550000
0
LINE
8
Layer 1
10
410.472000
20
801.590000
11
411.226000
21
801.986000
0
LINE
8
Layer 1
10
409.648000
20
801.387000
11
410.472000
21
801.590000
0
LINE
8
Layer 1
10
408.796000
20
801.387000
11
409.648000
21
801.387000
0
LINE
8
Layer 1
10
407.972000
20
801.590000
11
408.796000
21
801.387000
0
LINE
8
Layer 1
10
407.218000
20
801.986000
11
407.972000
21
801.590000
0
LINE
8
Layer 1
10
406.580000
20
802.550000
11
407.218000
21
801.986000
0
LINE
8
Layer 1
10
406.098000
20
803.250000
11
406.580000
21
802.550000
0
LINE
8
Layer 1
10
405.796000
20
804.045000
11
406.098000
21
803.250000
0
LINE
8
Layer 1
10
405.694000
20
804.889000
11
405.796000
21
804.045000
0
LINE
8
Layer 1
10
405.796000
20
805.733000
11
405.694000
21
804.889000
0
LINE
8
Layer 1
10
406.098000
20
806.529000
11
405.796000
21
805.733000
0
LINE
8
Layer 1
10
406.580000
20
807.229000
11
406.098000
21
806.529000
0
LINE
8
Layer 1
10
407.218000
20
807.793000
11
406.580000
21
807.229000
0
LINE
8
Layer 1
10
407.972000
20
808.188000
11
407.218000
21
807.793000
0
LINE
8
Layer 1
10
408.796000
20
808.391000
11
407.972000
21
808.188000
0
LINE
8
Layer 1
10
409.648000
20
808.391000
11
408.796000
21
808.391000
0
LINE
8
Layer 1
10
410.472000
20
808.188000
11
409.648000
21
808.391000
0
LINE
8
Layer 1
10
411.226000
20
807.793000
11
410.472000
21
808.188000
0
LINE
8
Layer 1
10
411.863000
20
807.229000
11
411.226000
21
807.793000
0
LINE
8
Layer 1
10
412.346000
20
806.529000
11
411.863000
21
807.229000
0
LINE
8
Layer 1
10
412.648000
20
805.733000
11
412.346000
21
806.529000
0
LINE
8
Layer 1
10
412.750000
20
804.889000
11
412.648000
21
805.733000
0
LINE
8
Layer 1
10
-405.796000
20
239.601000
11
-405.694000
21
240.445000
0
LINE
8
Layer 1
10
-406.098000
20
238.805000
11
-405.796000
21
239.601000
0
LINE
8
Layer 1
10
-406.580000
20
238.105000
11
-406.098000
21
238.805000
0
LINE
8
Layer 1
10
-407.218000
20
237.541000
11
-406.580000
21
238.105000
0
LINE
8
Layer 1
10
-407.972000
20
237.146000
11
-407.218000
21
237.541000
0
LINE
8
Layer 1
10
-408.796000
20
236.943000
11
-407.972000
21
237.146000
0
LINE
8
Layer 1
10
-409.648000
20
236.943000
11
-408.796000
21
236.943000
0
LINE
8
Layer 1
10
-410.472000
20
237.146000
11
-409.648000
21
236.943000
0
LINE
8
Layer 1
10
-411.226000
20
237.541000
11
-410.472000
21
237.146000
0
LINE
8
Layer 1
10
-411.863000
20
238.105000
11
-411.226000
21
237.541000
0
LINE
8
Layer 1
10
-412.346000
20
238.805000
11
-411.863000
21
238.105000
0
LINE
8
Layer 1
10
-412.648000
20
239.601000
11
-412.346000
21
238.805000
0
LINE
8
Layer 1
10
-412.750000
20
240.445000
11
-412.648000
21
239.601000
0
LINE
8
Layer 1
10
-412.648000
20
241.289000
11
-412.750000
21
240.445000
0
LINE
8
Layer 1
10
-412.346000
20
242.084000
11
-412.648000
21
241.289000
0
LINE
8
Layer 1
10
-411.863000
20
242.784000
11
-412.346000
21
242.084000
0
LINE
8
Layer 1
10
-411.226000
20
243.348000
11
-411.863000
21
242.784000
0
LINE
8
Layer 1
10
-410.472000
20
243.744000
11
-411.226000
21
243.348000
0
LINE
8
Layer 1
10
-409.648000
20
243.947000
11
-410.472000
21
243.744000
0
LINE
8
Layer 1
10
-408.796000
20
243.947000
11
-409.648000
21
243.947000
0
LINE
8
Layer 1
10
-407.972000
20
243.744000
11
-408.796000
21
243.947000
0
LINE
8
Layer 1
10
-407.218000
20
243.348000
11
-407.972000
21
243.744000
0
LINE
8
Layer 1
10
-406.580000
20
242.784000
11
-407.218000
21
243.348000
0
LINE
8
Layer 1
10
-406.098000
20
242.084000
11
-406.580000
21
242.784000
0
LINE
8
Layer 1
10
-405.796000
20
241.289000
11
-406.098000
21
242.084000
0
LINE
8
Layer 1
10
-405.694000
20
240.445000
11
-405.796000
21
241.289000
0
LINE
8
Layer 1
10
412.648000
20
239.601000
11
412.750000
21
240.445000
0
LINE
8
Layer 1
10
412.346000
20
238.805000
11
412.648000
21
239.601000
0
LINE
8
Layer 1
10
411.863000
20
238.105000
11
412.346000
21
238.805000
0
LINE
8
Layer 1
10
411.226000
20
237.541000
11
411.863000
21
238.105000
0
LINE
8
Layer 1
10
410.472000
20
237.146000
11
411.226000
21
237.541000
0
LINE
8
Layer 1
10
409.648000
20
236.943000
11
410.472000
21
237.146000
0
LINE
8
Layer 1
10
408.796000
20
236.943000
11
409.648000
21
236.943000
0
LINE
8
Layer 1
10
407.972000
20
237.146000
11
408.796000
21
236.943000
0
LINE
8
Layer 1
10
407.218000
20
237.541000
11
407.972000
21
237.146000
0
LINE
8
Layer 1
10
406.580000
20
238.105000
11
407.218000
21
237.541000
0
LINE
8
Layer 1
10
406.098000
20
238.805000
11
406.580000
21
238.105000
0
LINE
8
Layer 1
10
405.796000
20
239.601000
11
406.098000
21
238.805000
0
LINE
8
Layer 1
10
405.694000
20
240.445000
11
405.796000
21
239.601000
0
LINE
8
Layer 1
10
405.796000
20
241.289000
11
405.694000
21
240.445000
0
LINE
8
Layer 1
10
406.098000
20
242.084000
11
405.796000
21
241.289000
0
LINE
8
Layer 1
10
406.580000
20
242.784000
11
406.098000
21
242.084000
0
LINE
8
Layer 1
10
407.218000
20
243.348000
11
406.580000
21
242.784000
0
LINE
8
Layer 1
10
407.972000
20
243.744000
11
407.218000
21
243.348000
0
LINE
8
Layer 1
10
408.796000
20
243.947000
11
407.972000
21
243.744000
0
LINE
8
Layer 1
10
409.648000
20
243.947000
11
408.796000
21
243.947000
0
LINE
8
Layer 1
10
410.472000
20
243.744000
11
409.648000
21
243.947000
0
LINE
8
Layer 1
10
411.226000
20
243.348000
11
410.472000
21
243.744000
0
LINE
8
Layer 1
10
411.863000
20
242.784000
11
411.226000
21
243.348000
0
LINE
8
Layer 1
10
412.346000
20
242.084000
11
411.863000
21
242.784000
0
LINE
8
Layer 1
10
412.648000
20
241.289000
11
412.346000
21
242.084000
0
LINE
8
Layer 1
10
412.750000
20
240.445000
11
412.648000
21
241.289000
0
LINE
8
Layer 1
10
-431.800000
20
217.867000
11
-431.800000
21
226.334000
0
LINE
8
Layer 1
10
-431.800000
20
263.023000
11
-431.800000
21
226.334000
0
LINE
8
Layer 1
10
-423.333000
20
263.023000
11
-431.800000
21
263.023000
0
LINE
8
Layer 1
10
-423.333000
20
291.245000
11
-423.333000
21
263.023000
0
LINE
8
Layer 1
10
-431.800000
20
291.245000
11
-423.333000
21
291.245000
0
LINE
8
Layer 1
10
-431.800000
20
508.556000
11
-431.800000
21
291.245000
0
LINE
8
Layer 1
10
-423.333000
20
508.556000
11
-431.800000
21
508.556000
0
LINE
8
Layer 1
10
-423.333000
20
536.778000
11
-423.333000
21
508.556000
0
LINE
8
Layer 1
10
-431.800000
20
536.778000
11
-423.333000
21
536.778000
0
LINE
8
Layer 1
10
-431.800000
20
754.089000
11
-431.800000
21
536.778000
0
LINE
8
Layer 1
10
-423.333000
20
754.089000
11
-431.800000
21
754.089000
0
LINE
8
Layer 1
10
-423.333000
20
782.311000
11
-423.333000
21
754.089000
0
LINE
8
Layer 1
10
-431.800000
20
782.311000
11
-423.333000
21
782.311000
0
LINE
8
Layer 1
10
-431.800000
20
827.467000
11
-431.800000
21
782.311000
0
LINE
8
Layer 1
10
-395.111000
20
827.467000
11
-431.800000
21
827.467000
0
LINE
8
Layer 1
10
-395.111000
20
827.467000
11
-395.111000
21
819.000000
0
LINE
8
Layer 1
10
-395.111000
20
819.000000
11
-366.889000
21
819.000000
0
LINE
8
Layer 1
10
-366.889000
20
819.000000
11
-366.889000
21
827.467000
0
LINE
8
Layer 1
10
-366.889000
20
827.467000
11
-14.111100
21
827.467000
0
LINE
8
Layer 1
10
-14.111100
20
827.467000
11
-14.111100
21
819.000000
0
LINE
8
Layer 1
10
-14.111100
20
819.000000
11
14.111100
21
819.000000
0
LINE
8
Layer 1
10
14.111100
20
819.000000
11
14.111100
21
827.467000
0
LINE
8
Layer 1
10
14.111100
20
827.467000
11
366.889000
21
827.467000
0
LINE
8
Layer 1
10
366.889000
20
827.467000
11
366.889000
21
819.000000
0
LINE
8
Layer 1
10
366.889000
20
819.000000
11
395.111000
21
819.000000
0
LINE
8
Layer 1
10
395.111000
20
819.000000
11
395.111000
21
827.467000
0
LINE
8
Layer 1
10
395.111000
20
827.467000
11
431.800000
21
827.467000
0
LINE
8
Layer 1
10
431.800000
20
827.467000
11
431.800000
21
782.311000
0
LINE
8
Layer 1
10
423.333000
20
782.311000
11
431.800000
21
782.311000
0
LINE
8
Layer 1
10
423.333000
20
754.089000
11
423.333000
21
782.311000
0
LINE
8
Layer 1
10
431.800000
20
754.089000
11
423.333000
21
754.089000
0
LINE
8
Layer 1
10
431.800000
20
536.778000
11
431.800000
21
754.089000
0
LINE
8
Layer 1
10
423.333000
20
536.778000
11
431.800000
21
536.778000
0
LINE
8
Layer 1
10
423.333000
20
508.556000
11
423.333000
21
536.778000
0
LINE
8
Layer 1
10
431.800000
20
508.556000
11
423.333000
21
508.556000
0
LINE
8
Layer 1
10
431.800000
20
291.245000
11
431.800000
21
508.556000
0
LINE
8
Layer 1
10
423.333000
20
291.245000
11
431.800000
21
291.245000
0
LINE
8
Layer 1
10
423.333000
20
263.023000
11
423.333000
21
291.245000
0
LINE
8
Layer 1
10
431.800000
20
263.023000
11
423.333000
21
263.023000
0
LINE
8
Layer 1
10
431.800000
20
217.867000
11
431.800000
21
263.023000
0
LINE
8
Layer 1
10
395.111000
20
217.867000
11
431.800000
21
217.867000
0
LINE
8
Layer 1
10
395.111000
20
226.334000
11
395.111000
21
217.867000
0
LINE
8
Layer 1
10
366.889000
20
226.334000
11
395.111000
21
226.334000
0
LINE
8
Layer 1
10
366.889000
20
217.867000
11
366.889000
21
226.334000
0
LINE
8
Layer 1
10
14.111100
20
217.867000
11
366.889000
21
217.867000
0
LINE
8
Layer 1
10
14.111100
20
226.334000
11
14.111100
21
217.867000
0
LINE
8
Layer 1
10
-14.111100
20
226.334000
11
14.111100
21
226.334000
0
LINE
8
Layer 1
10
-14.111100
20
217.867000
11
-14.111100
21
226.334000
0
LINE
8
Layer 1
10
-366.889000
20
217.867000
11
-14.111100
21
217.867000
0
LINE
8
Layer 1
10
-366.889000
20
226.334000
11
-366.889000
21
217.867000
0
LINE
8
Layer 1
10
-395.111000
20
226.334000
11
-366.889000
21
226.334000
0
LINE
8
Layer 1
10
-395.111000
20
217.867000
11
-395.111000
21
226.334000
0
LINE
8
Layer 1
10
-395.111000
20
217.867000
11
-431.800000
21
217.867000
0
LINE
8
Layer 1
10
-423.333000
20
541.576000
11
-423.333000
21
597.456000
0
LINE
8
Layer 1
10
-423.333000
20
597.456000
11
-14.111100
21
597.456000
0
LINE
8
Layer 1
10
-14.111100
20
597.456000
11
-14.111100
21
588.989000
0
LINE
8
Layer 1
10
-14.111100
20
588.989000
11
14.111100
21
588.989000
0
LINE
8
Layer 1
10
14.111100
20
588.989000
11
14.111100
21
597.456000
0
LINE
8
Layer 1
10
14.111100
20
597.456000
11
423.333000
21
597.456000
0
LINE
8
Layer 1
10
423.333000
20
541.576000
11
423.333000
21
597.456000
0
LINE
8
Layer 1
10
431.800000
20
541.576000
11
423.333000
21
541.576000
0
LINE
8
Layer 1
10
431.800000
20
512.225000
11
431.800000
21
541.576000
0
LINE
8
Layer 1
10
423.333000
20
512.225000
11
431.800000
21
512.225000
0
LINE
8
Layer 1
10
423.333000
20
456.345000
11
423.333000
21
512.225000
0
LINE
8
Layer 1
10
395.675000
20
456.345000
11
423.333000
21
456.345000
0
LINE
8
Layer 1
10
395.675000
20
447.878000
11
395.675000
21
456.345000
0
LINE
8
Layer 1
10
366.324000
20
447.878000
11
395.675000
21
447.878000
0
LINE
8
Layer 1
10
366.324000
20
456.345000
11
366.324000
21
447.878000
0
LINE
8
Layer 1
10
14.675500
20
456.345000
11
366.324000
21
456.345000
0
LINE
8
Layer 1
10
14.675500
20
447.878000
11
14.675500
21
456.345000
0
LINE
8
Layer 1
10
-14.675500
20
447.878000
11
14.675500
21
447.878000
0
LINE
8
Layer 1
10
-14.675500
20
456.345000
11
-14.675500
21
447.878000
0
LINE
8
Layer 1
10
-366.324000
20
456.345000
11
-14.675500
21
456.345000
0
LINE
8
Layer 1
10
-366.324000
20
447.878000
11
-366.324000
21
456.345000
0
LINE
8
Layer 1
10
-395.675000
20
447.878000
11
-366.324000
21
447.878000
0
LINE
8
Layer 1
10
-395.675000
20
456.345000
11
-395.675000
21
447.878000
0
LINE
8
Layer 1
10
-423.333000
20
456.345000
11
-395.675000
21
456.345000
0
LINE
8
Layer 1
10
-423.333000
20
456.345000
11
-423.333000
21
512.225000
0
LINE
8
Layer 1
10
-431.800000
20
512.225000
11
-423.333000
21
512.225000
0
LINE
8
Layer 1
10
-431.800000
20
541.576000
11
-431.800000
21
512.225000
0
LINE
8
Layer 1
10
-423.333000
20
541.576000
11
-431.800000
21
541.576000
0
LINE
8
Layer 1
10
-423.333000
20
456.345000
11
-423.333000
21
512.225000
0
LINE
8
Layer 1
10
-431.800000
20
512.225000
11
-423.333000
21
512.225000
0
LINE
8
Layer 1
10
-431.800000
20
541.576000
11
-431.800000
21
512.225000
0
LINE
8
Layer 1
10
-423.333000
20
541.576000
11
-431.800000
21
541.576000
0
LINE
8
Layer 1
10
-423.333000
20
541.576000
11
-423.333000
21
597.456000
0
LINE
8
Layer 1
10
-423.333000
20
597.456000
11
-14.111100
21
597.456000
0
LINE
8
Layer 1
10
-14.111100
20
597.456000
11
-14.111100
21
588.989000
0
LINE
8
Layer 1
10
-14.111100
20
588.989000
11
14.111100
21
588.989000
0
LINE
8
Layer 1
10
14.111100
20
588.989000
11
14.111100
21
597.456000
0
LINE
8
Layer 1
10
14.111100
20
597.456000
11
423.333000
21
597.456000
0
LINE
8
Layer 1
10
423.333000
20
597.456000
11
423.333000
21
541.576000
0
LINE
8
Layer 1
10
423.333000
20
541.576000
11
431.800000
21
541.576000
0
LINE
8
Layer 1
10
431.800000
20
541.576000
11
431.800000
21
512.225000
0
LINE
8
Layer 1
10
431.800000
20
512.225000
11
423.333000
21
512.225000
0
LINE
8
Layer 1
10
423.333000
20
512.225000
11
423.333000
21
456.345000
0
LINE
8
Layer 1
10
395.675000
20
456.345000
11
423.333000
21
456.345000
0
LINE
8
Layer 1
10
395.675000
20
447.878000
11
395.675000
21
456.345000
0
LINE
8
Layer 1
10
366.324000
20
447.878000
11
395.675000
21
447.878000
0
LINE
8
Layer 1
10
366.324000
20
456.345000
11
366.324000
21
447.878000
0
LINE
8
Layer 1
10
14.675500
20
456.345000
11
366.324000
21
456.345000
0
LINE
8
Layer 1
10
14.675500
20
447.878000
11
14.675500
21
456.345000
0
LINE
8
Layer 1
10
-14.675500
20
447.878000
11
14.675500
21
447.878000
0
LINE
8
Layer 1
10
-14.675500
20
456.345000
11
-14.675500
21
447.878000
0
LINE
8
Layer 1
10
-366.324000
20
456.345000
11
-14.675500
21
456.345000
0
LINE
8
Layer 1
10
-366.324000
20
447.878000
11
-366.324000
21
456.345000
0
LINE
8
Layer 1
10
-395.675000
20
447.878000
11
-366.324000
21
447.878000
0
LINE
8
Layer 1
10
-395.675000
20
456.345000
11
-395.675000
21
447.878000
0
LINE
8
Layer 1
10
-423.333000
20
456.345000
11
-395.675000
21
456.345000
0
LINE
8
Layer 1
10
31.044400
20
501.500000
11
2.822220
21
501.500000
0
LINE
8
Layer 1
10
2.822220
20
501.500000
11
2.822220
21
473.278000
0
LINE
8
Layer 1
10
2.822220
20
473.278000
11
31.044400
21
473.278000
0
LINE
8
Layer 1
10
31.044400
20
473.278000
11
31.044400
21
501.500000
0
LINE
8
Layer 1
10
304.800000
20
597.456000
11
304.800000
21
541.011000
0
LINE
8
Layer 1
10
304.800000
20
541.011000
11
296.333000
21
541.011000
0
LINE
8
Layer 1
10
296.333000
20
541.011000
11
296.333000
21
512.789000
0
LINE
8
Layer 1
10
296.333000
20
512.789000
11
304.800000
21
512.789000
0
LINE
8
Layer 1
10
304.800000
20
512.789000
11
304.800000
21
456.345000
0
LINE
8
Layer 1
10
260.209000
20
456.345000
11
304.800000
21
456.345000
0
LINE
8
Layer 1
10
260.209000
20
447.878000
11
260.209000
21
456.345000
0
LINE
8
Layer 1
10
230.858000
20
447.878000
11
260.209000
21
447.878000
0
LINE
8
Layer 1
10
230.858000
20
456.345000
11
230.858000
21
447.878000
0
LINE
8
Layer 1
10
14.675500
20
456.345000
11
230.858000
21
456.345000
0
LINE
8
Layer 1
10
14.675500
20
447.878000
11
14.675500
21
456.345000
0
LINE
8
Layer 1
10
-14.675500
20
447.878000
11
14.675500
21
447.878000
0
LINE
8
Layer 1
10
-14.675500
20
456.345000
11
-14.675500
21
447.878000
0
LINE
8
Layer 1
10
-230.858000
20
456.345000
11
-14.675500
21
456.345000
0
LINE
8
Layer 1
10
-230.858000
20
447.878000
11
-230.858000
21
456.345000
0
LINE
8
Layer 1
10
-260.209000
20
447.878000
11
-230.858000
21
447.878000
0
LINE
8
Layer 1
10
-260.209000
20
456.345000
11
-260.209000
21
447.878000
0
LINE
8
Layer 1
10
-304.800000
20
456.345000
11
-260.209000
21
456.345000
0
LINE
8
Layer 1
10
-304.800000
20
512.789000
11
-304.800000
21
456.345000
0
LINE
8
Layer 1
10
-296.333000
20
512.789000
11
-304.800000
21
512.789000
0
LINE
8
Layer 1
10
-296.333000
20
541.011000
11
-296.333000
21
512.789000
0
LINE
8
Layer 1
10
-304.800000
20
541.011000
11
-296.333000
21
541.011000
0
LINE
8
Layer 1
10
-304.800000
20
597.456000
11
-304.800000
21
541.011000
0
LINE
8
Layer 1
10
-254.000000
20
597.456000
11
-304.800000
21
597.456000
0
LINE
8
Layer 1
10
-254.000000
20
588.989000
11
-254.000000
21
597.456000
0
LINE
8
Layer 1
10
-225.778000
20
588.989000
11
-254.000000
21
588.989000
0
LINE
8
Layer 1
10
-225.778000
20
597.456000
11
-225.778000
21
588.989000
0
LINE
8
Layer 1
10
-104.422000
20
597.456000
11
-225.778000
21
597.456000
0
LINE
8
Layer 1
10
-104.422000
20
588.989000
11
-104.422000
21
597.456000
0
LINE
8
Layer 1
10
-76.199900
20
588.989000
11
-104.422000
21
588.989000
0
LINE
8
Layer 1
10
-76.199900
20
597.456000
11
-76.199900
21
588.989000
0
LINE
8
Layer 1
10
53.622200
20
597.456000
11
-76.199900
21
597.456000
0
LINE
8
Layer 1
10
53.622200
20
588.989000
11
53.622200
21
597.456000
0
LINE
8
Layer 1
10
81.844400
20
588.989000
11
53.622200
21
588.989000
0
LINE
8
Layer 1
10
81.844400
20
597.456000
11
81.844400
21
588.989000
0
LINE
8
Layer 1
10
225.778000
20
597.456000
11
81.844400
21
597.456000
0
LINE
8
Layer 1
10
225.778000
20
588.989000
11
225.778000
21
597.456000
0
LINE
8
Layer 1
10
254.000000
20
588.989000
11
225.778000
21
588.989000
0
LINE
8
Layer 1
10
254.000000
20
597.456000
11
254.000000
21
588.989000
0
LINE
8
Layer 1
10
304.800000
20
597.456000
11
254.000000
21
597.456000
0
LINE
8
Layer 1
10
-304.800000
20
456.345000
11
-304.800000
21
512.789000
0
LINE
8
Layer 1
10
-304.800000
20
512.789000
11
-296.333000
21
512.789000
0
LINE
8
Layer 1
10
-296.333000
20
512.789000
11
-296.333000
21
541.011000
0
LINE
8
Layer 1
10
-296.333000
20
541.011000
11
-304.800000
21
541.011000
0
LINE
8
Layer 1
10
-304.800000
20
541.011000
11
-304.800000
21
597.456000
0
LINE
8
Layer 1
10
-304.800000
20
597.456000
11
-254.000000
21
597.456000
0
LINE
8
Layer 1
10
-254.000000
20
597.456000
11
-254.000000
21
588.989000
0
LINE
8
Layer 1
10
-254.000000
20
588.989000
11
-225.778000
21
588.989000
0
LINE
8
Layer 1
10
-225.778000
20
588.989000
11
-225.778000
21
597.456000
0
LINE
8
Layer 1
10
-225.778000
20
597.456000
11
-104.422000
21
597.456000
0
LINE
8
Layer 1
10
-104.422000
20
597.456000
11
-104.422000
21
588.989000
0
LINE
8
Layer 1
10
-104.422000
20
588.989000
11
-76.199900
21
588.989000
0
LINE
8
Layer 1
10
-76.199900
20
588.989000
11
-76.199900
21
597.456000
0
LINE
8
Layer 1
10
-76.199900
20
597.456000
11
53.622200
21
597.456000
0
LINE
8
Layer 1
10
53.622200
20
597.456000
11
53.622200
21
588.989000
0
LINE
8
Layer 1
10
53.622200
20
588.989000
11
81.844400
21
588.989000
0
LINE
8
Layer 1
10
81.844400
20
588.989000
11
81.844400
21
597.456000
0
LINE
8
Layer 1
10
81.844400
20
597.456000
11
225.778000
21
597.456000
0
LINE
8
Layer 1
10
225.778000
20
597.456000
11
225.778000
21
588.989000
0
LINE
8
Layer 1
10
225.778000
20
588.989000
11
254.000000
21
588.989000
0
LINE
8
Layer 1
10
254.000000
20
588.989000
11
254.000000
21
597.456000
0
LINE
8
Layer 1
10
254.000000
20
597.456000
11
304.800000
21
597.456000
0
LINE
8
Layer 1
10
304.800000
20
597.456000
11
304.800000
21
541.011000
0
LINE
8
Layer 1
10
304.800000
20
541.011000
11
296.333000
21
541.011000
0
LINE
8
Layer 1
10
296.333000
20
541.011000
11
296.333000
21
512.789000
0
LINE
8
Layer 1
10
296.333000
20
512.789000
11
304.800000
21
512.789000
0
LINE
8
Layer 1
10
304.800000
20
512.789000
11
304.800000
21
456.345000
0
LINE
8
Layer 1
10
260.209000
20
456.345000
11
304.800000
21
456.345000
0
LINE
8
Layer 1
10
260.209000
20
447.878000
11
260.209000
21
456.345000
0
LINE
8
Layer 1
10
230.858000
20
447.878000
11
260.209000
21
447.878000
0
LINE
8
Layer 1
10
230.858000
20
456.345000
11
230.858000
21
447.878000
0
LINE
8
Layer 1
10
14.675500
20
456.345000
11
230.858000
21
456.345000
0
LINE
8
Layer 1
10
14.675500
20
447.878000
11
14.675500
21
456.345000
0
LINE
8
Layer 1
10
-14.675500
20
447.878000
11
14.675500
21
447.878000
0
LINE
8
Layer 1
10
-14.675500
20
456.345000
11
-14.675500
21
447.878000
0
LINE
8
Layer 1
10
-230.858000
20
456.345000
11
-14.675500
21
456.345000
0
LINE
8
Layer 1
10
-230.858000
20
447.878000
11
-230.858000
21
456.345000
0
LINE
8
Layer 1
10
-260.209000
20
447.878000
11
-230.858000
21
447.878000
0
LINE
8
Layer 1
10
-260.209000
20
456.345000
11
-260.209000
21
447.878000
0
LINE
8
Layer 1
10
-304.800000
20
456.345000
11
-260.209000
21
456.345000
 0 
ENDSEC
 0 
EOF