  0
SECTION
  2
HEADER
  9
$ACADVER
  1
AC1009
  9
$INSBASE
 10
0.0
 20
0.0
 30
0.0
  9
$EXTMIN
 10
0.0
 20
0.0
 30
0.0
  9
$EXTMAX
 10
0.0
 20
0.0
 30
0.0
  0
ENDSEC
  0
SECTION
  2
TABLES
  0
TABLE
  2
VPORT
 70
0
  0
ENDTAB
  0
TABLE
  2
LTYPE
 70
1
  0
LTYPE
  2
CONTINUOUS
 70
0
  3
Solid line
 72
65
 73
0
 40
0.0
  0
ENDTAB
  0
TABLE
  2
LAYER
 70
1
  0
LAYER
  2
0
 70
64
 62
7
  6
continuous
  0
ENDTAB
  0
TABLE
  2
STYLE
 70
1
  0
STYLE
  2
STANDARD
 70
0
 40
0
 41
1.0
 50
0.0
 71
0
 42
1
 3
ARIAL.TTF
 4

  0
ENDTAB
  0
TABLE
  2
VIEW
 70
0
  0
ENDTAB
  0
ENDSEC
  0
SECTION
  2
BLOCKS
  0
BLOCK
  8
0
  2
BODY
 70
0
 10
0.0
 20
0.0
 30
0.0
  3
BODY
  0
LINE
  8
0
 62
0
 10
-150.0
 20
105.0
 30
0.0
 11
-5.199999999999989
 21
105.0
 31
0.0
  0
LINE
  8
0
 62
0
 10
-150.0
 20
105.0
 30
0.0
 11
-150.0
 21
90.2
 31
0.0
  0
LINE
  8
0
 62
0
 10
-150.0
 20
90.2
 30
0.0
 11
-153.0
 21
90.2
 31
0.0
  0
LINE
  8
0
 62
0
 10
-153.0
 20
90.2
 30
0.0
 11
-153.0
 21
79.8
 31
0.0
  0
LINE
  8
0
 62
0
 10
-153.0
 20
79.8
 30
0.0
 11
-150.0
 21
79.8
 31
0.0
  0
LINE
  8
0
 62
0
 10
-150.0
 20
79.8
 30
0.0
 11
-150.0
 21
29.200000000000003
 31
0.0
  0
LINE
  8
0
 62
0
 10
-150.0
 20
29.200000000000003
 30
0.0
 11
-153.0
 21
29.200000000000003
 31
0.0
  0
LINE
  8
0
 62
0
 10
-153.0
 20
29.200000000000003
 30
0.0
 11
-153.0
 21
18.8
 31
0.0
  0
LINE
  8
0
 62
0
 10
-153.0
 20
18.8
 30
0.0
 11
-150.0
 21
18.8
 31
0.0
  0
LINE
  8
0
 62
0
 10
-150.0
 20
18.8
 30
0.0
 11
-150.0
 21
-26.8
 31
0.0
  0
LINE
  8
0
 62
0
 10
-150.0
 20
-26.8
 30
0.0
 11
-153.0
 21
-26.8
 31
0.0
  0
LINE
  8
0
 62
0
 10
-153.0
 20
-26.8
 30
0.0
 11
-153.0
 21
-37.2
 31
0.0
  0
LINE
  8
0
 62
0
 10
-153.0
 20
-37.2
 30
0.0
 11
-150.0
 21
-37.2
 31
0.0
  0
LINE
  8
0
 62
0
 10
-150.0
 20
-37.2
 30
0.0
 11
-150.0
 21
-79.8
 31
0.0
  0
LINE
  8
0
 62
0
 10
-150.0
 20
-79.8
 30
0.0
 11
-153.0
 21
-79.8
 31
0.0
  0
LINE
  8
0
 62
0
 10
-153.0
 20
-79.8
 30
0.0
 11
-153.0
 21
-90.2
 31
0.0
  0
LINE
  8
0
 62
0
 10
-153.0
 20
-90.2
 30
0.0
 11
-150.0
 21
-90.2
 31
0.0
  0
LINE
  8
0
 62
0
 10
-150.0
 20
-90.2
 30
0.0
 11
-150.0
 21
-105.0
 31
0.0
  0
LINE
  8
0
 62
0
 10
-150.0
 20
-105.0
 30
0.0
 11
-5.199999999999989
 21
-105.0
 31
0.0
  0
LINE
  8
0
 62
0
 10
-5.199999999999989
 20
-105.0
 30
0.0
 11
-5.199999999999989
 21
-108.0
 31
0.0
  0
LINE
  8
0
 62
0
 10
-5.199999999999989
 20
-108.0
 30
0.0
 11
5.199999999999999
 21
-108.0
 31
0.0
  0
LINE
  8
0
 62
0
 10
5.199999999999999
 20
-108.0
 30
0.0
 11
5.199999999999999
 21
-105.0
 31
0.0
  0
LINE
  8
0
 62
0
 10
5.199999999999999
 20
-105.0
 30
0.0
 11
150.0
 21
-105.0
 31
0.0
  0
LINE
  8
0
 62
0
 10
150.0
 20
-90.2
 30
0.0
 11
150.0
 21
-105.0
 31
0.0
  0
LINE
  8
0
 62
0
 10
153.0
 20
-90.2
 30
0.0
 11
150.0
 21
-90.2
 31
0.0
  0
LINE
  8
0
 62
0
 10
153.0
 20
-79.8
 30
0.0
 11
153.0
 21
-90.2
 31
0.0
  0
LINE
  8
0
 62
0
 10
150.0
 20
-79.8
 30
0.0
 11
153.0
 21
-79.8
 31
0.0
  0
LINE
  8
0
 62
0
 10
150.0
 20
-37.2
 30
0.0
 11
150.0
 21
-79.8
 31
0.0
  0
LINE
  8
0
 62
0
 10
153.0
 20
-37.2
 30
0.0
 11
150.0
 21
-37.2
 31
0.0
  0
LINE
  8
0
 62
0
 10
153.0
 20
-26.799999999999994
 30
0.0
 11
153.0
 21
-37.2
 31
0.0
  0
LINE
  8
0
 62
0
 10
150.0
 20
-26.799999999999994
 30
0.0
 11
153.0
 21
-26.799999999999994
 31
0.0
  0
LINE
  8
0
 62
0
 10
150.0
 20
18.8
 30
0.0
 11
150.0
 21
-26.799999999999994
 31
0.0
  0
LINE
  8
0
 62
0
 10
153.0
 20
18.8
 30
0.0
 11
150.0
 21
18.8
 31
0.0
  0
LINE
  8
0
 62
0
 10
153.0
 20
29.200000000000003
 30
0.0
 11
153.0
 21
18.8
 31
0.0
  0
LINE
  8
0
 62
0
 10
150.0
 20
29.200000000000003
 30
0.0
 11
153.0
 21
29.200000000000003
 31
0.0
  0
LINE
  8
0
 62
0
 10
150.0
 20
79.8
 30
0.0
 11
150.0
 21
29.200000000000003
 31
0.0
  0
LINE
  8
0
 62
0
 10
153.0
 20
79.8
 30
0.0
 11
150.0
 21
79.8
 31
0.0
  0
LINE
  8
0
 62
0
 10
153.0
 20
90.2
 30
0.0
 11
153.0
 21
79.8
 31
0.0
  0
LINE
  8
0
 62
0
 10
150.0
 20
90.2
 30
0.0
 11
153.0
 21
90.2
 31
0.0
  0
LINE
  8
0
 62
0
 10
150.0
 20
105.0
 30
0.0
 11
150.0
 21
90.2
 31
0.0
  0
LINE
  8
0
 62
0
 10
5.199999999999999
 20
105.0
 30
0.0
 11
150.0
 21
105.0
 31
0.0
  0
LINE
  8
0
 62
0
 10
5.199999999999999
 20
108.0
 30
0.0
 11
5.199999999999999
 21
105.0
 31
0.0
  0
LINE
  8
0
 62
0
 10
-5.199999999999989
 20
108.0
 30
0.0
 11
5.199999999999999
 21
108.0
 31
0.0
  0
LINE
  8
0
 62
0
 10
-5.199999999999989
 20
105.0
 30
0.0
 11
-5.199999999999989
 21
108.0
 31
0.0
  0
LINE
  8
0
 62
0
 10
13.947157000000004
 20
42.0
 30
0.0
 11
139.0
 21
42.0
 31
0.0
  0
LINE
  8
0
 62
0
 10
139.0
 20
42.0
 30
0.0
 11
139.0
 21
-65.0
 31
0.0
  0
LINE
  8
0
 62
0
 10
139.0
 20
-65.0
 30
0.0
 11
13.947157000000004
 21
-65.0
 31
0.0
  0
LINE
  8
0
 62
0
 10
13.947157000000004
 20
-65.0
 30
0.0
 11
13.947157000000004
 21
42.0
 31
0.0
  0
LINE
  8
0
 62
0
 10
-132.0
 20
36.0
 30
0.0
 11
-132.0
 21
-61.0
 31
0.0
  0
LINE
  8
0
 62
0
 10
-69.0
 20
36.0
 30
0.0
 11
-132.0
 21
36.0
 31
0.0
  0
LINE
  8
0
 62
0
 10
-69.0
 20
-61.0
 30
0.0
 11
-69.0
 21
36.0
 31
0.0
  0
LINE
  8
0
 62
0
 10
-132.0
 20
-61.0
 30
0.0
 11
-69.0
 21
-61.0
 31
0.0
  0
LINE
  8
0
 62
0
 10
-52.0
 20
94.0
 30
0.0
 11
6.0
 21
94.0
 31
0.0
  0
LINE
  8
0
 62
0
 10
6.0
 20
94.0
 30
0.0
 11
6.0
 21
37.0
 31
0.0
  0
LINE
  8
0
 62
0
 10
6.0
 20
37.0
 30
0.0
 11
-52.0
 21
37.0
 31
0.0
  0
LINE
  8
0
 62
0
 10
-52.0
 20
37.0
 30
0.0
 11
-52.0
 21
94.0
 31
0.0
  0
CIRCLE
  8
0
 62
0
 10
145.00000000000003
 20
-100.0
 30
0.0
 40
1.25
  0
CIRCLE
  8
0
 62
0
 10
-144.99999999999997
 20
-100.0
 30
0.0
 40
1.25
  0
CIRCLE
  8
0
 62
0
 10
145.00000000000003
 20
100.0
 30
0.0
 40
1.25
  0
CIRCLE
  8
0
 62
0
 10
-144.99999999999997
 20
100.0
 30
0.0
 40
1.25
  0
ENDBLK
  0
BLOCK
  8
0
  2
BODY001
 70
0
 10
0.0
 20
0.0
 30
0.0
  3
BODY001
  0
LINE
  8
0
 62
0
 10
166.0
 20
-8.0
 30
0.0
 11
247.0
 21
-8.0
 31
0.0
  0
LINE
  8
0
 62
0
 10
247.0
 20
-8.0
 30
0.0
 11
247.0
 21
104.0
 31
0.0
  0
LINE
  8
0
 62
0
 10
247.0
 20
104.0
 30
0.0
 11
166.0
 21
104.0
 31
0.0
  0
LINE
  8
0
 62
0
 10
166.0
 20
104.0
 30
0.0
 11
166.0
 21
-8.0
 31
0.0
  0
LINE
  8
0
 62
0
 10
184.0
 20
51.0
 30
0.0
 11
227.0
 21
51.0
 31
0.0
  0
LINE
  8
0
 62
0
 10
227.0
 20
51.0
 30
0.0
 11
227.0
 21
12.0
 31
0.0
  0
LINE
  8
0
 62
0
 10
227.0
 20
12.0
 30
0.0
 11
184.0
 21
12.0
 31
0.0
  0
LINE
  8
0
 62
0
 10
184.0
 20
12.0
 30
0.0
 11
184.0
 21
51.0
 31
0.0
  0
LINE
  8
0
 62
0
 10
190.81410800000003
 20
89.28999999999999
 30
0.0
 11
222.81410800000003
 21
89.28999999999999
 31
0.0
  0
LINE
  8
0
 62
0
 10
222.81410800000003
 20
89.28999999999999
 30
0.0
 11
222.81410800000003
 21
57.28999999999999
 31
0.0
  0
LINE
  8
0
 62
0
 10
222.81410800000003
 20
57.29
 30
0.0
 11
190.81410800000003
 21
57.29
 31
0.0
  0
LINE
  8
0
 62
0
 10
190.81410800000003
 20
57.29
 30
0.0
 11
190.81410800000003
 21
89.28999999999999
 31
0.0
  0
CIRCLE
  8
0
 62
0
 10
242.8230154468048
 20
100.58797012337908
 30
0.0
 40
0.75
  0
CIRCLE
  8
0
 62
0
 10
242.8230154468048
 20
-4.41202987662092
 30
0.0
 40
0.75
  0
CIRCLE
  8
0
 62
0
 10
169.8230154468048
 20
100.5879701233791
 30
0.0
 40
0.75
  0
CIRCLE
  8
0
 62
0
 10
169.8230154468048
 20
-4.41202987662092
 30
0.0
 40
0.75
  0
ENDBLK
  0
BLOCK
  8
0
  2
BODY002
 70
0
 10
0.0
 20
0.0
 30
0.0
  3
BODY002
  0
LINE
  8
0
 62
0
 10
267.0
 20
103.0
 30
0.0
 11
397.0
 21
103.0
 31
0.0
  0
LINE
  8
0
 62
0
 10
397.0
 20
103.0
 30
0.0
 11
397.0
 21
-19.0
 31
0.0
  0
LINE
  8
0
 62
0
 10
397.0
 20
-19.0
 30
0.0
 11
267.0
 21
-19.0
 31
0.0
  0
LINE
  8
0
 62
0
 10
267.0
 20
-19.0
 30
0.0
 11
267.0
 21
103.0
 31
0.0
  0
LINE
  8
0
 62
0
 10
304.023224
 20
9.001961000000001
 30
0.0
 11
304.023224
 21
80.001961
 31
0.0
  0
LINE
  8
0
 62
0
 10
355.023224
 20
9.001961000000001
 30
0.0
 11
304.023224
 21
9.001961000000001
 31
0.0
  0
LINE
  8
0
 62
0
 10
355.023224
 20
80.001961
 30
0.0
 11
355.023224
 21
9.001960999999994
 31
0.0
  0
LINE
  8
0
 62
0
 10
304.023224
 20
80.001961
 30
0.0
 11
355.023224
 21
80.001961
 31
0.0
  0
LINE
  8
0
 62
0
 10
363.781754
 20
29.869597000000002
 30
0.0
 11
363.781754
 21
54.869597
 31
0.0
  0
LINE
  8
0
 62
0
 10
388.781754
 20
29.869597000000002
 30
0.0
 11
363.781754
 21
29.869597000000002
 31
0.0
  0
LINE
  8
0
 62
0
 10
388.781754
 20
54.869597
 30
0.0
 11
388.781754
 21
29.869597
 31
0.0
  0
LINE
  8
0
 62
0
 10
363.781754
 20
54.869597
 30
0.0
 11
388.781754
 21
54.869597
 31
0.0
  0
LINE
  8
0
 62
0
 10
346.99553000000003
 20
-4.957324999999997
 30
0.0
 11
346.99553000000003
 21
5.042675000000003
 31
0.0
  0
LINE
  8
0
 62
0
 10
356.99553000000003
 20
-4.957324999999997
 30
0.0
 11
346.99553000000003
 21
-4.957324999999997
 31
0.0
  0
LINE
  8
0
 62
0
 10
356.99553000000003
 20
5.042675000000003
 30
0.0
 11
356.99553000000003
 21
-4.957324999999997
 31
0.0
  0
LINE
  8
0
 62
0
 10
346.99553000000003
 20
5.042675000000003
 30
0.0
 11
356.99553000000003
 21
5.042675000000003
 31
0.0
  0
LINE
  8
0
 62
0
 10
331.99553000000003
 20
-4.957324999999997
 30
0.0
 11
331.99553000000003
 21
5.042675000000003
 31
0.0
  0
LINE
  8
0
 62
0
 10
341.99553000000003
 20
-4.957324999999997
 30
0.0
 11
331.99553000000003
 21
-4.957324999999997
 31
0.0
  0
LINE
  8
0
 62
0
 10
341.99553000000003
 20
5.042675000000003
 30
0.0
 11
341.99553000000003
 21
-4.957324999999997
 31
0.0
  0
LINE
  8
0
 62
0
 10
331.99553000000003
 20
5.042675000000003
 30
0.0
 11
341.99553000000003
 21
5.042675000000003
 31
0.0
  0
LINE
  8
0
 62
0
 10
316.99553000000003
 20
-4.957324999999997
 30
0.0
 11
316.99553000000003
 21
5.042675000000003
 31
0.0
  0
LINE
  8
0
 62
0
 10
326.99553000000003
 20
-4.957324999999997
 30
0.0
 11
316.99553000000003
 21
-4.957324999999997
 31
0.0
  0
LINE
  8
0
 62
0
 10
326.99553000000003
 20
5.042675000000003
 30
0.0
 11
326.99553000000003
 21
-4.957324999999997
 31
0.0
  0
LINE
  8
0
 62
0
 10
316.99553000000003
 20
5.042675000000003
 30
0.0
 11
326.99553000000003
 21
5.042675000000003
 31
0.0
  0
LINE
  8
0
 62
0
 10
301.99553000000003
 20
-4.957324999999997
 30
0.0
 11
301.99553000000003
 21
5.042675000000003
 31
0.0
  0
LINE
  8
0
 62
0
 10
311.99553000000003
 20
-4.957324999999997
 30
0.0
 11
301.99553000000003
 21
-4.957324999999997
 31
0.0
  0
LINE
  8
0
 62
0
 10
311.99553000000003
 20
5.042675000000003
 30
0.0
 11
311.99553000000003
 21
-4.957324999999997
 31
0.0
  0
LINE
  8
0
 62
0
 10
301.99553000000003
 20
5.042675000000003
 30
0.0
 11
311.99553000000003
 21
5.042675000000003
 31
0.0
  0
LINE
  8
0
 62
0
 10
277.037403
 20
37.065301
 30
0.0
 11
277.037403
 21
47.065301
 31
0.0
  0
LINE
  8
0
 62
0
 10
287.037403
 20
37.065301
 30
0.0
 11
277.037403
 21
37.065301
 31
0.0
  0
LINE
  8
0
 62
0
 10
287.037403
 20
47.065301
 30
0.0
 11
287.037403
 21
37.065301
 31
0.0
  0
LINE
  8
0
 62
0
 10
277.037403
 20
47.065301
 30
0.0
 11
287.037403
 21
47.065301
 31
0.0
  0
CIRCLE
  8
0
 62
0
 10
270.01897581698313
 20
99.12463299251802
 30
0.0
 40
0.75
  0
CIRCLE
  8
0
 62
0
 10
395.01897581698313
 20
99.124632992518
 30
0.0
 40
0.75
  0
CIRCLE
  8
0
 62
0
 10
270.01897581698313
 20
-14.875367007481984
 30
0.0
 40
0.75
  0
CIRCLE
  8
0
 62
0
 10
395.01897581698313
 20
-14.875367007481998
 30
0.0
 40
0.75
  0
ENDBLK
  0
BLOCK
  8
0
  2
BODY004
 70
0
 10
0.0
 20
0.0
 30
0.0
  3
BODY004
  0
LINE
  8
0
 62
0
 10
-140.0
 20
-335.0
 30
0.0
 11
-153.0
 21
-335.0
 31
0.0
  0
LINE
  8
0
 62
0
 10
-140.0
 20
-335.0
 30
0.0
 11
-140.0
 21
-332.0
 31
0.0
  0
LINE
  8
0
 62
0
 10
-140.0
 20
-332.0
 30
0.0
 11
-130.0
 21
-332.0
 31
0.0
  0
LINE
  8
0
 62
0
 10
-130.0
 20
-332.0
 30
0.0
 11
-130.0
 21
-335.0
 31
0.0
  0
LINE
  8
0
 62
0
 10
-130.0
 20
-335.0
 30
0.0
 11
-5.0
 21
-335.0
 31
0.0
  0
LINE
  8
0
 62
0
 10
-5.0
 20
-335.0
 30
0.0
 11
-5.0
 21
-332.0
 31
0.0
  0
LINE
  8
0
 62
0
 10
-5.0
 20
-332.0
 30
0.0
 11
5.0
 21
-332.0
 31
0.0
  0
LINE
  8
0
 62
0
 10
5.0
 20
-332.0
 30
0.0
 11
5.0
 21
-335.0
 31
0.0
  0
LINE
  8
0
 62
0
 10
5.0
 20
-335.0
 30
0.0
 11
130.0
 21
-335.0
 31
0.0
  0
LINE
  8
0
 62
0
 10
130.0
 20
-335.0
 30
0.0
 11
130.0
 21
-332.0
 31
0.0
  0
LINE
  8
0
 62
0
 10
130.0
 20
-332.0
 30
0.0
 11
140.0
 21
-332.0
 31
0.0
  0
LINE
  8
0
 62
0
 10
140.0
 20
-332.0
 30
0.0
 11
140.0
 21
-335.0
 31
0.0
  0
LINE
  8
0
 62
0
 10
140.0
 20
-335.0
 30
0.0
 11
153.0
 21
-335.0
 31
0.0
  0
LINE
  8
0
 62
0
 10
153.0
 20
-335.0
 30
0.0
 11
153.0
 21
-319.0
 31
0.0
  0
LINE
  8
0
 62
0
 10
153.0
 20
-319.0
 30
0.0
 11
150.0
 21
-319.0
 31
0.0
  0
LINE
  8
0
 62
0
 10
150.0
 20
-319.0
 30
0.0
 11
150.0
 21
-309.0
 31
0.0
  0
LINE
  8
0
 62
0
 10
150.0
 20
-309.0
 30
0.0
 11
153.0
 21
-309.0
 31
0.0
  0
LINE
  8
0
 62
0
 10
153.0
 20
-309.0
 30
0.0
 11
153.0
 21
-232.0
 31
0.0
  0
LINE
  8
0
 62
0
 10
153.0
 20
-232.0
 30
0.0
 11
150.0
 21
-232.0
 31
0.0
  0
LINE
  8
0
 62
0
 10
150.0
 20
-232.0
 30
0.0
 11
150.0
 21
-222.0
 31
0.0
  0
LINE
  8
0
 62
0
 10
150.0
 20
-222.0
 30
0.0
 11
153.0
 21
-222.0
 31
0.0
  0
LINE
  8
0
 62
0
 10
153.0
 20
-222.0
 30
0.0
 11
153.0
 21
-145.0
 31
0.0
  0
LINE
  8
0
 62
0
 10
153.0
 20
-145.0
 30
0.0
 11
150.0
 21
-145.0
 31
0.0
  0
LINE
  8
0
 62
0
 10
150.0
 20
-145.0
 30
0.0
 11
150.0
 21
-135.0
 31
0.0
  0
LINE
  8
0
 62
0
 10
150.0
 20
-135.0
 30
0.0
 11
153.0
 21
-135.0
 31
0.0
  0
LINE
  8
0
 62
0
 10
153.0
 20
-119.0
 30
0.0
 11
153.0
 21
-135.0
 31
0.0
  0
LINE
  8
0
 62
0
 10
140.0
 20
-119.0
 30
0.0
 11
153.0
 21
-119.0
 31
0.0
  0
LINE
  8
0
 62
0
 10
140.0
 20
-122.0
 30
0.0
 11
140.0
 21
-119.0
 31
0.0
  0
LINE
  8
0
 62
0
 10
130.0
 20
-122.0
 30
0.0
 11
140.0
 21
-122.0
 31
0.0
  0
LINE
  8
0
 62
0
 10
130.0
 20
-119.0
 30
0.0
 11
130.0
 21
-122.0
 31
0.0
  0
LINE
  8
0
 62
0
 10
5.0
 20
-119.0
 30
0.0
 11
130.0
 21
-119.0
 31
0.0
  0
LINE
  8
0
 62
0
 10
5.0
 20
-122.0
 30
0.0
 11
5.0
 21
-119.0
 31
0.0
  0
LINE
  8
0
 62
0
 10
-5.0
 20
-122.0
 30
0.0
 11
5.0
 21
-122.0
 31
0.0
  0
LINE
  8
0
 62
0
 10
-5.0
 20
-119.0
 30
0.0
 11
-5.0
 21
-122.0
 31
0.0
  0
LINE
  8
0
 62
0
 10
-130.0
 20
-119.0
 30
0.0
 11
-5.0
 21
-119.0
 31
0.0
  0
LINE
  8
0
 62
0
 10
-130.0
 20
-122.0
 30
0.0
 11
-130.0
 21
-119.0
 31
0.0
  0
LINE
  8
0
 62
0
 10
-140.0
 20
-122.0
 30
0.0
 11
-130.0
 21
-122.0
 31
0.0
  0
LINE
  8
0
 62
0
 10
-140.0
 20
-119.0
 30
0.0
 11
-140.0
 21
-122.0
 31
0.0
  0
LINE
  8
0
 62
0
 10
-140.0
 20
-119.0
 30
0.0
 11
-153.0
 21
-119.0
 31
0.0
  0
LINE
  8
0
 62
0
 10
-153.0
 20
-119.0
 30
0.0
 11
-153.0
 21
-135.0
 31
0.0
  0
LINE
  8
0
 62
0
 10
-153.0
 20
-135.0
 30
0.0
 11
-150.0
 21
-135.0
 31
0.0
  0
LINE
  8
0
 62
0
 10
-150.0
 20
-135.0
 30
0.0
 11
-150.0
 21
-145.0
 31
0.0
  0
LINE
  8
0
 62
0
 10
-150.0
 20
-145.0
 30
0.0
 11
-153.0
 21
-145.0
 31
0.0
  0
LINE
  8
0
 62
0
 10
-153.0
 20
-145.0
 30
0.0
 11
-153.0
 21
-222.0
 31
0.0
  0
LINE
  8
0
 62
0
 10
-153.0
 20
-222.0
 30
0.0
 11
-150.0
 21
-222.0
 31
0.0
  0
LINE
  8
0
 62
0
 10
-150.0
 20
-222.0
 30
0.0
 11
-150.0
 21
-232.0
 31
0.0
  0
LINE
  8
0
 62
0
 10
-150.0
 20
-232.0
 30
0.0
 11
-153.0
 21
-232.0
 31
0.0
  0
LINE
  8
0
 62
0
 10
-153.0
 20
-232.0
 30
0.0
 11
-153.0
 21
-309.0
 31
0.0
  0
LINE
  8
0
 62
0
 10
-153.0
 20
-309.0
 30
0.0
 11
-150.0
 21
-309.0
 31
0.0
  0
LINE
  8
0
 62
0
 10
-150.0
 20
-309.0
 30
0.0
 11
-150.0
 21
-319.0
 31
0.0
  0
LINE
  8
0
 62
0
 10
-150.0
 20
-319.0
 30
0.0
 11
-153.0
 21
-319.0
 31
0.0
  0
LINE
  8
0
 62
0
 10
-153.0
 20
-319.0
 30
0.0
 11
-153.0
 21
-332.0
 31
0.0
  0
LINE
  8
0
 62
0
 10
-153.0
 20
-335.0
 30
0.0
 11
-153.0
 21
-332.0
 31
0.0
  0
CIRCLE
  8
0
 62
0
 10
145.0
 20
-327.0
 30
0.0
 40
1.25
  0
CIRCLE
  8
0
 62
0
 10
-145.0
 20
-327.0
 30
0.0
 40
1.25
  0
CIRCLE
  8
0
 62
0
 10
145.0
 20
-127.0
 30
0.0
 40
1.25
  0
CIRCLE
  8
0
 62
0
 10
-145.0
 20
-127.0
 30
0.0
 40
1.25
  0
CIRCLE
  8
0
 62
0
 10
-30.320438
 20
-225.998447
 30
0.0
 40
1.25
  0
CIRCLE
  8
0
 62
0
 10
21.799561999999998
 20
-192.908447
 30
0.0
 40
1.25
  0
CIRCLE
  8
0
 62
0
 10
21.620624445574443
 20
-220.808447
 30
0.0
 40
1.25
  0
CIRCLE
  8
0
 62
0
 10
-29.000438
 20
-177.708447
 30
0.0
 40
1.25
  0
ENDBLK
  0
BLOCK
  8
0
  2
BODY003
 70
0
 10
0.0
 20
0.0
 30
0.0
  3
BODY003
  0
LINE
  8
0
 62
0
 10
413.0
 20
102.0
 30
0.0
 11
481.0
 21
102.0
 31
0.0
  0
LINE
  8
0
 62
0
 10
481.0
 20
102.0
 30
0.0
 11
481.0
 21
37.0
 31
0.0
  0
LINE
  8
0
 62
0
 10
481.0
 20
37.0
 30
0.0
 11
413.0
 21
37.0
 31
0.0
  0
LINE
  8
0
 62
0
 10
413.0
 20
37.0
 30
0.0
 11
413.0
 21
102.0
 31
0.0
  0
LINE
  8
0
 62
0
 10
418.796478
 20
71.998472
 30
0.0
 11
418.796478
 21
74.998472
 31
0.0
  0
LINE
  8
0
 62
0
 10
473.796478
 20
71.998472
 30
0.0
 11
418.796478
 21
71.998472
 31
0.0
  0
LINE
  8
0
 62
0
 10
473.796478
 20
74.998472
 30
0.0
 11
473.796478
 21
71.998472
 31
0.0
  0
LINE
  8
0
 62
0
 10
418.796478
 20
74.998472
 30
0.0
 11
473.796478
 21
74.998472
 31
0.0
  0
LINE
  8
0
 62
0
 10
421.698175
 20
45.289074
 30
0.0
 11
421.698175
 21
64.289074
 31
0.0
  0
LINE
  8
0
 62
0
 10
471.698175
 20
45.289074
 30
0.0
 11
421.698175
 21
45.289074
 31
0.0
  0
LINE
  8
0
 62
0
 10
471.698175
 20
64.289074
 30
0.0
 11
471.698175
 21
45.289074
 31
0.0
  0
LINE
  8
0
 62
0
 10
421.698175
 20
64.289074
 30
0.0
 11
471.698175
 21
64.289074
 31
0.0
  0
LINE
  8
0
 62
0
 10
436.18510223936255
 20
89.57788281554255
 30
0.0
 11
436.18510223936255
 21
92.57788281554255
 31
0.0
  0
LINE
  8
0
 62
0
 10
443.88510223936254
 20
89.57788281554255
 30
0.0
 11
436.18510223936255
 21
89.57788281554255
 31
0.0
  0
LINE
  8
0
 62
0
 10
443.88510223936254
 20
92.57788281554255
 30
0.0
 11
443.88510223936254
 21
89.57788281554255
 31
0.0
  0
LINE
  8
0
 62
0
 10
436.18510223936255
 20
92.57788281554255
 30
0.0
 11
443.88510223936254
 21
92.57788281554255
 31
0.0
  0
LINE
  8
0
 62
0
 10
423.61508623936254
 20
89.57634081554255
 30
0.0
 11
423.61508623936254
 21
92.57634081554255
 31
0.0
  0
LINE
  8
0
 62
0
 10
431.31508623936253
 20
89.57634081554255
 30
0.0
 11
423.61508623936254
 21
89.57634081554255
 31
0.0
  0
LINE
  8
0
 62
0
 10
431.31508623936253
 20
92.57634081554255
 30
0.0
 11
431.31508623936253
 21
89.57634081554255
 31
0.0
  0
LINE
  8
0
 62
0
 10
423.61508623936254
 20
92.57634081554255
 30
0.0
 11
431.31508623936253
 21
92.57634081554255
 31
0.0
  0
LINE
  8
0
 62
0
 10
461.3251342393625
 20
89.58096681554255
 30
0.0
 11
461.3251342393625
 21
92.58096681554255
 31
0.0
  0
LINE
  8
0
 62
0
 10
469.02513423936256
 20
89.58096681554255
 30
0.0
 11
461.32513423936257
 21
89.58096681554255
 31
0.0
  0
LINE
  8
0
 62
0
 10
469.02513423936256
 20
92.58096681554255
 30
0.0
 11
469.02513423936256
 21
89.58096681554255
 31
0.0
  0
LINE
  8
0
 62
0
 10
461.3251342393625
 20
92.58096681554255
 30
0.0
 11
469.0251342393625
 21
92.58096681554255
 31
0.0
  0
LINE
  8
0
 62
0
 10
448.75511823936256
 20
89.57942481554255
 30
0.0
 11
448.75511823936256
 21
92.57942481554255
 31
0.0
  0
LINE
  8
0
 62
0
 10
456.45511823936255
 20
89.57942481554255
 30
0.0
 11
448.75511823936256
 21
89.57942481554255
 31
0.0
  0
LINE
  8
0
 62
0
 10
456.45511823936255
 20
92.57942481554255
 30
0.0
 11
456.45511823936255
 21
89.57942481554255
 31
0.0
  0
LINE
  8
0
 62
0
 10
448.75511823936256
 20
92.57942481554255
 30
0.0
 11
456.45511823936255
 21
92.57942481554255
 31
0.0
  0
CIRCLE
  8
0
 62
0
 10
415.40621390225886
 20
99.42099179335882
 30
0.0
 40
0.75
  0
CIRCLE
  8
0
 62
0
 10
478.4061904775581
 20
99.4753196127431
 30
0.0
 40
0.75
  0
CIRCLE
  8
0
 62
0
 10
415.45795468272445
 20
39.42101410269838
 30
0.0
 40
0.75
  0
CIRCLE
  8
0
 62
0
 10
478.45793125802294
 20
39.47534192198313
 30
0.0
 40
0.75
  0
ENDBLK
  0
BLOCK
  8
0
  2
BODY005
 70
0
 10
0.0
 20
0.0
 30
0.0
  3
BODY005
  0
LINE
  8
0
 62
0
 10
393.00000000000006
 20
-130.00000000000006
 30
0.0
 11
375.00000000000006
 21
-130.00000000000006
 31
0.0
  0
LINE
  8
0
 62
0
 10
375.00000000000006
 20
-130.00000000000006
 30
0.0
 11
375.00000000000006
 21
-133.00000000000006
 31
0.0
  0
LINE
  8
0
 62
0
 10
375.00000000000006
 20
-133.00000000000006
 30
0.0
 11
365.00000000000006
 21
-133.00000000000006
 31
0.0
  0
LINE
  8
0
 62
0
 10
365.0
 20
-133.00000000000006
 30
0.0
 11
365.0
 21
-130.00000000000006
 31
0.0
  0
LINE
  8
0
 62
0
 10
365.0
 20
-130.00000000000006
 30
0.0
 11
314.0
 21
-130.00000000000003
 31
0.0
  0
LINE
  8
0
 62
0
 10
314.0
 20
-130.00000000000003
 30
0.0
 11
314.0
 21
-133.00000000000003
 31
0.0
  0
LINE
  8
0
 62
0
 10
314.0
 20
-133.00000000000003
 30
0.0
 11
304.0
 21
-133.00000000000003
 31
0.0
  0
LINE
  8
0
 62
0
 10
304.0
 20
-133.00000000000003
 30
0.0
 11
304.0
 21
-130.00000000000003
 31
0.0
  0
LINE
  8
0
 62
0
 10
304.0
 20
-130.00000000000003
 30
0.0
 11
258.0
 21
-130.0
 31
0.0
  0
LINE
  8
0
 62
0
 10
258.0
 20
-130.00000000000003
 30
0.0
 11
258.0
 21
-133.00000000000003
 31
0.0
  0
LINE
  8
0
 62
0
 10
258.0
 20
-133.00000000000003
 30
0.0
 11
248.0
 21
-133.00000000000003
 31
0.0
  0
LINE
  8
0
 62
0
 10
248.0
 20
-133.00000000000003
 30
0.0
 11
248.0
 21
-130.00000000000003
 31
0.0
  0
LINE
  8
0
 62
0
 10
248.0
 20
-130.00000000000003
 30
0.0
 11
205.0
 21
-130.00000000000003
 31
0.0
  0
LINE
  8
0
 62
0
 10
204.99999999999997
 20
-130.0
 30
0.0
 11
204.99999999999997
 21
-133.0
 31
0.0
  0
LINE
  8
0
 62
0
 10
204.99999999999997
 20
-133.0
 30
0.0
 11
194.99999999999997
 21
-133.0
 31
0.0
  0
LINE
  8
0
 62
0
 10
194.99999999999994
 20
-133.0
 30
0.0
 11
194.99999999999994
 21
-130.0
 31
0.0
  0
LINE
  8
0
 62
0
 10
194.99999999999994
 20
-130.0
 30
0.0
 11
176.99999999999994
 21
-130.0
 31
0.0
  0
LINE
  8
0
 62
0
 10
176.99999999999994
 20
-130.0
 30
0.0
 11
176.99999999999994
 21
-150.0
 31
0.0
  0
LINE
  8
0
 62
0
 10
176.99999999999994
 20
-150.0
 30
0.0
 11
179.99999999999994
 21
-150.0
 31
0.0
  0
LINE
  8
0
 62
0
 10
179.99999999999994
 20
-150.0
 30
0.0
 11
179.99999999999994
 21
-160.0
 31
0.0
  0
LINE
  8
0
 62
0
 10
179.99999999999994
 20
-160.0
 30
0.0
 11
176.99999999999994
 21
-160.0
 31
0.0
  0
LINE
  8
0
 62
0
 10
176.99999999999994
 20
-160.0
 30
0.0
 11
176.99999999999994
 21
-180.0
 31
0.0
  0
LINE
  8
0
 62
0
 10
176.99999999999994
 20
-180.0
 30
0.0
 11
192.79999999999995
 21
-180.0
 31
0.0
  0
LINE
  8
0
 62
0
 10
192.79999999999995
 20
-180.00000000000003
 30
0.0
 11
192.79999999999995
 21
-183.00000000000003
 31
0.0
  0
LINE
  8
0
 62
0
 10
192.79999999999995
 20
-183.00000000000003
 30
0.0
 11
203.19999999999996
 21
-183.00000000000003
 31
0.0
  0
LINE
  8
0
 62
0
 10
203.19999999999996
 20
-183.00000000000003
 30
0.0
 11
203.19999999999996
 21
-180.00000000000003
 31
0.0
  0
LINE
  8
0
 62
0
 10
203.19999999999996
 20
-180.00000000000003
 30
0.0
 11
279.79999999999995
 21
-180.00000000000006
 31
0.0
  0
LINE
  8
0
 62
0
 10
279.8
 20
-180.00000000000006
 30
0.0
 11
279.8
 21
-183.00000000000006
 31
0.0
  0
LINE
  8
0
 62
0
 10
279.8
 20
-183.00000000000006
 30
0.0
 11
290.2
 21
-183.00000000000006
 31
0.0
  0
LINE
  8
0
 62
0
 10
290.2
 20
-183.00000000000006
 30
0.0
 11
290.2
 21
-180.00000000000006
 31
0.0
  0
LINE
  8
0
 62
0
 10
290.2
 20
-180.00000000000006
 30
0.0
 11
366.79999999999995
 21
-180.00000000000009
 31
0.0
  0
LINE
  8
0
 62
0
 10
366.80000000000007
 20
-180.00000000000009
 30
0.0
 11
366.80000000000007
 21
-183.00000000000009
 31
0.0
  0
LINE
  8
0
 62
0
 10
366.80000000000007
 20
-183.00000000000009
 30
0.0
 11
377.20000000000005
 21
-183.00000000000009
 31
0.0
  0
LINE
  8
0
 62
0
 10
377.20000000000005
 20
-183.00000000000009
 30
0.0
 11
377.20000000000005
 21
-180.00000000000009
 31
0.0
  0
LINE
  8
0
 62
0
 10
377.20000000000005
 20
-180.00000000000009
 30
0.0
 11
393.00000000000006
 21
-180.00000000000009
 31
0.0
  0
LINE
  8
0
 62
0
 10
393.00000000000006
 20
-160.00000000000009
 30
0.0
 11
393.00000000000006
 21
-180.00000000000009
 31
0.0
  0
LINE
  8
0
 62
0
 10
390.00000000000006
 20
-160.00000000000009
 30
0.0
 11
393.00000000000006
 21
-160.00000000000009
 31
0.0
  0
LINE
  8
0
 62
0
 10
390.00000000000006
 20
-150.00000000000006
 30
0.0
 11
390.00000000000006
 21
-160.00000000000006
 31
0.0
  0
LINE
  8
0
 62
0
 10
393.00000000000006
 20
-150.00000000000006
 30
0.0
 11
390.00000000000006
 21
-150.00000000000006
 31
0.0
  0
LINE
  8
0
 62
0
 10
393.00000000000006
 20
-130.00000000000006
 30
0.0
 11
393.00000000000006
 21
-150.00000000000006
 31
0.0
  0
LINE
  8
0
 62
0
 10
296.0
 20
-174.00000000000006
 30
0.0
 11
296.0
 21
-164.00000000000006
 31
0.0
  0
LINE
  8
0
 62
0
 10
286.0
 20
-174.00000000000006
 30
0.0
 11
296.0
 21
-174.00000000000006
 31
0.0
  0
LINE
  8
0
 62
0
 10
286.0
 20
-164.00000000000006
 30
0.0
 11
286.0
 21
-174.00000000000006
 31
0.0
  0
LINE
  8
0
 62
0
 10
296.0
 20
-164.00000000000006
 30
0.0
 11
286.0
 21
-164.00000000000006
 31
0.0
  0
ENDBLK
  0
BLOCK
  8
0
  2
BODY006
 70
0
 10
0.0
 20
0.0
 30
0.0
  3
BODY006
  0
LINE
  8
0
 62
0
 10
173.99999999999994
 20
-320.0
 30
0.0
 11
189.79999999999995
 21
-320.0
 31
0.0
  0
LINE
  8
0
 62
0
 10
189.79999999999995
 20
-320.0
 30
0.0
 11
189.79999999999995
 21
-323.0
 31
0.0
  0
LINE
  8
0
 62
0
 10
189.79999999999995
 20
-323.0
 30
0.0
 11
200.19999999999996
 21
-323.0
 31
0.0
  0
LINE
  8
0
 62
0
 10
200.19999999999996
 20
-323.0
 30
0.0
 11
200.19999999999996
 21
-320.0
 31
0.0
  0
LINE
  8
0
 62
0
 10
200.19999999999996
 20
-320.0
 30
0.0
 11
276.79999999999995
 21
-320.0
 31
0.0
  0
LINE
  8
0
 62
0
 10
276.8
 20
-320.0
 30
0.0
 11
276.8
 21
-323.0
 31
0.0
  0
LINE
  8
0
 62
0
 10
276.8
 20
-323.0
 30
0.0
 11
287.2
 21
-323.0
 31
0.0
  0
LINE
  8
0
 62
0
 10
287.2
 20
-323.0
 30
0.0
 11
287.2
 21
-320.0
 31
0.0
  0
LINE
  8
0
 62
0
 10
287.2
 20
-320.0
 30
0.0
 11
363.79999999999995
 21
-320.0
 31
0.0
  0
LINE
  8
0
 62
0
 10
363.80000000000007
 20
-320.00000000000006
 30
0.0
 11
363.80000000000007
 21
-323.00000000000006
 31
0.0
  0
LINE
  8
0
 62
0
 10
363.80000000000007
 20
-323.00000000000006
 30
0.0
 11
374.20000000000005
 21
-323.00000000000006
 31
0.0
  0
LINE
  8
0
 62
0
 10
374.20000000000005
 20
-323.00000000000006
 30
0.0
 11
374.20000000000005
 21
-320.00000000000006
 31
0.0
  0
LINE
  8
0
 62
0
 10
374.20000000000005
 20
-320.00000000000006
 30
0.0
 11
390.00000000000006
 21
-320.00000000000006
 31
0.0
  0
LINE
  8
0
 62
0
 10
390.00000000000006
 20
-300.00000000000006
 30
0.0
 11
390.00000000000006
 21
-320.00000000000006
 31
0.0
  0
LINE
  8
0
 62
0
 10
387.00000000000006
 20
-300.00000000000006
 30
0.0
 11
390.00000000000006
 21
-300.00000000000006
 31
0.0
  0
LINE
  8
0
 62
0
 10
387.00000000000006
 20
-290.00000000000006
 30
0.0
 11
387.00000000000006
 21
-300.00000000000006
 31
0.0
  0
LINE
  8
0
 62
0
 10
390.00000000000006
 20
-290.00000000000006
 30
0.0
 11
387.00000000000006
 21
-290.00000000000006
 31
0.0
  0
LINE
  8
0
 62
0
 10
390.00000000000006
 20
-270.00000000000006
 30
0.0
 11
390.00000000000006
 21
-290.00000000000006
 31
0.0
  0
LINE
  8
0
 62
0
 10
372.00000000000006
 20
-270.00000000000006
 30
0.0
 11
390.00000000000006
 21
-270.00000000000006
 31
0.0
  0
LINE
  8
0
 62
0
 10
372.00000000000006
 20
-273.00000000000006
 30
0.0
 11
372.00000000000006
 21
-270.00000000000006
 31
0.0
  0
LINE
  8
0
 62
0
 10
362.0
 20
-273.0
 30
0.0
 11
372.0
 21
-273.0
 31
0.0
  0
LINE
  8
0
 62
0
 10
362.0
 20
-270.0
 30
0.0
 11
362.0
 21
-273.0
 31
0.0
  0
LINE
  8
0
 62
0
 10
311.0
 20
-270.0
 30
0.0
 11
362.0
 21
-270.0
 31
0.0
  0
LINE
  8
0
 62
0
 10
311.0
 20
-273.0
 30
0.0
 11
311.0
 21
-270.0
 31
0.0
  0
LINE
  8
0
 62
0
 10
301.0
 20
-273.0
 30
0.0
 11
311.0
 21
-273.0
 31
0.0
  0
LINE
  8
0
 62
0
 10
301.0
 20
-270.0
 30
0.0
 11
301.0
 21
-273.0
 31
0.0
  0
LINE
  8
0
 62
0
 10
255.0
 20
-270.0
 30
0.0
 11
301.0
 21
-270.0
 31
0.0
  0
LINE
  8
0
 62
0
 10
255.0
 20
-273.0
 30
0.0
 11
255.0
 21
-270.0
 31
0.0
  0
LINE
  8
0
 62
0
 10
245.0
 20
-273.0
 30
0.0
 11
255.0
 21
-273.0
 31
0.0
  0
LINE
  8
0
 62
0
 10
245.0
 20
-270.0
 30
0.0
 11
245.0
 21
-273.0
 31
0.0
  0
LINE
  8
0
 62
0
 10
201.99999999999997
 20
-270.0
 30
0.0
 11
244.99999999999997
 21
-270.0
 31
0.0
  0
LINE
  8
0
 62
0
 10
201.99999999999997
 20
-273.0
 30
0.0
 11
201.99999999999997
 21
-270.0
 31
0.0
  0
LINE
  8
0
 62
0
 10
191.99999999999994
 20
-272.99999999999994
 30
0.0
 11
201.99999999999994
 21
-272.99999999999994
 31
0.0
  0
LINE
  8
0
 62
0
 10
191.99999999999994
 20
-269.99999999999994
 30
0.0
 11
191.99999999999994
 21
-272.99999999999994
 31
0.0
  0
LINE
  8
0
 62
0
 10
173.99999999999994
 20
-269.99999999999994
 30
0.0
 11
191.99999999999994
 21
-269.99999999999994
 31
0.0
  0
LINE
  8
0
 62
0
 10
173.99999999999994
 20
-290.0
 30
0.0
 11
173.99999999999994
 21
-270.0
 31
0.0
  0
LINE
  8
0
 62
0
 10
176.99999999999994
 20
-290.0
 30
0.0
 11
173.99999999999994
 21
-290.0
 31
0.0
  0
LINE
  8
0
 62
0
 10
176.99999999999994
 20
-300.0
 30
0.0
 11
176.99999999999994
 21
-290.0
 31
0.0
  0
LINE
  8
0
 62
0
 10
173.99999999999994
 20
-300.0
 30
0.0
 11
176.99999999999994
 21
-300.0
 31
0.0
  0
LINE
  8
0
 62
0
 10
173.99999999999994
 20
-320.0
 30
0.0
 11
173.99999999999994
 21
-300.0
 31
0.0
  0
ENDBLK
  0
BLOCK
  8
0
  2
BODY007
 70
0
 10
0.0
 20
0.0
 30
0.0
  3
BODY007
  0
LINE
  8
0
 62
0
 10
180.0
 20
-201.0
 30
0.0
 11
189.8
 21
-201.0
 31
0.0
  0
LINE
  8
0
 62
0
 10
189.8
 20
-201.0
 30
0.0
 11
189.8
 21
-198.0
 31
0.0
  0
LINE
  8
0
 62
0
 10
189.8
 20
-198.0
 30
0.0
 11
200.2
 21
-198.0
 31
0.0
  0
LINE
  8
0
 62
0
 10
200.2
 20
-198.0
 30
0.0
 11
200.2
 21
-201.0
 31
0.0
  0
LINE
  8
0
 62
0
 10
200.2
 20
-201.0
 30
0.0
 11
324.8
 21
-201.0
 31
0.0
  0
LINE
  8
0
 62
0
 10
324.8
 20
-201.0
 30
0.0
 11
324.8
 21
-198.0
 31
0.0
  0
LINE
  8
0
 62
0
 10
324.8
 20
-198.0
 30
0.0
 11
335.2
 21
-198.0
 31
0.0
  0
LINE
  8
0
 62
0
 10
335.2
 20
-198.0
 30
0.0
 11
335.2
 21
-201.0
 31
0.0
  0
LINE
  8
0
 62
0
 10
335.2
 20
-201.0
 30
0.0
 11
459.8
 21
-201.0
 31
0.0
  0
LINE
  8
0
 62
0
 10
459.8
 20
-201.0
 30
0.0
 11
459.8
 21
-198.0
 31
0.0
  0
LINE
  8
0
 62
0
 10
459.8
 20
-198.0
 30
0.0
 11
470.2
 21
-198.0
 31
0.0
  0
LINE
  8
0
 62
0
 10
470.2
 20
-198.0
 30
0.0
 11
470.2
 21
-201.0
 31
0.0
  0
LINE
  8
0
 62
0
 10
470.2
 20
-201.0
 30
0.0
 11
480.0
 21
-201.0
 31
0.0
  0
LINE
  8
0
 62
0
 10
480.0
 20
-220.8
 30
0.0
 11
480.0
 21
-201.0
 31
0.0
  0
LINE
  8
0
 62
0
 10
483.0
 20
-220.8
 30
0.0
 11
480.0
 21
-220.8
 31
0.0
  0
LINE
  8
0
 62
0
 10
483.0
 20
-231.2
 30
0.0
 11
483.0
 21
-220.79999999999998
 31
0.0
  0
LINE
  8
0
 62
0
 10
480.0
 20
-231.2
 30
0.0
 11
483.0
 21
-231.2
 31
0.0
  0
LINE
  8
0
 62
0
 10
480.0
 20
-251.0
 30
0.0
 11
480.0
 21
-231.2
 31
0.0
  0
LINE
  8
0
 62
0
 10
335.0
 20
-251.0
 30
0.0
 11
480.0
 21
-251.0
 31
0.0
  0
LINE
  8
0
 62
0
 10
335.0
 20
-248.0
 30
0.0
 11
335.0
 21
-251.0
 31
0.0
  0
LINE
  8
0
 62
0
 10
325.0
 20
-248.0
 30
0.0
 11
335.0
 21
-248.0
 31
0.0
  0
LINE
  8
0
 62
0
 10
325.0
 20
-251.0
 30
0.0
 11
325.0
 21
-248.0
 31
0.0
  0
LINE
  8
0
 62
0
 10
180.0
 20
-251.0
 30
0.0
 11
325.0
 21
-251.0
 31
0.0
  0
LINE
  8
0
 62
0
 10
180.0
 20
-231.2
 30
0.0
 11
180.0
 21
-251.0
 31
0.0
  0
LINE
  8
0
 62
0
 10
180.0
 20
-231.2
 30
0.0
 11
177.0
 21
-231.2
 31
0.0
  0
LINE
  8
0
 62
0
 10
177.0
 20
-231.2
 30
0.0
 11
177.0
 21
-220.79999999999998
 31
0.0
  0
LINE
  8
0
 62
0
 10
177.0
 20
-220.8
 30
0.0
 11
180.0
 21
-220.8
 31
0.0
  0
LINE
  8
0
 62
0
 10
180.0
 20
-201.0
 30
0.0
 11
180.0
 21
-220.8
 31
0.0
  0
ENDBLK
  0
BLOCK
  8
0
  2
BODY008
 70
0
 10
0.0
 20
0.0
 30
0.0
  3
BODY008
  0
LINE
  8
0
 62
0
 10
178.0
 20
-75.20000000000003
 30
0.0
 11
175.0
 21
-75.20000000000003
 31
0.0
  0
LINE
  8
0
 62
0
 10
175.0
 20
-75.20000000000003
 30
0.0
 11
175.0
 21
-64.80000000000004
 31
0.0
  0
LINE
  8
0
 62
0
 10
175.0
 20
-64.80000000000003
 30
0.0
 11
178.0
 21
-64.80000000000003
 31
0.0
  0
LINE
  8
0
 62
0
 10
178.0
 20
-45.00000000000003
 30
0.0
 11
178.0
 21
-64.80000000000003
 31
0.0
  0
LINE
  8
0
 62
0
 10
178.0
 20
-45.00000000000003
 30
0.0
 11
187.8
 21
-45.00000000000003
 31
0.0
  0
LINE
  8
0
 62
0
 10
187.8
 20
-45.00000000000003
 30
0.0
 11
187.8
 21
-42.00000000000003
 31
0.0
  0
LINE
  8
0
 62
0
 10
187.8
 20
-42.00000000000003
 30
0.0
 11
198.2
 21
-42.00000000000003
 31
0.0
  0
LINE
  8
0
 62
0
 10
198.2
 20
-42.00000000000003
 30
0.0
 11
198.2
 21
-45.00000000000003
 31
0.0
  0
LINE
  8
0
 62
0
 10
198.2
 20
-45.00000000000003
 30
0.0
 11
322.8
 21
-45.00000000000003
 31
0.0
  0
LINE
  8
0
 62
0
 10
322.8
 20
-45.00000000000003
 30
0.0
 11
322.8
 21
-42.00000000000003
 31
0.0
  0
LINE
  8
0
 62
0
 10
322.8
 20
-42.00000000000003
 30
0.0
 11
333.2
 21
-42.00000000000003
 31
0.0
  0
LINE
  8
0
 62
0
 10
333.2
 20
-42.00000000000003
 30
0.0
 11
333.2
 21
-45.00000000000003
 31
0.0
  0
LINE
  8
0
 62
0
 10
333.2
 20
-45.00000000000003
 30
0.0
 11
457.8
 21
-45.00000000000003
 31
0.0
  0
LINE
  8
0
 62
0
 10
457.8
 20
-45.00000000000003
 30
0.0
 11
457.8
 21
-42.00000000000003
 31
0.0
  0
LINE
  8
0
 62
0
 10
457.8
 20
-42.00000000000003
 30
0.0
 11
468.2
 21
-42.00000000000003
 31
0.0
  0
LINE
  8
0
 62
0
 10
468.2
 20
-42.00000000000003
 30
0.0
 11
468.2
 21
-45.00000000000003
 31
0.0
  0
LINE
  8
0
 62
0
 10
468.2
 20
-45.00000000000003
 30
0.0
 11
478.0
 21
-45.00000000000003
 31
0.0
  0
LINE
  8
0
 62
0
 10
478.0
 20
-45.00000000000003
 30
0.0
 11
478.0
 21
-64.80000000000003
 31
0.0
  0
LINE
  8
0
 62
0
 10
478.0
 20
-64.80000000000003
 30
0.0
 11
481.0
 21
-64.80000000000003
 31
0.0
  0
LINE
  8
0
 62
0
 10
481.0
 20
-64.80000000000003
 30
0.0
 11
481.0
 21
-75.20000000000002
 31
0.0
  0
LINE
  8
0
 62
0
 10
481.0
 20
-75.20000000000003
 30
0.0
 11
478.0
 21
-75.20000000000003
 31
0.0
  0
LINE
  8
0
 62
0
 10
478.0
 20
-75.20000000000003
 30
0.0
 11
478.0
 21
-95.00000000000003
 31
0.0
  0
LINE
  8
0
 62
0
 10
333.0
 20
-95.00000000000003
 30
0.0
 11
478.0
 21
-95.00000000000003
 31
0.0
  0
LINE
  8
0
 62
0
 10
333.0
 20
-92.00000000000003
 30
0.0
 11
333.0
 21
-95.00000000000003
 31
0.0
  0
LINE
  8
0
 62
0
 10
323.0
 20
-92.00000000000003
 30
0.0
 11
333.0
 21
-92.00000000000003
 31
0.0
  0
LINE
  8
0
 62
0
 10
323.0
 20
-95.00000000000003
 30
0.0
 11
323.0
 21
-92.00000000000003
 31
0.0
  0
LINE
  8
0
 62
0
 10
178.0
 20
-95.00000000000003
 30
0.0
 11
323.0
 21
-95.00000000000003
 31
0.0
  0
LINE
  8
0
 62
0
 10
178.0
 20
-75.20000000000003
 30
0.0
 11
178.0
 21
-95.00000000000003
 31
0.0
  0
ENDBLK
  0
ENDSEC
  0
SECTION
  2
ENTITIES
  0
INSERT
  2
BODY
  8
0
 62
0
 10
0.0
 20
0.0
 30
0.0
  0
INSERT
  2
BODY001
  8
0
 62
0
 10
0.0
 20
0.0
 30
0.0
  0
INSERT
  2
BODY002
  8
0
 62
0
 10
0.0
 20
0.0
 30
0.0
  0
INSERT
  2
BODY004
  8
0
 62
0
 10
0.0
 20
0.0
 30
0.0
  0
INSERT
  2
BODY003
  8
0
 62
0
 10
0.0
 20
0.0
 30
0.0
  0
INSERT
  2
BODY005
  8
0
 62
0
 10
0.0
 20
0.0
 30
0.0
  0
INSERT
  2
BODY006
  8
0
 62
0
 10
0.0
 20
0.0
 30
0.0
  0
INSERT
  2
BODY007
  8
0
 62
0
 10
0.0
 20
0.0
 30
0.0
  0
INSERT
  2
BODY008
  8
0
 62
0
 10
0.0
 20
0.0
 30
0.0
  0
ENDSEC
  0
EOF
