M48
; DRILL file {KiCad (5.1.7)-1} date 04/06/21 19:20:54
; FORMAT={-:-/ absolute / inch / decimal}
; #@! TF.CreationDate,2021-04-06T19:20:54+02:00
; #@! TF.GenerationSoftware,Kicad,Pcbnew,(5.1.7)-1
; #@! TF.FileFunction,Plated,1,2,PTH
FMAT,2
INCH
T1C0.0157
T2C0.0394
T3C0.0787
%
G90
G05
T1
X3.4559Y-5.3258
X3.4559Y-5.6258
X3.5559Y-5.4258
X3.6059Y-5.2758
X3.6809Y-4.6258
X3.7059Y-3.4008
X3.7309Y-5.1008
X3.7659Y-4.8608
X3.8059Y-4.9008
X3.8059Y-5.1008
X3.8059Y-5.4258
X3.9659Y-4.9008
X3.9809Y-5.2758
X3.9809Y-5.4258
X4.1059Y-4.8758
X4.1809Y-3.4008
X4.7809Y-3.6258
X5.0059Y-4.1758
X5.1309Y-4.2508
X5.1559Y-3.8258
X5.1809Y-4.4008
T2
X4.4809Y-3.2458
X4.5809Y-3.2458
X4.6809Y-3.2458
X3.6159Y-4.3758
X3.6159Y-4.9758
X3.7159Y-4.3758
X3.7159Y-4.9758
X3.8159Y-4.3758
X3.8159Y-4.9758
X3.9159Y-4.3758
X3.9159Y-4.9758
X4.0159Y-4.3758
X4.0159Y-4.9758
X4.1159Y-4.3758
X4.1159Y-4.9758
X3.0009Y-3.2458
X3.1009Y-3.2458
X3.2009Y-3.2458
X2.5109Y-3.6008
X2.5109Y-3.7008
X2.5109Y-3.8008
X2.5109Y-3.9008
X2.5109Y-4.0008
X2.5109Y-4.1008
X5.2509Y-3.5758
X5.2509Y-3.6758
X5.2509Y-3.7758
X5.2509Y-3.8758
X5.2509Y-3.9758
X5.2509Y-4.0758
T3
X3.1059Y-4.1258
X3.1059Y-5.4758
X4.6809Y-5.4758
X4.5059Y-4.1258
X4.0059Y-4.1258
X3.5059Y-4.1258
T0
M30
