%TF.GenerationSoftware,KiCad,Pcbnew,(5.1.7)-1*%
%TF.CreationDate,2021-04-06T19:20:52+02:00*%
%TF.ProjectId,central-panel,63656e74-7261-46c2-9d70-616e656c2e6b,rev?*%
%TF.SameCoordinates,Original*%
%TF.FileFunction,Copper,L1,Top*%
%TF.FilePolarity,Positive*%
%FSLAX46Y46*%
G04 Gerber Fmt 4.6, Leading zero omitted, Abs format (unit mm)*
G04 Created by KiCad (PCBNEW (5.1.7)-1) date 2021-04-06 19:20:52*
%MOMM*%
%LPD*%
G01*
G04 APERTURE LIST*
%TA.AperFunction,ComponentPad*%
%ADD10C,3.000000*%
%TD*%
%TA.AperFunction,ComponentPad*%
%ADD11O,1.700000X1.700000*%
%TD*%
%TA.AperFunction,ComponentPad*%
%ADD12R,1.700000X1.700000*%
%TD*%
%TA.AperFunction,SMDPad,CuDef*%
%ADD13R,1.500000X1.000000*%
%TD*%
%TA.AperFunction,ComponentPad*%
%ADD14C,1.500000*%
%TD*%
%TA.AperFunction,ComponentPad*%
%ADD15R,1.500000X1.500000*%
%TD*%
%TA.AperFunction,ViaPad*%
%ADD16C,0.800000*%
%TD*%
%TA.AperFunction,Conductor*%
%ADD17C,0.250000*%
%TD*%
G04 APERTURE END LIST*
%TO.P,C3,2*%
%TO.N,GND*%
%TA.AperFunction,SMDPad,CuDef*%
G36*
G01*
X123324999Y-91549000D02*
X124625001Y-91549000D01*
G75*
G02*
X124875000Y-91798999I0J-249999D01*
G01*
X124875000Y-92449001D01*
G75*
G02*
X124625001Y-92699000I-249999J0D01*
G01*
X123324999Y-92699000D01*
G75*
G02*
X123075000Y-92449001I0J249999D01*
G01*
X123075000Y-91798999D01*
G75*
G02*
X123324999Y-91549000I249999J0D01*
G01*
G37*
%TD.AperFunction*%
%TO.P,C3,1*%
%TO.N,VCC*%
%TA.AperFunction,SMDPad,CuDef*%
G36*
G01*
X123324999Y-88599000D02*
X124625001Y-88599000D01*
G75*
G02*
X124875000Y-88848999I0J-249999D01*
G01*
X124875000Y-89499001D01*
G75*
G02*
X124625001Y-89749000I-249999J0D01*
G01*
X123324999Y-89749000D01*
G75*
G02*
X123075000Y-89499001I0J249999D01*
G01*
X123075000Y-88848999D01*
G75*
G02*
X123324999Y-88599000I249999J0D01*
G01*
G37*
%TD.AperFunction*%
%TD*%
D10*
%TO.P,TP6,1*%
%TO.N,VCC*%
X118895000Y-139085000D03*
%TD*%
%TO.P,U2,20*%
%TO.N,Net-(U2-Pad20)*%
%TA.AperFunction,SMDPad,CuDef*%
G36*
G01*
X94925000Y-142745000D02*
X94925000Y-143045000D01*
G75*
G02*
X94775000Y-143195000I-150000J0D01*
G01*
X93175000Y-143195000D01*
G75*
G02*
X93025000Y-143045000I0J150000D01*
G01*
X93025000Y-142745000D01*
G75*
G02*
X93175000Y-142595000I150000J0D01*
G01*
X94775000Y-142595000D01*
G75*
G02*
X94925000Y-142745000I0J-150000D01*
G01*
G37*
%TD.AperFunction*%
%TO.P,U2,19*%
%TO.N,Net-(U2-Pad19)*%
%TA.AperFunction,SMDPad,CuDef*%
G36*
G01*
X94925000Y-141475000D02*
X94925000Y-141775000D01*
G75*
G02*
X94775000Y-141925000I-150000J0D01*
G01*
X93175000Y-141925000D01*
G75*
G02*
X93025000Y-141775000I0J150000D01*
G01*
X93025000Y-141475000D01*
G75*
G02*
X93175000Y-141325000I150000J0D01*
G01*
X94775000Y-141325000D01*
G75*
G02*
X94925000Y-141475000I0J-150000D01*
G01*
G37*
%TD.AperFunction*%
%TO.P,U2,18*%
%TO.N,/CLK*%
%TA.AperFunction,SMDPad,CuDef*%
G36*
G01*
X94925000Y-140205000D02*
X94925000Y-140505000D01*
G75*
G02*
X94775000Y-140655000I-150000J0D01*
G01*
X93175000Y-140655000D01*
G75*
G02*
X93025000Y-140505000I0J150000D01*
G01*
X93025000Y-140205000D01*
G75*
G02*
X93175000Y-140055000I150000J0D01*
G01*
X94775000Y-140055000D01*
G75*
G02*
X94925000Y-140205000I0J-150000D01*
G01*
G37*
%TD.AperFunction*%
%TO.P,U2,17*%
%TO.N,/DIO*%
%TA.AperFunction,SMDPad,CuDef*%
G36*
G01*
X94925000Y-138935000D02*
X94925000Y-139235000D01*
G75*
G02*
X94775000Y-139385000I-150000J0D01*
G01*
X93175000Y-139385000D01*
G75*
G02*
X93025000Y-139235000I0J150000D01*
G01*
X93025000Y-138935000D01*
G75*
G02*
X93175000Y-138785000I150000J0D01*
G01*
X94775000Y-138785000D01*
G75*
G02*
X94925000Y-138935000I0J-150000D01*
G01*
G37*
%TD.AperFunction*%
%TO.P,U2,16*%
%TO.N,VCC*%
%TA.AperFunction,SMDPad,CuDef*%
G36*
G01*
X94925000Y-137665000D02*
X94925000Y-137965000D01*
G75*
G02*
X94775000Y-138115000I-150000J0D01*
G01*
X93175000Y-138115000D01*
G75*
G02*
X93025000Y-137965000I0J150000D01*
G01*
X93025000Y-137665000D01*
G75*
G02*
X93175000Y-137515000I150000J0D01*
G01*
X94775000Y-137515000D01*
G75*
G02*
X94925000Y-137665000I0J-150000D01*
G01*
G37*
%TD.AperFunction*%
%TO.P,U2,15*%
%TO.N,/CA1*%
%TA.AperFunction,SMDPad,CuDef*%
G36*
G01*
X94925000Y-136395000D02*
X94925000Y-136695000D01*
G75*
G02*
X94775000Y-136845000I-150000J0D01*
G01*
X93175000Y-136845000D01*
G75*
G02*
X93025000Y-136695000I0J150000D01*
G01*
X93025000Y-136395000D01*
G75*
G02*
X93175000Y-136245000I150000J0D01*
G01*
X94775000Y-136245000D01*
G75*
G02*
X94925000Y-136395000I0J-150000D01*
G01*
G37*
%TD.AperFunction*%
%TO.P,U2,14*%
%TO.N,/CA2*%
%TA.AperFunction,SMDPad,CuDef*%
G36*
G01*
X94925000Y-135125000D02*
X94925000Y-135425000D01*
G75*
G02*
X94775000Y-135575000I-150000J0D01*
G01*
X93175000Y-135575000D01*
G75*
G02*
X93025000Y-135425000I0J150000D01*
G01*
X93025000Y-135125000D01*
G75*
G02*
X93175000Y-134975000I150000J0D01*
G01*
X94775000Y-134975000D01*
G75*
G02*
X94925000Y-135125000I0J-150000D01*
G01*
G37*
%TD.AperFunction*%
%TO.P,U2,13*%
%TO.N,/CA3*%
%TA.AperFunction,SMDPad,CuDef*%
G36*
G01*
X94925000Y-133855000D02*
X94925000Y-134155000D01*
G75*
G02*
X94775000Y-134305000I-150000J0D01*
G01*
X93175000Y-134305000D01*
G75*
G02*
X93025000Y-134155000I0J150000D01*
G01*
X93025000Y-133855000D01*
G75*
G02*
X93175000Y-133705000I150000J0D01*
G01*
X94775000Y-133705000D01*
G75*
G02*
X94925000Y-133855000I0J-150000D01*
G01*
G37*
%TD.AperFunction*%
%TO.P,U2,12*%
%TO.N,/CA4*%
%TA.AperFunction,SMDPad,CuDef*%
G36*
G01*
X94925000Y-132585000D02*
X94925000Y-132885000D01*
G75*
G02*
X94775000Y-133035000I-150000J0D01*
G01*
X93175000Y-133035000D01*
G75*
G02*
X93025000Y-132885000I0J150000D01*
G01*
X93025000Y-132585000D01*
G75*
G02*
X93175000Y-132435000I150000J0D01*
G01*
X94775000Y-132435000D01*
G75*
G02*
X94925000Y-132585000I0J-150000D01*
G01*
G37*
%TD.AperFunction*%
%TO.P,U2,11*%
%TO.N,Net-(U2-Pad11)*%
%TA.AperFunction,SMDPad,CuDef*%
G36*
G01*
X94925000Y-131315000D02*
X94925000Y-131615000D01*
G75*
G02*
X94775000Y-131765000I-150000J0D01*
G01*
X93175000Y-131765000D01*
G75*
G02*
X93025000Y-131615000I0J150000D01*
G01*
X93025000Y-131315000D01*
G75*
G02*
X93175000Y-131165000I150000J0D01*
G01*
X94775000Y-131165000D01*
G75*
G02*
X94925000Y-131315000I0J-150000D01*
G01*
G37*
%TD.AperFunction*%
%TO.P,U2,10*%
%TO.N,Net-(U2-Pad10)*%
%TA.AperFunction,SMDPad,CuDef*%
G36*
G01*
X104125000Y-131315000D02*
X104125000Y-131615000D01*
G75*
G02*
X103975000Y-131765000I-150000J0D01*
G01*
X102375000Y-131765000D01*
G75*
G02*
X102225000Y-131615000I0J150000D01*
G01*
X102225000Y-131315000D01*
G75*
G02*
X102375000Y-131165000I150000J0D01*
G01*
X103975000Y-131165000D01*
G75*
G02*
X104125000Y-131315000I0J-150000D01*
G01*
G37*
%TD.AperFunction*%
%TO.P,U2,9*%
%TO.N,/DPX*%
%TA.AperFunction,SMDPad,CuDef*%
G36*
G01*
X104125000Y-132585000D02*
X104125000Y-132885000D01*
G75*
G02*
X103975000Y-133035000I-150000J0D01*
G01*
X102375000Y-133035000D01*
G75*
G02*
X102225000Y-132885000I0J150000D01*
G01*
X102225000Y-132585000D01*
G75*
G02*
X102375000Y-132435000I150000J0D01*
G01*
X103975000Y-132435000D01*
G75*
G02*
X104125000Y-132585000I0J-150000D01*
G01*
G37*
%TD.AperFunction*%
%TO.P,U2,8*%
%TO.N,/SEG_G*%
%TA.AperFunction,SMDPad,CuDef*%
G36*
G01*
X104125000Y-133855000D02*
X104125000Y-134155000D01*
G75*
G02*
X103975000Y-134305000I-150000J0D01*
G01*
X102375000Y-134305000D01*
G75*
G02*
X102225000Y-134155000I0J150000D01*
G01*
X102225000Y-133855000D01*
G75*
G02*
X102375000Y-133705000I150000J0D01*
G01*
X103975000Y-133705000D01*
G75*
G02*
X104125000Y-133855000I0J-150000D01*
G01*
G37*
%TD.AperFunction*%
%TO.P,U2,7*%
%TO.N,/SEG_F*%
%TA.AperFunction,SMDPad,CuDef*%
G36*
G01*
X104125000Y-135125000D02*
X104125000Y-135425000D01*
G75*
G02*
X103975000Y-135575000I-150000J0D01*
G01*
X102375000Y-135575000D01*
G75*
G02*
X102225000Y-135425000I0J150000D01*
G01*
X102225000Y-135125000D01*
G75*
G02*
X102375000Y-134975000I150000J0D01*
G01*
X103975000Y-134975000D01*
G75*
G02*
X104125000Y-135125000I0J-150000D01*
G01*
G37*
%TD.AperFunction*%
%TO.P,U2,6*%
%TO.N,/SEG_E*%
%TA.AperFunction,SMDPad,CuDef*%
G36*
G01*
X104125000Y-136395000D02*
X104125000Y-136695000D01*
G75*
G02*
X103975000Y-136845000I-150000J0D01*
G01*
X102375000Y-136845000D01*
G75*
G02*
X102225000Y-136695000I0J150000D01*
G01*
X102225000Y-136395000D01*
G75*
G02*
X102375000Y-136245000I150000J0D01*
G01*
X103975000Y-136245000D01*
G75*
G02*
X104125000Y-136395000I0J-150000D01*
G01*
G37*
%TD.AperFunction*%
%TO.P,U2,5*%
%TO.N,/SEG_D*%
%TA.AperFunction,SMDPad,CuDef*%
G36*
G01*
X104125000Y-137665000D02*
X104125000Y-137965000D01*
G75*
G02*
X103975000Y-138115000I-150000J0D01*
G01*
X102375000Y-138115000D01*
G75*
G02*
X102225000Y-137965000I0J150000D01*
G01*
X102225000Y-137665000D01*
G75*
G02*
X102375000Y-137515000I150000J0D01*
G01*
X103975000Y-137515000D01*
G75*
G02*
X104125000Y-137665000I0J-150000D01*
G01*
G37*
%TD.AperFunction*%
%TO.P,U2,4*%
%TO.N,/SEG_C*%
%TA.AperFunction,SMDPad,CuDef*%
G36*
G01*
X104125000Y-138935000D02*
X104125000Y-139235000D01*
G75*
G02*
X103975000Y-139385000I-150000J0D01*
G01*
X102375000Y-139385000D01*
G75*
G02*
X102225000Y-139235000I0J150000D01*
G01*
X102225000Y-138935000D01*
G75*
G02*
X102375000Y-138785000I150000J0D01*
G01*
X103975000Y-138785000D01*
G75*
G02*
X104125000Y-138935000I0J-150000D01*
G01*
G37*
%TD.AperFunction*%
%TO.P,U2,3*%
%TO.N,/SEG_B*%
%TA.AperFunction,SMDPad,CuDef*%
G36*
G01*
X104125000Y-140205000D02*
X104125000Y-140505000D01*
G75*
G02*
X103975000Y-140655000I-150000J0D01*
G01*
X102375000Y-140655000D01*
G75*
G02*
X102225000Y-140505000I0J150000D01*
G01*
X102225000Y-140205000D01*
G75*
G02*
X102375000Y-140055000I150000J0D01*
G01*
X103975000Y-140055000D01*
G75*
G02*
X104125000Y-140205000I0J-150000D01*
G01*
G37*
%TD.AperFunction*%
%TO.P,U2,2*%
%TO.N,/SEG_A*%
%TA.AperFunction,SMDPad,CuDef*%
G36*
G01*
X104125000Y-141475000D02*
X104125000Y-141775000D01*
G75*
G02*
X103975000Y-141925000I-150000J0D01*
G01*
X102375000Y-141925000D01*
G75*
G02*
X102225000Y-141775000I0J150000D01*
G01*
X102225000Y-141475000D01*
G75*
G02*
X102375000Y-141325000I150000J0D01*
G01*
X103975000Y-141325000D01*
G75*
G02*
X104125000Y-141475000I0J-150000D01*
G01*
G37*
%TD.AperFunction*%
%TO.P,U2,1*%
%TO.N,GND*%
%TA.AperFunction,SMDPad,CuDef*%
G36*
G01*
X104125000Y-142745000D02*
X104125000Y-143045000D01*
G75*
G02*
X103975000Y-143195000I-150000J0D01*
G01*
X102375000Y-143195000D01*
G75*
G02*
X102225000Y-143045000I0J150000D01*
G01*
X102225000Y-142745000D01*
G75*
G02*
X102375000Y-142595000I150000J0D01*
G01*
X103975000Y-142595000D01*
G75*
G02*
X104125000Y-142745000I0J-150000D01*
G01*
G37*
%TD.AperFunction*%
%TD*%
%TO.P,R6,2*%
%TO.N,/DIO*%
%TA.AperFunction,SMDPad,CuDef*%
G36*
G01*
X128655000Y-112055000D02*
X128655000Y-111505000D01*
G75*
G02*
X128855000Y-111305000I200000J0D01*
G01*
X129255000Y-111305000D01*
G75*
G02*
X129455000Y-111505000I0J-200000D01*
G01*
X129455000Y-112055000D01*
G75*
G02*
X129255000Y-112255000I-200000J0D01*
G01*
X128855000Y-112255000D01*
G75*
G02*
X128655000Y-112055000I0J200000D01*
G01*
G37*
%TD.AperFunction*%
%TO.P,R6,1*%
%TO.N,VCC*%
%TA.AperFunction,SMDPad,CuDef*%
G36*
G01*
X127005000Y-112055000D02*
X127005000Y-111505000D01*
G75*
G02*
X127205000Y-111305000I200000J0D01*
G01*
X127605000Y-111305000D01*
G75*
G02*
X127805000Y-111505000I0J-200000D01*
G01*
X127805000Y-112055000D01*
G75*
G02*
X127605000Y-112255000I-200000J0D01*
G01*
X127205000Y-112255000D01*
G75*
G02*
X127005000Y-112055000I0J200000D01*
G01*
G37*
%TD.AperFunction*%
%TD*%
%TO.P,R5,2*%
%TO.N,/CLK*%
%TA.AperFunction,SMDPad,CuDef*%
G36*
G01*
X128655000Y-108245000D02*
X128655000Y-107695000D01*
G75*
G02*
X128855000Y-107495000I200000J0D01*
G01*
X129255000Y-107495000D01*
G75*
G02*
X129455000Y-107695000I0J-200000D01*
G01*
X129455000Y-108245000D01*
G75*
G02*
X129255000Y-108445000I-200000J0D01*
G01*
X128855000Y-108445000D01*
G75*
G02*
X128655000Y-108245000I0J200000D01*
G01*
G37*
%TD.AperFunction*%
%TO.P,R5,1*%
%TO.N,VCC*%
%TA.AperFunction,SMDPad,CuDef*%
G36*
G01*
X127005000Y-108245000D02*
X127005000Y-107695000D01*
G75*
G02*
X127205000Y-107495000I200000J0D01*
G01*
X127605000Y-107495000D01*
G75*
G02*
X127805000Y-107695000I0J-200000D01*
G01*
X127805000Y-108245000D01*
G75*
G02*
X127605000Y-108445000I-200000J0D01*
G01*
X127205000Y-108445000D01*
G75*
G02*
X127005000Y-108245000I0J200000D01*
G01*
G37*
%TD.AperFunction*%
%TD*%
D11*
%TO.P,J4,6*%
%TO.N,VCC*%
X133373000Y-90825000D03*
%TO.P,J4,5*%
%TO.N,/ENABLE_B*%
X133373000Y-93365000D03*
%TO.P,J4,4*%
%TO.N,/ENABLE_A*%
X133373000Y-95905000D03*
%TO.P,J4,3*%
%TO.N,/CLK*%
X133373000Y-98445000D03*
%TO.P,J4,2*%
%TO.N,/DIO*%
X133373000Y-100985000D03*
D12*
%TO.P,J4,1*%
%TO.N,GND*%
X133373000Y-103525000D03*
%TD*%
%TO.P,C4,2*%
%TO.N,GND*%
%TA.AperFunction,SMDPad,CuDef*%
G36*
G01*
X126900000Y-91290000D02*
X127400000Y-91290000D01*
G75*
G02*
X127625000Y-91515000I0J-225000D01*
G01*
X127625000Y-91965000D01*
G75*
G02*
X127400000Y-92190000I-225000J0D01*
G01*
X126900000Y-92190000D01*
G75*
G02*
X126675000Y-91965000I0J225000D01*
G01*
X126675000Y-91515000D01*
G75*
G02*
X126900000Y-91290000I225000J0D01*
G01*
G37*
%TD.AperFunction*%
%TO.P,C4,1*%
%TO.N,VCC*%
%TA.AperFunction,SMDPad,CuDef*%
G36*
G01*
X126900000Y-89740000D02*
X127400000Y-89740000D01*
G75*
G02*
X127625000Y-89965000I0J-225000D01*
G01*
X127625000Y-90415000D01*
G75*
G02*
X127400000Y-90640000I-225000J0D01*
G01*
X126900000Y-90640000D01*
G75*
G02*
X126675000Y-90415000I0J225000D01*
G01*
X126675000Y-89965000D01*
G75*
G02*
X126900000Y-89740000I225000J0D01*
G01*
G37*
%TD.AperFunction*%
%TD*%
%TO.P,C2,2*%
%TO.N,GND*%
%TA.AperFunction,SMDPad,CuDef*%
G36*
G01*
X86820000Y-138835000D02*
X86820000Y-139335000D01*
G75*
G02*
X86595000Y-139560000I-225000J0D01*
G01*
X86145000Y-139560000D01*
G75*
G02*
X85920000Y-139335000I0J225000D01*
G01*
X85920000Y-138835000D01*
G75*
G02*
X86145000Y-138610000I225000J0D01*
G01*
X86595000Y-138610000D01*
G75*
G02*
X86820000Y-138835000I0J-225000D01*
G01*
G37*
%TD.AperFunction*%
%TO.P,C2,1*%
%TO.N,/DIO*%
%TA.AperFunction,SMDPad,CuDef*%
G36*
G01*
X88370000Y-138835000D02*
X88370000Y-139335000D01*
G75*
G02*
X88145000Y-139560000I-225000J0D01*
G01*
X87695000Y-139560000D01*
G75*
G02*
X87470000Y-139335000I0J225000D01*
G01*
X87470000Y-138835000D01*
G75*
G02*
X87695000Y-138610000I225000J0D01*
G01*
X88145000Y-138610000D01*
G75*
G02*
X88370000Y-138835000I0J-225000D01*
G01*
G37*
%TD.AperFunction*%
%TD*%
%TO.P,C1,2*%
%TO.N,GND*%
%TA.AperFunction,SMDPad,CuDef*%
G36*
G01*
X86820000Y-140740000D02*
X86820000Y-141240000D01*
G75*
G02*
X86595000Y-141465000I-225000J0D01*
G01*
X86145000Y-141465000D01*
G75*
G02*
X85920000Y-141240000I0J225000D01*
G01*
X85920000Y-140740000D01*
G75*
G02*
X86145000Y-140515000I225000J0D01*
G01*
X86595000Y-140515000D01*
G75*
G02*
X86820000Y-140740000I0J-225000D01*
G01*
G37*
%TD.AperFunction*%
%TO.P,C1,1*%
%TO.N,/CLK*%
%TA.AperFunction,SMDPad,CuDef*%
G36*
G01*
X88370000Y-140740000D02*
X88370000Y-141240000D01*
G75*
G02*
X88145000Y-141465000I-225000J0D01*
G01*
X87695000Y-141465000D01*
G75*
G02*
X87470000Y-141240000I0J225000D01*
G01*
X87470000Y-140740000D01*
G75*
G02*
X87695000Y-140515000I225000J0D01*
G01*
X88145000Y-140515000D01*
G75*
G02*
X88370000Y-140740000I0J-225000D01*
G01*
G37*
%TD.AperFunction*%
%TD*%
D10*
%TO.P,TP5,1*%
%TO.N,GND*%
X78890000Y-139085000D03*
%TD*%
%TO.P,TP4,1*%
%TO.N,Net-(D10-Pad2)*%
X114450000Y-104795000D03*
%TD*%
%TO.P,TP3,1*%
%TO.N,Net-(D7-Pad2)*%
X101750000Y-104795000D03*
%TD*%
%TO.P,TP2,1*%
%TO.N,Net-(D4-Pad2)*%
X89050000Y-104795000D03*
%TD*%
%TO.P,TP1,1*%
%TO.N,Net-(D1-Pad2)*%
X78890000Y-104795000D03*
%TD*%
D11*
%TO.P,J1,6*%
%TO.N,/LED_D*%
X63777000Y-104160000D03*
%TO.P,J1,5*%
%TO.N,/LED_C*%
X63777000Y-101620000D03*
%TO.P,J1,4*%
%TO.N,/LED_B*%
X63777000Y-99080000D03*
%TO.P,J1,3*%
%TO.N,/LED_A*%
X63777000Y-96540000D03*
%TO.P,J1,2*%
%TO.N,/LED_EN_B*%
X63777000Y-94000000D03*
D12*
%TO.P,J1,1*%
%TO.N,/LED_EN_A*%
X63777000Y-91460000D03*
%TD*%
D13*
%TO.P,D14,1*%
%TO.N,GND*%
X101459000Y-80843000D03*
%TO.P,D14,2*%
%TO.N,/LED_EN_B*%
X101459000Y-84043000D03*
%TO.P,D14,4*%
%TO.N,Net-(D14-Pad4)*%
X106359000Y-80843000D03*
%TO.P,D14,3*%
%TO.N,VCC*%
X106359000Y-84043000D03*
%TD*%
%TO.P,D13,1*%
%TO.N,GND*%
X89013000Y-80843000D03*
%TO.P,D13,2*%
%TO.N,/LED_EN_A*%
X89013000Y-84043000D03*
%TO.P,D13,4*%
%TO.N,Net-(D13-Pad4)*%
X93913000Y-80843000D03*
%TO.P,D13,3*%
%TO.N,VCC*%
X93913000Y-84043000D03*
%TD*%
D14*
%TO.P,U1,12*%
%TO.N,/CA1*%
X91844000Y-111145000D03*
%TO.P,U1,11*%
%TO.N,/SEG_A*%
X94384000Y-111145000D03*
%TO.P,U1,10*%
%TO.N,/SEG_F*%
X96924000Y-111145000D03*
%TO.P,U1,9*%
%TO.N,/CA2*%
X99464000Y-111145000D03*
%TO.P,U1,8*%
%TO.N,/CA3*%
X102004000Y-111145000D03*
%TO.P,U1,7*%
%TO.N,/SEG_B*%
X104544000Y-111145000D03*
%TO.P,U1,6*%
%TO.N,/CA4*%
X104544000Y-126385000D03*
%TO.P,U1,5*%
%TO.N,/SEG_G*%
X102004000Y-126385000D03*
%TO.P,U1,4*%
%TO.N,/SEG_C*%
X99464000Y-126385000D03*
%TO.P,U1,3*%
%TO.N,/DPX*%
X96924000Y-126385000D03*
%TO.P,U1,2*%
%TO.N,/SEG_D*%
X94384000Y-126385000D03*
D15*
%TO.P,U1,1*%
%TO.N,/SEG_E*%
X91844000Y-126385000D03*
%TD*%
D12*
%TO.P,SW2,1*%
%TO.N,VCC*%
X113815000Y-82443000D03*
D11*
%TO.P,SW2,2*%
%TO.N,GND*%
X116355000Y-82443000D03*
%TO.P,SW2,3*%
%TO.N,/ENABLE_B*%
X118895000Y-82443000D03*
%TD*%
D12*
%TO.P,SW1,1*%
%TO.N,VCC*%
X76223000Y-82443000D03*
D11*
%TO.P,SW1,2*%
%TO.N,GND*%
X78763000Y-82443000D03*
%TO.P,SW1,3*%
%TO.N,/ENABLE_A*%
X81303000Y-82443000D03*
%TD*%
%TO.P,R4,2*%
%TO.N,/LED_A*%
%TA.AperFunction,SMDPad,CuDef*%
G36*
G01*
X83314000Y-105474000D02*
X83864000Y-105474000D01*
G75*
G02*
X84064000Y-105674000I0J-200000D01*
G01*
X84064000Y-106074000D01*
G75*
G02*
X83864000Y-106274000I-200000J0D01*
G01*
X83314000Y-106274000D01*
G75*
G02*
X83114000Y-106074000I0J200000D01*
G01*
X83114000Y-105674000D01*
G75*
G02*
X83314000Y-105474000I200000J0D01*
G01*
G37*
%TD.AperFunction*%
%TO.P,R4,1*%
%TO.N,Net-(D1-Pad2)*%
%TA.AperFunction,SMDPad,CuDef*%
G36*
G01*
X83314000Y-103824000D02*
X83864000Y-103824000D01*
G75*
G02*
X84064000Y-104024000I0J-200000D01*
G01*
X84064000Y-104424000D01*
G75*
G02*
X83864000Y-104624000I-200000J0D01*
G01*
X83314000Y-104624000D01*
G75*
G02*
X83114000Y-104424000I0J200000D01*
G01*
X83114000Y-104024000D01*
G75*
G02*
X83314000Y-103824000I200000J0D01*
G01*
G37*
%TD.AperFunction*%
%TD*%
%TO.P,R3,2*%
%TO.N,/LED_D*%
%TA.AperFunction,SMDPad,CuDef*%
G36*
G01*
X121160000Y-105347000D02*
X121710000Y-105347000D01*
G75*
G02*
X121910000Y-105547000I0J-200000D01*
G01*
X121910000Y-105947000D01*
G75*
G02*
X121710000Y-106147000I-200000J0D01*
G01*
X121160000Y-106147000D01*
G75*
G02*
X120960000Y-105947000I0J200000D01*
G01*
X120960000Y-105547000D01*
G75*
G02*
X121160000Y-105347000I200000J0D01*
G01*
G37*
%TD.AperFunction*%
%TO.P,R3,1*%
%TO.N,Net-(D10-Pad2)*%
%TA.AperFunction,SMDPad,CuDef*%
G36*
G01*
X121160000Y-103697000D02*
X121710000Y-103697000D01*
G75*
G02*
X121910000Y-103897000I0J-200000D01*
G01*
X121910000Y-104297000D01*
G75*
G02*
X121710000Y-104497000I-200000J0D01*
G01*
X121160000Y-104497000D01*
G75*
G02*
X120960000Y-104297000I0J200000D01*
G01*
X120960000Y-103897000D01*
G75*
G02*
X121160000Y-103697000I200000J0D01*
G01*
G37*
%TD.AperFunction*%
%TD*%
%TO.P,R2,2*%
%TO.N,/LED_C*%
%TA.AperFunction,SMDPad,CuDef*%
G36*
G01*
X107952000Y-105474000D02*
X108502000Y-105474000D01*
G75*
G02*
X108702000Y-105674000I0J-200000D01*
G01*
X108702000Y-106074000D01*
G75*
G02*
X108502000Y-106274000I-200000J0D01*
G01*
X107952000Y-106274000D01*
G75*
G02*
X107752000Y-106074000I0J200000D01*
G01*
X107752000Y-105674000D01*
G75*
G02*
X107952000Y-105474000I200000J0D01*
G01*
G37*
%TD.AperFunction*%
%TO.P,R2,1*%
%TO.N,Net-(D7-Pad2)*%
%TA.AperFunction,SMDPad,CuDef*%
G36*
G01*
X107952000Y-103824000D02*
X108502000Y-103824000D01*
G75*
G02*
X108702000Y-104024000I0J-200000D01*
G01*
X108702000Y-104424000D01*
G75*
G02*
X108502000Y-104624000I-200000J0D01*
G01*
X107952000Y-104624000D01*
G75*
G02*
X107752000Y-104424000I0J200000D01*
G01*
X107752000Y-104024000D01*
G75*
G02*
X107952000Y-103824000I200000J0D01*
G01*
G37*
%TD.AperFunction*%
%TD*%
%TO.P,R1,2*%
%TO.N,/LED_B*%
%TA.AperFunction,SMDPad,CuDef*%
G36*
G01*
X95125000Y-105474000D02*
X95675000Y-105474000D01*
G75*
G02*
X95875000Y-105674000I0J-200000D01*
G01*
X95875000Y-106074000D01*
G75*
G02*
X95675000Y-106274000I-200000J0D01*
G01*
X95125000Y-106274000D01*
G75*
G02*
X94925000Y-106074000I0J200000D01*
G01*
X94925000Y-105674000D01*
G75*
G02*
X95125000Y-105474000I200000J0D01*
G01*
G37*
%TD.AperFunction*%
%TO.P,R1,1*%
%TO.N,Net-(D4-Pad2)*%
%TA.AperFunction,SMDPad,CuDef*%
G36*
G01*
X95125000Y-103824000D02*
X95675000Y-103824000D01*
G75*
G02*
X95875000Y-104024000I0J-200000D01*
G01*
X95875000Y-104424000D01*
G75*
G02*
X95675000Y-104624000I-200000J0D01*
G01*
X95125000Y-104624000D01*
G75*
G02*
X94925000Y-104424000I0J200000D01*
G01*
X94925000Y-104024000D01*
G75*
G02*
X95125000Y-103824000I200000J0D01*
G01*
G37*
%TD.AperFunction*%
%TD*%
%TO.P,D12,2*%
%TO.N,Net-(D10-Pad2)*%
%TA.AperFunction,SMDPad,CuDef*%
G36*
G01*
X120997500Y-100606250D02*
X120997500Y-100093750D01*
G75*
G02*
X121216250Y-99875000I218750J0D01*
G01*
X121653750Y-99875000D01*
G75*
G02*
X121872500Y-100093750I0J-218750D01*
G01*
X121872500Y-100606250D01*
G75*
G02*
X121653750Y-100825000I-218750J0D01*
G01*
X121216250Y-100825000D01*
G75*
G02*
X120997500Y-100606250I0J218750D01*
G01*
G37*
%TD.AperFunction*%
%TO.P,D12,1*%
%TO.N,GND*%
%TA.AperFunction,SMDPad,CuDef*%
G36*
G01*
X119422500Y-100606250D02*
X119422500Y-100093750D01*
G75*
G02*
X119641250Y-99875000I218750J0D01*
G01*
X120078750Y-99875000D01*
G75*
G02*
X120297500Y-100093750I0J-218750D01*
G01*
X120297500Y-100606250D01*
G75*
G02*
X120078750Y-100825000I-218750J0D01*
G01*
X119641250Y-100825000D01*
G75*
G02*
X119422500Y-100606250I0J218750D01*
G01*
G37*
%TD.AperFunction*%
%TD*%
%TO.P,D11,2*%
%TO.N,Net-(D10-Pad2)*%
%TA.AperFunction,SMDPad,CuDef*%
G36*
G01*
X116552500Y-100606250D02*
X116552500Y-100093750D01*
G75*
G02*
X116771250Y-99875000I218750J0D01*
G01*
X117208750Y-99875000D01*
G75*
G02*
X117427500Y-100093750I0J-218750D01*
G01*
X117427500Y-100606250D01*
G75*
G02*
X117208750Y-100825000I-218750J0D01*
G01*
X116771250Y-100825000D01*
G75*
G02*
X116552500Y-100606250I0J218750D01*
G01*
G37*
%TD.AperFunction*%
%TO.P,D11,1*%
%TO.N,GND*%
%TA.AperFunction,SMDPad,CuDef*%
G36*
G01*
X114977500Y-100606250D02*
X114977500Y-100093750D01*
G75*
G02*
X115196250Y-99875000I218750J0D01*
G01*
X115633750Y-99875000D01*
G75*
G02*
X115852500Y-100093750I0J-218750D01*
G01*
X115852500Y-100606250D01*
G75*
G02*
X115633750Y-100825000I-218750J0D01*
G01*
X115196250Y-100825000D01*
G75*
G02*
X114977500Y-100606250I0J218750D01*
G01*
G37*
%TD.AperFunction*%
%TD*%
%TO.P,D10,2*%
%TO.N,Net-(D10-Pad2)*%
%TA.AperFunction,SMDPad,CuDef*%
G36*
G01*
X112260000Y-100606250D02*
X112260000Y-100093750D01*
G75*
G02*
X112478750Y-99875000I218750J0D01*
G01*
X112916250Y-99875000D01*
G75*
G02*
X113135000Y-100093750I0J-218750D01*
G01*
X113135000Y-100606250D01*
G75*
G02*
X112916250Y-100825000I-218750J0D01*
G01*
X112478750Y-100825000D01*
G75*
G02*
X112260000Y-100606250I0J218750D01*
G01*
G37*
%TD.AperFunction*%
%TO.P,D10,1*%
%TO.N,GND*%
%TA.AperFunction,SMDPad,CuDef*%
G36*
G01*
X110685000Y-100606250D02*
X110685000Y-100093750D01*
G75*
G02*
X110903750Y-99875000I218750J0D01*
G01*
X111341250Y-99875000D01*
G75*
G02*
X111560000Y-100093750I0J-218750D01*
G01*
X111560000Y-100606250D01*
G75*
G02*
X111341250Y-100825000I-218750J0D01*
G01*
X110903750Y-100825000D01*
G75*
G02*
X110685000Y-100606250I0J218750D01*
G01*
G37*
%TD.AperFunction*%
%TD*%
%TO.P,D9,2*%
%TO.N,Net-(D7-Pad2)*%
%TA.AperFunction,SMDPad,CuDef*%
G36*
G01*
X107815000Y-100606250D02*
X107815000Y-100093750D01*
G75*
G02*
X108033750Y-99875000I218750J0D01*
G01*
X108471250Y-99875000D01*
G75*
G02*
X108690000Y-100093750I0J-218750D01*
G01*
X108690000Y-100606250D01*
G75*
G02*
X108471250Y-100825000I-218750J0D01*
G01*
X108033750Y-100825000D01*
G75*
G02*
X107815000Y-100606250I0J218750D01*
G01*
G37*
%TD.AperFunction*%
%TO.P,D9,1*%
%TO.N,GND*%
%TA.AperFunction,SMDPad,CuDef*%
G36*
G01*
X106240000Y-100606250D02*
X106240000Y-100093750D01*
G75*
G02*
X106458750Y-99875000I218750J0D01*
G01*
X106896250Y-99875000D01*
G75*
G02*
X107115000Y-100093750I0J-218750D01*
G01*
X107115000Y-100606250D01*
G75*
G02*
X106896250Y-100825000I-218750J0D01*
G01*
X106458750Y-100825000D01*
G75*
G02*
X106240000Y-100606250I0J218750D01*
G01*
G37*
%TD.AperFunction*%
%TD*%
%TO.P,D8,2*%
%TO.N,Net-(D7-Pad2)*%
%TA.AperFunction,SMDPad,CuDef*%
G36*
G01*
X103370000Y-100606250D02*
X103370000Y-100093750D01*
G75*
G02*
X103588750Y-99875000I218750J0D01*
G01*
X104026250Y-99875000D01*
G75*
G02*
X104245000Y-100093750I0J-218750D01*
G01*
X104245000Y-100606250D01*
G75*
G02*
X104026250Y-100825000I-218750J0D01*
G01*
X103588750Y-100825000D01*
G75*
G02*
X103370000Y-100606250I0J218750D01*
G01*
G37*
%TD.AperFunction*%
%TO.P,D8,1*%
%TO.N,GND*%
%TA.AperFunction,SMDPad,CuDef*%
G36*
G01*
X101795000Y-100606250D02*
X101795000Y-100093750D01*
G75*
G02*
X102013750Y-99875000I218750J0D01*
G01*
X102451250Y-99875000D01*
G75*
G02*
X102670000Y-100093750I0J-218750D01*
G01*
X102670000Y-100606250D01*
G75*
G02*
X102451250Y-100825000I-218750J0D01*
G01*
X102013750Y-100825000D01*
G75*
G02*
X101795000Y-100606250I0J218750D01*
G01*
G37*
%TD.AperFunction*%
%TD*%
%TO.P,D7,2*%
%TO.N,Net-(D7-Pad2)*%
%TA.AperFunction,SMDPad,CuDef*%
G36*
G01*
X98925000Y-100606250D02*
X98925000Y-100093750D01*
G75*
G02*
X99143750Y-99875000I218750J0D01*
G01*
X99581250Y-99875000D01*
G75*
G02*
X99800000Y-100093750I0J-218750D01*
G01*
X99800000Y-100606250D01*
G75*
G02*
X99581250Y-100825000I-218750J0D01*
G01*
X99143750Y-100825000D01*
G75*
G02*
X98925000Y-100606250I0J218750D01*
G01*
G37*
%TD.AperFunction*%
%TO.P,D7,1*%
%TO.N,GND*%
%TA.AperFunction,SMDPad,CuDef*%
G36*
G01*
X97350000Y-100606250D02*
X97350000Y-100093750D01*
G75*
G02*
X97568750Y-99875000I218750J0D01*
G01*
X98006250Y-99875000D01*
G75*
G02*
X98225000Y-100093750I0J-218750D01*
G01*
X98225000Y-100606250D01*
G75*
G02*
X98006250Y-100825000I-218750J0D01*
G01*
X97568750Y-100825000D01*
G75*
G02*
X97350000Y-100606250I0J218750D01*
G01*
G37*
%TD.AperFunction*%
%TD*%
%TO.P,D6,2*%
%TO.N,Net-(D4-Pad2)*%
%TA.AperFunction,SMDPad,CuDef*%
G36*
G01*
X94962500Y-100606250D02*
X94962500Y-100093750D01*
G75*
G02*
X95181250Y-99875000I218750J0D01*
G01*
X95618750Y-99875000D01*
G75*
G02*
X95837500Y-100093750I0J-218750D01*
G01*
X95837500Y-100606250D01*
G75*
G02*
X95618750Y-100825000I-218750J0D01*
G01*
X95181250Y-100825000D01*
G75*
G02*
X94962500Y-100606250I0J218750D01*
G01*
G37*
%TD.AperFunction*%
%TO.P,D6,1*%
%TO.N,GND*%
%TA.AperFunction,SMDPad,CuDef*%
G36*
G01*
X93387500Y-100606250D02*
X93387500Y-100093750D01*
G75*
G02*
X93606250Y-99875000I218750J0D01*
G01*
X94043750Y-99875000D01*
G75*
G02*
X94262500Y-100093750I0J-218750D01*
G01*
X94262500Y-100606250D01*
G75*
G02*
X94043750Y-100825000I-218750J0D01*
G01*
X93606250Y-100825000D01*
G75*
G02*
X93387500Y-100606250I0J218750D01*
G01*
G37*
%TD.AperFunction*%
%TD*%
%TO.P,D5,2*%
%TO.N,Net-(D4-Pad2)*%
%TA.AperFunction,SMDPad,CuDef*%
G36*
G01*
X90822500Y-100606250D02*
X90822500Y-100093750D01*
G75*
G02*
X91041250Y-99875000I218750J0D01*
G01*
X91478750Y-99875000D01*
G75*
G02*
X91697500Y-100093750I0J-218750D01*
G01*
X91697500Y-100606250D01*
G75*
G02*
X91478750Y-100825000I-218750J0D01*
G01*
X91041250Y-100825000D01*
G75*
G02*
X90822500Y-100606250I0J218750D01*
G01*
G37*
%TD.AperFunction*%
%TO.P,D5,1*%
%TO.N,GND*%
%TA.AperFunction,SMDPad,CuDef*%
G36*
G01*
X89247500Y-100606250D02*
X89247500Y-100093750D01*
G75*
G02*
X89466250Y-99875000I218750J0D01*
G01*
X89903750Y-99875000D01*
G75*
G02*
X90122500Y-100093750I0J-218750D01*
G01*
X90122500Y-100606250D01*
G75*
G02*
X89903750Y-100825000I-218750J0D01*
G01*
X89466250Y-100825000D01*
G75*
G02*
X89247500Y-100606250I0J218750D01*
G01*
G37*
%TD.AperFunction*%
%TD*%
%TO.P,D4,2*%
%TO.N,Net-(D4-Pad2)*%
%TA.AperFunction,SMDPad,CuDef*%
G36*
G01*
X86860000Y-100606250D02*
X86860000Y-100093750D01*
G75*
G02*
X87078750Y-99875000I218750J0D01*
G01*
X87516250Y-99875000D01*
G75*
G02*
X87735000Y-100093750I0J-218750D01*
G01*
X87735000Y-100606250D01*
G75*
G02*
X87516250Y-100825000I-218750J0D01*
G01*
X87078750Y-100825000D01*
G75*
G02*
X86860000Y-100606250I0J218750D01*
G01*
G37*
%TD.AperFunction*%
%TO.P,D4,1*%
%TO.N,GND*%
%TA.AperFunction,SMDPad,CuDef*%
G36*
G01*
X85285000Y-100606250D02*
X85285000Y-100093750D01*
G75*
G02*
X85503750Y-99875000I218750J0D01*
G01*
X85941250Y-99875000D01*
G75*
G02*
X86160000Y-100093750I0J-218750D01*
G01*
X86160000Y-100606250D01*
G75*
G02*
X85941250Y-100825000I-218750J0D01*
G01*
X85503750Y-100825000D01*
G75*
G02*
X85285000Y-100606250I0J218750D01*
G01*
G37*
%TD.AperFunction*%
%TD*%
%TO.P,D3,2*%
%TO.N,Net-(D1-Pad2)*%
%TA.AperFunction,SMDPad,CuDef*%
G36*
G01*
X83050000Y-100606250D02*
X83050000Y-100093750D01*
G75*
G02*
X83268750Y-99875000I218750J0D01*
G01*
X83706250Y-99875000D01*
G75*
G02*
X83925000Y-100093750I0J-218750D01*
G01*
X83925000Y-100606250D01*
G75*
G02*
X83706250Y-100825000I-218750J0D01*
G01*
X83268750Y-100825000D01*
G75*
G02*
X83050000Y-100606250I0J218750D01*
G01*
G37*
%TD.AperFunction*%
%TO.P,D3,1*%
%TO.N,GND*%
%TA.AperFunction,SMDPad,CuDef*%
G36*
G01*
X81475000Y-100606250D02*
X81475000Y-100093750D01*
G75*
G02*
X81693750Y-99875000I218750J0D01*
G01*
X82131250Y-99875000D01*
G75*
G02*
X82350000Y-100093750I0J-218750D01*
G01*
X82350000Y-100606250D01*
G75*
G02*
X82131250Y-100825000I-218750J0D01*
G01*
X81693750Y-100825000D01*
G75*
G02*
X81475000Y-100606250I0J218750D01*
G01*
G37*
%TD.AperFunction*%
%TD*%
%TO.P,D2,2*%
%TO.N,Net-(D1-Pad2)*%
%TA.AperFunction,SMDPad,CuDef*%
G36*
G01*
X79087500Y-100606250D02*
X79087500Y-100093750D01*
G75*
G02*
X79306250Y-99875000I218750J0D01*
G01*
X79743750Y-99875000D01*
G75*
G02*
X79962500Y-100093750I0J-218750D01*
G01*
X79962500Y-100606250D01*
G75*
G02*
X79743750Y-100825000I-218750J0D01*
G01*
X79306250Y-100825000D01*
G75*
G02*
X79087500Y-100606250I0J218750D01*
G01*
G37*
%TD.AperFunction*%
%TO.P,D2,1*%
%TO.N,GND*%
%TA.AperFunction,SMDPad,CuDef*%
G36*
G01*
X77512500Y-100606250D02*
X77512500Y-100093750D01*
G75*
G02*
X77731250Y-99875000I218750J0D01*
G01*
X78168750Y-99875000D01*
G75*
G02*
X78387500Y-100093750I0J-218750D01*
G01*
X78387500Y-100606250D01*
G75*
G02*
X78168750Y-100825000I-218750J0D01*
G01*
X77731250Y-100825000D01*
G75*
G02*
X77512500Y-100606250I0J218750D01*
G01*
G37*
%TD.AperFunction*%
%TD*%
%TO.P,D1,2*%
%TO.N,Net-(D1-Pad2)*%
%TA.AperFunction,SMDPad,CuDef*%
G36*
G01*
X75277500Y-100606250D02*
X75277500Y-100093750D01*
G75*
G02*
X75496250Y-99875000I218750J0D01*
G01*
X75933750Y-99875000D01*
G75*
G02*
X76152500Y-100093750I0J-218750D01*
G01*
X76152500Y-100606250D01*
G75*
G02*
X75933750Y-100825000I-218750J0D01*
G01*
X75496250Y-100825000D01*
G75*
G02*
X75277500Y-100606250I0J218750D01*
G01*
G37*
%TD.AperFunction*%
%TO.P,D1,1*%
%TO.N,GND*%
%TA.AperFunction,SMDPad,CuDef*%
G36*
G01*
X73702500Y-100606250D02*
X73702500Y-100093750D01*
G75*
G02*
X73921250Y-99875000I218750J0D01*
G01*
X74358750Y-99875000D01*
G75*
G02*
X74577500Y-100093750I0J-218750D01*
G01*
X74577500Y-100606250D01*
G75*
G02*
X74358750Y-100825000I-218750J0D01*
G01*
X73921250Y-100825000D01*
G75*
G02*
X73702500Y-100606250I0J218750D01*
G01*
G37*
%TD.AperFunction*%
%TD*%
D16*
%TO.N,GND*%
X130960000Y-97175000D03*
X121435000Y-92095000D03*
%TO.N,VCC*%
X106195000Y-86380000D03*
X94130000Y-86380000D03*
X127150000Y-106065000D03*
X90320000Y-137815000D03*
%TO.N,/DPX*%
X100734000Y-124480000D03*
X96670000Y-124480000D03*
%TO.N,/SEG_E*%
X101115000Y-134005000D03*
X91590000Y-134005000D03*
%TO.N,/SEG_D*%
X101115000Y-137815000D03*
X96670000Y-137815000D03*
X96670000Y-129560000D03*
X94765000Y-129560000D03*
%TO.N,/CA4*%
X95654000Y-123464000D03*
X104290000Y-123845000D03*
%TO.N,/CA3*%
X93495000Y-117495000D03*
%TO.N,/CLK*%
X130325000Y-107970000D03*
X87780000Y-142895000D03*
%TO.N,/DIO*%
X131595000Y-111780000D03*
X87780000Y-135275000D03*
%TD*%
D17*
%TO.N,Net-(D1-Pad2)*%
X75715000Y-100350000D02*
X76985000Y-101620000D01*
X78255000Y-101620000D02*
X79525000Y-100350000D01*
X76985000Y-101620000D02*
X78255000Y-101620000D01*
X83487500Y-100832500D02*
X83487500Y-100350000D01*
X82700000Y-101620000D02*
X83487500Y-100832500D01*
X80795000Y-101620000D02*
X82700000Y-101620000D01*
X79525000Y-100350000D02*
X80795000Y-101620000D01*
X83589000Y-102509000D02*
X82700000Y-101620000D01*
X83589000Y-104224000D02*
X83589000Y-102509000D01*
X78890000Y-104795000D02*
X78890000Y-102255000D01*
X78890000Y-102255000D02*
X78255000Y-101620000D01*
%TO.N,GND*%
X74140000Y-100020000D02*
X74140000Y-100350000D01*
X75080000Y-99080000D02*
X74140000Y-100020000D01*
X76985000Y-99080000D02*
X75080000Y-99080000D01*
X77950000Y-100045000D02*
X76985000Y-99080000D01*
X77950000Y-100350000D02*
X77950000Y-100045000D01*
X78890000Y-99080000D02*
X80642500Y-99080000D01*
X77950000Y-100020000D02*
X78890000Y-99080000D01*
X80642500Y-99080000D02*
X81912500Y-100350000D01*
X77950000Y-100350000D02*
X77950000Y-100020000D01*
X81912500Y-100350000D02*
X81912500Y-99867500D01*
X81912500Y-99867500D02*
X82700000Y-99080000D01*
X84452500Y-99080000D02*
X85722500Y-100350000D01*
X82700000Y-99080000D02*
X84452500Y-99080000D01*
X85722500Y-100350000D02*
X85722500Y-99867500D01*
X85722500Y-99867500D02*
X86510000Y-99080000D01*
X88415000Y-99080000D02*
X89685000Y-100350000D01*
X86510000Y-99080000D02*
X88415000Y-99080000D01*
X92555000Y-99080000D02*
X93825000Y-100350000D01*
X90955000Y-99080000D02*
X92555000Y-99080000D01*
X89685000Y-100350000D02*
X90955000Y-99080000D01*
X97787500Y-100350000D02*
X97787500Y-100197500D01*
X97787500Y-100197500D02*
X96670000Y-99080000D01*
X95095000Y-99080000D02*
X93825000Y-100350000D01*
X96670000Y-99080000D02*
X95095000Y-99080000D01*
X100962500Y-99080000D02*
X102232500Y-100350000D01*
X98575000Y-99080000D02*
X100962500Y-99080000D01*
X97787500Y-99867500D02*
X98575000Y-99080000D01*
X97787500Y-100350000D02*
X97787500Y-99867500D01*
X102232500Y-100350000D02*
X102232500Y-99867500D01*
X102232500Y-99867500D02*
X103020000Y-99080000D01*
X105407500Y-99080000D02*
X106677500Y-100350000D01*
X103020000Y-99080000D02*
X105407500Y-99080000D01*
X106677500Y-100350000D02*
X106677500Y-99867500D01*
X106677500Y-99867500D02*
X107465000Y-99080000D01*
X109852500Y-99080000D02*
X111122500Y-100350000D01*
X107465000Y-99080000D02*
X109852500Y-99080000D01*
X111122500Y-100350000D02*
X111122500Y-99867500D01*
X111122500Y-99867500D02*
X111910000Y-99080000D01*
X114145000Y-99080000D02*
X115415000Y-100350000D01*
X111910000Y-99080000D02*
X114145000Y-99080000D01*
X115415000Y-100350000D02*
X115415000Y-100020000D01*
X115415000Y-100020000D02*
X116355000Y-99080000D01*
X118590000Y-99080000D02*
X119860000Y-100350000D01*
X116355000Y-99080000D02*
X118590000Y-99080000D01*
X78763000Y-79522000D02*
X78763000Y-82443000D01*
X79525000Y-78760000D02*
X78763000Y-79522000D01*
X88415000Y-78760000D02*
X79525000Y-78760000D01*
X89013000Y-79358000D02*
X88415000Y-78760000D01*
X89013000Y-80843000D02*
X89013000Y-79358000D01*
X89013000Y-79358000D02*
X89087000Y-79358000D01*
X89087000Y-79358000D02*
X89685000Y-78760000D01*
X89685000Y-78760000D02*
X100480000Y-78760000D01*
X101459000Y-79739000D02*
X101459000Y-80843000D01*
X100480000Y-78760000D02*
X101459000Y-79739000D01*
X116355000Y-82443000D02*
X116355000Y-79395000D01*
X116355000Y-79395000D02*
X115720000Y-78760000D01*
X115720000Y-78760000D02*
X102385000Y-78760000D01*
X102385000Y-78813000D02*
X101459000Y-79739000D01*
X102385000Y-78760000D02*
X102385000Y-78813000D01*
X130960000Y-103525000D02*
X133373000Y-103525000D01*
X130325000Y-102890000D02*
X130960000Y-103525000D01*
X129690000Y-99080000D02*
X130325000Y-99715000D01*
X120800000Y-99080000D02*
X129690000Y-99080000D01*
X130325000Y-99715000D02*
X130325000Y-102890000D01*
X119860000Y-100020000D02*
X120800000Y-99080000D01*
X119860000Y-100350000D02*
X119860000Y-100020000D01*
X86370000Y-140990000D02*
X85240000Y-140990000D01*
X84605000Y-140355000D02*
X84605000Y-139085000D01*
X85240000Y-140990000D02*
X84605000Y-140355000D01*
X84605000Y-139085000D02*
X86370000Y-139085000D01*
X79525000Y-139085000D02*
X84605000Y-139085000D01*
X103175000Y-144010000D02*
X103175000Y-142895000D01*
X87145000Y-144800000D02*
X102385000Y-144800000D01*
X102385000Y-144800000D02*
X103175000Y-144010000D01*
X86370000Y-144025000D02*
X87145000Y-144800000D01*
X86370000Y-140990000D02*
X86370000Y-144025000D01*
X129690000Y-99080000D02*
X130325000Y-98445000D01*
X130325000Y-97810000D02*
X130960000Y-97175000D01*
X130325000Y-98445000D02*
X130325000Y-97810000D01*
X123946000Y-92095000D02*
X123975000Y-92124000D01*
X121435000Y-92095000D02*
X123946000Y-92095000D01*
X126766000Y-92124000D02*
X127150000Y-91740000D01*
X123975000Y-92124000D02*
X126766000Y-92124000D01*
%TO.N,Net-(D4-Pad2)*%
X89990000Y-101620000D02*
X91260000Y-100350000D01*
X88415000Y-101620000D02*
X89990000Y-101620000D01*
X87297500Y-100502500D02*
X88415000Y-101620000D01*
X87297500Y-100350000D02*
X87297500Y-100502500D01*
X91260000Y-100350000D02*
X91260000Y-100655000D01*
X91260000Y-100655000D02*
X92225000Y-101620000D01*
X94130000Y-101620000D02*
X95400000Y-100350000D01*
X92225000Y-101620000D02*
X94130000Y-101620000D01*
X94257000Y-101620000D02*
X94130000Y-101620000D01*
X95400000Y-102763000D02*
X94257000Y-101620000D01*
X95400000Y-104224000D02*
X95400000Y-102763000D01*
X88415000Y-104160000D02*
X89050000Y-104795000D01*
X88415000Y-101620000D02*
X88415000Y-104160000D01*
%TO.N,Net-(D7-Pad2)*%
X99362500Y-100350000D02*
X99362500Y-100502500D01*
X99362500Y-100502500D02*
X100480000Y-101620000D01*
X102537500Y-101620000D02*
X103807500Y-100350000D01*
X100480000Y-101620000D02*
X102537500Y-101620000D01*
X103807500Y-100350000D02*
X103807500Y-100502500D01*
X103807500Y-100502500D02*
X104925000Y-101620000D01*
X106982500Y-101620000D02*
X108252500Y-100350000D01*
X104925000Y-101620000D02*
X106982500Y-101620000D01*
X108227000Y-102864500D02*
X106982500Y-101620000D01*
X108227000Y-104224000D02*
X108227000Y-102864500D01*
X102537500Y-104007500D02*
X101750000Y-104795000D01*
X102537500Y-101620000D02*
X102537500Y-104007500D01*
%TO.N,Net-(D10-Pad2)*%
X112697500Y-100350000D02*
X112697500Y-100502500D01*
X112697500Y-100502500D02*
X113815000Y-101620000D01*
X115720000Y-101620000D02*
X116990000Y-100350000D01*
X113815000Y-101620000D02*
X115720000Y-101620000D01*
X120165000Y-101620000D02*
X121435000Y-100350000D01*
X118260000Y-101620000D02*
X120165000Y-101620000D01*
X116990000Y-100350000D02*
X118260000Y-101620000D01*
X120292000Y-101620000D02*
X120165000Y-101620000D01*
X121435000Y-102763000D02*
X120292000Y-101620000D01*
X121435000Y-104097000D02*
X121435000Y-102763000D01*
X113815000Y-104160000D02*
X114450000Y-104795000D01*
X113815000Y-101620000D02*
X113815000Y-104160000D01*
%TO.N,VCC*%
X106359000Y-84043000D02*
X112977000Y-84043000D01*
X113815000Y-83205000D02*
X113815000Y-82443000D01*
X112977000Y-84043000D02*
X113815000Y-83205000D01*
X94130000Y-84260000D02*
X93913000Y-84043000D01*
X94130000Y-86380000D02*
X94130000Y-84260000D01*
X106195000Y-84207000D02*
X106359000Y-84043000D01*
X106195000Y-86380000D02*
X106195000Y-84207000D01*
X127150000Y-90190000D02*
X129690000Y-90190000D01*
X129690000Y-90190000D02*
X130325000Y-90825000D01*
X130325000Y-90825000D02*
X133373000Y-90825000D01*
X127150000Y-107715000D02*
X127405000Y-107970000D01*
X127150000Y-106065000D02*
X127150000Y-107715000D01*
X127405000Y-107970000D02*
X127405000Y-111780000D01*
X127405000Y-111780000D02*
X127405000Y-132480000D01*
X127405000Y-132480000D02*
X126515000Y-133370000D01*
X90320000Y-137815000D02*
X93975000Y-137815000D01*
X118895000Y-139085000D02*
X118895000Y-134005000D01*
X118895000Y-134005000D02*
X119530000Y-133370000D01*
X119530000Y-133370000D02*
X126515000Y-133370000D01*
X126134000Y-89174000D02*
X127150000Y-90190000D01*
X123975000Y-89174000D02*
X126134000Y-89174000D01*
%TO.N,/LED_D*%
X120800000Y-108605000D02*
X121435000Y-107970000D01*
X73805770Y-108605000D02*
X120800000Y-108605000D01*
X70635000Y-105434230D02*
X73805770Y-108605000D01*
X70635000Y-104795000D02*
X70635000Y-105434230D01*
X121435000Y-107970000D02*
X121435000Y-105747000D01*
X69873000Y-104033000D02*
X70635000Y-104795000D01*
X64285000Y-104033000D02*
X69873000Y-104033000D01*
%TO.N,/LED_C*%
X107465000Y-107970000D02*
X108227000Y-107208000D01*
X73807180Y-107970000D02*
X107465000Y-107970000D01*
X71454990Y-105614990D02*
X71454991Y-105617811D01*
X71270000Y-105430000D02*
X71454990Y-105614990D01*
X108227000Y-107208000D02*
X108227000Y-105874000D01*
X71454991Y-105617811D02*
X73807180Y-107970000D01*
X71270000Y-102255000D02*
X71270000Y-105430000D01*
X70508000Y-101493000D02*
X71270000Y-102255000D01*
X64285000Y-101493000D02*
X70508000Y-101493000D01*
%TO.N,/LED_B*%
X95400000Y-106700000D02*
X95400000Y-105874000D01*
X94765000Y-107335000D02*
X95400000Y-106700000D01*
X73808590Y-107335000D02*
X94765000Y-107335000D01*
X71905000Y-100350000D02*
X71905000Y-105431410D01*
X70508000Y-98953000D02*
X71905000Y-100350000D01*
X71905000Y-105431410D02*
X73808590Y-107335000D01*
X64285000Y-98953000D02*
X70508000Y-98953000D01*
%TO.N,/LED_A*%
X82763000Y-106700000D02*
X83589000Y-105874000D01*
X73810000Y-106700000D02*
X82763000Y-106700000D01*
X72540000Y-105430000D02*
X73810000Y-106700000D01*
X72540000Y-97810000D02*
X72540000Y-105430000D01*
X71143000Y-96413000D02*
X72540000Y-97810000D01*
X64285000Y-96413000D02*
X71143000Y-96413000D01*
%TO.N,/DPX*%
X103175000Y-132735000D02*
X101750000Y-132735000D01*
X101750000Y-132735000D02*
X100734000Y-131719000D01*
X100734000Y-131719000D02*
X100734000Y-124480000D01*
X100734000Y-124480000D02*
X100734000Y-124480000D01*
X96670000Y-126131000D02*
X96924000Y-126385000D01*
X96670000Y-124480000D02*
X96670000Y-126131000D01*
%TO.N,/SEG_G*%
X102004000Y-127909000D02*
X102004000Y-126385000D01*
X102385000Y-128290000D02*
X102004000Y-127909000D01*
X104290000Y-128290000D02*
X102385000Y-128290000D01*
X104925000Y-128925000D02*
X104290000Y-128290000D01*
X104925000Y-133370000D02*
X104925000Y-128925000D01*
X104290000Y-134005000D02*
X104925000Y-133370000D01*
X103175000Y-134005000D02*
X104290000Y-134005000D01*
%TO.N,/SEG_F*%
X105619001Y-134580999D02*
X105619001Y-113744001D01*
X104925000Y-135275000D02*
X105619001Y-134580999D01*
X103175000Y-135275000D02*
X104925000Y-135275000D01*
X105619001Y-113744001D02*
X104925000Y-113050000D01*
X104925000Y-113050000D02*
X97305000Y-113050000D01*
X96924000Y-111145000D02*
X96924000Y-112669000D01*
X96924000Y-112669000D02*
X97305000Y-113050000D01*
%TO.N,/SEG_E*%
X101115000Y-135435000D02*
X101115000Y-134005000D01*
X102225000Y-136545000D02*
X101115000Y-135435000D01*
X103175000Y-136545000D02*
X102225000Y-136545000D01*
X91590000Y-126639000D02*
X91844000Y-126385000D01*
X91590000Y-134005000D02*
X91590000Y-126639000D01*
%TO.N,/SEG_D*%
X103175000Y-137815000D02*
X102225000Y-137815000D01*
X103175000Y-137815000D02*
X101115000Y-137815000D01*
X101115000Y-137815000D02*
X101115000Y-137815000D01*
X96670000Y-137815000D02*
X96670000Y-129560000D01*
X96670000Y-129560000D02*
X96670000Y-129560000D01*
X94384000Y-129179000D02*
X94765000Y-129560000D01*
X94384000Y-126385000D02*
X94384000Y-129179000D01*
%TO.N,/SEG_C*%
X103175000Y-139085000D02*
X100226000Y-139085000D01*
X99464000Y-138323000D02*
X99464000Y-126385000D01*
X100226000Y-139085000D02*
X99464000Y-138323000D01*
%TO.N,/SEG_B*%
X105560000Y-111145000D02*
X104544000Y-111145000D01*
X106195000Y-111780000D02*
X105560000Y-111145000D01*
X106195000Y-139720000D02*
X106195000Y-111780000D01*
X105560000Y-140355000D02*
X106195000Y-139720000D01*
X103175000Y-140355000D02*
X105560000Y-140355000D01*
%TO.N,/SEG_A*%
X94384000Y-112034000D02*
X94384000Y-111145000D01*
X103175000Y-141625000D02*
X99210000Y-141625000D01*
X99210000Y-141625000D02*
X97999001Y-140414001D01*
X97999001Y-140414001D02*
X97999001Y-116284001D01*
X97999001Y-116284001D02*
X97305000Y-115590000D01*
X97305000Y-115590000D02*
X94765000Y-115590000D01*
X94384000Y-115209000D02*
X94384000Y-111145000D01*
X94765000Y-115590000D02*
X94384000Y-115209000D01*
%TO.N,/ENABLE_B*%
X133188009Y-93549991D02*
X133373000Y-93365000D01*
X118895000Y-92095000D02*
X120349990Y-93549990D01*
X120349990Y-93549990D02*
X133188009Y-93549991D01*
X118895000Y-82443000D02*
X118895000Y-92095000D01*
%TO.N,/ENABLE_A*%
X129690000Y-94000000D02*
X130325000Y-94635000D01*
X104925000Y-94000000D02*
X129690000Y-94000000D01*
X130325000Y-94635000D02*
X130325000Y-95270000D01*
X103655000Y-83205000D02*
X103655000Y-92730000D01*
X102893000Y-82443000D02*
X103655000Y-83205000D01*
X130960000Y-95905000D02*
X133373000Y-95905000D01*
X130325000Y-95270000D02*
X130960000Y-95905000D01*
X103655000Y-92730000D02*
X104925000Y-94000000D01*
X81303000Y-82443000D02*
X102893000Y-82443000D01*
%TO.N,/CA4*%
X95273000Y-132735000D02*
X95654000Y-132354000D01*
X93975000Y-132735000D02*
X95273000Y-132735000D01*
X95654000Y-132354000D02*
X95654000Y-123464000D01*
X95654000Y-123464000D02*
X95654000Y-123464000D01*
X104290000Y-126131000D02*
X104544000Y-126385000D01*
X104290000Y-123845000D02*
X104290000Y-126131000D01*
%TO.N,/CA3*%
X93308999Y-127005003D02*
X93308999Y-117681001D01*
X92699990Y-127614012D02*
X93308999Y-127005003D01*
X92699990Y-133679990D02*
X92699990Y-127614012D01*
X93025000Y-134005000D02*
X92699990Y-133679990D01*
X93975000Y-134005000D02*
X93025000Y-134005000D01*
X93308999Y-117681001D02*
X93495000Y-117495000D01*
X93495000Y-117495000D02*
X93495000Y-117495000D01*
%TO.N,/CA2*%
X99464000Y-110129000D02*
X99464000Y-111145000D01*
X93613002Y-109875000D02*
X99210000Y-109875000D01*
X92919001Y-110569001D02*
X93613002Y-109875000D01*
X92919001Y-111720999D02*
X92919001Y-110569001D01*
X92225000Y-112415000D02*
X92919001Y-111720999D01*
X91590000Y-112415000D02*
X92225000Y-112415000D01*
X90768999Y-113236001D02*
X91590000Y-112415000D01*
X90768999Y-134453999D02*
X90768999Y-113236001D01*
X99210000Y-109875000D02*
X99464000Y-110129000D01*
X91590000Y-135275000D02*
X90768999Y-134453999D01*
X93975000Y-135275000D02*
X91590000Y-135275000D01*
%TO.N,/CA1*%
X93975000Y-136545000D02*
X90320000Y-136545000D01*
X90320000Y-136545000D02*
X89685000Y-135910000D01*
X89685000Y-135910000D02*
X89685000Y-111780000D01*
X90320000Y-111145000D02*
X91844000Y-111145000D01*
X89685000Y-111780000D02*
X90320000Y-111145000D01*
%TO.N,/LED_EN_A*%
X64285000Y-91333000D02*
X87907000Y-91333000D01*
X89013000Y-90227000D02*
X89013000Y-84043000D01*
X87907000Y-91333000D02*
X89013000Y-90227000D01*
%TO.N,/LED_EN_B*%
X64285000Y-93873000D02*
X99972000Y-93873000D01*
X101459000Y-92386000D02*
X101459000Y-84043000D01*
X99972000Y-93873000D02*
X101459000Y-92386000D01*
%TO.N,/CLK*%
X130325000Y-107970000D02*
X129055000Y-107970000D01*
X87780000Y-141130000D02*
X87920000Y-140990000D01*
X87780000Y-142895000D02*
X87780000Y-141130000D01*
X87920000Y-140990000D02*
X90955000Y-140990000D01*
X91590000Y-140355000D02*
X93975000Y-140355000D01*
X90955000Y-140990000D02*
X91590000Y-140355000D01*
%TO.N,/DIO*%
X131595000Y-111780000D02*
X129055000Y-111780000D01*
X87780000Y-138945000D02*
X87920000Y-139085000D01*
X87780000Y-135275000D02*
X87780000Y-138945000D01*
X87920000Y-139085000D02*
X93975000Y-139085000D01*
%TD*%
M02*
